%TF.GenerationSoftware,KiCad,Pcbnew,9.0.4*%
%TF.CreationDate,2025-10-21T16:10:30+02:00*%
%TF.ProjectId,Nomad,4e6f6d61-642e-46b6-9963-61645f706362,rev?*%
%TF.SameCoordinates,Original*%
%TF.FileFunction,Copper,L1,Top*%
%TF.FilePolarity,Positive*%
%FSLAX46Y46*%
G04 Gerber Fmt 4.6, Leading zero omitted, Abs format (unit mm)*
G04 Created by KiCad (PCBNEW 9.0.4) date 2025-10-21 16:10:30*
%MOMM*%
%LPD*%
G01*
G04 APERTURE LIST*
G04 Aperture macros list*
%AMRoundRect*
0 Rectangle with rounded corners*
0 $1 Rounding radius*
0 $2 $3 $4 $5 $6 $7 $8 $9 X,Y pos of 4 corners*
0 Add a 4 corners polygon primitive as box body*
4,1,4,$2,$3,$4,$5,$6,$7,$8,$9,$2,$3,0*
0 Add four circle primitives for the rounded corners*
1,1,$1+$1,$2,$3*
1,1,$1+$1,$4,$5*
1,1,$1+$1,$6,$7*
1,1,$1+$1,$8,$9*
0 Add four rect primitives between the rounded corners*
20,1,$1+$1,$2,$3,$4,$5,0*
20,1,$1+$1,$4,$5,$6,$7,0*
20,1,$1+$1,$6,$7,$8,$9,0*
20,1,$1+$1,$8,$9,$2,$3,0*%
%AMFreePoly0*
4,1,6,1.000000,0.000000,0.500000,-0.750000,-0.500000,-0.750000,-0.500000,0.750000,0.500000,0.750000,1.000000,0.000000,1.000000,0.000000,$1*%
%AMFreePoly1*
4,1,6,0.500000,-0.750000,-0.650000,-0.750000,-0.150000,0.000000,-0.650000,0.750000,0.500000,0.750000,0.500000,-0.750000,0.500000,-0.750000,$1*%
G04 Aperture macros list end*
%TA.AperFunction,SMDPad,CuDef*%
%ADD10R,0.609600X0.381000*%
%TD*%
%TA.AperFunction,SMDPad,CuDef*%
%ADD11RoundRect,0.237500X0.237500X-0.300000X0.237500X0.300000X-0.237500X0.300000X-0.237500X-0.300000X0*%
%TD*%
%TA.AperFunction,SMDPad,CuDef*%
%ADD12RoundRect,0.237500X-0.237500X0.300000X-0.237500X-0.300000X0.237500X-0.300000X0.237500X0.300000X0*%
%TD*%
%TA.AperFunction,ComponentPad*%
%ADD13RoundRect,0.250000X0.750000X-0.600000X0.750000X0.600000X-0.750000X0.600000X-0.750000X-0.600000X0*%
%TD*%
%TA.AperFunction,ComponentPad*%
%ADD14O,2.000000X1.700000*%
%TD*%
%TA.AperFunction,ComponentPad*%
%ADD15R,1.530000X1.530000*%
%TD*%
%TA.AperFunction,ComponentPad*%
%ADD16C,1.530000*%
%TD*%
%TA.AperFunction,SMDPad,CuDef*%
%ADD17RoundRect,0.237500X0.287500X0.237500X-0.287500X0.237500X-0.287500X-0.237500X0.287500X-0.237500X0*%
%TD*%
%TA.AperFunction,ComponentPad*%
%ADD18C,5.600000*%
%TD*%
%TA.AperFunction,SMDPad,CuDef*%
%ADD19RoundRect,0.237500X-0.300000X-0.237500X0.300000X-0.237500X0.300000X0.237500X-0.300000X0.237500X0*%
%TD*%
%TA.AperFunction,SMDPad,CuDef*%
%ADD20RoundRect,0.100000X0.850000X0.100000X-0.850000X0.100000X-0.850000X-0.100000X0.850000X-0.100000X0*%
%TD*%
%TA.AperFunction,SMDPad,CuDef*%
%ADD21RoundRect,0.237500X-0.250000X-0.237500X0.250000X-0.237500X0.250000X0.237500X-0.250000X0.237500X0*%
%TD*%
%TA.AperFunction,SMDPad,CuDef*%
%ADD22RoundRect,0.150000X-0.150000X0.825000X-0.150000X-0.825000X0.150000X-0.825000X0.150000X0.825000X0*%
%TD*%
%TA.AperFunction,SMDPad,CuDef*%
%ADD23RoundRect,0.250000X-0.275000X-0.350000X0.275000X-0.350000X0.275000X0.350000X-0.275000X0.350000X0*%
%TD*%
%TA.AperFunction,SMDPad,CuDef*%
%ADD24RoundRect,0.250000X1.000000X-1.400000X1.000000X1.400000X-1.000000X1.400000X-1.000000X-1.400000X0*%
%TD*%
%TA.AperFunction,ComponentPad*%
%ADD25R,1.000000X1.000000*%
%TD*%
%TA.AperFunction,ComponentPad*%
%ADD26C,1.000000*%
%TD*%
%TA.AperFunction,SMDPad,CuDef*%
%ADD27RoundRect,0.237500X0.250000X0.237500X-0.250000X0.237500X-0.250000X-0.237500X0.250000X-0.237500X0*%
%TD*%
%TA.AperFunction,SMDPad,CuDef*%
%ADD28RoundRect,0.237500X0.300000X0.237500X-0.300000X0.237500X-0.300000X-0.237500X0.300000X-0.237500X0*%
%TD*%
%TA.AperFunction,SMDPad,CuDef*%
%ADD29RoundRect,0.140000X0.170000X-0.140000X0.170000X0.140000X-0.170000X0.140000X-0.170000X-0.140000X0*%
%TD*%
%TA.AperFunction,SMDPad,CuDef*%
%ADD30R,0.584200X0.254000*%
%TD*%
%TA.AperFunction,SMDPad,CuDef*%
%ADD31R,0.254000X0.799702*%
%TD*%
%TA.AperFunction,SMDPad,CuDef*%
%ADD32R,0.990600X0.203200*%
%TD*%
%TA.AperFunction,SMDPad,CuDef*%
%ADD33R,0.609600X0.203200*%
%TD*%
%TA.AperFunction,SMDPad,CuDef*%
%ADD34R,0.711200X0.254000*%
%TD*%
%TA.AperFunction,SMDPad,CuDef*%
%ADD35R,0.254002X0.622288*%
%TD*%
%TA.AperFunction,SMDPad,CuDef*%
%ADD36R,0.203200X0.990600*%
%TD*%
%TA.AperFunction,SMDPad,CuDef*%
%ADD37R,0.256212X0.614897*%
%TD*%
%TA.AperFunction,SMDPad,CuDef*%
%ADD38R,0.609600X0.254000*%
%TD*%
%TA.AperFunction,SMDPad,CuDef*%
%ADD39R,0.711200X0.203200*%
%TD*%
%TA.AperFunction,SMDPad,CuDef*%
%ADD40R,0.660400X0.203200*%
%TD*%
%TA.AperFunction,SMDPad,CuDef*%
%ADD41R,0.254000X0.609600*%
%TD*%
%TA.AperFunction,SMDPad,CuDef*%
%ADD42R,0.203200X0.609600*%
%TD*%
%TA.AperFunction,SMDPad,CuDef*%
%ADD43R,0.203200X0.914400*%
%TD*%
%TA.AperFunction,SMDPad,CuDef*%
%ADD44FreePoly0,180.000000*%
%TD*%
%TA.AperFunction,SMDPad,CuDef*%
%ADD45FreePoly1,180.000000*%
%TD*%
%TA.AperFunction,SMDPad,CuDef*%
%ADD46RoundRect,0.250000X-0.350000X0.275000X-0.350000X-0.275000X0.350000X-0.275000X0.350000X0.275000X0*%
%TD*%
%TA.AperFunction,SMDPad,CuDef*%
%ADD47RoundRect,0.140000X-0.140000X-0.170000X0.140000X-0.170000X0.140000X0.170000X-0.140000X0.170000X0*%
%TD*%
%TA.AperFunction,SMDPad,CuDef*%
%ADD48RoundRect,0.250000X-0.250000X-0.475000X0.250000X-0.475000X0.250000X0.475000X-0.250000X0.475000X0*%
%TD*%
%TA.AperFunction,SMDPad,CuDef*%
%ADD49RoundRect,0.250000X0.475000X-0.250000X0.475000X0.250000X-0.475000X0.250000X-0.475000X-0.250000X0*%
%TD*%
%TA.AperFunction,ComponentPad*%
%ADD50R,2.600000X2.600000*%
%TD*%
%TA.AperFunction,ComponentPad*%
%ADD51C,2.600000*%
%TD*%
%TA.AperFunction,ViaPad*%
%ADD52C,0.600000*%
%TD*%
%TA.AperFunction,Conductor*%
%ADD53C,0.200000*%
%TD*%
%TA.AperFunction,Conductor*%
%ADD54C,0.400000*%
%TD*%
%TA.AperFunction,Conductor*%
%ADD55C,0.150000*%
%TD*%
%TA.AperFunction,Conductor*%
%ADD56C,1.000000*%
%TD*%
%TA.AperFunction,Conductor*%
%ADD57C,0.500000*%
%TD*%
%TA.AperFunction,Conductor*%
%ADD58C,0.300000*%
%TD*%
%TA.AperFunction,Conductor*%
%ADD59C,0.700000*%
%TD*%
G04 APERTURE END LIST*
D10*
%TO.P,U2,1,VIN*%
%TO.N,5V*%
X122081250Y-55018750D03*
%TO.P,U2,2,GND*%
%TO.N,GND*%
X122081250Y-54078950D03*
%TO.P,U2,3,STBY*%
%TO.N,5V*%
X122081250Y-53139150D03*
%TO.P,U2,4,N.C.*%
%TO.N,unconnected-(U2-N.C.-Pad4)*%
X119592050Y-53126450D03*
%TO.P,U2,5,VOUT*%
%TO.N,1.8V*%
X119592050Y-55031450D03*
%TD*%
D11*
%TO.P,C22,1*%
%TO.N,Net-(U5-VBAT1S)*%
X115300000Y-42400000D03*
%TO.P,C22,2*%
%TO.N,GND*%
X115300000Y-40674998D03*
%TD*%
%TO.P,C17,1*%
%TO.N,/VSNS_P*%
X128750000Y-52225001D03*
%TO.P,C17,2*%
%TO.N,GND*%
X128750000Y-50499999D03*
%TD*%
D12*
%TO.P,C18,1*%
%TO.N,/VSNS_N*%
X128750000Y-46637499D03*
%TO.P,C18,2*%
%TO.N,GND*%
X128750000Y-48362501D03*
%TD*%
D13*
%TO.P,LS1,1,1*%
%TO.N,/VSNS_P*%
X136750000Y-50500000D03*
D14*
%TO.P,LS1,2,2*%
%TO.N,/VSNS_N*%
X136750000Y-48000000D03*
%TD*%
D15*
%TO.P,U6,J1_1,3V3*%
%TO.N,3.3V*%
X102360000Y-104340000D03*
D16*
%TO.P,U6,J1_2,3V3*%
X102360001Y-101800000D03*
%TO.P,U6,J1_3,RST*%
%TO.N,unconnected-(U6-RST-PadJ1_3)*%
X102360000Y-99260000D03*
%TO.P,U6,J1_4,GPIO4*%
%TO.N,AIN1*%
X102360000Y-96720000D03*
%TO.P,U6,J1_5,GPIO5*%
%TO.N,AIN2*%
X102360000Y-94180000D03*
%TO.P,U6,J1_6,GPIO6*%
%TO.N,BIN1*%
X102360000Y-91640001D03*
%TO.P,U6,J1_7,GPIO7*%
%TO.N,BIN2*%
X102360000Y-89099999D03*
%TO.P,U6,J1_8,GPIO15*%
%TO.N,FSYNC*%
X102360000Y-86560000D03*
%TO.P,U6,J1_9,GPIO16*%
%TO.N,STBY*%
X102360000Y-84020000D03*
%TO.P,U6,J1_10,GPIO17*%
%TO.N,SDZ*%
X102360000Y-81480000D03*
%TO.P,U6,J1_11,GPIO18*%
%TO.N,IRQZ*%
X102360000Y-78939999D03*
%TO.P,U6,J1_12,GPIO8*%
%TO.N,PWMA*%
X102360000Y-76400000D03*
%TO.P,U6,J1_13,GPIO3*%
%TO.N,Echo_cap_2*%
X102360000Y-73860000D03*
%TO.P,U6,J1_14,GPIO46*%
%TO.N,unconnected-(U6-GPIO46-PadJ1_14)*%
X102360000Y-71320000D03*
%TO.P,U6,J1_15,GPIO9*%
%TO.N,PWMB*%
X102360000Y-68780001D03*
%TO.P,U6,J1_16,GPIO10*%
%TO.N,SDA*%
X102360000Y-66239999D03*
%TO.P,U6,J1_17,GPIO11*%
%TO.N,SCL*%
X102360000Y-63700000D03*
%TO.P,U6,J1_18,GPIO12*%
%TO.N,SDOUT*%
X102360000Y-61160000D03*
%TO.P,U6,J1_19,GPIO13*%
%TO.N,SDIN*%
X102360000Y-58620000D03*
%TO.P,U6,J1_20,GPIO14*%
%TO.N,SBCLK*%
X102360000Y-56079999D03*
%TO.P,U6,J1_21,5V0*%
%TO.N,5V*%
X102360000Y-53540000D03*
%TO.P,U6,J1_22,GND*%
%TO.N,GND*%
X102360000Y-51000000D03*
%TO.P,U6,J3_1,GND*%
X79500000Y-104340000D03*
%TO.P,U6,J3_2,U0TXD/GPIO43*%
%TO.N,unconnected-(U6-U0TXD{slash}GPIO43-PadJ3_2)*%
X79499999Y-101800000D03*
%TO.P,U6,J3_3,U0RXD/GPIO44*%
%TO.N,unconnected-(U6-U0RXD{slash}GPIO44-PadJ3_3)*%
X79500000Y-99260000D03*
%TO.P,U6,J3_4,GPIO1*%
%TO.N,Echo_cap_1*%
X79500000Y-96720000D03*
%TO.P,U6,J3_5,GPIO2*%
%TO.N,Trig_cap_2*%
X79500000Y-94180000D03*
%TO.P,U6,J3_6,MTMS/GPIO42*%
%TO.N,unconnected-(U6-MTMS{slash}GPIO42-PadJ3_6)*%
X79500000Y-91640001D03*
%TO.P,U6,J3_7,MTDI/GPIO41*%
%TO.N,unconnected-(U6-MTDI{slash}GPIO41-PadJ3_7)*%
X79500000Y-89099999D03*
%TO.P,U6,J3_8,MTDO/GPIO40*%
%TO.N,unconnected-(U6-MTDO{slash}GPIO40-PadJ3_8)*%
X79500000Y-86560000D03*
%TO.P,U6,J3_9,MTCK/GPIO39*%
%TO.N,unconnected-(U6-MTCK{slash}GPIO39-PadJ3_9)*%
X79500000Y-84020000D03*
%TO.P,U6,J3_10,GPIO38*%
%TO.N,unconnected-(U6-GPIO38-PadJ3_10)*%
X79500000Y-81480000D03*
%TO.P,U6,J3_11,GPIO37*%
%TO.N,unconnected-(U6-GPIO37-PadJ3_11)*%
X79500000Y-78939999D03*
%TO.P,U6,J3_12,GPIO36*%
%TO.N,unconnected-(U6-GPIO36-PadJ3_12)*%
X79500000Y-76400000D03*
%TO.P,U6,J3_13,GPIO35*%
%TO.N,unconnected-(U6-GPIO35-PadJ3_13)*%
X79500000Y-73860000D03*
%TO.P,U6,J3_14,GPIO0*%
%TO.N,Trig_cap_1*%
X79500000Y-71320000D03*
%TO.P,U6,J3_15,GPIO45*%
%TO.N,unconnected-(U6-GPIO45-PadJ3_15)*%
X79500000Y-68780001D03*
%TO.P,U6,J3_16,GPIO48*%
%TO.N,unconnected-(U6-GPIO48-PadJ3_16)*%
X79500000Y-66239999D03*
%TO.P,U6,J3_17,GPIO47*%
%TO.N,unconnected-(U6-GPIO47-PadJ3_17)*%
X79500000Y-63700000D03*
%TO.P,U6,J3_18,GPIO21*%
%TO.N,unconnected-(U6-GPIO21-PadJ3_18)*%
X79500000Y-61160000D03*
%TO.P,U6,J3_19,USB_D+/GPIO20*%
%TO.N,unconnected-(U6-USB_D+{slash}GPIO20-PadJ3_19)*%
X79500000Y-58620000D03*
%TO.P,U6,J3_20,USB_D-/GPIO19*%
%TO.N,unconnected-(U6-USB_D-{slash}GPIO19-PadJ3_20)*%
X79500000Y-56079999D03*
%TO.P,U6,J3_21,GND*%
%TO.N,GND*%
X79500000Y-53540000D03*
%TO.P,U6,J3_22,GND*%
X79500000Y-51000000D03*
%TD*%
D17*
%TO.P,D5,1,K*%
%TO.N,GND*%
X137549998Y-82350000D03*
%TO.P,D5,2,A*%
%TO.N,Net-(D5-A)*%
X135800000Y-82350000D03*
%TD*%
D18*
%TO.P,H1,1,1*%
%TO.N,GND*%
X136000000Y-41000000D03*
%TD*%
D11*
%TO.P,C20,1*%
%TO.N,Net-(C20-Pad1)*%
X130249999Y-52000001D03*
%TO.P,C20,2*%
%TO.N,GND*%
X130249999Y-50274999D03*
%TD*%
D19*
%TO.P,C11,1*%
%TO.N,Net-(U5-BST_P)*%
X108634307Y-48020200D03*
%TO.P,C11,2*%
%TO.N,/OUT_P*%
X110359309Y-48020200D03*
%TD*%
D20*
%TO.P,Driver1,1,AO1*%
%TO.N,AO1*%
X124300000Y-92425000D03*
%TO.P,Driver1,2,AO1*%
X124300000Y-91775000D03*
%TO.P,Driver1,3,PGND1*%
%TO.N,GND*%
X124300000Y-91125000D03*
%TO.P,Driver1,4,PGND1*%
X124300000Y-90475000D03*
%TO.P,Driver1,5,AO2*%
%TO.N,AO2*%
X124300000Y-89825000D03*
%TO.P,Driver1,6,AO2*%
X124300000Y-89175000D03*
%TO.P,Driver1,7,BO2*%
%TO.N,BO2*%
X124300000Y-88525000D03*
%TO.P,Driver1,8,BO2*%
X124300000Y-87875000D03*
%TO.P,Driver1,9,PGND2*%
%TO.N,GND*%
X124300000Y-87225000D03*
%TO.P,Driver1,10,PGND2*%
X124300000Y-86575000D03*
%TO.P,Driver1,11,BO1*%
%TO.N,BO1*%
X124300000Y-85925000D03*
%TO.P,Driver1,12,BO1*%
X124300000Y-85275000D03*
%TO.P,Driver1,13,VM2*%
%TO.N,12V*%
X117300000Y-85275000D03*
%TO.P,Driver1,14,VM3*%
X117300000Y-85925000D03*
%TO.P,Driver1,15,PWMB*%
%TO.N,PWMB*%
X117300000Y-86575000D03*
%TO.P,Driver1,16,BIN2*%
%TO.N,BIN2*%
X117300000Y-87225000D03*
%TO.P,Driver1,17,BIN1*%
%TO.N,BIN1*%
X117300000Y-87875000D03*
%TO.P,Driver1,18,GND*%
%TO.N,GND*%
X117300000Y-88525000D03*
%TO.P,Driver1,19,STBY*%
%TO.N,STBY*%
X117300000Y-89175000D03*
%TO.P,Driver1,20,VCC*%
%TO.N,3.3V*%
X117300000Y-89825000D03*
%TO.P,Driver1,21,AIN1*%
%TO.N,AIN1*%
X117300000Y-90475000D03*
%TO.P,Driver1,22,AIN2*%
%TO.N,AIN2*%
X117300000Y-91125000D03*
%TO.P,Driver1,23,PWMA*%
%TO.N,PWMA*%
X117300000Y-91775000D03*
%TO.P,Driver1,24,VM1*%
%TO.N,12V*%
X117300000Y-92425000D03*
%TD*%
D21*
%TO.P,R6,1*%
%TO.N,Net-(C20-Pad1)*%
X131837500Y-50500000D03*
%TO.P,R6,2*%
%TO.N,/VSNS_P*%
X133662500Y-50500000D03*
%TD*%
D11*
%TO.P,C1,1*%
%TO.N,12V*%
X124712500Y-69162501D03*
%TO.P,C1,2*%
%TO.N,GND*%
X124712500Y-67437499D03*
%TD*%
D12*
%TO.P,C7,1*%
%TO.N,5V*%
X111015000Y-72124999D03*
%TO.P,C7,2*%
%TO.N,GND*%
X111015000Y-73850001D03*
%TD*%
%TO.P,C3,1*%
%TO.N,12V*%
X118735000Y-71362499D03*
%TO.P,C3,2*%
%TO.N,GND*%
X118735000Y-73087501D03*
%TD*%
D18*
%TO.P,H2,1,1*%
%TO.N,GND*%
X136000000Y-103000000D03*
%TD*%
D19*
%TO.P,C12,1*%
%TO.N,Net-(U5-BST_N)*%
X110137499Y-44200000D03*
%TO.P,C12,2*%
%TO.N,/OUT_N*%
X111862501Y-44200000D03*
%TD*%
D11*
%TO.P,C2,1*%
%TO.N,12V*%
X121712500Y-69162501D03*
%TO.P,C2,2*%
%TO.N,GND*%
X121712500Y-67437499D03*
%TD*%
D17*
%TO.P,D3,1,K*%
%TO.N,GND*%
X137549998Y-77350000D03*
%TO.P,D3,2,A*%
%TO.N,Net-(D3-A)*%
X135800000Y-77350000D03*
%TD*%
D22*
%TO.P,U4,1,VIN*%
%TO.N,12V*%
X117055000Y-69687501D03*
%TO.P,U4,2,OUT*%
%TO.N,Net-(D2-K)*%
X115785000Y-69687501D03*
%TO.P,U4,3,FB*%
%TO.N,5V*%
X114515000Y-69687501D03*
%TO.P,U4,4,~{EN}*%
%TO.N,GND*%
X113245000Y-69687501D03*
%TO.P,U4,5,GND*%
X113245000Y-74637501D03*
%TO.P,U4,6,GND*%
X114515000Y-74637501D03*
%TO.P,U4,7,GND*%
X115785000Y-74637501D03*
%TO.P,U4,8,GND*%
X117055000Y-74637501D03*
%TD*%
D10*
%TO.P,U3,1,VIN*%
%TO.N,5V*%
X123350000Y-62960200D03*
%TO.P,U3,2,GND*%
%TO.N,GND*%
X123350000Y-63900000D03*
%TO.P,U3,3,STBY*%
%TO.N,5V*%
X123350000Y-64839800D03*
%TO.P,U3,4,N.C.*%
%TO.N,unconnected-(U3-N.C.-Pad4)*%
X125839200Y-64852500D03*
%TO.P,U3,5,VOUT*%
%TO.N,3.3V*%
X125839200Y-62947500D03*
%TD*%
D11*
%TO.P,C25,1*%
%TO.N,12V*%
X113800000Y-42400000D03*
%TO.P,C25,2*%
%TO.N,GND*%
X113800000Y-40674998D03*
%TD*%
D23*
%TO.P,L3,1*%
%TO.N,/OUT_N*%
X125100000Y-44500000D03*
%TO.P,L3,2*%
%TO.N,/VSNS_N*%
X127400000Y-44500000D03*
%TD*%
D11*
%TO.P,C14,1*%
%TO.N,GND*%
X127250000Y-47862501D03*
%TO.P,C14,2*%
%TO.N,/VSNS_N*%
X127250000Y-46137499D03*
%TD*%
D24*
%TO.P,D2,1,K*%
%TO.N,Net-(D2-K)*%
X112350000Y-63200000D03*
%TO.P,D2,2,A*%
%TO.N,GND*%
X119150000Y-63200000D03*
%TD*%
D25*
%TO.P,J3,1,Pin_1*%
%TO.N,5V*%
X76225000Y-70160000D03*
D26*
%TO.P,J3,2,Pin_2*%
%TO.N,Trig_cap_1*%
X76225000Y-71430001D03*
%TO.P,J3,3,Pin_3*%
%TO.N,Echo_cap_1*%
X76225000Y-72700000D03*
%TO.P,J3,4,Pin_4*%
%TO.N,GND*%
X76225000Y-73970000D03*
%TD*%
D19*
%TO.P,C16,1*%
%TO.N,1.8V*%
X118634308Y-46520200D03*
%TO.P,C16,2*%
%TO.N,GND*%
X120359308Y-46520200D03*
%TD*%
%TO.P,C19,1*%
%TO.N,1.8V*%
X118634307Y-48020200D03*
%TO.P,C19,2*%
%TO.N,GND*%
X120359309Y-48020200D03*
%TD*%
D27*
%TO.P,R3,1*%
%TO.N,Net-(U5-VSNSP)*%
X110409308Y-49600000D03*
%TO.P,R3,2*%
%TO.N,/VSNS_P*%
X108584308Y-49600000D03*
%TD*%
D28*
%TO.P,C10,1*%
%TO.N,Net-(U5-DREG)*%
X113062501Y-51520200D03*
%TO.P,C10,2*%
%TO.N,GND*%
X111337499Y-51520200D03*
%TD*%
D21*
%TO.P,R5,1*%
%TO.N,1.8V*%
X132262499Y-82350000D03*
%TO.P,R5,2*%
%TO.N,Net-(D5-A)*%
X134087499Y-82350000D03*
%TD*%
D18*
%TO.P,H3,1,1*%
%TO.N,GND*%
X76000000Y-41000000D03*
%TD*%
D25*
%TO.P,J2,1,Pin_1*%
%TO.N,5V*%
X76175000Y-82210000D03*
D26*
%TO.P,J2,2,Pin_2*%
%TO.N,Trig_cap_2*%
X76175000Y-80939999D03*
%TO.P,J2,3,Pin_3*%
%TO.N,Echo_cap_2*%
X76175000Y-79670000D03*
%TO.P,J2,4,Pin_4*%
%TO.N,GND*%
X76175000Y-78400000D03*
%TD*%
D25*
%TO.P,J5,1,Pin_1*%
%TO.N,AO2*%
X136800000Y-92400000D03*
D26*
%TO.P,J5,2,Pin_2*%
%TO.N,AO1*%
X136800000Y-93670001D03*
%TD*%
D21*
%TO.P,R1,1*%
%TO.N,12V*%
X132262499Y-77350000D03*
%TO.P,R1,2*%
%TO.N,Net-(D3-A)*%
X134087499Y-77350000D03*
%TD*%
D11*
%TO.P,C24,1*%
%TO.N,12V*%
X112300000Y-42400000D03*
%TO.P,C24,2*%
%TO.N,GND*%
X112300000Y-40674998D03*
%TD*%
D29*
%TO.P,C26,1*%
%TO.N,3.3V*%
X113181250Y-89509999D03*
%TO.P,C26,2*%
%TO.N,GND*%
X113181250Y-88549999D03*
%TD*%
D23*
%TO.P,L2,1*%
%TO.N,/OUT_P*%
X125100000Y-54500000D03*
%TO.P,L2,2*%
%TO.N,/VSNS_P*%
X127400000Y-54500000D03*
%TD*%
D11*
%TO.P,C5,1*%
%TO.N,5V*%
X123594600Y-61400000D03*
%TO.P,C5,2*%
%TO.N,GND*%
X123594600Y-59674998D03*
%TD*%
D25*
%TO.P,J4,1,Pin_1*%
%TO.N,BO2*%
X136800000Y-90035000D03*
D26*
%TO.P,J4,2,Pin_2*%
%TO.N,BO1*%
X136800000Y-88764999D03*
%TD*%
D19*
%TO.P,C15,1*%
%TO.N,Net-(U5-PVDD_SNS)*%
X117278190Y-43975000D03*
%TO.P,C15,2*%
%TO.N,GND*%
X119003192Y-43975000D03*
%TD*%
D27*
%TO.P,R8,1*%
%TO.N,Net-(U5-PVDD_SNS)*%
X115712500Y-44037499D03*
%TO.P,R8,2*%
%TO.N,12V*%
X113887500Y-44037499D03*
%TD*%
D30*
%TO.P,U5,1,VSNSN*%
%TO.N,Net-(U5-VSNSN)*%
X112846798Y-46475801D03*
D31*
X113096808Y-46202953D03*
D32*
%TO.P,U5,2,PGND*%
%TO.N,GND*%
X113050000Y-46900000D03*
%TO.P,U5,3,OUTP*%
%TO.N,/OUT_P*%
X113050000Y-47299999D03*
D33*
%TO.P,U5,4,BST_P*%
%TO.N,Net-(U5-BST_P)*%
X112846799Y-47700002D03*
%TO.P,U5,5,VSNSP*%
%TO.N,Net-(U5-VSNSP)*%
X112846799Y-48100001D03*
%TO.P,U5,6,ICC*%
%TO.N,unconnected-(U5-ICC-Pad6)*%
X112846799Y-48500000D03*
%TO.P,U5,7,GND*%
%TO.N,GND*%
X112846799Y-48900001D03*
%TO.P,U5,8,NC*%
%TO.N,unconnected-(U5-NC-Pad8)*%
X112846799Y-49300000D03*
D34*
%TO.P,U5,9,NC*%
%TO.N,unconnected-(U5-NC-Pad9)_1*%
X112897599Y-49725007D03*
D35*
%TO.N,unconnected-(U5-NC-Pad9)*%
X113126198Y-49909151D03*
D36*
%TO.P,U5,10,DREG*%
%TO.N,Net-(U5-DREG)*%
X113546807Y-49725000D03*
%TO.P,U5,11,BYP_EN*%
%TO.N,unconnected-(U5-BYP_EN-Pad11)*%
X113946809Y-49725001D03*
%TO.P,U5,12,SDOUT*%
%TO.N,SDOUT*%
X114346808Y-49725001D03*
%TO.P,U5,13,SDIN*%
%TO.N,SDIN*%
X114746807Y-49725001D03*
%TO.P,U5,14,FSYNC*%
%TO.N,FSYNC*%
X115146806Y-49725001D03*
%TO.P,U5,15,SBCLK*%
%TO.N,SBCLK*%
X115546808Y-49725001D03*
D37*
%TO.P,U5,16,NC*%
%TO.N,unconnected-(U5-NC-Pad16)*%
X115967914Y-49912848D03*
D38*
%TO.N,unconnected-(U5-NC-Pad16)_1*%
X116146817Y-49725007D03*
D33*
%TO.P,U5,17,NC*%
%TO.N,unconnected-(U5-NC-Pad17)*%
X116146817Y-49300000D03*
D39*
%TO.P,U5,18,SCL*%
%TO.N,SCL*%
X116096017Y-48900001D03*
D40*
%TO.P,U5,19,SDA*%
%TO.N,SDA*%
X116121417Y-48499999D03*
D33*
%TO.P,U5,20,IOVDD*%
%TO.N,1.8V*%
X116146817Y-48100001D03*
%TO.P,U5,21,IRQZ*%
%TO.N,IRQZ*%
X116146817Y-47700002D03*
%TO.P,U5,22,SDZ*%
%TO.N,SDZ*%
X116146818Y-47299999D03*
%TO.P,U5,23,ADDR*%
%TO.N,GND*%
X116146818Y-46900000D03*
D41*
%TO.P,U5,24,AVDD*%
%TO.N,1.8V*%
X115971808Y-46120200D03*
D38*
X116146808Y-46470200D03*
D42*
%TO.P,U5,25,GND*%
%TO.N,GND*%
X115546808Y-46120200D03*
%TO.P,U5,26,PVDD_SNS*%
%TO.N,Net-(U5-PVDD_SNS)*%
X115146806Y-46120200D03*
D36*
%TO.P,U5,27,VBAT1S*%
%TO.N,Net-(U5-VBAT1S)*%
X114746807Y-46310700D03*
%TO.P,U5,28,PVDD*%
%TO.N,12V*%
X114346808Y-46310700D03*
D43*
%TO.P,U5,29,OUTN*%
%TO.N,/OUT_N*%
X113946809Y-46272600D03*
D42*
%TO.P,U5,30,BST_N*%
%TO.N,Net-(U5-BST_N)*%
X113546807Y-46120200D03*
%TD*%
D19*
%TO.P,C4,1*%
%TO.N,5V*%
X121718749Y-56639150D03*
%TO.P,C4,2*%
%TO.N,GND*%
X123443751Y-56639150D03*
%TD*%
D44*
%TO.P,JP2,1,A*%
%TO.N,Net-(D1-K)*%
X124650000Y-72050000D03*
D45*
%TO.P,JP2,2,B*%
%TO.N,12V*%
X123200002Y-72050000D03*
%TD*%
D11*
%TO.P,C9,1*%
%TO.N,3.3V*%
X125594600Y-61400000D03*
%TO.P,C9,2*%
%TO.N,GND*%
X125594600Y-59674998D03*
%TD*%
D46*
%TO.P,L1,1*%
%TO.N,Net-(D2-K)*%
X111015000Y-67837501D03*
%TO.P,L1,2*%
%TO.N,5V*%
X111015000Y-70137501D03*
%TD*%
D47*
%TO.P,C28,1*%
%TO.N,12V*%
X120170000Y-81700000D03*
%TO.P,C28,2*%
%TO.N,GND*%
X121130000Y-81700000D03*
%TD*%
D12*
%TO.P,C6,1*%
%TO.N,12V*%
X120400000Y-71337499D03*
%TO.P,C6,2*%
%TO.N,GND*%
X120400000Y-73062501D03*
%TD*%
D21*
%TO.P,R2,1*%
%TO.N,/VSNS_N*%
X108584308Y-46520200D03*
%TO.P,R2,2*%
%TO.N,Net-(U5-VSNSN)*%
X110409308Y-46520200D03*
%TD*%
D28*
%TO.P,C8,1*%
%TO.N,1.8V*%
X120312501Y-51650000D03*
%TO.P,C8,2*%
%TO.N,GND*%
X118587499Y-51650000D03*
%TD*%
D21*
%TO.P,R4,1*%
%TO.N,3.3V*%
X132262499Y-79850000D03*
%TO.P,R4,2*%
%TO.N,Net-(D4-A)*%
X134087499Y-79850000D03*
%TD*%
D12*
%TO.P,C13,1*%
%TO.N,GND*%
X127250000Y-51137499D03*
%TO.P,C13,2*%
%TO.N,/VSNS_P*%
X127250000Y-52862501D03*
%TD*%
D48*
%TO.P,C29,1*%
%TO.N,12V*%
X119850000Y-83400000D03*
%TO.P,C29,2*%
%TO.N,GND*%
X121750000Y-83400000D03*
%TD*%
D24*
%TO.P,D1,1,K*%
%TO.N,Net-(D1-K)*%
X127775001Y-72200000D03*
%TO.P,D1,2,A*%
%TO.N,Net-(D1-A)*%
X134575001Y-72200000D03*
%TD*%
D12*
%TO.P,C21,1*%
%TO.N,Net-(C21-Pad1)*%
X130250000Y-46774998D03*
%TO.P,C21,2*%
%TO.N,GND*%
X130250000Y-48500000D03*
%TD*%
D49*
%TO.P,C27,1*%
%TO.N,3.3V*%
X114800000Y-90600000D03*
%TO.P,C27,2*%
%TO.N,GND*%
X114800000Y-88700002D03*
%TD*%
D21*
%TO.P,R7,1*%
%TO.N,Net-(C21-Pad1)*%
X131837500Y-48000000D03*
%TO.P,R7,2*%
%TO.N,/VSNS_N*%
X133662500Y-48000000D03*
%TD*%
D17*
%TO.P,D4,1,K*%
%TO.N,GND*%
X137549998Y-79850000D03*
%TO.P,D4,2,A*%
%TO.N,Net-(D4-A)*%
X135800000Y-79850000D03*
%TD*%
D50*
%TO.P,J1,1*%
%TO.N,Net-(D1-A)*%
X129550000Y-62900000D03*
D51*
%TO.P,J1,2*%
%TO.N,GND*%
X135550000Y-62900000D03*
%TO.P,J1,3*%
%TO.N,N/C*%
X132550000Y-58200000D03*
%TD*%
D11*
%TO.P,C23,1*%
%TO.N,Net-(U5-VBAT1S)*%
X116800000Y-42400000D03*
%TO.P,C23,2*%
%TO.N,GND*%
X116800000Y-40674998D03*
%TD*%
D52*
%TO.N,GND*%
X94535534Y-40535534D03*
X91000000Y-58213203D03*
X98071068Y-51142136D03*
X87464466Y-54677670D03*
X101606602Y-47606602D03*
X83928932Y-44071068D03*
X87464466Y-47606602D03*
X94535534Y-47606602D03*
X83928932Y-51142136D03*
X91000000Y-44071068D03*
X98071068Y-44071068D03*
X80393398Y-47606602D03*
X94535534Y-54677670D03*
X87464466Y-40535534D03*
X91000000Y-51142136D03*
%TO.N,IRQZ*%
X115079991Y-48729699D03*
%TO.N,12V*%
X111000000Y-42000000D03*
X120400000Y-69200000D03*
X128800000Y-79000000D03*
X120200000Y-80600000D03*
%TO.N,GND*%
X97500000Y-87500000D03*
X87500000Y-82500000D03*
X123736650Y-57878950D03*
X119900000Y-44000000D03*
X97500000Y-97500000D03*
X129500000Y-48500000D03*
X111230707Y-47228699D03*
X118600000Y-50550000D03*
X121200000Y-74637501D03*
X110800000Y-50700000D03*
X128051841Y-51051841D03*
X92500000Y-87500000D03*
X123450999Y-80635001D03*
X137543749Y-83550000D03*
X112431250Y-88512500D03*
X121200000Y-45700000D03*
X112215000Y-74637502D03*
X112203192Y-39417299D03*
X87500000Y-87500000D03*
X97500000Y-92500000D03*
X82500000Y-87500000D03*
X116800000Y-39400000D03*
X121000000Y-63200000D03*
X126794600Y-59360201D03*
X116400000Y-76000000D03*
X82500000Y-97500000D03*
X114000000Y-76000000D03*
X92500000Y-82500000D03*
X87500000Y-92500000D03*
X128000000Y-47862501D03*
X82500000Y-92500000D03*
X87500000Y-97500000D03*
X92500000Y-92500000D03*
X97500000Y-82500000D03*
X92500000Y-97500000D03*
X129500000Y-50274999D03*
X82500000Y-82500000D03*
X120950000Y-66700000D03*
%TO.N,5V*%
X122850000Y-60600000D03*
X116200000Y-72124999D03*
X122336650Y-58953950D03*
X123200000Y-68400000D03*
X110024999Y-72124999D03*
%TO.N,1.8V*%
X121500000Y-51500000D03*
X121000000Y-50000400D03*
X120000000Y-50000400D03*
X122000000Y-50000400D03*
X132494749Y-81200000D03*
%TO.N,3.3V*%
X126554800Y-61400000D03*
X112393750Y-90112500D03*
X131493749Y-79825000D03*
%TO.N,/OUT_P*%
X109639109Y-47300000D03*
X124362500Y-53712500D03*
%TO.N,/OUT_N*%
X124050000Y-44500000D03*
X110200000Y-43225000D03*
%TO.N,/VSNS_P*%
X107500000Y-46600000D03*
X127400000Y-55700000D03*
%TO.N,/VSNS_N*%
X128500000Y-44600000D03*
X108600000Y-45475000D03*
%TO.N,SDZ*%
X117596808Y-47097400D03*
%TO.N,SDIN*%
X114490636Y-53390636D03*
%TO.N,AIN1*%
X118800000Y-90400000D03*
%TO.N,STBY*%
X119000000Y-87600000D03*
%TO.N,SCL*%
X114062500Y-56162500D03*
%TO.N,SDA*%
X113100000Y-58900000D03*
%TO.N,SBCLK*%
X116200000Y-51300000D03*
%TO.N,FSYNC*%
X115399807Y-53300000D03*
%TO.N,SDOUT*%
X111573404Y-57323404D03*
%TO.N,PWMA*%
X115851640Y-92274685D03*
X113650000Y-84720000D03*
%TD*%
D53*
%TO.N,SCL*%
X116735218Y-48900001D02*
X116096017Y-48900001D01*
X117000000Y-53225000D02*
X117000000Y-49164783D01*
X114062500Y-56162500D02*
X117000000Y-53225000D01*
X117000000Y-49164783D02*
X116735218Y-48900001D01*
%TO.N,SDA*%
X116801001Y-48501001D02*
X116800000Y-48500000D01*
X117450000Y-54550000D02*
X117450000Y-49047683D01*
X117450000Y-49047683D02*
X116903318Y-48501001D01*
X116903318Y-48501001D02*
X116801001Y-48501001D01*
X116800000Y-48500000D02*
X116121417Y-48499999D01*
X113100000Y-58900000D02*
X117450000Y-54550000D01*
%TO.N,1.8V*%
X118529800Y-48020200D02*
X118634307Y-48020200D01*
X118450000Y-48100000D02*
X118529800Y-48020200D01*
X116146817Y-48100001D02*
X118450000Y-48100000D01*
%TO.N,SDZ*%
X117394209Y-47299999D02*
X117596808Y-47097400D01*
X116146818Y-47299999D02*
X117394209Y-47299999D01*
%TO.N,GND*%
X111200000Y-50700000D02*
X110800000Y-50700000D01*
X111850000Y-50050000D02*
X111200000Y-50700000D01*
X112400000Y-48907400D02*
X111850000Y-49457400D01*
X112846799Y-48907400D02*
X112400000Y-48907400D01*
X112846799Y-48900001D02*
X112846799Y-48907400D01*
X111850000Y-49457400D02*
X111850000Y-50050000D01*
%TO.N,SBCLK*%
X115738396Y-50621296D02*
X115990850Y-50621296D01*
X115546808Y-50429708D02*
X115738396Y-50621296D01*
X115546808Y-49725001D02*
X115546808Y-50429708D01*
%TO.N,FSYNC*%
X115399807Y-50849807D02*
X115399807Y-51000193D01*
X115146806Y-50596806D02*
X115399807Y-50849807D01*
X115146806Y-49725001D02*
X115146806Y-50596806D01*
D54*
X115399807Y-51000193D02*
X115400000Y-51000000D01*
X115399807Y-53300000D02*
X115399807Y-51000193D01*
D53*
%TO.N,SDIN*%
X114746807Y-49725001D02*
X114746807Y-50803193D01*
X114746807Y-50803193D02*
X114700000Y-50850000D01*
%TO.N,SDOUT*%
X114346808Y-50472300D02*
X114010309Y-50808799D01*
X114346808Y-49725001D02*
X114346808Y-50472300D01*
D54*
%TO.N,SDIN*%
X114700000Y-53181272D02*
X114700000Y-50850000D01*
X114490636Y-53390636D02*
X114700000Y-53181272D01*
%TO.N,SDOUT*%
X111573404Y-54753161D02*
X114010309Y-52316255D01*
X111573404Y-57323404D02*
X111573404Y-54753161D01*
X114010309Y-52316255D02*
X114010309Y-50808799D01*
D53*
%TO.N,Net-(U5-DREG)*%
X113546807Y-50400000D02*
X113325512Y-50621295D01*
X113546807Y-49725000D02*
X113546807Y-50400000D01*
%TO.N,IRQZ*%
X115079991Y-48178427D02*
X115079991Y-48729699D01*
X116146817Y-47700002D02*
X115558416Y-47700002D01*
X115558416Y-47700002D02*
X115079991Y-48178427D01*
%TO.N,Net-(U5-VBAT1S)*%
X116800000Y-42400000D02*
X115300000Y-42400000D01*
%TO.N,Net-(U5-PVDD_SNS)*%
X115146806Y-44603193D02*
X115712500Y-44037499D01*
X115146806Y-46120200D02*
X115146806Y-44603193D01*
%TO.N,Net-(U5-VBAT1S)*%
X114746807Y-42953193D02*
X115300000Y-42400000D01*
X114746807Y-46310700D02*
X114746807Y-42953193D01*
%TO.N,12V*%
X114346808Y-46310700D02*
X114346808Y-44496807D01*
X114346808Y-44496807D02*
X113887500Y-44037499D01*
%TO.N,/OUT_N*%
X110887501Y-43225000D02*
X110200000Y-43225000D01*
X111862501Y-44200000D02*
X110887501Y-43225000D01*
X112794366Y-44200000D02*
X111862501Y-44200000D01*
X113946809Y-45352443D02*
X112794366Y-44200000D01*
X113946809Y-46272600D02*
X113946809Y-45352443D01*
%TO.N,Net-(U5-BST_N)*%
X110137499Y-44337499D02*
X110137499Y-44200000D01*
X111025000Y-45225000D02*
X110137499Y-44337499D01*
X113227706Y-45225000D02*
X111025000Y-45225000D01*
X113546807Y-45544101D02*
X113227706Y-45225000D01*
X113546807Y-46120200D02*
X113546807Y-45544101D01*
D55*
%TO.N,/OUT_P*%
X112068257Y-47299999D02*
X112500000Y-47299999D01*
X111348056Y-48020200D02*
X112068257Y-47299999D01*
D53*
X112500000Y-47299999D02*
X112100000Y-47299999D01*
D55*
X110359309Y-48020200D02*
X111348056Y-48020200D01*
D53*
%TO.N,Net-(U5-BST_P)*%
X111103800Y-48796200D02*
X112199998Y-47700002D01*
X109410307Y-48796200D02*
X111103800Y-48796200D01*
X112199998Y-47700002D02*
X112846799Y-47700002D01*
X108634307Y-48020200D02*
X109410307Y-48796200D01*
%TO.N,GND*%
X111230707Y-47228699D02*
X111358127Y-47228699D01*
X111358127Y-47228699D02*
X111686826Y-46900000D01*
X111686826Y-46900000D02*
X113050000Y-46900000D01*
%TO.N,/OUT_P*%
X113050000Y-47299999D02*
X112500000Y-47299999D01*
%TO.N,GND*%
X115267599Y-47067599D02*
X115435198Y-46900000D01*
X115267599Y-47067599D02*
X115546808Y-46788391D01*
X115435198Y-46900000D02*
X116146818Y-46900000D01*
X115546808Y-46788391D02*
X115546808Y-46120200D01*
X112846799Y-48900001D02*
X113435198Y-48900001D01*
X113435198Y-48900001D02*
X115267599Y-47067599D01*
%TO.N,Net-(U5-VSNSP)*%
X110896808Y-49600000D02*
X112396807Y-48100001D01*
X112396807Y-48100001D02*
X112846799Y-48100001D01*
X110409308Y-49600000D02*
X110896808Y-49600000D01*
D56*
%TO.N,12V*%
X120200000Y-80600000D02*
X120149000Y-80651000D01*
X128800000Y-79000000D02*
X130000000Y-79000000D01*
X119850000Y-81999000D02*
X120149000Y-81700000D01*
X121712500Y-69162501D02*
X121712500Y-70818403D01*
X117400000Y-93200000D02*
X117400000Y-92676000D01*
X119850000Y-83400000D02*
X117576000Y-85674000D01*
D57*
X124712500Y-69242501D02*
X124712500Y-69162501D01*
D56*
X117060002Y-69687501D02*
X118735000Y-71362499D01*
X119300000Y-93800000D02*
X118000000Y-93800000D01*
D57*
X124472500Y-69162501D02*
X124712500Y-69162501D01*
D56*
X117576000Y-85674000D02*
X117300000Y-85674000D01*
X124474001Y-69401000D02*
X124712500Y-69162501D01*
X111400000Y-42400000D02*
X111000000Y-42000000D01*
X120200000Y-87200000D02*
X120200000Y-92900000D01*
X117300000Y-85275000D02*
X118275000Y-85275000D01*
X118275000Y-85275000D02*
X120200000Y-87200000D01*
X117055000Y-69687501D02*
X117060002Y-69687501D01*
X112300000Y-42400000D02*
X113800000Y-42400000D01*
X120375000Y-71362499D02*
X120400000Y-71337499D01*
X118735000Y-71362499D02*
X120375000Y-71362499D01*
X121675001Y-69200000D02*
X121712500Y-69162501D01*
X120400000Y-69200000D02*
X121675001Y-69200000D01*
X130000000Y-79000000D02*
X131650000Y-77350000D01*
X113800000Y-42400000D02*
X113800000Y-43949999D01*
X131650000Y-77350000D02*
X132262499Y-77350000D01*
X119850000Y-83400000D02*
X119850000Y-81999000D01*
X113800000Y-43949999D02*
X113887500Y-44037499D01*
X121712500Y-69162501D02*
X121950999Y-69401000D01*
X120200000Y-92900000D02*
X119300000Y-93800000D01*
X120400000Y-71337499D02*
X120400000Y-69200000D01*
X121712500Y-70818403D02*
X122944097Y-72050000D01*
X121950999Y-69401000D02*
X124474001Y-69401000D01*
X112300000Y-42400000D02*
X111400000Y-42400000D01*
X120149000Y-80651000D02*
X120149000Y-81700000D01*
X118000000Y-93800000D02*
X117400000Y-93200000D01*
%TO.N,GND*%
X123263442Y-86974000D02*
X123115442Y-86974000D01*
D57*
X121200000Y-45700000D02*
X121179508Y-45700000D01*
X110800000Y-50700000D02*
X111600000Y-51500000D01*
D54*
X112468749Y-88549999D02*
X112431250Y-88512500D01*
D57*
X111634307Y-51520200D02*
X111520200Y-51520200D01*
X120315000Y-74500002D02*
X120477501Y-74500003D01*
D56*
X128051841Y-51051841D02*
X127966182Y-51137499D01*
X120375000Y-73087501D02*
X120400000Y-73062501D01*
X122747471Y-81836000D02*
X123450999Y-81132472D01*
X127250000Y-47862501D02*
X128000000Y-47862501D01*
D57*
X123443751Y-56639150D02*
X123443751Y-57586051D01*
D56*
X128750000Y-50499999D02*
X128603682Y-50499999D01*
D57*
X113245000Y-69687501D02*
X113245000Y-74637502D01*
D56*
X122500000Y-90258558D02*
X123041442Y-90800000D01*
D57*
X111802499Y-74637501D02*
X111015000Y-73850002D01*
D56*
X128250000Y-47862501D02*
X128750000Y-48362501D01*
D57*
X113282502Y-74600000D02*
X113245000Y-74637502D01*
D54*
X113331253Y-88700002D02*
X113181250Y-88549999D01*
D56*
X113245000Y-74637501D02*
X111802500Y-74637501D01*
D57*
X113245000Y-74637502D02*
X112215000Y-74637502D01*
D56*
X130249999Y-50274999D02*
X129500000Y-50274999D01*
X122500000Y-87589442D02*
X122500000Y-90258558D01*
X121750999Y-67399000D02*
X121712500Y-67437499D01*
X114000000Y-74637501D02*
X113245000Y-74637501D01*
X128975000Y-50274999D02*
X128750000Y-50499999D01*
D57*
X123594600Y-59674998D02*
X122679802Y-59674998D01*
X125594599Y-59674998D02*
X123594600Y-59674998D01*
X119028192Y-44000000D02*
X119003192Y-43975000D01*
D56*
X124712500Y-67437499D02*
X124674001Y-67399000D01*
D57*
X137549998Y-82349999D02*
X137549998Y-77350001D01*
X118587499Y-51650000D02*
X118587499Y-50562501D01*
D56*
X128000000Y-47862501D02*
X128250000Y-47862501D01*
X130250000Y-48500000D02*
X129500000Y-48500000D01*
X123115442Y-86974000D02*
X122500000Y-87589442D01*
X112203192Y-39417299D02*
X112203192Y-40578190D01*
D57*
X126479802Y-59674998D02*
X126794600Y-59360201D01*
X122594601Y-63900000D02*
X123350000Y-63900000D01*
X120359308Y-46520200D02*
X120359309Y-48020200D01*
D56*
X121687499Y-67437499D02*
X120950000Y-66700000D01*
X129500000Y-48500000D02*
X128887499Y-48500000D01*
X128603682Y-50499999D02*
X128051841Y-51051841D01*
X112300000Y-40674998D02*
X116800000Y-40674998D01*
X121750000Y-83400000D02*
X121750000Y-85460558D01*
D57*
X121179508Y-45700000D02*
X120359309Y-46520199D01*
X122886051Y-54078950D02*
X122081250Y-54078950D01*
D56*
X116400000Y-74637501D02*
X116400000Y-76000000D01*
X124226000Y-90800000D02*
X124300000Y-90726000D01*
X116800000Y-40674998D02*
X116800000Y-39400000D01*
X121750000Y-82100001D02*
X121485999Y-81836000D01*
D57*
X125594599Y-59674998D02*
X126479802Y-59674998D01*
D56*
X121750000Y-83400000D02*
X121750000Y-82100001D01*
D57*
X137549998Y-82349999D02*
X137549998Y-83543751D01*
D54*
X117300000Y-88525000D02*
X115274999Y-88525000D01*
D57*
X111600000Y-51500000D02*
X111614107Y-51500000D01*
D56*
X123450999Y-81132472D02*
X123450999Y-80635001D01*
X129500000Y-50274999D02*
X128975000Y-50274999D01*
X121712500Y-67437499D02*
X121687499Y-67437499D01*
D57*
X122047301Y-63352700D02*
X122594601Y-63900000D01*
X123443751Y-54636651D02*
X122886051Y-54078950D01*
D56*
X121200000Y-74637501D02*
X117055000Y-74637501D01*
D54*
X115274999Y-88525000D02*
X115099997Y-88700002D01*
D56*
X124750000Y-90800000D02*
X124050000Y-90800000D01*
D57*
X111614107Y-51500000D02*
X111634307Y-51520200D01*
D56*
X119150000Y-63200000D02*
X121000000Y-63200000D01*
X128887499Y-48500000D02*
X128750000Y-48362501D01*
X124674001Y-67399000D02*
X121750999Y-67399000D01*
X123041442Y-90800000D02*
X124226000Y-90800000D01*
X113245000Y-74637501D02*
X113245000Y-69687501D01*
D57*
X122047301Y-60307499D02*
X122047301Y-63352700D01*
D56*
X120400000Y-74415002D02*
X120215002Y-74600000D01*
D57*
X112215000Y-74637502D02*
X111802499Y-74637501D01*
D56*
X112203192Y-40578190D02*
X112300000Y-40674998D01*
D57*
X118587499Y-50562501D02*
X118600000Y-50550000D01*
X125594599Y-59674998D02*
X125594600Y-59760200D01*
D56*
X127966182Y-51137499D02*
X127250000Y-51137499D01*
D57*
X122679802Y-59674998D02*
X122047301Y-60307499D01*
D54*
X115099997Y-88700002D02*
X113331253Y-88700002D01*
D57*
X119900000Y-44000000D02*
X119028192Y-44000000D01*
X123443751Y-56639150D02*
X123443751Y-54636651D01*
X123443751Y-57586051D02*
X123736650Y-57878950D01*
X120315000Y-74500002D02*
X120215002Y-74600000D01*
D56*
X117055000Y-74637501D02*
X116400000Y-74637501D01*
X121750000Y-85460558D02*
X123263442Y-86974000D01*
X114000000Y-74637501D02*
X114000000Y-76000000D01*
X118735000Y-73087501D02*
X120375000Y-73087501D01*
D57*
X137549998Y-83543751D02*
X137543749Y-83550000D01*
D58*
X112418750Y-88512500D02*
X112431250Y-88512500D01*
D56*
X120400000Y-73062501D02*
X120400000Y-74415002D01*
X124700000Y-86900000D02*
X124000000Y-86900000D01*
X116400000Y-74637501D02*
X114000000Y-74637501D01*
X111802500Y-74637501D02*
X111015000Y-73850001D01*
D54*
X113181250Y-88549999D02*
X112468749Y-88549999D01*
D56*
X121485999Y-81836000D02*
X122747471Y-81836000D01*
D57*
%TO.N,5V*%
X124394600Y-63360200D02*
X123994600Y-62960200D01*
X121325450Y-54720450D02*
X121325450Y-53590150D01*
X123350000Y-64839800D02*
X123915000Y-64839800D01*
X122081250Y-55018750D02*
X121623750Y-55018750D01*
X121718749Y-56661049D02*
X121718749Y-56639150D01*
X111015000Y-72125000D02*
X111015000Y-70137501D01*
X114515000Y-68837501D02*
X113715000Y-68037501D01*
X121718749Y-56639150D02*
X121718749Y-55978950D01*
X123915000Y-64839800D02*
X124394600Y-64360200D01*
X122850000Y-60600000D02*
X123594600Y-61344600D01*
X121718749Y-55113749D02*
X121718749Y-55978950D01*
X114515001Y-69687501D02*
X114515000Y-68837501D01*
X123994600Y-62960200D02*
X123350000Y-62960200D01*
X122336650Y-58953950D02*
X122336650Y-57278950D01*
X110024999Y-72124999D02*
X110000000Y-72100000D01*
X123350000Y-61644599D02*
X123594600Y-61400000D01*
X113715000Y-68037501D02*
X112900000Y-68037501D01*
X121718749Y-55978950D02*
X121718749Y-55381251D01*
X122336650Y-57278950D02*
X121718749Y-56661049D01*
X112124000Y-68813501D02*
X112900000Y-68037501D01*
X123594600Y-61344600D02*
X123594600Y-61400000D01*
X121718749Y-55381251D02*
X122081250Y-55018750D01*
X111486499Y-68813501D02*
X112124000Y-68813501D01*
X111486499Y-68813501D02*
X111015000Y-69285000D01*
X121325450Y-53590150D02*
X121776450Y-53139150D01*
X123350000Y-62960200D02*
X123350000Y-61644599D01*
X121776450Y-53139150D02*
X122081250Y-53139150D01*
X111015000Y-69285000D02*
X111015000Y-70137501D01*
X124394600Y-64360200D02*
X124394600Y-63360200D01*
X111015000Y-72124999D02*
X110024999Y-72124999D01*
X121623750Y-55018750D02*
X121325450Y-54720450D01*
D56*
%TO.N,1.8V*%
X119600000Y-50000400D02*
X118634307Y-49034707D01*
D59*
X120524450Y-54099050D02*
X120524450Y-51861949D01*
D56*
X122000000Y-50000400D02*
X121000000Y-50000400D01*
X121000000Y-50000400D02*
X120000000Y-50000400D01*
X132494749Y-82117750D02*
X132262499Y-82350000D01*
X118211508Y-46097400D02*
X116349408Y-46097400D01*
X118634308Y-46520200D02*
X118634307Y-48020200D01*
D59*
X120524450Y-51861949D02*
X120312501Y-51650000D01*
D56*
X120000000Y-50000400D02*
X119600000Y-50000400D01*
X118634308Y-46520200D02*
X118211508Y-46097400D01*
D55*
X118554506Y-48100001D02*
X118634307Y-48020200D01*
D56*
X132494749Y-81200000D02*
X132494749Y-82117750D01*
D59*
X121500000Y-51500000D02*
X121350000Y-51650000D01*
D56*
X118634307Y-49034707D02*
X118634307Y-48020200D01*
D59*
X121350000Y-51650000D02*
X120312501Y-51650000D01*
X119592050Y-55031450D02*
X120524450Y-54099050D01*
D57*
%TO.N,3.3V*%
X125839200Y-61644600D02*
X125594600Y-61400000D01*
D54*
X113709999Y-89509999D02*
X114962501Y-90762500D01*
D57*
X125839200Y-62947500D02*
X125839200Y-61644600D01*
D54*
X114962501Y-90762500D02*
X115900000Y-89825000D01*
X113181250Y-89509999D02*
X112996251Y-89509999D01*
D57*
X131518748Y-79850000D02*
X132262499Y-79850000D01*
D54*
X113181250Y-89509999D02*
X113709999Y-89509999D01*
D57*
X126554800Y-61400000D02*
X125594600Y-61400000D01*
X131493749Y-79825000D02*
X131518748Y-79850000D01*
D54*
X112996251Y-89509999D02*
X112393750Y-90112500D01*
X115900000Y-89825000D02*
X117300000Y-89825000D01*
%TO.N,Net-(U5-DREG)*%
X113062501Y-50884306D02*
X113325512Y-50621295D01*
X113325512Y-50621295D02*
X113400000Y-50621295D01*
X113062501Y-51520200D02*
X113062501Y-50884306D01*
D57*
%TO.N,/OUT_P*%
X109639109Y-47300000D02*
X110359309Y-48020200D01*
X124362500Y-53712500D02*
X125100000Y-54450000D01*
D55*
X110359309Y-48020200D02*
X110220200Y-48020200D01*
D57*
%TO.N,/OUT_N*%
X125100000Y-44500000D02*
X124050000Y-44500000D01*
D56*
%TO.N,/VSNS_P*%
X133662500Y-50975000D02*
X133662500Y-50500000D01*
D57*
X107500000Y-46600000D02*
X107500000Y-49350000D01*
X107759308Y-49609308D02*
X108575000Y-49609308D01*
D56*
X127250000Y-54350000D02*
X127400000Y-54500000D01*
D57*
X107500000Y-49350000D02*
X107759308Y-49609308D01*
D56*
X133662500Y-50500000D02*
X136750000Y-50500000D01*
X128750000Y-52225001D02*
X128112500Y-52862501D01*
X131398999Y-53238501D02*
X133662500Y-50975000D01*
X127250000Y-52862501D02*
X127250000Y-54350000D01*
X127400000Y-54500000D02*
X127400000Y-55700000D01*
X128750000Y-52225001D02*
X128750000Y-52762501D01*
X128112500Y-52862501D02*
X127250000Y-52862501D01*
X128750000Y-52762501D02*
X129226000Y-53238501D01*
X129226000Y-53238501D02*
X131398999Y-53238501D01*
D57*
X108575000Y-49609308D02*
X108584308Y-49600000D01*
D56*
%TO.N,/VSNS_N*%
X127250000Y-46137499D02*
X128250000Y-46137499D01*
X127250000Y-44650000D02*
X127400000Y-44500000D01*
D57*
X108584308Y-45490692D02*
X108584308Y-46520200D01*
D56*
X128750000Y-46099999D02*
X129349999Y-45500000D01*
X127250000Y-46137499D02*
X127250000Y-44650000D01*
X129349999Y-45500000D02*
X131162500Y-45500000D01*
X128400000Y-44500000D02*
X128500000Y-44600000D01*
X128250000Y-46137499D02*
X128750000Y-46637499D01*
X127400000Y-44500000D02*
X128400000Y-44500000D01*
X133662500Y-48000000D02*
X136750000Y-48000000D01*
D57*
X108600000Y-45475000D02*
X108584308Y-45490692D01*
D56*
X131162500Y-45500000D02*
X133662500Y-48000000D01*
X128750000Y-46637499D02*
X128750000Y-46099999D01*
D57*
%TO.N,Net-(U5-PVDD_SNS)*%
X117278190Y-43975000D02*
X115774999Y-43975000D01*
X115774999Y-43975000D02*
X115712500Y-44037499D01*
D56*
%TO.N,Net-(C20-Pad1)*%
X131837500Y-50500000D02*
X131837500Y-50975000D01*
X131837500Y-50975000D02*
X130812499Y-52000001D01*
X130812499Y-52000001D02*
X130249999Y-52000001D01*
D57*
X130249999Y-52000001D02*
X130337499Y-52000001D01*
D56*
%TO.N,Net-(C21-Pad1)*%
X130250000Y-46774998D02*
X130612498Y-46774998D01*
X130612498Y-46774998D02*
X131837500Y-48000000D01*
D57*
%TO.N,Net-(D1-A)*%
X134387499Y-72087500D02*
X134112500Y-71812500D01*
D56*
X129550000Y-67174999D02*
X134575001Y-72200000D01*
X129550000Y-62900000D02*
X129550000Y-67174999D01*
D57*
%TO.N,Net-(D2-K)*%
X111950000Y-67336501D02*
X111663499Y-67336501D01*
X115785000Y-68821501D02*
X114300000Y-67336501D01*
X110937501Y-67837501D02*
X110300000Y-67200000D01*
X114300000Y-67336501D02*
X111950000Y-67336501D01*
X111663499Y-67336501D02*
X111100000Y-67900000D01*
X110300000Y-65700000D02*
X111700000Y-64300000D01*
X115785000Y-69687501D02*
X115785000Y-68821501D01*
X111015000Y-67837501D02*
X110937501Y-67837501D01*
X110300000Y-67200000D02*
X110300000Y-65700000D01*
%TO.N,Net-(D3-A)*%
X135800000Y-77350000D02*
X134087499Y-77350000D01*
%TO.N,Net-(D4-A)*%
X134087499Y-79850000D02*
X135800000Y-79850000D01*
%TO.N,Net-(D5-A)*%
X135800000Y-82350000D02*
X134087499Y-82350000D01*
%TO.N,Net-(U5-VSNSN)*%
X110582108Y-46347400D02*
X112846798Y-46347400D01*
X110409308Y-46520200D02*
X110582108Y-46347400D01*
D54*
%TO.N,AIN1*%
X117300000Y-90475000D02*
X118725000Y-90475000D01*
X118725000Y-90475000D02*
X118800000Y-90400000D01*
%TO.N,STBY*%
X118525000Y-89175000D02*
X119000000Y-88700000D01*
X117300000Y-89175000D02*
X118525000Y-89175000D01*
X119000000Y-88700000D02*
X119000000Y-87600000D01*
%TO.N,PWMB*%
X116328463Y-86526000D02*
X116239708Y-86526000D01*
X114351000Y-80771001D02*
X102360000Y-68780001D01*
X116377463Y-86575000D02*
X116328463Y-86526000D01*
X116239708Y-86526000D02*
X114351000Y-84637292D01*
X117300000Y-86575000D02*
X116377463Y-86575000D01*
X114351000Y-84637292D02*
X114351000Y-80771001D01*
D56*
%TO.N,BO2*%
X134375000Y-88175000D02*
X124300000Y-88175000D01*
X136800000Y-90035000D02*
X136235000Y-90035000D01*
X124500000Y-88200000D02*
X123800000Y-88200000D01*
X136235000Y-90035000D02*
X134375000Y-88175000D01*
D54*
%TO.N,AIN2*%
X115926000Y-91125000D02*
X112871000Y-94180000D01*
X112871000Y-94180000D02*
X102360000Y-94180000D01*
X117300000Y-91125000D02*
X115926000Y-91125000D01*
D56*
%TO.N,AO2*%
X133900000Y-89500000D02*
X124200000Y-89500000D01*
X124500000Y-89500000D02*
X123800000Y-89500000D01*
X136800000Y-92400000D02*
X133900000Y-89500000D01*
%TO.N,AO1*%
X135670001Y-93670001D02*
X134100000Y-92100000D01*
X124500000Y-92100000D02*
X123800000Y-92100000D01*
X136800000Y-93670001D02*
X135670001Y-93670001D01*
X134100000Y-92100000D02*
X124500000Y-92100000D01*
%TO.N,BO1*%
X124500000Y-85600000D02*
X123800000Y-85600000D01*
X133635001Y-85600000D02*
X124500000Y-85600000D01*
X136800000Y-88764999D02*
X133635001Y-85600000D01*
D54*
%TO.N,BIN1*%
X106300001Y-87700000D02*
X102360000Y-91640001D01*
X115977579Y-87875000D02*
X115802579Y-87700000D01*
X115802579Y-87700000D02*
X106300001Y-87700000D01*
X117300000Y-87875000D02*
X115977579Y-87875000D01*
%TO.N,PWMA*%
X115851640Y-92212068D02*
X115851640Y-92274685D01*
X116288708Y-91775000D02*
X115851640Y-92212068D01*
X113620000Y-84720000D02*
X105300000Y-76400000D01*
X117300000Y-91775000D02*
X116288708Y-91775000D01*
X105300000Y-76400000D02*
X102360000Y-76400000D01*
X113650000Y-84720000D02*
X113620000Y-84720000D01*
%TO.N,BIN2*%
X104360999Y-87099000D02*
X102360000Y-89099999D01*
X116177521Y-87225000D02*
X116051521Y-87099000D01*
X117300000Y-87225000D02*
X116177521Y-87225000D01*
X116051521Y-87099000D02*
X104360999Y-87099000D01*
D57*
%TO.N,Echo_cap_2*%
X96064001Y-80155999D02*
X102360000Y-73860000D01*
X76175000Y-79670000D02*
X77670000Y-79670000D01*
X77670000Y-79670000D02*
X78155999Y-80155999D01*
X78155999Y-80155999D02*
X96064001Y-80155999D01*
%TO.N,Trig_cap_2*%
X78284000Y-92964000D02*
X79500000Y-94180000D01*
X76882106Y-80939999D02*
X78284000Y-82341893D01*
X76175000Y-80939999D02*
X76882106Y-80939999D01*
X78284000Y-82341893D02*
X78284000Y-92964000D01*
%TO.N,Trig_cap_1*%
X76225000Y-71430001D02*
X79389999Y-71430001D01*
X79389999Y-71430001D02*
X79500000Y-71320000D01*
X76335001Y-71320000D02*
X76225000Y-71430001D01*
%TO.N,Echo_cap_1*%
X76225000Y-72700000D02*
X75517894Y-72700000D01*
X75600000Y-72700000D02*
X75525082Y-72700000D01*
X74649000Y-73576082D02*
X74649000Y-91869000D01*
X74649000Y-91869000D02*
X79500000Y-96720000D01*
X75517894Y-72700000D02*
X74649000Y-73568894D01*
X75525082Y-72700000D02*
X74649000Y-73576082D01*
D56*
%TO.N,Net-(D1-K)*%
X124800000Y-72200000D02*
X124650000Y-72050000D01*
X127775001Y-72200000D02*
X124800000Y-72200000D01*
D54*
%TO.N,SBCLK*%
X116200000Y-50830446D02*
X116200000Y-51300000D01*
X115990850Y-50621296D02*
X116200000Y-50830446D01*
%TD*%
M02*
