%TF.GenerationSoftware,KiCad,Pcbnew,9.0.4*%
%TF.CreationDate,2025-10-21T16:10:30+02:00*%
%TF.ProjectId,Nomad,4e6f6d61-642e-46b6-9963-61645f706362,rev?*%
%TF.SameCoordinates,Original*%
%TF.FileFunction,Copper,L2,Inr*%
%TF.FilePolarity,Positive*%
%FSLAX46Y46*%
G04 Gerber Fmt 4.6, Leading zero omitted, Abs format (unit mm)*
G04 Created by KiCad (PCBNEW 9.0.4) date 2025-10-21 16:10:30*
%MOMM*%
%LPD*%
G01*
G04 APERTURE LIST*
G04 Aperture macros list*
%AMRoundRect*
0 Rectangle with rounded corners*
0 $1 Rounding radius*
0 $2 $3 $4 $5 $6 $7 $8 $9 X,Y pos of 4 corners*
0 Add a 4 corners polygon primitive as box body*
4,1,4,$2,$3,$4,$5,$6,$7,$8,$9,$2,$3,0*
0 Add four circle primitives for the rounded corners*
1,1,$1+$1,$2,$3*
1,1,$1+$1,$4,$5*
1,1,$1+$1,$6,$7*
1,1,$1+$1,$8,$9*
0 Add four rect primitives between the rounded corners*
20,1,$1+$1,$2,$3,$4,$5,0*
20,1,$1+$1,$4,$5,$6,$7,0*
20,1,$1+$1,$6,$7,$8,$9,0*
20,1,$1+$1,$8,$9,$2,$3,0*%
G04 Aperture macros list end*
%TA.AperFunction,ComponentPad*%
%ADD10RoundRect,0.250000X0.750000X-0.600000X0.750000X0.600000X-0.750000X0.600000X-0.750000X-0.600000X0*%
%TD*%
%TA.AperFunction,ComponentPad*%
%ADD11O,2.000000X1.700000*%
%TD*%
%TA.AperFunction,ComponentPad*%
%ADD12R,1.530000X1.530000*%
%TD*%
%TA.AperFunction,ComponentPad*%
%ADD13C,1.530000*%
%TD*%
%TA.AperFunction,ComponentPad*%
%ADD14C,5.600000*%
%TD*%
%TA.AperFunction,ComponentPad*%
%ADD15R,1.000000X1.000000*%
%TD*%
%TA.AperFunction,ComponentPad*%
%ADD16C,1.000000*%
%TD*%
%TA.AperFunction,ComponentPad*%
%ADD17R,2.600000X2.600000*%
%TD*%
%TA.AperFunction,ComponentPad*%
%ADD18C,2.600000*%
%TD*%
%TA.AperFunction,ViaPad*%
%ADD19C,0.600000*%
%TD*%
%TA.AperFunction,Conductor*%
%ADD20C,1.000000*%
%TD*%
%TA.AperFunction,Conductor*%
%ADD21C,0.500000*%
%TD*%
%TA.AperFunction,Conductor*%
%ADD22C,0.400000*%
%TD*%
G04 APERTURE END LIST*
D10*
%TO.N,/VSNS_P*%
%TO.C,LS1*%
X136750000Y-50500000D03*
D11*
%TO.N,/VSNS_N*%
X136750000Y-48000000D03*
%TD*%
D12*
%TO.N,3.3V*%
%TO.C,U6*%
X102360000Y-104340000D03*
D13*
X102360001Y-101800000D03*
%TO.N,unconnected-(U6-RST-PadJ1_3)*%
X102360000Y-99260000D03*
%TO.N,AIN1*%
X102360000Y-96720000D03*
%TO.N,AIN2*%
X102360000Y-94180000D03*
%TO.N,BIN1*%
X102360000Y-91640001D03*
%TO.N,BIN2*%
X102360000Y-89099999D03*
%TO.N,FSYNC*%
X102360000Y-86560000D03*
%TO.N,STBY*%
X102360000Y-84020000D03*
%TO.N,SDZ*%
X102360000Y-81480000D03*
%TO.N,IRQZ*%
X102360000Y-78939999D03*
%TO.N,PWMA*%
X102360000Y-76400000D03*
%TO.N,Echo_cap_2*%
X102360000Y-73860000D03*
%TO.N,unconnected-(U6-GPIO46-PadJ1_14)*%
X102360000Y-71320000D03*
%TO.N,PWMB*%
X102360000Y-68780001D03*
%TO.N,SDA*%
X102360000Y-66239999D03*
%TO.N,SCL*%
X102360000Y-63700000D03*
%TO.N,SDOUT*%
X102360000Y-61160000D03*
%TO.N,SDIN*%
X102360000Y-58620000D03*
%TO.N,SBCLK*%
X102360000Y-56079999D03*
%TO.N,5V*%
X102360000Y-53540000D03*
%TO.N,GND*%
X102360000Y-51000000D03*
X79500000Y-104340000D03*
%TO.N,unconnected-(U6-U0TXD{slash}GPIO43-PadJ3_2)*%
X79499999Y-101800000D03*
%TO.N,unconnected-(U6-U0RXD{slash}GPIO44-PadJ3_3)*%
X79500000Y-99260000D03*
%TO.N,Echo_cap_1*%
X79500000Y-96720000D03*
%TO.N,Trig_cap_2*%
X79500000Y-94180000D03*
%TO.N,unconnected-(U6-MTMS{slash}GPIO42-PadJ3_6)*%
X79500000Y-91640001D03*
%TO.N,unconnected-(U6-MTDI{slash}GPIO41-PadJ3_7)*%
X79500000Y-89099999D03*
%TO.N,unconnected-(U6-MTDO{slash}GPIO40-PadJ3_8)*%
X79500000Y-86560000D03*
%TO.N,unconnected-(U6-MTCK{slash}GPIO39-PadJ3_9)*%
X79500000Y-84020000D03*
%TO.N,unconnected-(U6-GPIO38-PadJ3_10)*%
X79500000Y-81480000D03*
%TO.N,unconnected-(U6-GPIO37-PadJ3_11)*%
X79500000Y-78939999D03*
%TO.N,unconnected-(U6-GPIO36-PadJ3_12)*%
X79500000Y-76400000D03*
%TO.N,unconnected-(U6-GPIO35-PadJ3_13)*%
X79500000Y-73860000D03*
%TO.N,Trig_cap_1*%
X79500000Y-71320000D03*
%TO.N,unconnected-(U6-GPIO45-PadJ3_15)*%
X79500000Y-68780001D03*
%TO.N,unconnected-(U6-GPIO48-PadJ3_16)*%
X79500000Y-66239999D03*
%TO.N,unconnected-(U6-GPIO47-PadJ3_17)*%
X79500000Y-63700000D03*
%TO.N,unconnected-(U6-GPIO21-PadJ3_18)*%
X79500000Y-61160000D03*
%TO.N,unconnected-(U6-USB_D+{slash}GPIO20-PadJ3_19)*%
X79500000Y-58620000D03*
%TO.N,unconnected-(U6-USB_D-{slash}GPIO19-PadJ3_20)*%
X79500000Y-56079999D03*
%TO.N,GND*%
X79500000Y-53540000D03*
X79500000Y-51000000D03*
%TD*%
D14*
%TO.N,GND*%
%TO.C,H1*%
X136000000Y-41000000D03*
%TD*%
%TO.N,GND*%
%TO.C,H2*%
X136000000Y-103000000D03*
%TD*%
D15*
%TO.N,5V*%
%TO.C,J3*%
X76225000Y-70160000D03*
D16*
%TO.N,Trig_cap_1*%
X76225000Y-71430001D03*
%TO.N,Echo_cap_1*%
X76225000Y-72700000D03*
%TO.N,GND*%
X76225000Y-73970000D03*
%TD*%
D14*
%TO.N,GND*%
%TO.C,H3*%
X76000000Y-41000000D03*
%TD*%
D15*
%TO.N,5V*%
%TO.C,J2*%
X76175000Y-82210000D03*
D16*
%TO.N,Trig_cap_2*%
X76175000Y-80939999D03*
%TO.N,Echo_cap_2*%
X76175000Y-79670000D03*
%TO.N,GND*%
X76175000Y-78400000D03*
%TD*%
D15*
%TO.N,AO2*%
%TO.C,J5*%
X136800000Y-92400000D03*
D16*
%TO.N,AO1*%
X136800000Y-93670001D03*
%TD*%
D15*
%TO.N,BO2*%
%TO.C,J4*%
X136800000Y-90035000D03*
D16*
%TO.N,BO1*%
X136800000Y-88764999D03*
%TD*%
D17*
%TO.N,Net-(D1-A)*%
%TO.C,J1*%
X129550000Y-62900000D03*
D18*
%TO.N,GND*%
X135550000Y-62900000D03*
%TO.N,N/C*%
X132550000Y-58200000D03*
%TD*%
D19*
%TO.N,GND*%
X94535534Y-40535534D03*
X91000000Y-58213203D03*
X98071068Y-51142136D03*
X87464466Y-54677670D03*
X101606602Y-47606602D03*
X83928932Y-44071068D03*
X87464466Y-47606602D03*
X94535534Y-47606602D03*
X83928932Y-51142136D03*
X91000000Y-44071068D03*
X98071068Y-44071068D03*
X80393398Y-47606602D03*
X94535534Y-54677670D03*
X87464466Y-40535534D03*
X91000000Y-51142136D03*
%TO.N,IRQZ*%
X115079991Y-48729699D03*
%TO.N,12V*%
X111000000Y-42000000D03*
X120400000Y-69200000D03*
X128800000Y-79000000D03*
X120200000Y-80600000D03*
%TO.N,GND*%
X97500000Y-87500000D03*
X87500000Y-82500000D03*
X123736650Y-57878950D03*
X119900000Y-44000000D03*
X97500000Y-97500000D03*
X129500000Y-48500000D03*
X111230707Y-47228699D03*
X118600000Y-50550000D03*
X121200000Y-74637501D03*
X110800000Y-50700000D03*
X128051841Y-51051841D03*
X92500000Y-87500000D03*
X123450999Y-80635001D03*
X137543749Y-83550000D03*
X112431250Y-88512500D03*
X121200000Y-45700000D03*
X112215000Y-74637502D03*
X112203192Y-39417299D03*
X87500000Y-87500000D03*
X97500000Y-92500000D03*
X82500000Y-87500000D03*
X116800000Y-39400000D03*
X121000000Y-63200000D03*
X126794600Y-59360201D03*
X116400000Y-76000000D03*
X82500000Y-97500000D03*
X114000000Y-76000000D03*
X92500000Y-82500000D03*
X87500000Y-92500000D03*
X128000000Y-47862501D03*
X82500000Y-92500000D03*
X87500000Y-97500000D03*
X92500000Y-92500000D03*
X97500000Y-82500000D03*
X92500000Y-97500000D03*
X129500000Y-50274999D03*
X82500000Y-82500000D03*
X120950000Y-66700000D03*
%TO.N,5V*%
X122850000Y-60600000D03*
X116200000Y-72124999D03*
X122336650Y-58953950D03*
X123200000Y-68400000D03*
X110024999Y-72124999D03*
%TO.N,1.8V*%
X121500000Y-51500000D03*
X121000000Y-50000400D03*
X120000000Y-50000400D03*
X122000000Y-50000400D03*
X132494749Y-81200000D03*
%TO.N,3.3V*%
X126554800Y-61400000D03*
X112393750Y-90112500D03*
X131493749Y-79825000D03*
%TO.N,/OUT_P*%
X109639109Y-47300000D03*
X124362500Y-53712500D03*
%TO.N,/OUT_N*%
X124050000Y-44500000D03*
X110200000Y-43225000D03*
%TO.N,/VSNS_P*%
X107500000Y-46600000D03*
X127400000Y-55700000D03*
%TO.N,/VSNS_N*%
X128500000Y-44600000D03*
X108600000Y-45475000D03*
%TO.N,SDZ*%
X117596808Y-47097400D03*
%TO.N,SDIN*%
X114490636Y-53390636D03*
%TO.N,AIN1*%
X118800000Y-90400000D03*
%TO.N,STBY*%
X119000000Y-87600000D03*
%TO.N,SCL*%
X114062500Y-56162500D03*
%TO.N,SDA*%
X113100000Y-58900000D03*
%TO.N,SBCLK*%
X116200000Y-51300000D03*
%TO.N,FSYNC*%
X115399807Y-53300000D03*
%TO.N,SDOUT*%
X111573404Y-57323404D03*
%TO.N,PWMA*%
X115851640Y-92274685D03*
X113650000Y-84720000D03*
%TD*%
D20*
%TO.N,12V*%
X120000000Y-78400000D02*
X120000000Y-69600000D01*
X121800000Y-79000000D02*
X121200000Y-79600000D01*
X117200000Y-66000000D02*
X120400000Y-69200000D01*
X128800000Y-79000000D02*
X121800000Y-79000000D01*
X117200000Y-48200000D02*
X117200000Y-66000000D01*
X120000000Y-69600000D02*
X120400000Y-69200000D01*
X121200000Y-79600000D02*
X120200000Y-80600000D01*
X111000000Y-42000000D02*
X117200000Y-48200000D01*
X121200000Y-79600000D02*
X120000000Y-78400000D01*
D21*
%TO.N,5V*%
X75140000Y-70160000D02*
X74200000Y-71100000D01*
X74760000Y-82160000D02*
X76125000Y-82160000D01*
X123200000Y-68400000D02*
X123200000Y-60950000D01*
X76225000Y-70160000D02*
X75140000Y-70160000D01*
X110024999Y-72124999D02*
X110024999Y-61204999D01*
X110024999Y-61204999D02*
X102360000Y-53540000D01*
X122850000Y-60600000D02*
X122336650Y-60086650D01*
X76225000Y-70160000D02*
X76279001Y-70160000D01*
X76125000Y-82160000D02*
X76175000Y-82210000D01*
X76279001Y-70160000D02*
X78875000Y-67564001D01*
X122336650Y-60086650D02*
X122336650Y-58953950D01*
X78875000Y-67564001D02*
X88335999Y-67564001D01*
X74200000Y-71100000D02*
X74200000Y-81600000D01*
X88335999Y-67564001D02*
X102360000Y-53540000D01*
X110024999Y-72124999D02*
X116200000Y-72124999D01*
X74200000Y-81600000D02*
X74760000Y-82160000D01*
X123200000Y-60950000D02*
X122850000Y-60600000D01*
D20*
%TO.N,1.8V*%
X129350000Y-60200000D02*
X122000000Y-52850000D01*
X120000000Y-50000400D02*
X122000000Y-50000400D01*
X122000000Y-52850000D02*
X122000000Y-50000400D01*
X131200000Y-60200000D02*
X129350000Y-60200000D01*
X133000000Y-62000000D02*
X131200000Y-60200000D01*
X132494749Y-81200000D02*
X133000000Y-80694749D01*
X133000000Y-80694749D02*
X133000000Y-62000000D01*
D21*
%TO.N,3.3V*%
X102360000Y-104340000D02*
X102360001Y-101800000D01*
X121699000Y-89551000D02*
X112955250Y-89551000D01*
X126594600Y-61439800D02*
X126554800Y-61400000D01*
X110280001Y-93880001D02*
X111880001Y-92280001D01*
X131493749Y-79825000D02*
X126554800Y-74886051D01*
X112393750Y-91766252D02*
X112393750Y-90112500D01*
X110862500Y-93297501D02*
X110280001Y-93880001D01*
D22*
X112393750Y-91766251D02*
X110862500Y-93297501D01*
D21*
X110280001Y-93880001D02*
X102360001Y-101800000D01*
X131493749Y-79825000D02*
X131425000Y-79825000D01*
X131425000Y-79825000D02*
X121699000Y-89551000D01*
X111880001Y-92280001D02*
X112393750Y-91766252D01*
X126554800Y-74886051D02*
X126554800Y-61400000D01*
X112955250Y-89551000D02*
X112393750Y-90112500D01*
X112393750Y-91766252D02*
X112393750Y-91766251D01*
%TD*%
%TA.AperFunction,Conductor*%
%TO.N,5V*%
G36*
X122909821Y-58019685D02*
G01*
X122955576Y-58072489D01*
X122964400Y-58099811D01*
X122966913Y-58112445D01*
X122966913Y-58112448D01*
X123027252Y-58258122D01*
X123027259Y-58258135D01*
X123114860Y-58389238D01*
X123114863Y-58389242D01*
X123226357Y-58500736D01*
X123226361Y-58500739D01*
X123357464Y-58588340D01*
X123357477Y-58588347D01*
X123503148Y-58648685D01*
X123503153Y-58648687D01*
X123657803Y-58679449D01*
X123657806Y-58679450D01*
X123657808Y-58679450D01*
X123815494Y-58679450D01*
X123815495Y-58679449D01*
X123970147Y-58648687D01*
X124115829Y-58588344D01*
X124246939Y-58500739D01*
X124358439Y-58389239D01*
X124446044Y-58258129D01*
X124506387Y-58112447D01*
X124508900Y-58099809D01*
X124523616Y-58071676D01*
X124536805Y-58042797D01*
X124539692Y-58040941D01*
X124541284Y-58037899D01*
X124568876Y-58022185D01*
X124595583Y-58005023D01*
X124600174Y-58004362D01*
X124601999Y-58003324D01*
X124630518Y-58000000D01*
X124876000Y-58000000D01*
X124943039Y-58019685D01*
X124988794Y-58072489D01*
X125000000Y-58124000D01*
X125000000Y-59416204D01*
X124980315Y-59483243D01*
X124927511Y-59528998D01*
X124915159Y-59533858D01*
X124862502Y-59551383D01*
X124862496Y-59551386D01*
X124741462Y-59629171D01*
X124741451Y-59629179D01*
X124688659Y-59674923D01*
X124594433Y-59783664D01*
X124594430Y-59783668D01*
X124534664Y-59914534D01*
X124514976Y-59981582D01*
X124494500Y-60124001D01*
X124494500Y-69876000D01*
X124474815Y-69943039D01*
X124422011Y-69988794D01*
X124370500Y-70000000D01*
X121300736Y-70000000D01*
X121233697Y-69980315D01*
X121187942Y-69927511D01*
X121177998Y-69858353D01*
X121197634Y-69807109D01*
X121286627Y-69673921D01*
X121286627Y-69673920D01*
X121286631Y-69673915D01*
X121362051Y-69491836D01*
X121400500Y-69298541D01*
X121400500Y-69101460D01*
X121400500Y-69101457D01*
X121400499Y-69101455D01*
X121362053Y-68908172D01*
X121362050Y-68908163D01*
X121311172Y-68785331D01*
X121286632Y-68726088D01*
X121286631Y-68726085D01*
X121286629Y-68726082D01*
X121286627Y-68726078D01*
X121177139Y-68562218D01*
X121177136Y-68562214D01*
X121036319Y-68421397D01*
X121002834Y-68360074D01*
X121000000Y-68333716D01*
X121000000Y-67608001D01*
X121019685Y-67540962D01*
X121072489Y-67495207D01*
X121099809Y-67486384D01*
X121128550Y-67480666D01*
X121183497Y-67469737D01*
X121329179Y-67409394D01*
X121460289Y-67321789D01*
X121571789Y-67210289D01*
X121659394Y-67079179D01*
X121719737Y-66933497D01*
X121750500Y-66778842D01*
X121750500Y-66621158D01*
X121750500Y-66621155D01*
X121750499Y-66621153D01*
X121719738Y-66466510D01*
X121719737Y-66466503D01*
X121719735Y-66466498D01*
X121659397Y-66320827D01*
X121659390Y-66320814D01*
X121571789Y-66189711D01*
X121571786Y-66189707D01*
X121460292Y-66078213D01*
X121460288Y-66078210D01*
X121329185Y-65990609D01*
X121329172Y-65990602D01*
X121183501Y-65930264D01*
X121183491Y-65930261D01*
X121099808Y-65913615D01*
X121037897Y-65881229D01*
X121003323Y-65820513D01*
X121000000Y-65791998D01*
X121000000Y-64117947D01*
X121019685Y-64050908D01*
X121072489Y-64005153D01*
X121099809Y-63996330D01*
X121168435Y-63982678D01*
X121233497Y-63969737D01*
X121379179Y-63909394D01*
X121510289Y-63821789D01*
X121621789Y-63710289D01*
X121709394Y-63579179D01*
X121769737Y-63433497D01*
X121800500Y-63278842D01*
X121800500Y-63121158D01*
X121800500Y-63121155D01*
X121800499Y-63121153D01*
X121769738Y-62966510D01*
X121769737Y-62966503D01*
X121769735Y-62966498D01*
X121709397Y-62820827D01*
X121709390Y-62820814D01*
X121621789Y-62689711D01*
X121621786Y-62689707D01*
X121510292Y-62578213D01*
X121510288Y-62578210D01*
X121379185Y-62490609D01*
X121379172Y-62490602D01*
X121233501Y-62430264D01*
X121233491Y-62430261D01*
X121099808Y-62403669D01*
X121037897Y-62371284D01*
X121003323Y-62310568D01*
X121000000Y-62282052D01*
X121000000Y-58124000D01*
X121019685Y-58056961D01*
X121072489Y-58011206D01*
X121124000Y-58000000D01*
X122842782Y-58000000D01*
X122909821Y-58019685D01*
G37*
%TD.AperFunction*%
%TD*%
%TA.AperFunction,Conductor*%
%TO.N,3.3V*%
G36*
X126340689Y-60019685D02*
G01*
X126342534Y-60020893D01*
X126415421Y-60069595D01*
X126415423Y-60069596D01*
X126415427Y-60069598D01*
X126546767Y-60124000D01*
X126561103Y-60129938D01*
X126715089Y-60160568D01*
X126715753Y-60160700D01*
X126715756Y-60160701D01*
X126715758Y-60160701D01*
X126873444Y-60160701D01*
X126873445Y-60160700D01*
X127028097Y-60129938D01*
X127173779Y-60069595D01*
X127246659Y-60020897D01*
X127313336Y-60000020D01*
X127315550Y-60000000D01*
X127683717Y-60000000D01*
X127750756Y-60019685D01*
X127771398Y-60036319D01*
X127963681Y-60228602D01*
X127997166Y-60289925D01*
X128000000Y-60316283D01*
X128000000Y-61099875D01*
X127980315Y-61166914D01*
X127950312Y-61199141D01*
X127892452Y-61242455D01*
X127806206Y-61357664D01*
X127806202Y-61357671D01*
X127755908Y-61492517D01*
X127749501Y-61552116D01*
X127749500Y-61552135D01*
X127749500Y-64247870D01*
X127749501Y-64247876D01*
X127755908Y-64307483D01*
X127806202Y-64442328D01*
X127806203Y-64442329D01*
X127806204Y-64442331D01*
X127892454Y-64557546D01*
X127950311Y-64600858D01*
X127992182Y-64656789D01*
X128000000Y-64700123D01*
X128000000Y-74000000D01*
X131963181Y-77963181D01*
X131996666Y-78024504D01*
X131999500Y-78050862D01*
X131999500Y-80228966D01*
X131979815Y-80296005D01*
X131963181Y-80316647D01*
X131717612Y-80562215D01*
X131717609Y-80562219D01*
X131608121Y-80726079D01*
X131608116Y-80726089D01*
X131532698Y-80908163D01*
X131532696Y-80908171D01*
X131494249Y-81101455D01*
X131494249Y-81298544D01*
X131515696Y-81406366D01*
X131509469Y-81475958D01*
X131481760Y-81518238D01*
X122036319Y-90963681D01*
X121974996Y-90997166D01*
X121948638Y-91000000D01*
X119593834Y-91000000D01*
X119526795Y-90980315D01*
X119481040Y-90927511D01*
X119471096Y-90858353D01*
X119490732Y-90807108D01*
X119509394Y-90779179D01*
X119569737Y-90633497D01*
X119600500Y-90478842D01*
X119600500Y-90321158D01*
X119600500Y-90321155D01*
X119600499Y-90321153D01*
X119590878Y-90272784D01*
X119569737Y-90166503D01*
X119569735Y-90166498D01*
X119509397Y-90020827D01*
X119509390Y-90020814D01*
X119421789Y-89889711D01*
X119421786Y-89889707D01*
X119310292Y-89778213D01*
X119310288Y-89778210D01*
X119179185Y-89690609D01*
X119179172Y-89690602D01*
X119033501Y-89630264D01*
X119033489Y-89630261D01*
X118878845Y-89599500D01*
X118878842Y-89599500D01*
X118721158Y-89599500D01*
X118721155Y-89599500D01*
X118566510Y-89630261D01*
X118566498Y-89630264D01*
X118420827Y-89690602D01*
X118420814Y-89690609D01*
X118289711Y-89778210D01*
X118289707Y-89778213D01*
X118178213Y-89889707D01*
X118178210Y-89889711D01*
X118090609Y-90020814D01*
X118090602Y-90020827D01*
X118030264Y-90166498D01*
X118030261Y-90166510D01*
X117999500Y-90321153D01*
X117999500Y-90478846D01*
X118030261Y-90633489D01*
X118030264Y-90633501D01*
X118090602Y-90779172D01*
X118090606Y-90779179D01*
X118109268Y-90807108D01*
X118130146Y-90873786D01*
X118111662Y-90941166D01*
X118059684Y-90987856D01*
X118006166Y-91000000D01*
X114999999Y-91000000D01*
X104000000Y-101999999D01*
X104000000Y-105876000D01*
X103980315Y-105943039D01*
X103927511Y-105988794D01*
X103876000Y-106000000D01*
X101124000Y-106000000D01*
X101056961Y-105980315D01*
X101011206Y-105927511D01*
X101000000Y-105876000D01*
X101000000Y-105517071D01*
X101019685Y-105450032D01*
X101072489Y-105404277D01*
X101141647Y-105394333D01*
X101205203Y-105423358D01*
X101223266Y-105442760D01*
X101237809Y-105462187D01*
X101237812Y-105462190D01*
X101352906Y-105548350D01*
X101352913Y-105548354D01*
X101487620Y-105598596D01*
X101487627Y-105598598D01*
X101547155Y-105604999D01*
X101547172Y-105605000D01*
X102110000Y-105605000D01*
X102110000Y-104784560D01*
X102163147Y-104815245D01*
X102292857Y-104850000D01*
X102427143Y-104850000D01*
X102556853Y-104815245D01*
X102610000Y-104784560D01*
X102610000Y-105605000D01*
X103172828Y-105605000D01*
X103172844Y-105604999D01*
X103232372Y-105598598D01*
X103232379Y-105598596D01*
X103367086Y-105548354D01*
X103367093Y-105548350D01*
X103482187Y-105462190D01*
X103482190Y-105462187D01*
X103568350Y-105347093D01*
X103568354Y-105347086D01*
X103618596Y-105212379D01*
X103618598Y-105212372D01*
X103624999Y-105152844D01*
X103625000Y-105152827D01*
X103625000Y-104590000D01*
X102804560Y-104590000D01*
X102835245Y-104536853D01*
X102870000Y-104407143D01*
X102870000Y-104272857D01*
X102835245Y-104143147D01*
X102804560Y-104090000D01*
X103625000Y-104090000D01*
X103625000Y-103527172D01*
X103624999Y-103527155D01*
X103618598Y-103467627D01*
X103618596Y-103467620D01*
X103568354Y-103332913D01*
X103568350Y-103332906D01*
X103482190Y-103217812D01*
X103482187Y-103217809D01*
X103367093Y-103131649D01*
X103367086Y-103131645D01*
X103232379Y-103081403D01*
X103232372Y-103081401D01*
X103172844Y-103075000D01*
X103138892Y-103075000D01*
X103071853Y-103055315D01*
X103026098Y-103002511D01*
X103016154Y-102933353D01*
X103045179Y-102869797D01*
X103060781Y-102855477D01*
X103060864Y-102854417D01*
X102497575Y-102291128D01*
X102556854Y-102275245D01*
X102673148Y-102208102D01*
X102768103Y-102113147D01*
X102835246Y-101996853D01*
X102851129Y-101937574D01*
X103414418Y-102500863D01*
X103414419Y-102500863D01*
X103441925Y-102463005D01*
X103532321Y-102285594D01*
X103593853Y-102096222D01*
X103625001Y-101899563D01*
X103625001Y-101700436D01*
X103593853Y-101503777D01*
X103532321Y-101314405D01*
X103441925Y-101136994D01*
X103414418Y-101099135D01*
X103414418Y-101099134D01*
X102851129Y-101662424D01*
X102835246Y-101603147D01*
X102768103Y-101486853D01*
X102673148Y-101391898D01*
X102556854Y-101324755D01*
X102497575Y-101308871D01*
X103060865Y-100745581D01*
X103060864Y-100745580D01*
X103023007Y-100718075D01*
X102871276Y-100640763D01*
X102820481Y-100592789D01*
X102803686Y-100524968D01*
X102826224Y-100458833D01*
X102871276Y-100419795D01*
X103023266Y-100342353D01*
X103184418Y-100225269D01*
X103325269Y-100084418D01*
X103442353Y-99923266D01*
X103532785Y-99745783D01*
X103594339Y-99556339D01*
X103625500Y-99359597D01*
X103625500Y-99160403D01*
X103594339Y-98963661D01*
X103594338Y-98963657D01*
X103594338Y-98963656D01*
X103532786Y-98774219D01*
X103442352Y-98596733D01*
X103325269Y-98435582D01*
X103184418Y-98294731D01*
X103023266Y-98177647D01*
X102871827Y-98100485D01*
X102821031Y-98052510D01*
X102804236Y-97984689D01*
X102826773Y-97918554D01*
X102871827Y-97879515D01*
X102881116Y-97874781D01*
X103023266Y-97802353D01*
X103184418Y-97685269D01*
X103325269Y-97544418D01*
X103442353Y-97383266D01*
X103532785Y-97205783D01*
X103594339Y-97016339D01*
X103625500Y-96819597D01*
X103625500Y-96620403D01*
X103594339Y-96423661D01*
X103594338Y-96423657D01*
X103594338Y-96423656D01*
X103532786Y-96234219D01*
X103442352Y-96056733D01*
X103325269Y-95895582D01*
X103184418Y-95754731D01*
X103023266Y-95637647D01*
X102871827Y-95560485D01*
X102821031Y-95512510D01*
X102804236Y-95444689D01*
X102826773Y-95378554D01*
X102871827Y-95339515D01*
X102881116Y-95334781D01*
X103023266Y-95262353D01*
X103184418Y-95145269D01*
X103325269Y-95004418D01*
X103442353Y-94843266D01*
X103532785Y-94665783D01*
X103594339Y-94476339D01*
X103601337Y-94432150D01*
X103631265Y-94369019D01*
X103636094Y-94363905D01*
X109963681Y-88036319D01*
X110025004Y-88002834D01*
X110051362Y-88000000D01*
X111591500Y-88000000D01*
X111658539Y-88019685D01*
X111704294Y-88072489D01*
X111714238Y-88141647D01*
X111706061Y-88171452D01*
X111661514Y-88278998D01*
X111661511Y-88279010D01*
X111630750Y-88433653D01*
X111630750Y-88591346D01*
X111661511Y-88745989D01*
X111661514Y-88746001D01*
X111721852Y-88891672D01*
X111721859Y-88891685D01*
X111809460Y-89022788D01*
X111809463Y-89022792D01*
X111920957Y-89134286D01*
X111920961Y-89134289D01*
X112052064Y-89221890D01*
X112052077Y-89221897D01*
X112197748Y-89282235D01*
X112197753Y-89282237D01*
X112352403Y-89312999D01*
X112352406Y-89313000D01*
X112352408Y-89313000D01*
X112510094Y-89313000D01*
X112510095Y-89312999D01*
X112664747Y-89282237D01*
X112810429Y-89221894D01*
X112941539Y-89134289D01*
X113053039Y-89022789D01*
X113140644Y-88891679D01*
X113200987Y-88745997D01*
X113231750Y-88591342D01*
X113231750Y-88433658D01*
X113231750Y-88433655D01*
X113231749Y-88433653D01*
X113219035Y-88369735D01*
X113200987Y-88279003D01*
X113199570Y-88275581D01*
X113156439Y-88171452D01*
X113148970Y-88101983D01*
X113180246Y-88039504D01*
X113240335Y-88003852D01*
X113271000Y-88000000D01*
X118238239Y-88000000D01*
X118305278Y-88019685D01*
X118341342Y-88055110D01*
X118378212Y-88110291D01*
X118489707Y-88221786D01*
X118489711Y-88221789D01*
X118620814Y-88309390D01*
X118620827Y-88309397D01*
X118766498Y-88369735D01*
X118766503Y-88369737D01*
X118921153Y-88400499D01*
X118921156Y-88400500D01*
X118921158Y-88400500D01*
X119078844Y-88400500D01*
X119078845Y-88400499D01*
X119233497Y-88369737D01*
X119379179Y-88309394D01*
X119510289Y-88221789D01*
X119621789Y-88110289D01*
X119658659Y-88055109D01*
X119712270Y-88010304D01*
X119761761Y-88000000D01*
X121000000Y-88000000D01*
X128997972Y-80002027D01*
X129059293Y-79968544D01*
X129061374Y-79968110D01*
X129091835Y-79962051D01*
X129273914Y-79886632D01*
X129437782Y-79777139D01*
X129577139Y-79637782D01*
X129686632Y-79473914D01*
X129762051Y-79291835D01*
X129800500Y-79098541D01*
X129800500Y-78901459D01*
X129800500Y-78901456D01*
X129762052Y-78708170D01*
X129762051Y-78708169D01*
X129762051Y-78708165D01*
X129755287Y-78691836D01*
X129686635Y-78526092D01*
X129686628Y-78526079D01*
X129577139Y-78362218D01*
X129577136Y-78362214D01*
X129437785Y-78222863D01*
X129437781Y-78222860D01*
X129273920Y-78113371D01*
X129273907Y-78113364D01*
X129091839Y-78037950D01*
X129091829Y-78037947D01*
X128898543Y-77999500D01*
X128898541Y-77999500D01*
X128050862Y-77999500D01*
X127983823Y-77979815D01*
X127963181Y-77963181D01*
X125036319Y-75036319D01*
X125002834Y-74974996D01*
X125000000Y-74948638D01*
X125000000Y-60124000D01*
X125019685Y-60056961D01*
X125072489Y-60011206D01*
X125124000Y-60000000D01*
X126273650Y-60000000D01*
X126340689Y-60019685D01*
G37*
%TD.AperFunction*%
%TA.AperFunction,Conductor*%
G36*
X101884756Y-101996853D02*
G01*
X101951899Y-102113147D01*
X102046854Y-102208102D01*
X102163148Y-102275245D01*
X102222426Y-102291128D01*
X101659135Y-102854417D01*
X101659393Y-102857683D01*
X101696659Y-102906013D01*
X101702638Y-102975626D01*
X101670032Y-103037421D01*
X101609193Y-103071778D01*
X101581108Y-103075000D01*
X101547155Y-103075000D01*
X101487627Y-103081401D01*
X101487620Y-103081403D01*
X101352913Y-103131645D01*
X101352906Y-103131649D01*
X101237812Y-103217809D01*
X101237810Y-103217811D01*
X101223265Y-103237241D01*
X101167330Y-103279111D01*
X101097639Y-103284093D01*
X101036316Y-103250607D01*
X101002833Y-103189283D01*
X101000000Y-103162928D01*
X101000000Y-102433748D01*
X101019685Y-102366709D01*
X101072489Y-102320954D01*
X101141647Y-102311010D01*
X101205203Y-102340035D01*
X101234485Y-102377453D01*
X101278078Y-102463008D01*
X101305581Y-102500863D01*
X101305582Y-102500864D01*
X101868872Y-101937574D01*
X101884756Y-101996853D01*
G37*
%TD.AperFunction*%
%TA.AperFunction,Conductor*%
G36*
X101205203Y-99801137D02*
G01*
X101234483Y-99838553D01*
X101277647Y-99923266D01*
X101394731Y-100084418D01*
X101535582Y-100225269D01*
X101696734Y-100342353D01*
X101848721Y-100419794D01*
X101848723Y-100419795D01*
X101899519Y-100467769D01*
X101916314Y-100535590D01*
X101893777Y-100601725D01*
X101848724Y-100640764D01*
X101696994Y-100718075D01*
X101659136Y-100745580D01*
X101659136Y-100745581D01*
X102222426Y-101308871D01*
X102163148Y-101324755D01*
X102046854Y-101391898D01*
X101951899Y-101486853D01*
X101884756Y-101603147D01*
X101868872Y-101662425D01*
X101305582Y-101099135D01*
X101305581Y-101099135D01*
X101278076Y-101136993D01*
X101234484Y-101222547D01*
X101186510Y-101273342D01*
X101118689Y-101290137D01*
X101052554Y-101267599D01*
X101009103Y-101212884D01*
X101000000Y-101166251D01*
X101000000Y-99894850D01*
X101019685Y-99827811D01*
X101072489Y-99782056D01*
X101141647Y-99772112D01*
X101205203Y-99801137D01*
G37*
%TD.AperFunction*%
%TD*%
%TA.AperFunction,Conductor*%
%TO.N,GND*%
G36*
X138004042Y-38100765D02*
G01*
X138028041Y-38102337D01*
X138239839Y-38116219D01*
X138255900Y-38118334D01*
X138483662Y-38163639D01*
X138499316Y-38167834D01*
X138719218Y-38242481D01*
X138734189Y-38248682D01*
X138931453Y-38345961D01*
X138942460Y-38351390D01*
X138956506Y-38359500D01*
X139149583Y-38488509D01*
X139162452Y-38498383D01*
X139337038Y-38651492D01*
X139348507Y-38662961D01*
X139501616Y-38837547D01*
X139511490Y-38850416D01*
X139640499Y-39043493D01*
X139648609Y-39057539D01*
X139751314Y-39265803D01*
X139757521Y-39280788D01*
X139832163Y-39500676D01*
X139836361Y-39516343D01*
X139881663Y-39744087D01*
X139883781Y-39760169D01*
X139899235Y-39995956D01*
X139899500Y-40004066D01*
X139899500Y-105495933D01*
X139899235Y-105504043D01*
X139883781Y-105739830D01*
X139881663Y-105755912D01*
X139836361Y-105983656D01*
X139832163Y-105999323D01*
X139757521Y-106219211D01*
X139751314Y-106234196D01*
X139648609Y-106442460D01*
X139640499Y-106456506D01*
X139511490Y-106649583D01*
X139501616Y-106662452D01*
X139348507Y-106837038D01*
X139337038Y-106848507D01*
X139162452Y-107001616D01*
X139149583Y-107011490D01*
X138956506Y-107140499D01*
X138942460Y-107148609D01*
X138734196Y-107251314D01*
X138719211Y-107257521D01*
X138499323Y-107332163D01*
X138483656Y-107336361D01*
X138255912Y-107381663D01*
X138239830Y-107383781D01*
X138004043Y-107399235D01*
X137995933Y-107399500D01*
X75004067Y-107399500D01*
X74995957Y-107399235D01*
X74760169Y-107383781D01*
X74744087Y-107381663D01*
X74516343Y-107336361D01*
X74500676Y-107332163D01*
X74280788Y-107257521D01*
X74265803Y-107251314D01*
X74057539Y-107148609D01*
X74043493Y-107140499D01*
X73850416Y-107011490D01*
X73837547Y-107001616D01*
X73662961Y-106848507D01*
X73651492Y-106837038D01*
X73498383Y-106662452D01*
X73488509Y-106649583D01*
X73359500Y-106456506D01*
X73351390Y-106442460D01*
X73316061Y-106370820D01*
X73248682Y-106234189D01*
X73242481Y-106219218D01*
X73167834Y-105999316D01*
X73163638Y-105983656D01*
X73118334Y-105755900D01*
X73116219Y-105739839D01*
X73101619Y-105517071D01*
X73100765Y-105504042D01*
X73100500Y-105495933D01*
X73100500Y-84629500D01*
X73120185Y-84562461D01*
X73172989Y-84516706D01*
X73224500Y-84505500D01*
X78115980Y-84505500D01*
X78115988Y-84505500D01*
X78184350Y-84500856D01*
X78217583Y-84496320D01*
X78217599Y-84496316D01*
X78217603Y-84496316D01*
X78219793Y-84495864D01*
X78289428Y-84501585D01*
X78344915Y-84544045D01*
X78355353Y-84561007D01*
X78417647Y-84683266D01*
X78534731Y-84844418D01*
X78675582Y-84985269D01*
X78836734Y-85102353D01*
X78906453Y-85137877D01*
X78988172Y-85179515D01*
X79038968Y-85227490D01*
X79055763Y-85295311D01*
X79033225Y-85361446D01*
X78988172Y-85400485D01*
X78836733Y-85477647D01*
X78777753Y-85520499D01*
X78675582Y-85594731D01*
X78675580Y-85594733D01*
X78675579Y-85594733D01*
X78534733Y-85735579D01*
X78534733Y-85735580D01*
X78534731Y-85735582D01*
X78484447Y-85804790D01*
X78417647Y-85896733D01*
X78327213Y-86074219D01*
X78265661Y-86263656D01*
X78265661Y-86263659D01*
X78234500Y-86460403D01*
X78234500Y-86659596D01*
X78265661Y-86856340D01*
X78265661Y-86856343D01*
X78327213Y-87045780D01*
X78327215Y-87045783D01*
X78417647Y-87223266D01*
X78534731Y-87384418D01*
X78675582Y-87525269D01*
X78836734Y-87642353D01*
X78927603Y-87688653D01*
X78988171Y-87719514D01*
X79038967Y-87767489D01*
X79055762Y-87835310D01*
X79033225Y-87901445D01*
X78988171Y-87940483D01*
X78836738Y-88017642D01*
X78729299Y-88095702D01*
X78675582Y-88134730D01*
X78675580Y-88134732D01*
X78675579Y-88134732D01*
X78534733Y-88275578D01*
X78534733Y-88275579D01*
X78534731Y-88275581D01*
X78513222Y-88305186D01*
X78417647Y-88436732D01*
X78327213Y-88614218D01*
X78265661Y-88803655D01*
X78265661Y-88803658D01*
X78234500Y-89000402D01*
X78234500Y-89199595D01*
X78265661Y-89396339D01*
X78265661Y-89396342D01*
X78327213Y-89585779D01*
X78327215Y-89585782D01*
X78417647Y-89763265D01*
X78534731Y-89924417D01*
X78675582Y-90065268D01*
X78836734Y-90182352D01*
X78907724Y-90218523D01*
X78988174Y-90259515D01*
X79038970Y-90307490D01*
X79055765Y-90375311D01*
X79033227Y-90441446D01*
X78988174Y-90480485D01*
X78836733Y-90557648D01*
X78744790Y-90624448D01*
X78675582Y-90674732D01*
X78675580Y-90674734D01*
X78675579Y-90674734D01*
X78534733Y-90815580D01*
X78534733Y-90815581D01*
X78534731Y-90815583D01*
X78484447Y-90884791D01*
X78417647Y-90976734D01*
X78327213Y-91154220D01*
X78265661Y-91343657D01*
X78265661Y-91343660D01*
X78243271Y-91485024D01*
X78234500Y-91540404D01*
X78234500Y-91739598D01*
X78250080Y-91837969D01*
X78265661Y-91936341D01*
X78265661Y-91936344D01*
X78327213Y-92125781D01*
X78327215Y-92125784D01*
X78417647Y-92303267D01*
X78534731Y-92464419D01*
X78675582Y-92605270D01*
X78836734Y-92722354D01*
X78959631Y-92784973D01*
X78988171Y-92799515D01*
X79038967Y-92847490D01*
X79055762Y-92915311D01*
X79033225Y-92981446D01*
X78988171Y-93020484D01*
X78836738Y-93097643D01*
X78759018Y-93154111D01*
X78675582Y-93214731D01*
X78675580Y-93214733D01*
X78675579Y-93214733D01*
X78534733Y-93355579D01*
X78534733Y-93355580D01*
X78534731Y-93355582D01*
X78484447Y-93424790D01*
X78417647Y-93516733D01*
X78327213Y-93694219D01*
X78265661Y-93883656D01*
X78265661Y-93883659D01*
X78234500Y-94080403D01*
X78234500Y-94279596D01*
X78265661Y-94476340D01*
X78265661Y-94476343D01*
X78327213Y-94665780D01*
X78417647Y-94843266D01*
X78534731Y-95004418D01*
X78675582Y-95145269D01*
X78836734Y-95262353D01*
X78906453Y-95297877D01*
X78988172Y-95339515D01*
X79038968Y-95387490D01*
X79055763Y-95455311D01*
X79033225Y-95521446D01*
X78988172Y-95560485D01*
X78836733Y-95637647D01*
X78744790Y-95704447D01*
X78675582Y-95754731D01*
X78675580Y-95754733D01*
X78675579Y-95754733D01*
X78534733Y-95895579D01*
X78534733Y-95895580D01*
X78534731Y-95895582D01*
X78484447Y-95964790D01*
X78417647Y-96056733D01*
X78327213Y-96234219D01*
X78265661Y-96423656D01*
X78265661Y-96423659D01*
X78234500Y-96620403D01*
X78234500Y-96819596D01*
X78265661Y-97016340D01*
X78265661Y-97016343D01*
X78327213Y-97205780D01*
X78403168Y-97354850D01*
X78417647Y-97383266D01*
X78534731Y-97544418D01*
X78675582Y-97685269D01*
X78836734Y-97802353D01*
X78906453Y-97837877D01*
X78988172Y-97879515D01*
X79038968Y-97927490D01*
X79055763Y-97995311D01*
X79033225Y-98061446D01*
X78988172Y-98100485D01*
X78836733Y-98177647D01*
X78744790Y-98244447D01*
X78675582Y-98294731D01*
X78675580Y-98294733D01*
X78675579Y-98294733D01*
X78534733Y-98435579D01*
X78534733Y-98435580D01*
X78534731Y-98435582D01*
X78484447Y-98504790D01*
X78417647Y-98596733D01*
X78327213Y-98774219D01*
X78265661Y-98963656D01*
X78265661Y-98963659D01*
X78237787Y-99139652D01*
X78234500Y-99160403D01*
X78234500Y-99359597D01*
X78240902Y-99400018D01*
X78265661Y-99556340D01*
X78265661Y-99556343D01*
X78327213Y-99745780D01*
X78403168Y-99894850D01*
X78417647Y-99923266D01*
X78534731Y-100084418D01*
X78675582Y-100225269D01*
X78836734Y-100342353D01*
X78988172Y-100419514D01*
X79038968Y-100467488D01*
X79055763Y-100535309D01*
X79033226Y-100601444D01*
X78988172Y-100640483D01*
X78836737Y-100717643D01*
X78729298Y-100795703D01*
X78675581Y-100834731D01*
X78675579Y-100834733D01*
X78675578Y-100834733D01*
X78534732Y-100975579D01*
X78534732Y-100975580D01*
X78534730Y-100975582D01*
X78484446Y-101044790D01*
X78417646Y-101136733D01*
X78327212Y-101314219D01*
X78265660Y-101503656D01*
X78265660Y-101503659D01*
X78265660Y-101503661D01*
X78234499Y-101700403D01*
X78234499Y-101899597D01*
X78240727Y-101938920D01*
X78265660Y-102096340D01*
X78265660Y-102096343D01*
X78327212Y-102285780D01*
X78327214Y-102285783D01*
X78417646Y-102463266D01*
X78534730Y-102624418D01*
X78675581Y-102765269D01*
X78836733Y-102882353D01*
X78988720Y-102959794D01*
X78988722Y-102959795D01*
X79039518Y-103007769D01*
X79056313Y-103075590D01*
X79033776Y-103141725D01*
X78988723Y-103180764D01*
X78836993Y-103258075D01*
X78799135Y-103285580D01*
X78799135Y-103285581D01*
X79362425Y-103848871D01*
X79303147Y-103864755D01*
X79186853Y-103931898D01*
X79091898Y-104026853D01*
X79024755Y-104143147D01*
X79008871Y-104202425D01*
X78445581Y-103639135D01*
X78445580Y-103639135D01*
X78418077Y-103676990D01*
X78327679Y-103854405D01*
X78266147Y-104043777D01*
X78235000Y-104240436D01*
X78235000Y-104439563D01*
X78266147Y-104636222D01*
X78327679Y-104825594D01*
X78418077Y-105003008D01*
X78445580Y-105040863D01*
X78445581Y-105040864D01*
X79008871Y-104477574D01*
X79024755Y-104536853D01*
X79091898Y-104653147D01*
X79186853Y-104748102D01*
X79303147Y-104815245D01*
X79362425Y-104831128D01*
X78799134Y-105394417D01*
X78836994Y-105421924D01*
X79014405Y-105512320D01*
X79203777Y-105573852D01*
X79400437Y-105605000D01*
X79599563Y-105605000D01*
X79796222Y-105573852D01*
X79985594Y-105512320D01*
X80163005Y-105421924D01*
X80200863Y-105394418D01*
X80200863Y-105394417D01*
X79637574Y-104831128D01*
X79696853Y-104815245D01*
X79813147Y-104748102D01*
X79908102Y-104653147D01*
X79975245Y-104536853D01*
X79991128Y-104477574D01*
X80554417Y-105040863D01*
X80554418Y-105040863D01*
X80581924Y-105003005D01*
X80672320Y-104825594D01*
X80733852Y-104636222D01*
X80765000Y-104439563D01*
X80765000Y-104240436D01*
X80733852Y-104043777D01*
X80672320Y-103854405D01*
X80581924Y-103676994D01*
X80554417Y-103639135D01*
X80554417Y-103639134D01*
X79991128Y-104202424D01*
X79975245Y-104143147D01*
X79908102Y-104026853D01*
X79813147Y-103931898D01*
X79696853Y-103864755D01*
X79637574Y-103848871D01*
X80200864Y-103285581D01*
X80200863Y-103285580D01*
X80163006Y-103258075D01*
X80011275Y-103180763D01*
X79960480Y-103132789D01*
X79943685Y-103064968D01*
X79966223Y-102998833D01*
X80011275Y-102959795D01*
X80163265Y-102882353D01*
X80324417Y-102765269D01*
X80465268Y-102624418D01*
X80582352Y-102463266D01*
X80672784Y-102285783D01*
X80734338Y-102096339D01*
X80765499Y-101899597D01*
X80765499Y-101700403D01*
X80734338Y-101503661D01*
X80734337Y-101503657D01*
X80734337Y-101503656D01*
X80672785Y-101314219D01*
X80646738Y-101263099D01*
X80582352Y-101136734D01*
X80465268Y-100975582D01*
X80324417Y-100834731D01*
X80163265Y-100717647D01*
X80011826Y-100640485D01*
X79961030Y-100592510D01*
X79944235Y-100524689D01*
X79966772Y-100458554D01*
X80011824Y-100419516D01*
X80163266Y-100342353D01*
X80324418Y-100225269D01*
X80465269Y-100084418D01*
X80582353Y-99923266D01*
X80672785Y-99745783D01*
X80734339Y-99556339D01*
X80765500Y-99359597D01*
X80765500Y-99160403D01*
X80734339Y-98963661D01*
X80734338Y-98963657D01*
X80734338Y-98963656D01*
X80672786Y-98774219D01*
X80669938Y-98768630D01*
X80582353Y-98596734D01*
X80465269Y-98435582D01*
X80324418Y-98294731D01*
X80163266Y-98177647D01*
X80011827Y-98100485D01*
X79961031Y-98052510D01*
X79944236Y-97984689D01*
X79966773Y-97918554D01*
X80011827Y-97879515D01*
X80021116Y-97874781D01*
X80163266Y-97802353D01*
X80324418Y-97685269D01*
X80465269Y-97544418D01*
X80582353Y-97383266D01*
X80672785Y-97205783D01*
X80734339Y-97016339D01*
X80765500Y-96819597D01*
X80765500Y-96620403D01*
X80734339Y-96423661D01*
X80734338Y-96423657D01*
X80734338Y-96423656D01*
X80672786Y-96234219D01*
X80582352Y-96056733D01*
X80465269Y-95895582D01*
X80324418Y-95754731D01*
X80163266Y-95637647D01*
X80011827Y-95560485D01*
X79961031Y-95512510D01*
X79944236Y-95444689D01*
X79966773Y-95378554D01*
X80011827Y-95339515D01*
X80021116Y-95334781D01*
X80163266Y-95262353D01*
X80324418Y-95145269D01*
X80465269Y-95004418D01*
X80582353Y-94843266D01*
X80672785Y-94665783D01*
X80734339Y-94476339D01*
X80765500Y-94279597D01*
X80765500Y-94080403D01*
X80734339Y-93883661D01*
X80734338Y-93883657D01*
X80734338Y-93883656D01*
X80672786Y-93694219D01*
X80647970Y-93645515D01*
X80582353Y-93516734D01*
X80465269Y-93355582D01*
X80324418Y-93214731D01*
X80163266Y-93097647D01*
X80119180Y-93075184D01*
X80011828Y-93020485D01*
X79961032Y-92972510D01*
X79944237Y-92904689D01*
X79966775Y-92838554D01*
X80011826Y-92799516D01*
X80163266Y-92722354D01*
X80324418Y-92605270D01*
X80465269Y-92464419D01*
X80582353Y-92303267D01*
X80672785Y-92125784D01*
X80700272Y-92041188D01*
X80734338Y-91936344D01*
X80734338Y-91936343D01*
X80734339Y-91936340D01*
X80765500Y-91739598D01*
X80765500Y-91540404D01*
X80734339Y-91343662D01*
X80734338Y-91343658D01*
X80734338Y-91343657D01*
X80672786Y-91154220D01*
X80612295Y-91035500D01*
X80582353Y-90976735D01*
X80465269Y-90815583D01*
X80324418Y-90674732D01*
X80163266Y-90557648D01*
X80011825Y-90480485D01*
X79961029Y-90432510D01*
X79944234Y-90364689D01*
X79966771Y-90298554D01*
X80011825Y-90259515D01*
X80018526Y-90256100D01*
X80163266Y-90182352D01*
X80324418Y-90065268D01*
X80465269Y-89924417D01*
X80582353Y-89763265D01*
X80672785Y-89585782D01*
X80704841Y-89487123D01*
X80734338Y-89396342D01*
X80734338Y-89396341D01*
X80734339Y-89396338D01*
X80765500Y-89199596D01*
X80765500Y-89000402D01*
X80734339Y-88803660D01*
X80734338Y-88803656D01*
X80734338Y-88803655D01*
X80672786Y-88614218D01*
X80651624Y-88572685D01*
X80582353Y-88436733D01*
X80465269Y-88275581D01*
X80324418Y-88134730D01*
X80163266Y-88017646D01*
X80152640Y-88012232D01*
X80011828Y-87940484D01*
X79961032Y-87892509D01*
X79944237Y-87824688D01*
X79966775Y-87758553D01*
X80011826Y-87719515D01*
X80163266Y-87642353D01*
X80324418Y-87525269D01*
X80465269Y-87384418D01*
X80582353Y-87223266D01*
X80672785Y-87045783D01*
X80694740Y-86978213D01*
X80734338Y-86856343D01*
X80734338Y-86856342D01*
X80734339Y-86856339D01*
X80765500Y-86659597D01*
X80765500Y-86460403D01*
X80734339Y-86263661D01*
X80734338Y-86263657D01*
X80734338Y-86263656D01*
X80672786Y-86074219D01*
X80582352Y-85896733D01*
X80465269Y-85735582D01*
X80324418Y-85594731D01*
X80163266Y-85477647D01*
X80011827Y-85400485D01*
X79961031Y-85352510D01*
X79944236Y-85284689D01*
X79966773Y-85218554D01*
X80011827Y-85179515D01*
X80021116Y-85174781D01*
X80163266Y-85102353D01*
X80324418Y-84985269D01*
X80465269Y-84844418D01*
X80582353Y-84683266D01*
X80667474Y-84516205D01*
X80715446Y-84465412D01*
X80777957Y-84448502D01*
X80786414Y-84448502D01*
X80786417Y-84448503D01*
X80930297Y-84448502D01*
X80999455Y-84438558D01*
X81137504Y-84398023D01*
X81258543Y-84320235D01*
X81311347Y-84274480D01*
X81405567Y-84165746D01*
X81465338Y-84034869D01*
X81485023Y-83967830D01*
X81485024Y-83967826D01*
X81505500Y-83825410D01*
X81505500Y-81674589D01*
X81504456Y-81642118D01*
X81503433Y-81626225D01*
X81500308Y-81593909D01*
X81478648Y-81516046D01*
X81479135Y-81447877D01*
X81485023Y-81427830D01*
X81485024Y-81427826D01*
X81505500Y-81285410D01*
X81505500Y-79134588D01*
X81504456Y-79102117D01*
X81503433Y-79086224D01*
X81500308Y-79053908D01*
X81478648Y-78976045D01*
X81479135Y-78907876D01*
X81485023Y-78887829D01*
X81485024Y-78887825D01*
X81505500Y-78745409D01*
X81505500Y-76594589D01*
X81504456Y-76562118D01*
X81503433Y-76546225D01*
X81500308Y-76513909D01*
X81478648Y-76436046D01*
X81479135Y-76367877D01*
X81485023Y-76347830D01*
X81485024Y-76347826D01*
X81505500Y-76205410D01*
X81505500Y-74629500D01*
X81525185Y-74562461D01*
X81577989Y-74516706D01*
X81629500Y-74505500D01*
X100970490Y-74505500D01*
X100970500Y-74505500D01*
X101077956Y-74493947D01*
X101129467Y-74482741D01*
X101138955Y-74479582D01*
X101208777Y-74477086D01*
X101268868Y-74512736D01*
X101278431Y-74524345D01*
X101394731Y-74684418D01*
X101535582Y-74825269D01*
X101696734Y-74942353D01*
X101766453Y-74977877D01*
X101848172Y-75019515D01*
X101898968Y-75067490D01*
X101915763Y-75135311D01*
X101893225Y-75201446D01*
X101848172Y-75240485D01*
X101696733Y-75317647D01*
X101604790Y-75384447D01*
X101535582Y-75434731D01*
X101535580Y-75434733D01*
X101535579Y-75434733D01*
X101394733Y-75575579D01*
X101394733Y-75575580D01*
X101394731Y-75575582D01*
X101344447Y-75644790D01*
X101277647Y-75736733D01*
X101187213Y-75914219D01*
X101125661Y-76103656D01*
X101125661Y-76103659D01*
X101094500Y-76300403D01*
X101094500Y-76499596D01*
X101125661Y-76696340D01*
X101125661Y-76696343D01*
X101187213Y-76885780D01*
X101187215Y-76885783D01*
X101277647Y-77063266D01*
X101394731Y-77224418D01*
X101535582Y-77365269D01*
X101696734Y-77482353D01*
X101825938Y-77548185D01*
X101848171Y-77559514D01*
X101898967Y-77607489D01*
X101915762Y-77675310D01*
X101893225Y-77741445D01*
X101848171Y-77780483D01*
X101696738Y-77857642D01*
X101605375Y-77924022D01*
X101535582Y-77974730D01*
X101535580Y-77974732D01*
X101535579Y-77974732D01*
X101394733Y-78115578D01*
X101394733Y-78115579D01*
X101394731Y-78115581D01*
X101358442Y-78165529D01*
X101277647Y-78276732D01*
X101187213Y-78454218D01*
X101125661Y-78643655D01*
X101125661Y-78643658D01*
X101094500Y-78840402D01*
X101094500Y-79039595D01*
X101125661Y-79236339D01*
X101125661Y-79236342D01*
X101187213Y-79425779D01*
X101187215Y-79425782D01*
X101277647Y-79603265D01*
X101394731Y-79764417D01*
X101535582Y-79905268D01*
X101696734Y-80022352D01*
X101830368Y-80090442D01*
X101848173Y-80099514D01*
X101898969Y-80147489D01*
X101915764Y-80215310D01*
X101893227Y-80281445D01*
X101848173Y-80320483D01*
X101696738Y-80397643D01*
X101589299Y-80475703D01*
X101535582Y-80514731D01*
X101535580Y-80514733D01*
X101535579Y-80514733D01*
X101394733Y-80655579D01*
X101394733Y-80655580D01*
X101394731Y-80655582D01*
X101355872Y-80709067D01*
X101277647Y-80816733D01*
X101187213Y-80994219D01*
X101125661Y-81183656D01*
X101125661Y-81183659D01*
X101094500Y-81380403D01*
X101094500Y-81579596D01*
X101125661Y-81776340D01*
X101125661Y-81776343D01*
X101187213Y-81965780D01*
X101274708Y-82137497D01*
X101277647Y-82143266D01*
X101394731Y-82304418D01*
X101535582Y-82445269D01*
X101696734Y-82562353D01*
X101766453Y-82597877D01*
X101848172Y-82639515D01*
X101898968Y-82687490D01*
X101915763Y-82755311D01*
X101893225Y-82821446D01*
X101848172Y-82860485D01*
X101696733Y-82937647D01*
X101604790Y-83004447D01*
X101535582Y-83054731D01*
X101535580Y-83054733D01*
X101535579Y-83054733D01*
X101394733Y-83195579D01*
X101394733Y-83195580D01*
X101394731Y-83195582D01*
X101359923Y-83243491D01*
X101277647Y-83356733D01*
X101187213Y-83534219D01*
X101125661Y-83723656D01*
X101125661Y-83723659D01*
X101094500Y-83920403D01*
X101094500Y-84119596D01*
X101125661Y-84316340D01*
X101125661Y-84316343D01*
X101187213Y-84505780D01*
X101206710Y-84544045D01*
X101277647Y-84683266D01*
X101394731Y-84844418D01*
X101535582Y-84985269D01*
X101696734Y-85102353D01*
X101766453Y-85137877D01*
X101848172Y-85179515D01*
X101898968Y-85227490D01*
X101915763Y-85295311D01*
X101893225Y-85361446D01*
X101848172Y-85400485D01*
X101696733Y-85477647D01*
X101637753Y-85520499D01*
X101535582Y-85594731D01*
X101535580Y-85594733D01*
X101535579Y-85594733D01*
X101394733Y-85735579D01*
X101394733Y-85735580D01*
X101394731Y-85735582D01*
X101344447Y-85804790D01*
X101277647Y-85896733D01*
X101187213Y-86074219D01*
X101125661Y-86263656D01*
X101125661Y-86263659D01*
X101094500Y-86460403D01*
X101094500Y-86659596D01*
X101125661Y-86856340D01*
X101125661Y-86856343D01*
X101187213Y-87045780D01*
X101187215Y-87045783D01*
X101277647Y-87223266D01*
X101394731Y-87384418D01*
X101535582Y-87525269D01*
X101696734Y-87642353D01*
X101787603Y-87688653D01*
X101848171Y-87719514D01*
X101898967Y-87767489D01*
X101915762Y-87835310D01*
X101893225Y-87901445D01*
X101848171Y-87940483D01*
X101696738Y-88017642D01*
X101589299Y-88095702D01*
X101535582Y-88134730D01*
X101535580Y-88134732D01*
X101535579Y-88134732D01*
X101394733Y-88275578D01*
X101394733Y-88275579D01*
X101394731Y-88275581D01*
X101373222Y-88305186D01*
X101277647Y-88436732D01*
X101187213Y-88614218D01*
X101125661Y-88803655D01*
X101125661Y-88803658D01*
X101094500Y-89000402D01*
X101094500Y-89199595D01*
X101125661Y-89396339D01*
X101125661Y-89396342D01*
X101187213Y-89585779D01*
X101187215Y-89585782D01*
X101277647Y-89763265D01*
X101394731Y-89924417D01*
X101535582Y-90065268D01*
X101696734Y-90182352D01*
X101767724Y-90218523D01*
X101848174Y-90259515D01*
X101898970Y-90307490D01*
X101915765Y-90375311D01*
X101893227Y-90441446D01*
X101848174Y-90480485D01*
X101696733Y-90557648D01*
X101604790Y-90624448D01*
X101535582Y-90674732D01*
X101535580Y-90674734D01*
X101535579Y-90674734D01*
X101394733Y-90815580D01*
X101394733Y-90815581D01*
X101394731Y-90815583D01*
X101344447Y-90884791D01*
X101277647Y-90976734D01*
X101187213Y-91154220D01*
X101125661Y-91343657D01*
X101125661Y-91343660D01*
X101103271Y-91485024D01*
X101094500Y-91540404D01*
X101094500Y-91739598D01*
X101110080Y-91837969D01*
X101125661Y-91936341D01*
X101125661Y-91936344D01*
X101187213Y-92125781D01*
X101187215Y-92125784D01*
X101277647Y-92303267D01*
X101394731Y-92464419D01*
X101535582Y-92605270D01*
X101696734Y-92722354D01*
X101819631Y-92784973D01*
X101848171Y-92799515D01*
X101898967Y-92847490D01*
X101915762Y-92915311D01*
X101893225Y-92981446D01*
X101848171Y-93020484D01*
X101696738Y-93097643D01*
X101619018Y-93154111D01*
X101535582Y-93214731D01*
X101535580Y-93214733D01*
X101535579Y-93214733D01*
X101394733Y-93355579D01*
X101394733Y-93355580D01*
X101394731Y-93355582D01*
X101344447Y-93424790D01*
X101277647Y-93516733D01*
X101187213Y-93694219D01*
X101125661Y-93883656D01*
X101125661Y-93883659D01*
X101094500Y-94080403D01*
X101094500Y-94279596D01*
X101125661Y-94476340D01*
X101125661Y-94476343D01*
X101187213Y-94665780D01*
X101277647Y-94843266D01*
X101394731Y-95004418D01*
X101535582Y-95145269D01*
X101696734Y-95262353D01*
X101766453Y-95297877D01*
X101848172Y-95339515D01*
X101898968Y-95387490D01*
X101915763Y-95455311D01*
X101893225Y-95521446D01*
X101848172Y-95560485D01*
X101696733Y-95637647D01*
X101604790Y-95704447D01*
X101535582Y-95754731D01*
X101535580Y-95754733D01*
X101535579Y-95754733D01*
X101394733Y-95895579D01*
X101394733Y-95895580D01*
X101394731Y-95895582D01*
X101344447Y-95964790D01*
X101277647Y-96056733D01*
X101187213Y-96234219D01*
X101125661Y-96423656D01*
X101125661Y-96423659D01*
X101094500Y-96620403D01*
X101094500Y-96621337D01*
X101094399Y-96621679D01*
X101094117Y-96625266D01*
X101093363Y-96625206D01*
X101074815Y-96688376D01*
X101022011Y-96734131D01*
X101004637Y-96739921D01*
X101004794Y-96740454D01*
X100862498Y-96782236D01*
X100862492Y-96782239D01*
X100741462Y-96860021D01*
X100741451Y-96860029D01*
X100688659Y-96905773D01*
X100594433Y-97014514D01*
X100594430Y-97014518D01*
X100534664Y-97145384D01*
X100514976Y-97212432D01*
X100494500Y-97354851D01*
X100494500Y-98625159D01*
X100503862Y-98721990D01*
X100508415Y-98745313D01*
X100512967Y-98768630D01*
X100540712Y-98861887D01*
X100613243Y-98986147D01*
X100656694Y-99040862D01*
X100761296Y-99139655D01*
X100783789Y-99151115D01*
X100834583Y-99199089D01*
X100851378Y-99266910D01*
X100828841Y-99333044D01*
X100794533Y-99365913D01*
X100741466Y-99400018D01*
X100741451Y-99400029D01*
X100688659Y-99445773D01*
X100594433Y-99554514D01*
X100594430Y-99554518D01*
X100534664Y-99685384D01*
X100514976Y-99752432D01*
X100494500Y-99894851D01*
X100494500Y-101166261D01*
X100503862Y-101263092D01*
X100508415Y-101286415D01*
X100512967Y-101309732D01*
X100540712Y-101402989D01*
X100613243Y-101527249D01*
X100656694Y-101581964D01*
X100761296Y-101680757D01*
X100781874Y-101691242D01*
X100832669Y-101739215D01*
X100849465Y-101807036D01*
X100826928Y-101873171D01*
X100792621Y-101906040D01*
X100741460Y-101938920D01*
X100741451Y-101938927D01*
X100688659Y-101984671D01*
X100594433Y-102093412D01*
X100594430Y-102093416D01*
X100534664Y-102224282D01*
X100514976Y-102291330D01*
X100494500Y-102433749D01*
X100494500Y-103162933D01*
X100497392Y-103216929D01*
X100497395Y-103216955D01*
X100500228Y-103243310D01*
X100502620Y-103258075D01*
X100508883Y-103296724D01*
X100508884Y-103296727D01*
X100559155Y-103431522D01*
X100559156Y-103431525D01*
X100592645Y-103492859D01*
X100592647Y-103492862D01*
X100678870Y-103608045D01*
X100678871Y-103608046D01*
X100720400Y-103639135D01*
X100794049Y-103694270D01*
X100855372Y-103727756D01*
X100990170Y-103778037D01*
X100990175Y-103778037D01*
X100996860Y-103779492D01*
X101058183Y-103812978D01*
X101091667Y-103874302D01*
X101094500Y-103900658D01*
X101094500Y-104783558D01*
X101074815Y-104850597D01*
X101022011Y-104896352D01*
X101004637Y-104902142D01*
X101004794Y-104902675D01*
X100862498Y-104944457D01*
X100862492Y-104944460D01*
X100741462Y-105022242D01*
X100741451Y-105022250D01*
X100688659Y-105067994D01*
X100594433Y-105176735D01*
X100594430Y-105176739D01*
X100534664Y-105307605D01*
X100514976Y-105374653D01*
X100508180Y-105421924D01*
X100494500Y-105517071D01*
X100494500Y-105876000D01*
X100494501Y-105876009D01*
X100506052Y-105983450D01*
X100506054Y-105983462D01*
X100517260Y-106034972D01*
X100551383Y-106137497D01*
X100551386Y-106137503D01*
X100629171Y-106258537D01*
X100629179Y-106258548D01*
X100674923Y-106311340D01*
X100674926Y-106311343D01*
X100674930Y-106311347D01*
X100783664Y-106405567D01*
X100783667Y-106405568D01*
X100783668Y-106405569D01*
X100880408Y-106449750D01*
X100914541Y-106465338D01*
X100981580Y-106485023D01*
X100981584Y-106485024D01*
X101124000Y-106505500D01*
X101124003Y-106505500D01*
X103875990Y-106505500D01*
X103876000Y-106505500D01*
X103983456Y-106493947D01*
X104034967Y-106482741D01*
X104069197Y-106471347D01*
X104137497Y-106448616D01*
X104137501Y-106448613D01*
X104137504Y-106448613D01*
X104258543Y-106370825D01*
X104311347Y-106325070D01*
X104405567Y-106216336D01*
X104465338Y-106085459D01*
X104485023Y-106018420D01*
X104485024Y-106018416D01*
X104505500Y-105876000D01*
X104505500Y-102260745D01*
X104525185Y-102193706D01*
X104541819Y-102173064D01*
X109700369Y-97014514D01*
X112946338Y-93768544D01*
X135799499Y-93768544D01*
X135837947Y-93961830D01*
X135837950Y-93961840D01*
X135913364Y-94143908D01*
X135913371Y-94143921D01*
X136022860Y-94307782D01*
X136022863Y-94307786D01*
X136162214Y-94447137D01*
X136162218Y-94447140D01*
X136326079Y-94556629D01*
X136326092Y-94556636D01*
X136508160Y-94632050D01*
X136508165Y-94632052D01*
X136508169Y-94632052D01*
X136508170Y-94632053D01*
X136701456Y-94670501D01*
X136701459Y-94670501D01*
X136898543Y-94670501D01*
X137028582Y-94644633D01*
X137091835Y-94632052D01*
X137273914Y-94556633D01*
X137437782Y-94447140D01*
X137577139Y-94307783D01*
X137686632Y-94143915D01*
X137762051Y-93961836D01*
X137800500Y-93768542D01*
X137800500Y-93571460D01*
X137800500Y-93571457D01*
X137762052Y-93378171D01*
X137762051Y-93378170D01*
X137762051Y-93378166D01*
X137719680Y-93275875D01*
X137712212Y-93206408D01*
X137734977Y-93154111D01*
X137743796Y-93142331D01*
X137794091Y-93007483D01*
X137800500Y-92947873D01*
X137800499Y-91852128D01*
X137794091Y-91792517D01*
X137791338Y-91785137D01*
X137743797Y-91657671D01*
X137743793Y-91657664D01*
X137657547Y-91542455D01*
X137657544Y-91542452D01*
X137542335Y-91456206D01*
X137542328Y-91456202D01*
X137407482Y-91405908D01*
X137407483Y-91405908D01*
X137347883Y-91399501D01*
X137347881Y-91399500D01*
X137347873Y-91399500D01*
X137347864Y-91399500D01*
X136252129Y-91399500D01*
X136252123Y-91399501D01*
X136192516Y-91405908D01*
X136057671Y-91456202D01*
X136057664Y-91456206D01*
X135942455Y-91542452D01*
X135942452Y-91542455D01*
X135856206Y-91657664D01*
X135856202Y-91657671D01*
X135805908Y-91792517D01*
X135799501Y-91852116D01*
X135799501Y-91852123D01*
X135799500Y-91852135D01*
X135799500Y-92947870D01*
X135799501Y-92947876D01*
X135805908Y-93007483D01*
X135856202Y-93142329D01*
X135865023Y-93154111D01*
X135889441Y-93219574D01*
X135880318Y-93275874D01*
X135837950Y-93378165D01*
X135837948Y-93378169D01*
X135837947Y-93378172D01*
X135799500Y-93571457D01*
X135799500Y-93571460D01*
X135799500Y-93768542D01*
X135799500Y-93768544D01*
X135799499Y-93768544D01*
X112946338Y-93768544D01*
X114929747Y-91785135D01*
X114991068Y-91751652D01*
X115060760Y-91756636D01*
X115116693Y-91798508D01*
X115141110Y-91863972D01*
X115131988Y-91920269D01*
X115081903Y-92041188D01*
X115081901Y-92041195D01*
X115051140Y-92195838D01*
X115051140Y-92353531D01*
X115081901Y-92508174D01*
X115081904Y-92508186D01*
X115142242Y-92653857D01*
X115142249Y-92653870D01*
X115229850Y-92784973D01*
X115229853Y-92784977D01*
X115341347Y-92896471D01*
X115341351Y-92896474D01*
X115472454Y-92984075D01*
X115472467Y-92984082D01*
X115618138Y-93044420D01*
X115618143Y-93044422D01*
X115772793Y-93075184D01*
X115772796Y-93075185D01*
X115772798Y-93075185D01*
X115930484Y-93075185D01*
X115930485Y-93075184D01*
X116085137Y-93044422D01*
X116230819Y-92984079D01*
X116361929Y-92896474D01*
X116473429Y-92784974D01*
X116561034Y-92653864D01*
X116621377Y-92508182D01*
X116652140Y-92353527D01*
X116652140Y-92195843D01*
X116652140Y-92195840D01*
X116652139Y-92195838D01*
X116621378Y-92041195D01*
X116621377Y-92041188D01*
X116561034Y-91895506D01*
X116561030Y-91895499D01*
X116473429Y-91764396D01*
X116473426Y-91764392D01*
X116426215Y-91717181D01*
X116392730Y-91655858D01*
X116397714Y-91586166D01*
X116439586Y-91530233D01*
X116505050Y-91505816D01*
X116513896Y-91505500D01*
X118006163Y-91505500D01*
X118006166Y-91505500D01*
X118104827Y-91494446D01*
X118118019Y-91492969D01*
X118118019Y-91492968D01*
X118118027Y-91492968D01*
X118171545Y-91480824D01*
X118242331Y-91456206D01*
X118277848Y-91443854D01*
X118277848Y-91443853D01*
X118277853Y-91443852D01*
X118397485Y-91363916D01*
X118449463Y-91317226D01*
X118449462Y-91317226D01*
X118449737Y-91316980D01*
X118451216Y-91315126D01*
X118524657Y-91227248D01*
X118582749Y-91188434D01*
X118643994Y-91185151D01*
X118721155Y-91200500D01*
X118721158Y-91200500D01*
X118878843Y-91200500D01*
X118939501Y-91188434D01*
X118958137Y-91184727D01*
X119027728Y-91190954D01*
X119082906Y-91233816D01*
X119086641Y-91239299D01*
X119099009Y-91258543D01*
X119099013Y-91258548D01*
X119099018Y-91258555D01*
X119144757Y-91311340D01*
X119144760Y-91311343D01*
X119144764Y-91311347D01*
X119253498Y-91405567D01*
X119253501Y-91405568D01*
X119253502Y-91405569D01*
X119364374Y-91456204D01*
X119384375Y-91465338D01*
X119451414Y-91485023D01*
X119451418Y-91485024D01*
X119593834Y-91505500D01*
X119593837Y-91505500D01*
X121948640Y-91505500D01*
X121958786Y-91504955D01*
X122002678Y-91502603D01*
X122002686Y-91502602D01*
X122002688Y-91502602D01*
X122002689Y-91502602D01*
X122009682Y-91501849D01*
X122029036Y-91499769D01*
X122029046Y-91499767D01*
X122029049Y-91499767D01*
X122038648Y-91498211D01*
X122082448Y-91491114D01*
X122217257Y-91440832D01*
X122278580Y-91407347D01*
X122393762Y-91321123D01*
X123649620Y-90065265D01*
X124851343Y-88863542D01*
X135799499Y-88863542D01*
X135837947Y-89056828D01*
X135837949Y-89056834D01*
X135880318Y-89159122D01*
X135887787Y-89228592D01*
X135865026Y-89280883D01*
X135856205Y-89292666D01*
X135856202Y-89292671D01*
X135805908Y-89427517D01*
X135799501Y-89487116D01*
X135799501Y-89487123D01*
X135799500Y-89487135D01*
X135799500Y-90582870D01*
X135799501Y-90582876D01*
X135805908Y-90642483D01*
X135856202Y-90777328D01*
X135856206Y-90777335D01*
X135942452Y-90892544D01*
X135942455Y-90892547D01*
X136057664Y-90978793D01*
X136057671Y-90978797D01*
X136192517Y-91029091D01*
X136192516Y-91029091D01*
X136199444Y-91029835D01*
X136252127Y-91035500D01*
X137347872Y-91035499D01*
X137407483Y-91029091D01*
X137542331Y-90978796D01*
X137657546Y-90892546D01*
X137743796Y-90777331D01*
X137794091Y-90642483D01*
X137800500Y-90582873D01*
X137800499Y-89487128D01*
X137794091Y-89427517D01*
X137794091Y-89427516D01*
X137743797Y-89292670D01*
X137734975Y-89280886D01*
X137710558Y-89215422D01*
X137719680Y-89159124D01*
X137762051Y-89056834D01*
X137800500Y-88863540D01*
X137800500Y-88666458D01*
X137800500Y-88666455D01*
X137762052Y-88473169D01*
X137762051Y-88473168D01*
X137762051Y-88473164D01*
X137746961Y-88436733D01*
X137686635Y-88291091D01*
X137686628Y-88291078D01*
X137577139Y-88127217D01*
X137577136Y-88127213D01*
X137437785Y-87987862D01*
X137437781Y-87987859D01*
X137273920Y-87878370D01*
X137273907Y-87878363D01*
X137091839Y-87802949D01*
X137091829Y-87802946D01*
X136898543Y-87764499D01*
X136898541Y-87764499D01*
X136701459Y-87764499D01*
X136701457Y-87764499D01*
X136508170Y-87802946D01*
X136508160Y-87802949D01*
X136326092Y-87878363D01*
X136326079Y-87878370D01*
X136162218Y-87987859D01*
X136162214Y-87987862D01*
X136022863Y-88127213D01*
X136022860Y-88127217D01*
X135913371Y-88291078D01*
X135913364Y-88291091D01*
X135837950Y-88473159D01*
X135837947Y-88473169D01*
X135799500Y-88666455D01*
X135799500Y-88666458D01*
X135799500Y-88863540D01*
X135799500Y-88863542D01*
X135799499Y-88863542D01*
X124851343Y-88863542D01*
X125142200Y-88572685D01*
X130454760Y-83260122D01*
X130466578Y-83253668D01*
X130475397Y-83243491D01*
X130496645Y-83237250D01*
X130516083Y-83226637D01*
X130529515Y-83227597D01*
X130542436Y-83223803D01*
X130563684Y-83230041D01*
X130585775Y-83231621D01*
X130598017Y-83240120D01*
X130609476Y-83243485D01*
X130636150Y-83266596D01*
X130645685Y-83277599D01*
X130645690Y-83277604D01*
X130674930Y-83311349D01*
X130674933Y-83311351D01*
X130674936Y-83311355D01*
X130675578Y-83311911D01*
X130688091Y-83324423D01*
X130711775Y-83351753D01*
X130742182Y-83371293D01*
X130756339Y-83381890D01*
X130783663Y-83405566D01*
X130814922Y-83419841D01*
X130816557Y-83420588D01*
X130828392Y-83426784D01*
X130830251Y-83427888D01*
X130832816Y-83429537D01*
X130841052Y-83433298D01*
X130872322Y-83447578D01*
X130872322Y-83447579D01*
X130896191Y-83458479D01*
X130896381Y-83458567D01*
X130896394Y-83458572D01*
X130897198Y-83458808D01*
X130913806Y-83465002D01*
X130914540Y-83465337D01*
X130939891Y-83472781D01*
X130939891Y-83472780D01*
X130972869Y-83482463D01*
X130972869Y-83482464D01*
X130980713Y-83484767D01*
X130981539Y-83485017D01*
X130981580Y-83485023D01*
X130981584Y-83485024D01*
X130982448Y-83485148D01*
X130999735Y-83488907D01*
X131034446Y-83499097D01*
X131070577Y-83499094D01*
X131088216Y-83500355D01*
X131124000Y-83505500D01*
X131124003Y-83505500D01*
X133875990Y-83505500D01*
X133876000Y-83505500D01*
X133983456Y-83493947D01*
X134034967Y-83482741D01*
X134069197Y-83471347D01*
X134137497Y-83448616D01*
X134137501Y-83448613D01*
X134137504Y-83448613D01*
X134258543Y-83370825D01*
X134311347Y-83325070D01*
X134405567Y-83216336D01*
X134465338Y-83085459D01*
X134485023Y-83018420D01*
X134485024Y-83018416D01*
X134505500Y-82876000D01*
X134505500Y-68260746D01*
X134525185Y-68193707D01*
X134541819Y-68173065D01*
X136388611Y-66326273D01*
X138321123Y-64393762D01*
X138357288Y-64353500D01*
X138373922Y-64332858D01*
X138405567Y-64288974D01*
X138465338Y-64158097D01*
X138485023Y-64091058D01*
X138485024Y-64091054D01*
X138505500Y-63948638D01*
X138505500Y-57051362D01*
X138502603Y-56997322D01*
X138499769Y-56970964D01*
X138498478Y-56963000D01*
X138493494Y-56932238D01*
X138491114Y-56917552D01*
X138440832Y-56782743D01*
X138407347Y-56721420D01*
X138321123Y-56606239D01*
X138321118Y-56606234D01*
X138321113Y-56606228D01*
X130506554Y-48791669D01*
X130506526Y-48791642D01*
X130462753Y-48752674D01*
X130462750Y-48752671D01*
X130440235Y-48734856D01*
X130440231Y-48734853D01*
X130440222Y-48734846D01*
X130392228Y-48701204D01*
X130392223Y-48701202D01*
X130260309Y-48643783D01*
X130233173Y-48636339D01*
X130192922Y-48625297D01*
X130050176Y-48607366D01*
X130050174Y-48607366D01*
X129908160Y-48630378D01*
X129908137Y-48630383D01*
X129846491Y-48649685D01*
X129844412Y-48650240D01*
X129841464Y-48651258D01*
X129711675Y-48713356D01*
X129711667Y-48713360D01*
X129649884Y-48754642D01*
X129628448Y-48766100D01*
X129561966Y-48793638D01*
X129559611Y-48793891D01*
X129551148Y-48797754D01*
X129481987Y-48807682D01*
X129452210Y-48799510D01*
X129401388Y-48778460D01*
X129371548Y-48766100D01*
X129350110Y-48754641D01*
X129322098Y-48735923D01*
X129303312Y-48720505D01*
X129279495Y-48696689D01*
X129264074Y-48677899D01*
X129245358Y-48649890D01*
X129233901Y-48628454D01*
X129221009Y-48597330D01*
X129213954Y-48574074D01*
X129195286Y-48480225D01*
X129195211Y-48479848D01*
X129189975Y-48453526D01*
X129189974Y-48453523D01*
X129188888Y-48448063D01*
X129185115Y-48437444D01*
X129184991Y-48437000D01*
X129184992Y-48437000D01*
X129174698Y-48400122D01*
X129143807Y-48317860D01*
X129063870Y-48198229D01*
X129037189Y-48168526D01*
X129017182Y-48146253D01*
X129017173Y-48146244D01*
X128906777Y-48053985D01*
X128906769Y-48053980D01*
X128788581Y-48002537D01*
X128774858Y-47996563D01*
X128754382Y-47990946D01*
X128707471Y-47978077D01*
X128707473Y-47978077D01*
X128564722Y-47960146D01*
X128564720Y-47960146D01*
X128422697Y-47983159D01*
X128356021Y-48004036D01*
X128356012Y-48004039D01*
X128356002Y-48004043D01*
X128226222Y-48066137D01*
X128226221Y-48066137D01*
X128149892Y-48117139D01*
X128128454Y-48128597D01*
X128097327Y-48141490D01*
X128074070Y-48148546D01*
X128060687Y-48151208D01*
X128041029Y-48155118D01*
X128016841Y-48157501D01*
X127983159Y-48157501D01*
X127958970Y-48155118D01*
X127925924Y-48148545D01*
X127902667Y-48141489D01*
X127871547Y-48128599D01*
X127850107Y-48117139D01*
X127822099Y-48098424D01*
X127803310Y-48083004D01*
X127779495Y-48059189D01*
X127764075Y-48040400D01*
X127745356Y-48012386D01*
X127733899Y-47990954D01*
X127702349Y-47914783D01*
X127701349Y-47912288D01*
X127694137Y-47893713D01*
X135249500Y-47893713D01*
X135249500Y-48106287D01*
X135282754Y-48316243D01*
X135336147Y-48480570D01*
X135348444Y-48518414D01*
X135444951Y-48707820D01*
X135569890Y-48879786D01*
X135708705Y-49018601D01*
X135742190Y-49079924D01*
X135737206Y-49149616D01*
X135695334Y-49205549D01*
X135686121Y-49211821D01*
X135531342Y-49307289D01*
X135407289Y-49431342D01*
X135315187Y-49580663D01*
X135315185Y-49580668D01*
X135290819Y-49654200D01*
X135260001Y-49747203D01*
X135260001Y-49747204D01*
X135260000Y-49747204D01*
X135249500Y-49849983D01*
X135249500Y-51150001D01*
X135249501Y-51150018D01*
X135260000Y-51252796D01*
X135260001Y-51252799D01*
X135294331Y-51356399D01*
X135315186Y-51419334D01*
X135407288Y-51568656D01*
X135531344Y-51692712D01*
X135680666Y-51784814D01*
X135847203Y-51839999D01*
X135949991Y-51850500D01*
X137550008Y-51850499D01*
X137652797Y-51839999D01*
X137819334Y-51784814D01*
X137968656Y-51692712D01*
X138092712Y-51568656D01*
X138184814Y-51419334D01*
X138239999Y-51252797D01*
X138250500Y-51150009D01*
X138250499Y-49849992D01*
X138239999Y-49747203D01*
X138184814Y-49580666D01*
X138092712Y-49431344D01*
X137968656Y-49307288D01*
X137819334Y-49215186D01*
X137819333Y-49215185D01*
X137813878Y-49211821D01*
X137767154Y-49159873D01*
X137755931Y-49090910D01*
X137783775Y-49026828D01*
X137791272Y-49018623D01*
X137930104Y-48879792D01*
X138003726Y-48778460D01*
X138055048Y-48707820D01*
X138055047Y-48707820D01*
X138055051Y-48707816D01*
X138151557Y-48518412D01*
X138217246Y-48316243D01*
X138250500Y-48106287D01*
X138250500Y-47893713D01*
X138217246Y-47683757D01*
X138151557Y-47481588D01*
X138055051Y-47292184D01*
X138055049Y-47292181D01*
X138055048Y-47292179D01*
X137930109Y-47120213D01*
X137779786Y-46969890D01*
X137607820Y-46844951D01*
X137418414Y-46748444D01*
X137418413Y-46748443D01*
X137418412Y-46748443D01*
X137216243Y-46682754D01*
X137216241Y-46682753D01*
X137216240Y-46682753D01*
X137054957Y-46657208D01*
X137006287Y-46649500D01*
X136493713Y-46649500D01*
X136445042Y-46657208D01*
X136283760Y-46682753D01*
X136081585Y-46748444D01*
X135892179Y-46844951D01*
X135720213Y-46969890D01*
X135569890Y-47120213D01*
X135444951Y-47292179D01*
X135348444Y-47481585D01*
X135282753Y-47683760D01*
X135254445Y-47862494D01*
X135249500Y-47893713D01*
X127694137Y-47893713D01*
X127682016Y-47862494D01*
X127604233Y-47741462D01*
X127604224Y-47741451D01*
X127558480Y-47688659D01*
X127558476Y-47688656D01*
X127558474Y-47688653D01*
X127449740Y-47594433D01*
X127449737Y-47594431D01*
X127449735Y-47594430D01*
X127318869Y-47534664D01*
X127318864Y-47534662D01*
X127318863Y-47534662D01*
X127251824Y-47514977D01*
X127251826Y-47514977D01*
X127251821Y-47514976D01*
X127204348Y-47508150D01*
X127109404Y-47494500D01*
X127109402Y-47494500D01*
X119629500Y-47494500D01*
X119562461Y-47474815D01*
X119516706Y-47422011D01*
X119505500Y-47370500D01*
X119505500Y-47051359D01*
X119502602Y-46997311D01*
X119502602Y-46997310D01*
X119500652Y-46979179D01*
X119499769Y-46970964D01*
X119491114Y-46917552D01*
X119440832Y-46782743D01*
X119407347Y-46721420D01*
X119321123Y-46606239D01*
X119321118Y-46606234D01*
X119321113Y-46606228D01*
X117217632Y-44502747D01*
X117136038Y-44421153D01*
X123249500Y-44421153D01*
X123249500Y-44578846D01*
X123280261Y-44733489D01*
X123280264Y-44733501D01*
X123340602Y-44879172D01*
X123340609Y-44879185D01*
X123428210Y-45010288D01*
X123428213Y-45010292D01*
X123539707Y-45121786D01*
X123539711Y-45121789D01*
X123670814Y-45209390D01*
X123670827Y-45209397D01*
X123748356Y-45241510D01*
X123816503Y-45269737D01*
X123971153Y-45300499D01*
X123971156Y-45300500D01*
X123971158Y-45300500D01*
X124128844Y-45300500D01*
X124128845Y-45300499D01*
X124283497Y-45269737D01*
X124429179Y-45209394D01*
X124560289Y-45121789D01*
X124671789Y-45010289D01*
X124759394Y-44879179D01*
X124819737Y-44733497D01*
X124850500Y-44578842D01*
X124850500Y-44521153D01*
X127699500Y-44521153D01*
X127699500Y-44678846D01*
X127730261Y-44833489D01*
X127730264Y-44833501D01*
X127790602Y-44979172D01*
X127790609Y-44979185D01*
X127878210Y-45110288D01*
X127878213Y-45110292D01*
X127989707Y-45221786D01*
X127989711Y-45221789D01*
X128120814Y-45309390D01*
X128120827Y-45309397D01*
X128266498Y-45369735D01*
X128266503Y-45369737D01*
X128421153Y-45400499D01*
X128421156Y-45400500D01*
X128421158Y-45400500D01*
X128578844Y-45400500D01*
X128578845Y-45400499D01*
X128733497Y-45369737D01*
X128879179Y-45309394D01*
X129010289Y-45221789D01*
X129121789Y-45110289D01*
X129209394Y-44979179D01*
X129215389Y-44964707D01*
X129223067Y-44946166D01*
X129269737Y-44833497D01*
X129300500Y-44678842D01*
X129300500Y-44521158D01*
X129300500Y-44521155D01*
X129300499Y-44521153D01*
X129291086Y-44473830D01*
X129269737Y-44366503D01*
X129269735Y-44366498D01*
X129209397Y-44220827D01*
X129209390Y-44220814D01*
X129121789Y-44089711D01*
X129121786Y-44089707D01*
X129010292Y-43978213D01*
X129010288Y-43978210D01*
X128879185Y-43890609D01*
X128879172Y-43890602D01*
X128733501Y-43830264D01*
X128733489Y-43830261D01*
X128578845Y-43799500D01*
X128578842Y-43799500D01*
X128421158Y-43799500D01*
X128421155Y-43799500D01*
X128266510Y-43830261D01*
X128266498Y-43830264D01*
X128120827Y-43890602D01*
X128120814Y-43890609D01*
X127989711Y-43978210D01*
X127989707Y-43978213D01*
X127878213Y-44089707D01*
X127878210Y-44089711D01*
X127790609Y-44220814D01*
X127790602Y-44220827D01*
X127730264Y-44366498D01*
X127730261Y-44366510D01*
X127699500Y-44521153D01*
X124850500Y-44521153D01*
X124850500Y-44421158D01*
X124850500Y-44421155D01*
X124850499Y-44421153D01*
X124819738Y-44266510D01*
X124819737Y-44266503D01*
X124764931Y-44134188D01*
X124759397Y-44120827D01*
X124759390Y-44120814D01*
X124671789Y-43989711D01*
X124671786Y-43989707D01*
X124560292Y-43878213D01*
X124560288Y-43878210D01*
X124429185Y-43790609D01*
X124429172Y-43790602D01*
X124283501Y-43730264D01*
X124283489Y-43730261D01*
X124128845Y-43699500D01*
X124128842Y-43699500D01*
X123971158Y-43699500D01*
X123971155Y-43699500D01*
X123816510Y-43730261D01*
X123816498Y-43730264D01*
X123670827Y-43790602D01*
X123670814Y-43790609D01*
X123539711Y-43878210D01*
X123539707Y-43878213D01*
X123428213Y-43989707D01*
X123428210Y-43989711D01*
X123340609Y-44120814D01*
X123340602Y-44120827D01*
X123280264Y-44266498D01*
X123280261Y-44266510D01*
X123249500Y-44421153D01*
X117136038Y-44421153D01*
X112611575Y-39896691D01*
X112611560Y-39896676D01*
X112611536Y-39896654D01*
X112571318Y-39860527D01*
X112571306Y-39860517D01*
X112550655Y-39843875D01*
X112506773Y-39812232D01*
X112375899Y-39752462D01*
X112308854Y-39732775D01*
X112197496Y-39716764D01*
X112190952Y-39715643D01*
X112129120Y-39703344D01*
X112105856Y-39696287D01*
X112074736Y-39683396D01*
X112053300Y-39671938D01*
X112001013Y-39637001D01*
X111992094Y-39630447D01*
X111986676Y-39626081D01*
X111942788Y-39594433D01*
X111811914Y-39534663D01*
X111744869Y-39514976D01*
X111682799Y-39506052D01*
X111602452Y-39494500D01*
X109124000Y-39494500D01*
X109123991Y-39494500D01*
X109123990Y-39494501D01*
X109016549Y-39506052D01*
X109016537Y-39506054D01*
X108965027Y-39517260D01*
X108862502Y-39551383D01*
X108862496Y-39551386D01*
X108741462Y-39629171D01*
X108741451Y-39629179D01*
X108688659Y-39674923D01*
X108594433Y-39783664D01*
X108594430Y-39783668D01*
X108534664Y-39914534D01*
X108514976Y-39981582D01*
X108494500Y-40124001D01*
X108494500Y-42948640D01*
X108497397Y-43002688D01*
X108497397Y-43002689D01*
X108500229Y-43029022D01*
X108500232Y-43029049D01*
X108508885Y-43082445D01*
X108508885Y-43082447D01*
X108559166Y-43217252D01*
X108559168Y-43217257D01*
X108592653Y-43278580D01*
X108678877Y-43393761D01*
X108835985Y-43550869D01*
X108835998Y-43550880D01*
X108890484Y-43598094D01*
X108918741Y-43619248D01*
X108918760Y-43619261D01*
X108979451Y-43658261D01*
X108979453Y-43658261D01*
X108979455Y-43658263D01*
X109011050Y-43670044D01*
X109071686Y-43699389D01*
X109110385Y-43707086D01*
X109114267Y-43708534D01*
X109115446Y-43708790D01*
X109115448Y-43708791D01*
X109135859Y-43713229D01*
X109135877Y-43713233D01*
X109157711Y-43717983D01*
X109157711Y-43717984D01*
X109176353Y-43722039D01*
X109180228Y-43722883D01*
X109182490Y-43723375D01*
X109182541Y-43723386D01*
X109190087Y-43723924D01*
X109205413Y-43725988D01*
X109212802Y-43727458D01*
X109238123Y-43728815D01*
X109238123Y-43728814D01*
X109263924Y-43730197D01*
X109263932Y-43730197D01*
X109272369Y-43730649D01*
X109272369Y-43730651D01*
X109282518Y-43731196D01*
X109282578Y-43731199D01*
X109282592Y-43731197D01*
X109282599Y-43731198D01*
X109284236Y-43731166D01*
X109295516Y-43731456D01*
X109326056Y-43733639D01*
X109367966Y-43724517D01*
X109369117Y-43724273D01*
X109376095Y-43722827D01*
X109425885Y-43718372D01*
X109457307Y-43706007D01*
X109467690Y-43703857D01*
X109492364Y-43705869D01*
X109517023Y-43703661D01*
X109526579Y-43708659D01*
X109537329Y-43709536D01*
X109556999Y-43724569D01*
X109578936Y-43736043D01*
X109580520Y-43737599D01*
X109688244Y-43845323D01*
X109721729Y-43906646D01*
X109721729Y-43959362D01*
X109698860Y-44064490D01*
X109698859Y-44064498D01*
X109694832Y-44120814D01*
X109693875Y-44134190D01*
X109704139Y-44277701D01*
X109754421Y-44412510D01*
X109787906Y-44473833D01*
X109874130Y-44589014D01*
X109874134Y-44589018D01*
X109874139Y-44589024D01*
X111115377Y-45830261D01*
X112353457Y-47068341D01*
X113898273Y-48613157D01*
X113907951Y-48622580D01*
X113912798Y-48627175D01*
X113922724Y-48636334D01*
X113922730Y-48636339D01*
X113942703Y-48649685D01*
X114042357Y-48716274D01*
X114042362Y-48716276D01*
X114042366Y-48716279D01*
X114069249Y-48729141D01*
X114105384Y-48746430D01*
X114207672Y-48778460D01*
X114265765Y-48817279D01*
X114292233Y-48872602D01*
X114310252Y-48963190D01*
X114310255Y-48963200D01*
X114370593Y-49108871D01*
X114370600Y-49108884D01*
X114458201Y-49239987D01*
X114458204Y-49239991D01*
X114514004Y-49295791D01*
X114547489Y-49357114D01*
X114542505Y-49426806D01*
X114539117Y-49434984D01*
X114534664Y-49444733D01*
X114514976Y-49511781D01*
X114494500Y-49654200D01*
X114494500Y-52413591D01*
X114497607Y-52463561D01*
X114482120Y-52531692D01*
X114432256Y-52580635D01*
X114398038Y-52592871D01*
X114257144Y-52620897D01*
X114257134Y-52620900D01*
X114111463Y-52681238D01*
X114111450Y-52681245D01*
X113980347Y-52768846D01*
X113980343Y-52768849D01*
X113868849Y-52880343D01*
X113868846Y-52880347D01*
X113781245Y-53011450D01*
X113781238Y-53011463D01*
X113720900Y-53157134D01*
X113720897Y-53157146D01*
X113690136Y-53311789D01*
X113690136Y-53469482D01*
X113720897Y-53624125D01*
X113720900Y-53624137D01*
X113781238Y-53769808D01*
X113781245Y-53769821D01*
X113868846Y-53900924D01*
X113868849Y-53900928D01*
X113980343Y-54012422D01*
X113980347Y-54012425D01*
X114111450Y-54100026D01*
X114111463Y-54100033D01*
X114257134Y-54160371D01*
X114257139Y-54160373D01*
X114387640Y-54186331D01*
X114394691Y-54187734D01*
X114456602Y-54220119D01*
X114491176Y-54280834D01*
X114494500Y-54309351D01*
X114494500Y-55289406D01*
X114474815Y-55356445D01*
X114422011Y-55402200D01*
X114352853Y-55412144D01*
X114323049Y-55403968D01*
X114295997Y-55392763D01*
X114295989Y-55392761D01*
X114141345Y-55362000D01*
X114141342Y-55362000D01*
X113983658Y-55362000D01*
X113983655Y-55362000D01*
X113829010Y-55392761D01*
X113828998Y-55392764D01*
X113683327Y-55453102D01*
X113683314Y-55453109D01*
X113552211Y-55540710D01*
X113552207Y-55540713D01*
X113440713Y-55652207D01*
X113440710Y-55652211D01*
X113353109Y-55783314D01*
X113353102Y-55783327D01*
X113292764Y-55928998D01*
X113292761Y-55929010D01*
X113262000Y-56083653D01*
X113262000Y-56241346D01*
X113292761Y-56395989D01*
X113292764Y-56396001D01*
X113353102Y-56541672D01*
X113353109Y-56541685D01*
X113440710Y-56672788D01*
X113440713Y-56672792D01*
X113552207Y-56784286D01*
X113552211Y-56784289D01*
X113683314Y-56871890D01*
X113683327Y-56871897D01*
X113828998Y-56932235D01*
X113829003Y-56932237D01*
X113983653Y-56962999D01*
X113983656Y-56963000D01*
X113983658Y-56963000D01*
X114141344Y-56963000D01*
X114141345Y-56962999D01*
X114295997Y-56932237D01*
X114323049Y-56921031D01*
X114392516Y-56913563D01*
X114454995Y-56944837D01*
X114490648Y-57004926D01*
X114494500Y-57035593D01*
X114494500Y-66948640D01*
X114497397Y-67002688D01*
X114497397Y-67002689D01*
X114500229Y-67029022D01*
X114500232Y-67029049D01*
X114508885Y-67082445D01*
X114508885Y-67082447D01*
X114559166Y-67217252D01*
X114559168Y-67217257D01*
X114592653Y-67278580D01*
X114678877Y-67393761D01*
X114678881Y-67393765D01*
X114678886Y-67393771D01*
X117458181Y-70173065D01*
X117472884Y-70199992D01*
X117489477Y-70225811D01*
X117490368Y-70232011D01*
X117491666Y-70234388D01*
X117494500Y-70260746D01*
X117494500Y-70370500D01*
X117474815Y-70437539D01*
X117422011Y-70483294D01*
X117370500Y-70494500D01*
X113260746Y-70494500D01*
X113193707Y-70474815D01*
X113173065Y-70458181D01*
X112541819Y-69826935D01*
X112508334Y-69765612D01*
X112505500Y-69739254D01*
X112505500Y-60051359D01*
X112504683Y-60036139D01*
X112502603Y-59997322D01*
X112499769Y-59970964D01*
X112491114Y-59917552D01*
X112440832Y-59782743D01*
X112407347Y-59721420D01*
X112321123Y-59606239D01*
X112321118Y-59606234D01*
X112321113Y-59606228D01*
X111536038Y-58821153D01*
X112299500Y-58821153D01*
X112299500Y-58978846D01*
X112330261Y-59133489D01*
X112330264Y-59133501D01*
X112390602Y-59279172D01*
X112390609Y-59279185D01*
X112478210Y-59410288D01*
X112478213Y-59410292D01*
X112589707Y-59521786D01*
X112589711Y-59521789D01*
X112720814Y-59609390D01*
X112720827Y-59609397D01*
X112866498Y-59669735D01*
X112866503Y-59669737D01*
X113021153Y-59700499D01*
X113021156Y-59700500D01*
X113021158Y-59700500D01*
X113178844Y-59700500D01*
X113178845Y-59700499D01*
X113333497Y-59669737D01*
X113479179Y-59609394D01*
X113610289Y-59521789D01*
X113721789Y-59410289D01*
X113809394Y-59279179D01*
X113869737Y-59133497D01*
X113900500Y-58978842D01*
X113900500Y-58821158D01*
X113900500Y-58821155D01*
X113900499Y-58821153D01*
X113869738Y-58666510D01*
X113869737Y-58666503D01*
X113825700Y-58560187D01*
X113809397Y-58520827D01*
X113809390Y-58520814D01*
X113721789Y-58389711D01*
X113721786Y-58389707D01*
X113610292Y-58278213D01*
X113610288Y-58278210D01*
X113479185Y-58190609D01*
X113479172Y-58190602D01*
X113333501Y-58130264D01*
X113333489Y-58130261D01*
X113178845Y-58099500D01*
X113178842Y-58099500D01*
X113021158Y-58099500D01*
X113021155Y-58099500D01*
X112866510Y-58130261D01*
X112866498Y-58130264D01*
X112720827Y-58190602D01*
X112720814Y-58190609D01*
X112589711Y-58278210D01*
X112589707Y-58278213D01*
X112478213Y-58389707D01*
X112478210Y-58389711D01*
X112390609Y-58520814D01*
X112390602Y-58520827D01*
X112330264Y-58666498D01*
X112330261Y-58666510D01*
X112299500Y-58821153D01*
X111536038Y-58821153D01*
X110041036Y-57326151D01*
X109959442Y-57244557D01*
X110772904Y-57244557D01*
X110772904Y-57402250D01*
X110803665Y-57556893D01*
X110803668Y-57556905D01*
X110864006Y-57702576D01*
X110864013Y-57702589D01*
X110951614Y-57833692D01*
X110951617Y-57833696D01*
X111063111Y-57945190D01*
X111063115Y-57945193D01*
X111194218Y-58032794D01*
X111194231Y-58032801D01*
X111339902Y-58093139D01*
X111339907Y-58093141D01*
X111494557Y-58123903D01*
X111494560Y-58123904D01*
X111494562Y-58123904D01*
X111652248Y-58123904D01*
X111652249Y-58123903D01*
X111806901Y-58093141D01*
X111952583Y-58032798D01*
X112083693Y-57945193D01*
X112195193Y-57833693D01*
X112282798Y-57702583D01*
X112343141Y-57556901D01*
X112373904Y-57402246D01*
X112373904Y-57244562D01*
X112373904Y-57244559D01*
X112373903Y-57244557D01*
X112343142Y-57089914D01*
X112343141Y-57089907D01*
X112307941Y-57004926D01*
X112282801Y-56944231D01*
X112282794Y-56944218D01*
X112195193Y-56813115D01*
X112195190Y-56813111D01*
X112083696Y-56701617D01*
X112083692Y-56701614D01*
X111952589Y-56614013D01*
X111952576Y-56614006D01*
X111806905Y-56553668D01*
X111806893Y-56553665D01*
X111652249Y-56522904D01*
X111652246Y-56522904D01*
X111494562Y-56522904D01*
X111494559Y-56522904D01*
X111339914Y-56553665D01*
X111339902Y-56553668D01*
X111194231Y-56614006D01*
X111194218Y-56614013D01*
X111063115Y-56701614D01*
X111063111Y-56701617D01*
X110951617Y-56813111D01*
X110951614Y-56813115D01*
X110864013Y-56944218D01*
X110864006Y-56944231D01*
X110803668Y-57089902D01*
X110803665Y-57089914D01*
X110772904Y-57244557D01*
X109959442Y-57244557D01*
X103994954Y-51280070D01*
X103978008Y-51263892D01*
X103977993Y-51263878D01*
X103977978Y-51263864D01*
X103969466Y-51256108D01*
X103969448Y-51256092D01*
X103951741Y-51240695D01*
X103829064Y-51165532D01*
X103829061Y-51165531D01*
X103764896Y-51137879D01*
X103764882Y-51137874D01*
X103716630Y-51124826D01*
X103657054Y-51088324D01*
X103626670Y-51025407D01*
X103625000Y-51005126D01*
X103625000Y-50900436D01*
X103593852Y-50703777D01*
X103532320Y-50514405D01*
X103441924Y-50336994D01*
X103414417Y-50299135D01*
X103414417Y-50299134D01*
X102851127Y-50862423D01*
X102835245Y-50803147D01*
X102768102Y-50686853D01*
X102673147Y-50591898D01*
X102556853Y-50524755D01*
X102497574Y-50508871D01*
X103060864Y-49945581D01*
X103060863Y-49945580D01*
X103023008Y-49918077D01*
X102845594Y-49827679D01*
X102656222Y-49766147D01*
X102459563Y-49735000D01*
X102260437Y-49735000D01*
X102063777Y-49766147D01*
X101874405Y-49827679D01*
X101696990Y-49918077D01*
X101659135Y-49945580D01*
X101659135Y-49945581D01*
X102222425Y-50508871D01*
X102163147Y-50524755D01*
X102046853Y-50591898D01*
X101951898Y-50686853D01*
X101884755Y-50803147D01*
X101868871Y-50862425D01*
X101305581Y-50299135D01*
X101305580Y-50299135D01*
X101278077Y-50336990D01*
X101187679Y-50514405D01*
X101126147Y-50703777D01*
X101095000Y-50900436D01*
X101095000Y-51099563D01*
X101108308Y-51183591D01*
X101105134Y-51208145D01*
X101106176Y-51232888D01*
X101100734Y-51242193D01*
X101099353Y-51252884D01*
X101083406Y-51271826D01*
X101070907Y-51293203D01*
X101059367Y-51300382D01*
X101054356Y-51306336D01*
X101042045Y-51313516D01*
X101035756Y-51316713D01*
X101018916Y-51322995D01*
X100958009Y-51356251D01*
X100957720Y-51356399D01*
X100957594Y-51356477D01*
X100842412Y-51442702D01*
X100842400Y-51442713D01*
X98745325Y-53539790D01*
X91184928Y-61100187D01*
X88644929Y-63640187D01*
X86826935Y-65458181D01*
X86765612Y-65491666D01*
X86739254Y-65494500D01*
X80888406Y-65494500D01*
X80884873Y-65494512D01*
X80883051Y-65494525D01*
X80879649Y-65494562D01*
X80879332Y-65494566D01*
X80737228Y-65517102D01*
X80675174Y-65536301D01*
X80675105Y-65536324D01*
X80670481Y-65537755D01*
X80670477Y-65537756D01*
X80669551Y-65538194D01*
X80663341Y-65540287D01*
X80629568Y-65541612D01*
X80595815Y-65543581D01*
X80594747Y-65542979D01*
X80593525Y-65543028D01*
X80564388Y-65525879D01*
X80534938Y-65509291D01*
X80533692Y-65507813D01*
X80533310Y-65507588D01*
X80533021Y-65507017D01*
X80523448Y-65495658D01*
X80522625Y-65494525D01*
X80465269Y-65415581D01*
X80324418Y-65274730D01*
X80163266Y-65157646D01*
X80163258Y-65157642D01*
X80011828Y-65080484D01*
X79961032Y-65032509D01*
X79944237Y-64964688D01*
X79966775Y-64898553D01*
X80011826Y-64859515D01*
X80163266Y-64782353D01*
X80324418Y-64665269D01*
X80465269Y-64524418D01*
X80582353Y-64363266D01*
X80672785Y-64185783D01*
X80691265Y-64128907D01*
X80734338Y-63996343D01*
X80734338Y-63996342D01*
X80734339Y-63996339D01*
X80765500Y-63799597D01*
X80765500Y-63600403D01*
X80734339Y-63403661D01*
X80734338Y-63403657D01*
X80734338Y-63403656D01*
X80672786Y-63214219D01*
X80644631Y-63158961D01*
X80582353Y-63036734D01*
X80465269Y-62875582D01*
X80324418Y-62734731D01*
X80163266Y-62617647D01*
X80011827Y-62540485D01*
X79961031Y-62492510D01*
X79944236Y-62424689D01*
X79966773Y-62358554D01*
X80011827Y-62319515D01*
X80021116Y-62314781D01*
X80163266Y-62242353D01*
X80324418Y-62125269D01*
X80465269Y-61984418D01*
X80582353Y-61823266D01*
X80672785Y-61645783D01*
X80734339Y-61456339D01*
X80765500Y-61259597D01*
X80765500Y-61060403D01*
X80734339Y-60863661D01*
X80734338Y-60863657D01*
X80734338Y-60863656D01*
X80672786Y-60674219D01*
X80582352Y-60496733D01*
X80465269Y-60335582D01*
X80324418Y-60194731D01*
X80163266Y-60077647D01*
X80011827Y-60000485D01*
X79961031Y-59952510D01*
X79944236Y-59884689D01*
X79966773Y-59818554D01*
X80011827Y-59779515D01*
X80021116Y-59774781D01*
X80163266Y-59702353D01*
X80324418Y-59585269D01*
X80465269Y-59444418D01*
X80582353Y-59283266D01*
X80672785Y-59105783D01*
X80734339Y-58916339D01*
X80765500Y-58719597D01*
X80765500Y-58520403D01*
X80734339Y-58323661D01*
X80734338Y-58323657D01*
X80734338Y-58323656D01*
X80672786Y-58134219D01*
X80672466Y-58133591D01*
X80582353Y-57956734D01*
X80465269Y-57795582D01*
X80324418Y-57654731D01*
X80163266Y-57537647D01*
X80157408Y-57534662D01*
X80011826Y-57460484D01*
X79961030Y-57412509D01*
X79944235Y-57344688D01*
X79966773Y-57278553D01*
X80011824Y-57239515D01*
X80163266Y-57162352D01*
X80324418Y-57045268D01*
X80465269Y-56904417D01*
X80582353Y-56743265D01*
X80672785Y-56565782D01*
X80727950Y-56396001D01*
X80734338Y-56376342D01*
X80734338Y-56376341D01*
X80734339Y-56376338D01*
X80765500Y-56179596D01*
X80765500Y-55980402D01*
X80734339Y-55783660D01*
X80734338Y-55783656D01*
X80734338Y-55783655D01*
X80672786Y-55594218D01*
X80645522Y-55540710D01*
X80582353Y-55416733D01*
X80465269Y-55255581D01*
X80324418Y-55114730D01*
X80163266Y-54997646D01*
X80011278Y-54920204D01*
X79960482Y-54872229D01*
X79943687Y-54804408D01*
X79966224Y-54738273D01*
X80011278Y-54699234D01*
X80163005Y-54621924D01*
X80200863Y-54594418D01*
X80200863Y-54594417D01*
X79637574Y-54031128D01*
X79696853Y-54015245D01*
X79813147Y-53948102D01*
X79908102Y-53853147D01*
X79975245Y-53736853D01*
X79991128Y-53677574D01*
X80554417Y-54240863D01*
X80554418Y-54240863D01*
X80581924Y-54203005D01*
X80672320Y-54025594D01*
X80733852Y-53836222D01*
X80765000Y-53639563D01*
X80765000Y-53440436D01*
X80733852Y-53243777D01*
X80672320Y-53054405D01*
X80581924Y-52876994D01*
X80554417Y-52839135D01*
X80554417Y-52839134D01*
X79991128Y-53402424D01*
X79975245Y-53343147D01*
X79908102Y-53226853D01*
X79813147Y-53131898D01*
X79696853Y-53064755D01*
X79637574Y-53048871D01*
X80200864Y-52485581D01*
X80200863Y-52485580D01*
X80163008Y-52458077D01*
X80010727Y-52380485D01*
X79959931Y-52332510D01*
X79943136Y-52264689D01*
X79965674Y-52198554D01*
X80010727Y-52159515D01*
X80163005Y-52081924D01*
X80200863Y-52054418D01*
X80200863Y-52054417D01*
X79637574Y-51491128D01*
X79696853Y-51475245D01*
X79813147Y-51408102D01*
X79908102Y-51313147D01*
X79975245Y-51196853D01*
X79991128Y-51137574D01*
X80554417Y-51700863D01*
X80554418Y-51700863D01*
X80581924Y-51663005D01*
X80672320Y-51485594D01*
X80733852Y-51296222D01*
X80765000Y-51099563D01*
X80765000Y-50900436D01*
X80733852Y-50703777D01*
X80672320Y-50514405D01*
X80581924Y-50336994D01*
X80554417Y-50299135D01*
X80554417Y-50299134D01*
X79991128Y-50862424D01*
X79975245Y-50803147D01*
X79908102Y-50686853D01*
X79813147Y-50591898D01*
X79696853Y-50524755D01*
X79637574Y-50508871D01*
X80200864Y-49945581D01*
X80200863Y-49945580D01*
X80163008Y-49918077D01*
X79985594Y-49827679D01*
X79796222Y-49766147D01*
X79599563Y-49735000D01*
X79400437Y-49735000D01*
X79203777Y-49766147D01*
X79014405Y-49827679D01*
X78836990Y-49918077D01*
X78799135Y-49945580D01*
X78799135Y-49945581D01*
X79362425Y-50508871D01*
X79303147Y-50524755D01*
X79186853Y-50591898D01*
X79091898Y-50686853D01*
X79024755Y-50803147D01*
X79008871Y-50862425D01*
X78445581Y-50299135D01*
X78445580Y-50299135D01*
X78418077Y-50336990D01*
X78327679Y-50514405D01*
X78266147Y-50703777D01*
X78235000Y-50900436D01*
X78235000Y-51099563D01*
X78266147Y-51296222D01*
X78327679Y-51485594D01*
X78418077Y-51663008D01*
X78445580Y-51700863D01*
X78445581Y-51700864D01*
X79008871Y-51137574D01*
X79024755Y-51196853D01*
X79091898Y-51313147D01*
X79186853Y-51408102D01*
X79303147Y-51475245D01*
X79362425Y-51491128D01*
X78799134Y-52054417D01*
X78836999Y-52081928D01*
X78989272Y-52159516D01*
X79040068Y-52207490D01*
X79056863Y-52275311D01*
X79034325Y-52341446D01*
X78989272Y-52380484D01*
X78836996Y-52458073D01*
X78836995Y-52458074D01*
X78799135Y-52485580D01*
X78799135Y-52485581D01*
X79362425Y-53048871D01*
X79303147Y-53064755D01*
X79186853Y-53131898D01*
X79091898Y-53226853D01*
X79024755Y-53343147D01*
X79008871Y-53402425D01*
X78445581Y-52839135D01*
X78445580Y-52839135D01*
X78418077Y-52876990D01*
X78327679Y-53054405D01*
X78266147Y-53243777D01*
X78235000Y-53440436D01*
X78235000Y-53639563D01*
X78266147Y-53836222D01*
X78327679Y-54025594D01*
X78418077Y-54203008D01*
X78445580Y-54240863D01*
X78445581Y-54240864D01*
X79008871Y-53677574D01*
X79024755Y-53736853D01*
X79091898Y-53853147D01*
X79186853Y-53948102D01*
X79303147Y-54015245D01*
X79362425Y-54031128D01*
X78799134Y-54594417D01*
X78836994Y-54621924D01*
X78988721Y-54699234D01*
X79039517Y-54747209D01*
X79056312Y-54815030D01*
X79033774Y-54881165D01*
X78988721Y-54920204D01*
X78836733Y-54997646D01*
X78744790Y-55064446D01*
X78675582Y-55114730D01*
X78675580Y-55114732D01*
X78675579Y-55114732D01*
X78534733Y-55255578D01*
X78534733Y-55255579D01*
X78534731Y-55255581D01*
X78510156Y-55289406D01*
X78417647Y-55416732D01*
X78327213Y-55594218D01*
X78265661Y-55783655D01*
X78265661Y-55783658D01*
X78234500Y-55980402D01*
X78234500Y-56179595D01*
X78265661Y-56376339D01*
X78265661Y-56376342D01*
X78327213Y-56565779D01*
X78347829Y-56606240D01*
X78417647Y-56743265D01*
X78534731Y-56904417D01*
X78675582Y-57045268D01*
X78836734Y-57162352D01*
X78970368Y-57230442D01*
X78988173Y-57239514D01*
X79038969Y-57287489D01*
X79055764Y-57355310D01*
X79033227Y-57421445D01*
X78988173Y-57460483D01*
X78836738Y-57537643D01*
X78732286Y-57613533D01*
X78675582Y-57654731D01*
X78675580Y-57654733D01*
X78675579Y-57654733D01*
X78534733Y-57795579D01*
X78534733Y-57795580D01*
X78534731Y-57795582D01*
X78507042Y-57833693D01*
X78417647Y-57956733D01*
X78327213Y-58134219D01*
X78265661Y-58323656D01*
X78265661Y-58323659D01*
X78234500Y-58520403D01*
X78234500Y-58719596D01*
X78265661Y-58916340D01*
X78265661Y-58916343D01*
X78327213Y-59105780D01*
X78385648Y-59220464D01*
X78417647Y-59283266D01*
X78534731Y-59444418D01*
X78675582Y-59585269D01*
X78836734Y-59702353D01*
X78906453Y-59737877D01*
X78988172Y-59779515D01*
X79038968Y-59827490D01*
X79055763Y-59895311D01*
X79033225Y-59961446D01*
X78988172Y-60000485D01*
X78836733Y-60077647D01*
X78744790Y-60144447D01*
X78675582Y-60194731D01*
X78675580Y-60194733D01*
X78675579Y-60194733D01*
X78534733Y-60335579D01*
X78534733Y-60335580D01*
X78534731Y-60335582D01*
X78484447Y-60404790D01*
X78417647Y-60496733D01*
X78327213Y-60674219D01*
X78265661Y-60863656D01*
X78265661Y-60863659D01*
X78234500Y-61060403D01*
X78234500Y-61259596D01*
X78265661Y-61456340D01*
X78265661Y-61456343D01*
X78327213Y-61645780D01*
X78340111Y-61671093D01*
X78417647Y-61823266D01*
X78534731Y-61984418D01*
X78675582Y-62125269D01*
X78836734Y-62242353D01*
X78906453Y-62277877D01*
X78988172Y-62319515D01*
X79038968Y-62367490D01*
X79055763Y-62435311D01*
X79033225Y-62501446D01*
X78988172Y-62540485D01*
X78836733Y-62617647D01*
X78744790Y-62684447D01*
X78675582Y-62734731D01*
X78675580Y-62734733D01*
X78675579Y-62734733D01*
X78534733Y-62875579D01*
X78534733Y-62875580D01*
X78534731Y-62875582D01*
X78506854Y-62913952D01*
X78417647Y-63036733D01*
X78327213Y-63214219D01*
X78265661Y-63403656D01*
X78265661Y-63403659D01*
X78234500Y-63600403D01*
X78234500Y-63799596D01*
X78265661Y-63996340D01*
X78265661Y-63996343D01*
X78327213Y-64185780D01*
X78327215Y-64185783D01*
X78417647Y-64363266D01*
X78534731Y-64524418D01*
X78675582Y-64665269D01*
X78836734Y-64782353D01*
X78933191Y-64831500D01*
X78988171Y-64859514D01*
X79038967Y-64907489D01*
X79055762Y-64975310D01*
X79033225Y-65041445D01*
X78988171Y-65080483D01*
X78836738Y-65157642D01*
X78729299Y-65235702D01*
X78675582Y-65274730D01*
X78675580Y-65274732D01*
X78675579Y-65274732D01*
X78534733Y-65415578D01*
X78534733Y-65415579D01*
X78534731Y-65415581D01*
X78477375Y-65494525D01*
X78476121Y-65496251D01*
X78420791Y-65538916D01*
X78351177Y-65544895D01*
X78324291Y-65536159D01*
X78321018Y-65534664D01*
X78321013Y-65534662D01*
X78321012Y-65534662D01*
X78253973Y-65514977D01*
X78253975Y-65514977D01*
X78253970Y-65514976D01*
X78204148Y-65507813D01*
X78111553Y-65494500D01*
X73224500Y-65494500D01*
X73157461Y-65474815D01*
X73111706Y-65422011D01*
X73100500Y-65370500D01*
X73100500Y-46521153D01*
X106699500Y-46521153D01*
X106699500Y-46678846D01*
X106730261Y-46833489D01*
X106730264Y-46833501D01*
X106790602Y-46979172D01*
X106790609Y-46979185D01*
X106878210Y-47110288D01*
X106878213Y-47110292D01*
X106989707Y-47221786D01*
X106989711Y-47221789D01*
X107120814Y-47309390D01*
X107120827Y-47309397D01*
X107266498Y-47369735D01*
X107266503Y-47369737D01*
X107421153Y-47400499D01*
X107421156Y-47400500D01*
X107421158Y-47400500D01*
X107578844Y-47400500D01*
X107578845Y-47400499D01*
X107733497Y-47369737D01*
X107879179Y-47309394D01*
X108010289Y-47221789D01*
X108010925Y-47221153D01*
X108838609Y-47221153D01*
X108838609Y-47378846D01*
X108869370Y-47533489D01*
X108869373Y-47533501D01*
X108929711Y-47679172D01*
X108929718Y-47679185D01*
X109017319Y-47810288D01*
X109017322Y-47810292D01*
X109128816Y-47921786D01*
X109128820Y-47921789D01*
X109259923Y-48009390D01*
X109259936Y-48009397D01*
X109396921Y-48066137D01*
X109405612Y-48069737D01*
X109549830Y-48098424D01*
X109560262Y-48100499D01*
X109560265Y-48100500D01*
X109560267Y-48100500D01*
X109717953Y-48100500D01*
X109717954Y-48100499D01*
X109872606Y-48069737D01*
X110018288Y-48009394D01*
X110149398Y-47921789D01*
X110260898Y-47810289D01*
X110348503Y-47679179D01*
X110408846Y-47533497D01*
X110439609Y-47378842D01*
X110439609Y-47221158D01*
X110439609Y-47221155D01*
X110439608Y-47221153D01*
X110420956Y-47127385D01*
X110408846Y-47066503D01*
X110408844Y-47066498D01*
X110348506Y-46920827D01*
X110348499Y-46920814D01*
X110260898Y-46789711D01*
X110260895Y-46789707D01*
X110149401Y-46678213D01*
X110149397Y-46678210D01*
X110018294Y-46590609D01*
X110018281Y-46590602D01*
X109872610Y-46530264D01*
X109872598Y-46530261D01*
X109717954Y-46499500D01*
X109717951Y-46499500D01*
X109560267Y-46499500D01*
X109560264Y-46499500D01*
X109405619Y-46530261D01*
X109405607Y-46530264D01*
X109259936Y-46590602D01*
X109259923Y-46590609D01*
X109128820Y-46678210D01*
X109128816Y-46678213D01*
X109017322Y-46789707D01*
X109017319Y-46789711D01*
X108929718Y-46920814D01*
X108929711Y-46920827D01*
X108869373Y-47066498D01*
X108869370Y-47066510D01*
X108838609Y-47221153D01*
X108010925Y-47221153D01*
X108104694Y-47127385D01*
X108121786Y-47110292D01*
X108121789Y-47110289D01*
X108209394Y-46979179D01*
X108269737Y-46833497D01*
X108300500Y-46678842D01*
X108300500Y-46521158D01*
X108300500Y-46521155D01*
X108276737Y-46401694D01*
X108282964Y-46332102D01*
X108325827Y-46276925D01*
X108391716Y-46253680D01*
X108422546Y-46255885D01*
X108521155Y-46275500D01*
X108521158Y-46275500D01*
X108678844Y-46275500D01*
X108678845Y-46275499D01*
X108833497Y-46244737D01*
X108979179Y-46184394D01*
X109110289Y-46096789D01*
X109221789Y-45985289D01*
X109309394Y-45854179D01*
X109369737Y-45708497D01*
X109400500Y-45553842D01*
X109400500Y-45396158D01*
X109400500Y-45396155D01*
X109400499Y-45396153D01*
X109395245Y-45369738D01*
X109369737Y-45241503D01*
X109361570Y-45221786D01*
X109309397Y-45095827D01*
X109309390Y-45095814D01*
X109221789Y-44964711D01*
X109221786Y-44964707D01*
X109110292Y-44853213D01*
X109110288Y-44853210D01*
X108979185Y-44765609D01*
X108979172Y-44765602D01*
X108833501Y-44705264D01*
X108833489Y-44705261D01*
X108678845Y-44674500D01*
X108678842Y-44674500D01*
X108521158Y-44674500D01*
X108521155Y-44674500D01*
X108366510Y-44705261D01*
X108366498Y-44705264D01*
X108220827Y-44765602D01*
X108220814Y-44765609D01*
X108089711Y-44853210D01*
X108089707Y-44853213D01*
X107978213Y-44964707D01*
X107978210Y-44964711D01*
X107890609Y-45095814D01*
X107890602Y-45095827D01*
X107830264Y-45241498D01*
X107830261Y-45241510D01*
X107799500Y-45396153D01*
X107799500Y-45553846D01*
X107823262Y-45673306D01*
X107817035Y-45742898D01*
X107774172Y-45798075D01*
X107708282Y-45821319D01*
X107677454Y-45819114D01*
X107578846Y-45799500D01*
X107578842Y-45799500D01*
X107421158Y-45799500D01*
X107421155Y-45799500D01*
X107266510Y-45830261D01*
X107266498Y-45830264D01*
X107120827Y-45890602D01*
X107120814Y-45890609D01*
X106989711Y-45978210D01*
X106989707Y-45978213D01*
X106878213Y-46089707D01*
X106878210Y-46089711D01*
X106790609Y-46220814D01*
X106790602Y-46220827D01*
X106730264Y-46366498D01*
X106730261Y-46366510D01*
X106699500Y-46521153D01*
X73100500Y-46521153D01*
X73100500Y-40004066D01*
X73100765Y-39995957D01*
X73106101Y-39914541D01*
X73116219Y-39760156D01*
X73118334Y-39744101D01*
X73163640Y-39516333D01*
X73167833Y-39500686D01*
X73242482Y-39280776D01*
X73248679Y-39265816D01*
X73351393Y-39057533D01*
X73359500Y-39043493D01*
X73488509Y-38850416D01*
X73498374Y-38837558D01*
X73651497Y-38662955D01*
X73662955Y-38651497D01*
X73837558Y-38498374D01*
X73850411Y-38488512D01*
X74043493Y-38359500D01*
X74057533Y-38351393D01*
X74265816Y-38248679D01*
X74280776Y-38242482D01*
X74500686Y-38167833D01*
X74516333Y-38163640D01*
X74744101Y-38118334D01*
X74760158Y-38116219D01*
X74973768Y-38102219D01*
X74995958Y-38100765D01*
X75004067Y-38100500D01*
X75026929Y-38100500D01*
X137973071Y-38100500D01*
X137995933Y-38100500D01*
X138004042Y-38100765D01*
G37*
%TD.AperFunction*%
%TA.AperFunction,Conductor*%
G36*
X112256024Y-74344883D02*
G01*
X112289084Y-74351459D01*
X112312334Y-74358512D01*
X112343447Y-74371399D01*
X112364884Y-74382857D01*
X112389655Y-74399409D01*
X112389657Y-74399410D01*
X112389684Y-74399428D01*
X112393555Y-74401990D01*
X112395376Y-74403183D01*
X112399053Y-74405568D01*
X112399056Y-74405569D01*
X112529188Y-74465000D01*
X112529929Y-74465338D01*
X112596968Y-74485023D01*
X112596972Y-74485024D01*
X112739388Y-74505500D01*
X117370500Y-74505500D01*
X117437539Y-74525185D01*
X117483294Y-74577989D01*
X117494500Y-74629500D01*
X117494500Y-80605942D01*
X117494500Y-81876000D01*
X117494501Y-81876009D01*
X117506052Y-81983450D01*
X117506054Y-81983462D01*
X117517260Y-82034972D01*
X117551383Y-82137497D01*
X117551386Y-82137503D01*
X117629171Y-82258537D01*
X117629179Y-82258548D01*
X117674923Y-82311340D01*
X117674926Y-82311343D01*
X117674930Y-82311347D01*
X117783664Y-82405567D01*
X117783667Y-82405568D01*
X117783668Y-82405569D01*
X117870590Y-82445266D01*
X117914541Y-82465338D01*
X117981580Y-82485023D01*
X117981584Y-82485024D01*
X118124000Y-82505500D01*
X125480252Y-82505500D01*
X125547291Y-82525185D01*
X125593046Y-82577989D01*
X125602990Y-82647147D01*
X125573965Y-82710703D01*
X125567933Y-82717181D01*
X120826934Y-87458181D01*
X120765611Y-87491666D01*
X120739253Y-87494500D01*
X119896961Y-87494500D01*
X119829922Y-87474815D01*
X119784167Y-87422011D01*
X119775344Y-87394695D01*
X119769737Y-87366503D01*
X119710407Y-87223266D01*
X119709397Y-87220827D01*
X119709390Y-87220814D01*
X119621789Y-87089711D01*
X119621786Y-87089707D01*
X119510292Y-86978213D01*
X119510288Y-86978210D01*
X119379185Y-86890609D01*
X119379172Y-86890602D01*
X119233501Y-86830264D01*
X119233489Y-86830261D01*
X119078845Y-86799500D01*
X119078842Y-86799500D01*
X118921158Y-86799500D01*
X118921155Y-86799500D01*
X118766510Y-86830261D01*
X118766498Y-86830264D01*
X118620827Y-86890602D01*
X118620814Y-86890609D01*
X118489711Y-86978210D01*
X118489707Y-86978213D01*
X118378213Y-87089707D01*
X118378210Y-87089711D01*
X118290609Y-87220814D01*
X118290602Y-87220827D01*
X118230263Y-87366501D01*
X118230263Y-87366502D01*
X118230263Y-87366503D01*
X118224655Y-87394692D01*
X118192272Y-87456601D01*
X118131557Y-87491176D01*
X118103039Y-87494500D01*
X113270983Y-87494500D01*
X113207988Y-87498442D01*
X113177344Y-87502292D01*
X113177338Y-87502293D01*
X113177331Y-87502294D01*
X113154721Y-87506581D01*
X113115325Y-87514052D01*
X113115317Y-87514055D01*
X112982396Y-87569113D01*
X112982390Y-87569116D01*
X112922309Y-87604763D01*
X112810280Y-87695040D01*
X112728221Y-87813222D01*
X112728214Y-87813233D01*
X112698142Y-87873309D01*
X112697261Y-87874977D01*
X112696941Y-87875706D01*
X112696938Y-87875712D01*
X112696938Y-87875714D01*
X112675381Y-87940483D01*
X112651500Y-88012236D01*
X112646366Y-88156021D01*
X112646367Y-88156022D01*
X112653835Y-88225490D01*
X112653836Y-88225494D01*
X112689414Y-88364888D01*
X112689416Y-88364894D01*
X112689417Y-88364897D01*
X112689418Y-88364899D01*
X112710240Y-88415171D01*
X112717295Y-88438427D01*
X112723867Y-88471462D01*
X112726250Y-88495656D01*
X112726250Y-88529339D01*
X112723866Y-88553535D01*
X112717293Y-88586573D01*
X112710238Y-88609829D01*
X112697348Y-88640949D01*
X112685889Y-88662388D01*
X112667170Y-88690403D01*
X112651752Y-88709189D01*
X112651749Y-88709193D01*
X112627943Y-88732999D01*
X112609153Y-88748420D01*
X112581135Y-88767141D01*
X112559696Y-88778600D01*
X112528578Y-88791489D01*
X112505321Y-88798545D01*
X112488590Y-88801873D01*
X112472281Y-88805117D01*
X112448091Y-88807500D01*
X112414409Y-88807500D01*
X112390220Y-88805117D01*
X112357174Y-88798544D01*
X112333917Y-88791488D01*
X112302797Y-88778598D01*
X112281357Y-88767138D01*
X112253349Y-88748423D01*
X112234562Y-88733005D01*
X112210745Y-88709189D01*
X112195324Y-88690399D01*
X112176607Y-88662388D01*
X112165151Y-88640955D01*
X112154075Y-88614216D01*
X112152257Y-88609826D01*
X112145204Y-88586573D01*
X112138631Y-88553531D01*
X112136250Y-88529344D01*
X112136250Y-88495653D01*
X112138633Y-88471461D01*
X112145204Y-88438427D01*
X112152260Y-88415166D01*
X112173082Y-88364898D01*
X112193548Y-88305194D01*
X112201725Y-88275389D01*
X112214593Y-88213583D01*
X112214592Y-88069703D01*
X112204648Y-88000545D01*
X112164113Y-87862496D01*
X112086325Y-87741457D01*
X112078811Y-87732785D01*
X112040576Y-87688659D01*
X112040572Y-87688656D01*
X112040570Y-87688653D01*
X111931836Y-87594433D01*
X111931833Y-87594431D01*
X111931831Y-87594430D01*
X111800965Y-87534664D01*
X111800960Y-87534662D01*
X111800959Y-87534662D01*
X111733920Y-87514977D01*
X111733922Y-87514977D01*
X111733917Y-87514976D01*
X111686444Y-87508150D01*
X111591500Y-87494500D01*
X110051362Y-87494500D01*
X110051360Y-87494500D01*
X109997311Y-87497397D01*
X109997310Y-87497397D01*
X109970977Y-87500229D01*
X109970950Y-87500232D01*
X109917554Y-87508885D01*
X109917552Y-87508885D01*
X109782747Y-87559166D01*
X109721419Y-87592653D01*
X109721417Y-87592654D01*
X109606246Y-87678869D01*
X109606228Y-87678885D01*
X103673082Y-93612030D01*
X103611759Y-93645515D01*
X103542067Y-93640531D01*
X103486134Y-93598659D01*
X103474916Y-93580643D01*
X103442354Y-93516735D01*
X103424765Y-93492526D01*
X103325269Y-93355582D01*
X103184418Y-93214731D01*
X103023266Y-93097647D01*
X102979180Y-93075184D01*
X102871828Y-93020485D01*
X102821032Y-92972510D01*
X102804237Y-92904689D01*
X102826775Y-92838554D01*
X102871826Y-92799516D01*
X103023266Y-92722354D01*
X103184418Y-92605270D01*
X103325269Y-92464419D01*
X103442353Y-92303267D01*
X103532785Y-92125784D01*
X103560272Y-92041188D01*
X103594338Y-91936344D01*
X103594338Y-91936343D01*
X103594339Y-91936340D01*
X103625500Y-91739598D01*
X103625500Y-91540404D01*
X103594339Y-91343662D01*
X103594338Y-91343658D01*
X103594338Y-91343657D01*
X103532786Y-91154220D01*
X103472295Y-91035500D01*
X103442353Y-90976735D01*
X103325269Y-90815583D01*
X103184418Y-90674732D01*
X103023266Y-90557648D01*
X102871825Y-90480485D01*
X102821029Y-90432510D01*
X102804234Y-90364689D01*
X102826771Y-90298554D01*
X102871825Y-90259515D01*
X102878526Y-90256100D01*
X103023266Y-90182352D01*
X103184418Y-90065268D01*
X103325269Y-89924417D01*
X103442353Y-89763265D01*
X103532785Y-89585782D01*
X103564841Y-89487123D01*
X103594338Y-89396342D01*
X103594338Y-89396341D01*
X103594339Y-89396338D01*
X103625500Y-89199596D01*
X103625500Y-89000402D01*
X103594339Y-88803660D01*
X103594338Y-88803656D01*
X103594338Y-88803655D01*
X103532786Y-88614218D01*
X103511624Y-88572685D01*
X103442353Y-88436733D01*
X103325269Y-88275581D01*
X103184418Y-88134730D01*
X103023266Y-88017646D01*
X103012640Y-88012232D01*
X102871828Y-87940484D01*
X102821032Y-87892509D01*
X102804237Y-87824688D01*
X102826775Y-87758553D01*
X102871826Y-87719515D01*
X103023266Y-87642353D01*
X103184418Y-87525269D01*
X103325269Y-87384418D01*
X103442353Y-87223266D01*
X103532785Y-87045783D01*
X103554740Y-86978213D01*
X103594338Y-86856343D01*
X103594338Y-86856342D01*
X103594339Y-86856339D01*
X103625500Y-86659597D01*
X103625500Y-86460403D01*
X103594339Y-86263661D01*
X103594338Y-86263657D01*
X103594338Y-86263656D01*
X103532786Y-86074219D01*
X103442352Y-85896733D01*
X103325269Y-85735582D01*
X103184418Y-85594731D01*
X103023266Y-85477647D01*
X102871827Y-85400485D01*
X102821031Y-85352510D01*
X102804236Y-85284689D01*
X102826773Y-85218554D01*
X102871827Y-85179515D01*
X102881116Y-85174781D01*
X103023266Y-85102353D01*
X103184418Y-84985269D01*
X103325269Y-84844418D01*
X103442353Y-84683266D01*
X103463811Y-84641153D01*
X112849500Y-84641153D01*
X112849500Y-84798846D01*
X112880261Y-84953489D01*
X112880264Y-84953501D01*
X112940602Y-85099172D01*
X112940609Y-85099185D01*
X113028210Y-85230288D01*
X113028213Y-85230292D01*
X113139707Y-85341786D01*
X113139711Y-85341789D01*
X113270814Y-85429390D01*
X113270827Y-85429397D01*
X113387315Y-85477647D01*
X113416503Y-85489737D01*
X113571153Y-85520499D01*
X113571156Y-85520500D01*
X113571158Y-85520500D01*
X113728844Y-85520500D01*
X113728845Y-85520499D01*
X113883497Y-85489737D01*
X114029179Y-85429394D01*
X114160289Y-85341789D01*
X114271789Y-85230289D01*
X114359394Y-85099179D01*
X114419737Y-84953497D01*
X114450500Y-84798842D01*
X114450500Y-84641158D01*
X114450500Y-84641155D01*
X114450499Y-84641153D01*
X114431183Y-84544045D01*
X114419737Y-84486503D01*
X114419735Y-84486498D01*
X114359397Y-84340827D01*
X114359390Y-84340814D01*
X114271789Y-84209711D01*
X114271786Y-84209707D01*
X114160292Y-84098213D01*
X114160288Y-84098210D01*
X114029185Y-84010609D01*
X114029172Y-84010602D01*
X113883501Y-83950264D01*
X113883489Y-83950261D01*
X113728845Y-83919500D01*
X113728842Y-83919500D01*
X113571158Y-83919500D01*
X113571155Y-83919500D01*
X113416510Y-83950261D01*
X113416498Y-83950264D01*
X113270827Y-84010602D01*
X113270814Y-84010609D01*
X113139711Y-84098210D01*
X113139707Y-84098213D01*
X113028213Y-84209707D01*
X113028210Y-84209711D01*
X112940609Y-84340814D01*
X112940602Y-84340827D01*
X112880264Y-84486498D01*
X112880261Y-84486510D01*
X112849500Y-84641153D01*
X103463811Y-84641153D01*
X103532785Y-84505783D01*
X103567799Y-84398020D01*
X103594338Y-84316343D01*
X103594338Y-84316342D01*
X103594339Y-84316339D01*
X103625500Y-84119597D01*
X103625500Y-83920403D01*
X103594339Y-83723661D01*
X103594338Y-83723657D01*
X103594338Y-83723656D01*
X103532786Y-83534219D01*
X103508426Y-83486410D01*
X103442353Y-83356734D01*
X103325269Y-83195582D01*
X103184418Y-83054731D01*
X103023266Y-82937647D01*
X102871827Y-82860485D01*
X102821031Y-82812510D01*
X102804236Y-82744689D01*
X102826773Y-82678554D01*
X102871827Y-82639515D01*
X102881116Y-82634781D01*
X103023266Y-82562353D01*
X103184418Y-82445269D01*
X103325269Y-82304418D01*
X103442353Y-82143266D01*
X103532785Y-81965783D01*
X103561957Y-81876000D01*
X103594338Y-81776343D01*
X103594338Y-81776342D01*
X103594339Y-81776339D01*
X103625500Y-81579597D01*
X103625500Y-81380403D01*
X103594339Y-81183661D01*
X103594338Y-81183657D01*
X103594338Y-81183656D01*
X103532786Y-80994219D01*
X103498851Y-80927618D01*
X103442353Y-80816734D01*
X103325269Y-80655582D01*
X103184418Y-80514731D01*
X103023266Y-80397647D01*
X103023258Y-80397643D01*
X102871826Y-80320484D01*
X102821030Y-80272509D01*
X102804235Y-80204688D01*
X102826773Y-80138553D01*
X102871824Y-80099515D01*
X103023266Y-80022352D01*
X103184418Y-79905268D01*
X103325269Y-79764417D01*
X103442353Y-79603265D01*
X103532785Y-79425782D01*
X103594339Y-79236338D01*
X103625500Y-79039596D01*
X103625500Y-78840402D01*
X103594339Y-78643660D01*
X103594338Y-78643656D01*
X103594338Y-78643655D01*
X103532786Y-78454218D01*
X103528638Y-78446078D01*
X103442353Y-78276733D01*
X103325269Y-78115581D01*
X103184418Y-77974730D01*
X103023266Y-77857646D01*
X103023258Y-77857642D01*
X102871828Y-77780484D01*
X102821032Y-77732509D01*
X102804237Y-77664688D01*
X102826775Y-77598553D01*
X102871826Y-77559515D01*
X103023266Y-77482353D01*
X103184418Y-77365269D01*
X103325269Y-77224418D01*
X103442353Y-77063266D01*
X103532785Y-76885783D01*
X103594339Y-76696339D01*
X103625500Y-76499597D01*
X103625500Y-76300403D01*
X103594339Y-76103661D01*
X103594338Y-76103657D01*
X103594338Y-76103656D01*
X103532786Y-75914219D01*
X103442352Y-75736733D01*
X103325269Y-75575582D01*
X103184418Y-75434731D01*
X103023266Y-75317647D01*
X102871827Y-75240485D01*
X102821031Y-75192510D01*
X102804236Y-75124689D01*
X102826773Y-75058554D01*
X102871827Y-75019515D01*
X102881116Y-75014781D01*
X103023266Y-74942353D01*
X103184418Y-74825269D01*
X103325269Y-74684418D01*
X103442353Y-74523266D01*
X103442354Y-74523264D01*
X103442835Y-74522602D01*
X103498165Y-74479936D01*
X103567778Y-74473957D01*
X103578091Y-74476511D01*
X103589756Y-74479936D01*
X103607080Y-74485023D01*
X103607084Y-74485024D01*
X103749500Y-74505500D01*
X103749503Y-74505500D01*
X111690530Y-74505500D01*
X111690612Y-74505500D01*
X111695178Y-74505479D01*
X111697392Y-74505459D01*
X111701850Y-74505399D01*
X111701855Y-74505398D01*
X111701859Y-74505398D01*
X111843872Y-74482385D01*
X111843873Y-74482384D01*
X111843877Y-74482384D01*
X111910554Y-74461506D01*
X111910557Y-74461505D01*
X112040347Y-74399407D01*
X112065114Y-74382857D01*
X112086543Y-74371402D01*
X112117672Y-74358509D01*
X112140918Y-74351457D01*
X112173970Y-74344883D01*
X112198154Y-74342502D01*
X112231842Y-74342502D01*
X112256024Y-74344883D01*
G37*
%TD.AperFunction*%
%TA.AperFunction,Conductor*%
G36*
X123492026Y-80342382D02*
G01*
X123525078Y-80348957D01*
X123548324Y-80356007D01*
X123579457Y-80368903D01*
X123600889Y-80380360D01*
X123628897Y-80399075D01*
X123647684Y-80414493D01*
X123671501Y-80438309D01*
X123686924Y-80457101D01*
X123705637Y-80485107D01*
X123717097Y-80506547D01*
X123729989Y-80537672D01*
X123737044Y-80560927D01*
X123737044Y-80560928D01*
X123743616Y-80593962D01*
X123745999Y-80618157D01*
X123745999Y-80651840D01*
X123743615Y-80676036D01*
X123737042Y-80709074D01*
X123729987Y-80732330D01*
X123717097Y-80763450D01*
X123705638Y-80784889D01*
X123686919Y-80812904D01*
X123671501Y-80831690D01*
X123671498Y-80831694D01*
X123647692Y-80855500D01*
X123628902Y-80870921D01*
X123600884Y-80889642D01*
X123579445Y-80901101D01*
X123548327Y-80913990D01*
X123525070Y-80921046D01*
X123508339Y-80924374D01*
X123492030Y-80927618D01*
X123467840Y-80930001D01*
X123434158Y-80930001D01*
X123409969Y-80927618D01*
X123376923Y-80921045D01*
X123353666Y-80913989D01*
X123322546Y-80901099D01*
X123301106Y-80889639D01*
X123273098Y-80870924D01*
X123254311Y-80855506D01*
X123230494Y-80831690D01*
X123215073Y-80812900D01*
X123196356Y-80784889D01*
X123184900Y-80763456D01*
X123181779Y-80755922D01*
X123172006Y-80732327D01*
X123164953Y-80709074D01*
X123158380Y-80676032D01*
X123155999Y-80651845D01*
X123155999Y-80618154D01*
X123158381Y-80593965D01*
X123158382Y-80593962D01*
X123164955Y-80560915D01*
X123172005Y-80537675D01*
X123184901Y-80506540D01*
X123196350Y-80485120D01*
X123215078Y-80457091D01*
X123230487Y-80438317D01*
X123254313Y-80414490D01*
X123273097Y-80399075D01*
X123301110Y-80380357D01*
X123322544Y-80368901D01*
X123353667Y-80356009D01*
X123376917Y-80348956D01*
X123409969Y-80342382D01*
X123434153Y-80340001D01*
X123467841Y-80340001D01*
X123492026Y-80342382D01*
G37*
%TD.AperFunction*%
%TA.AperFunction,Conductor*%
G36*
X121241027Y-74344882D02*
G01*
X121274079Y-74351457D01*
X121297325Y-74358507D01*
X121328458Y-74371403D01*
X121349890Y-74382860D01*
X121377898Y-74401575D01*
X121396686Y-74416994D01*
X121419774Y-74440081D01*
X121430879Y-74451186D01*
X121443839Y-74463692D01*
X121450317Y-74469724D01*
X121463765Y-74481805D01*
X121510853Y-74512066D01*
X121522217Y-74525181D01*
X121536890Y-74534450D01*
X121544622Y-74551037D01*
X121556607Y-74564869D01*
X121559077Y-74582047D01*
X121566409Y-74597777D01*
X121563946Y-74615910D01*
X121566551Y-74634027D01*
X121559309Y-74650047D01*
X121557006Y-74667011D01*
X121539388Y-74694123D01*
X121538156Y-74696850D01*
X121537082Y-74698108D01*
X121448113Y-74797158D01*
X121431887Y-74821440D01*
X121427161Y-74826982D01*
X121425558Y-74828029D01*
X121420499Y-74834194D01*
X121396693Y-74858000D01*
X121377903Y-74873421D01*
X121349885Y-74892142D01*
X121328448Y-74903601D01*
X121318193Y-74907848D01*
X121297328Y-74916490D01*
X121274071Y-74923546D01*
X121257340Y-74926874D01*
X121241031Y-74930118D01*
X121216841Y-74932501D01*
X121183159Y-74932501D01*
X121158970Y-74930118D01*
X121125924Y-74923545D01*
X121102665Y-74916489D01*
X121077046Y-74905877D01*
X121022643Y-74862035D01*
X121000579Y-74795741D01*
X121000500Y-74791316D01*
X121000500Y-74483683D01*
X121006132Y-74464502D01*
X121006846Y-74444523D01*
X121015774Y-74431663D01*
X121020185Y-74416644D01*
X121035292Y-74403553D01*
X121046695Y-74387131D01*
X121070644Y-74372920D01*
X121072989Y-74370889D01*
X121077012Y-74369136D01*
X121102674Y-74358507D01*
X121125918Y-74351456D01*
X121158970Y-74344882D01*
X121183154Y-74342501D01*
X121216842Y-74342501D01*
X121241027Y-74344882D01*
G37*
%TD.AperFunction*%
%TA.AperFunction,Conductor*%
G36*
X120774954Y-66329785D02*
G01*
X120791198Y-66328332D01*
X120824476Y-66340072D01*
X120859677Y-66358486D01*
X120861139Y-66359352D01*
X120865499Y-66361532D01*
X120865501Y-66361532D01*
X120865503Y-66361534D01*
X121001187Y-66409401D01*
X121024078Y-66413954D01*
X121047321Y-66421005D01*
X121078454Y-66433900D01*
X121099882Y-66445354D01*
X121127901Y-66464076D01*
X121146685Y-66479492D01*
X121170502Y-66503308D01*
X121185925Y-66522100D01*
X121204638Y-66550106D01*
X121216098Y-66571546D01*
X121228990Y-66602671D01*
X121236045Y-66625927D01*
X121242617Y-66658961D01*
X121245000Y-66683156D01*
X121245000Y-66716839D01*
X121242616Y-66741035D01*
X121236043Y-66774073D01*
X121228988Y-66797329D01*
X121216098Y-66828449D01*
X121204639Y-66849888D01*
X121185920Y-66877903D01*
X121170499Y-66896693D01*
X121146693Y-66920499D01*
X121127903Y-66935920D01*
X121099887Y-66954640D01*
X121078448Y-66966099D01*
X121047331Y-66978988D01*
X121024079Y-66986043D01*
X121001179Y-66990599D01*
X120944441Y-67005351D01*
X120936996Y-67007756D01*
X120925182Y-67008071D01*
X120914345Y-67012789D01*
X120890894Y-67008988D01*
X120867151Y-67009623D01*
X120855299Y-67003219D01*
X120845375Y-67001611D01*
X120816030Y-66982002D01*
X120806503Y-66973444D01*
X120801686Y-66968879D01*
X120768727Y-66935920D01*
X120729490Y-66896684D01*
X120714072Y-66877896D01*
X120695357Y-66849888D01*
X120683901Y-66828455D01*
X120680780Y-66820921D01*
X120671007Y-66797326D01*
X120663954Y-66774073D01*
X120657381Y-66741031D01*
X120655000Y-66716844D01*
X120655000Y-66661326D01*
X120656033Y-66645354D01*
X120656167Y-66644319D01*
X120657139Y-66636839D01*
X120659197Y-66603695D01*
X120658848Y-66535849D01*
X120645863Y-66476416D01*
X120647046Y-66459659D01*
X120643183Y-66443310D01*
X120649456Y-66425528D01*
X120650784Y-66406721D01*
X120660838Y-66393263D01*
X120666428Y-66377421D01*
X120681318Y-66365853D01*
X120692604Y-66350750D01*
X120708339Y-66344864D01*
X120721606Y-66334559D01*
X120740384Y-66332878D01*
X120758046Y-66326273D01*
X120774954Y-66329785D01*
G37*
%TD.AperFunction*%
%TA.AperFunction,Conductor*%
G36*
X119710703Y-54267131D02*
G01*
X119713576Y-54269700D01*
X121211291Y-55652207D01*
X121231586Y-55670941D01*
X121580045Y-55992596D01*
X122981133Y-57285908D01*
X123017042Y-57345844D01*
X123014847Y-57415679D01*
X122975245Y-57473242D01*
X122910808Y-57500256D01*
X122879380Y-57499762D01*
X122842782Y-57494500D01*
X121124000Y-57494500D01*
X121123991Y-57494500D01*
X121123990Y-57494501D01*
X121016549Y-57506052D01*
X121016537Y-57506054D01*
X120965027Y-57517260D01*
X120862502Y-57551383D01*
X120862496Y-57551386D01*
X120741462Y-57629171D01*
X120741451Y-57629179D01*
X120688659Y-57674923D01*
X120594433Y-57783664D01*
X120594430Y-57783668D01*
X120534664Y-57914534D01*
X120514976Y-57981582D01*
X120494500Y-58124001D01*
X120494500Y-62282064D01*
X120497896Y-62340542D01*
X120497900Y-62340592D01*
X120501036Y-62367490D01*
X120501221Y-62369079D01*
X120511371Y-62426817D01*
X120511371Y-62426819D01*
X120511372Y-62426820D01*
X120564052Y-62560711D01*
X120596963Y-62618506D01*
X120597952Y-62620358D01*
X120598626Y-62621428D01*
X120633756Y-62666649D01*
X120686892Y-62735050D01*
X120686893Y-62735050D01*
X120686895Y-62735053D01*
X120778320Y-62800978D01*
X120803595Y-62819204D01*
X120865506Y-62851589D01*
X121001187Y-62899455D01*
X121074071Y-62913953D01*
X121097321Y-62921005D01*
X121128454Y-62933900D01*
X121149882Y-62945354D01*
X121177901Y-62964076D01*
X121196685Y-62979492D01*
X121220502Y-63003308D01*
X121235925Y-63022100D01*
X121254638Y-63050106D01*
X121266098Y-63071546D01*
X121278990Y-63102671D01*
X121286045Y-63125927D01*
X121292617Y-63158961D01*
X121295000Y-63183156D01*
X121295000Y-63216839D01*
X121292616Y-63241035D01*
X121286043Y-63274073D01*
X121278988Y-63297329D01*
X121266098Y-63328449D01*
X121254639Y-63349888D01*
X121235920Y-63377903D01*
X121220499Y-63396693D01*
X121196693Y-63420499D01*
X121177903Y-63435920D01*
X121149885Y-63454641D01*
X121128447Y-63466100D01*
X121097335Y-63478987D01*
X121074087Y-63486041D01*
X121069771Y-63486900D01*
X121069770Y-63486899D01*
X121069721Y-63486910D01*
X121001184Y-63500544D01*
X120944457Y-63515293D01*
X120934237Y-63518593D01*
X120917138Y-63524116D01*
X120917129Y-63524119D01*
X120917118Y-63524123D01*
X120862494Y-63545334D01*
X120741462Y-63623117D01*
X120741451Y-63623126D01*
X120688659Y-63668870D01*
X120594433Y-63777611D01*
X120594430Y-63777615D01*
X120534664Y-63908481D01*
X120514976Y-63975529D01*
X120494500Y-64117948D01*
X120494500Y-65778167D01*
X120474815Y-65845206D01*
X120422011Y-65890961D01*
X120352853Y-65900905D01*
X120289297Y-65871880D01*
X120271300Y-65852567D01*
X119530300Y-64864566D01*
X119505824Y-64799124D01*
X119505500Y-64790166D01*
X119505500Y-54360844D01*
X119525185Y-54293805D01*
X119577989Y-54248050D01*
X119647147Y-54238106D01*
X119710703Y-54267131D01*
G37*
%TD.AperFunction*%
%TA.AperFunction,Conductor*%
G36*
X126799103Y-59078595D02*
G01*
X126841383Y-59106304D01*
X127055371Y-59320291D01*
X127067973Y-59343371D01*
X127083781Y-59364395D01*
X127086670Y-59377611D01*
X127088856Y-59381614D01*
X127091355Y-59398867D01*
X127091392Y-59399375D01*
X127094745Y-59446254D01*
X127094947Y-59447664D01*
X127095214Y-59451280D01*
X127088277Y-59483491D01*
X127082418Y-59515918D01*
X127080956Y-59517486D01*
X127080505Y-59519584D01*
X127057251Y-59542935D01*
X127034795Y-59567043D01*
X127031481Y-59568813D01*
X127031204Y-59569092D01*
X127030790Y-59569182D01*
X127025069Y-59572240D01*
X126965816Y-59600590D01*
X126965805Y-59600596D01*
X126944483Y-59614843D01*
X126923051Y-59626299D01*
X126891930Y-59639190D01*
X126868670Y-59646246D01*
X126852043Y-59649553D01*
X126835630Y-59652818D01*
X126811441Y-59655201D01*
X126777761Y-59655201D01*
X126753569Y-59652818D01*
X126730342Y-59648197D01*
X126720526Y-59646245D01*
X126697271Y-59639190D01*
X126666152Y-59626301D01*
X126644712Y-59614842D01*
X126623276Y-59600519D01*
X126619496Y-59598019D01*
X126617582Y-59596766D01*
X126613989Y-59594435D01*
X126613986Y-59594433D01*
X126525766Y-59554143D01*
X126516399Y-59546026D01*
X126504714Y-59541899D01*
X126490492Y-59523577D01*
X126472964Y-59508388D01*
X126469472Y-59496496D01*
X126461872Y-59486705D01*
X126459813Y-59463600D01*
X126453280Y-59441348D01*
X126456621Y-59427764D01*
X126455672Y-59417111D01*
X126466574Y-59386244D01*
X126466520Y-59386220D01*
X126466807Y-59385586D01*
X126467427Y-59383832D01*
X126467882Y-59382963D01*
X126468580Y-59381676D01*
X126468739Y-59381325D01*
X126470050Y-59377611D01*
X126480241Y-59348721D01*
X126482616Y-59342523D01*
X126491885Y-59320144D01*
X126491886Y-59320145D01*
X126528502Y-59231744D01*
X126539957Y-59210312D01*
X126558677Y-59182295D01*
X126574088Y-59163517D01*
X126597914Y-59139690D01*
X126616693Y-59124277D01*
X126644711Y-59105557D01*
X126666145Y-59094101D01*
X126697268Y-59081209D01*
X126720525Y-59074155D01*
X126729511Y-59072368D01*
X126799103Y-59078595D01*
G37*
%TD.AperFunction*%
%TA.AperFunction,Conductor*%
G36*
X123777677Y-57586331D02*
G01*
X123810729Y-57592906D01*
X123833975Y-57599956D01*
X123865108Y-57612852D01*
X123886531Y-57624303D01*
X123914553Y-57643026D01*
X123933336Y-57658443D01*
X123957152Y-57682259D01*
X123972569Y-57701042D01*
X123991920Y-57730002D01*
X123992026Y-57730159D01*
X123992025Y-57730159D01*
X123993587Y-57732481D01*
X123994626Y-57734015D01*
X123996512Y-57736779D01*
X124024431Y-57767058D01*
X124055403Y-57829688D01*
X124047829Y-57898567D01*
X124002749Y-58007399D01*
X123991290Y-58028837D01*
X123972570Y-58056853D01*
X123957149Y-58075643D01*
X123933343Y-58099449D01*
X123914553Y-58114870D01*
X123886535Y-58133591D01*
X123865096Y-58145050D01*
X123833978Y-58157939D01*
X123810721Y-58164995D01*
X123793990Y-58168323D01*
X123777681Y-58171567D01*
X123753491Y-58173950D01*
X123719809Y-58173950D01*
X123695620Y-58171567D01*
X123662574Y-58164994D01*
X123639317Y-58157938D01*
X123608197Y-58145048D01*
X123586757Y-58133588D01*
X123558749Y-58114873D01*
X123539960Y-58099453D01*
X123516145Y-58075638D01*
X123500725Y-58056849D01*
X123482008Y-58028838D01*
X123470548Y-58007398D01*
X123450302Y-57958519D01*
X123445806Y-57945728D01*
X123445432Y-57944443D01*
X123439864Y-57927206D01*
X123436611Y-57917132D01*
X123429402Y-57898567D01*
X123415397Y-57862499D01*
X123415396Y-57862498D01*
X123396883Y-57833692D01*
X123390185Y-57823269D01*
X123362102Y-57779571D01*
X123357998Y-57765596D01*
X123349479Y-57753781D01*
X123348351Y-57732743D01*
X123342417Y-57712531D01*
X123346520Y-57698556D01*
X123345741Y-57684011D01*
X123356166Y-57665705D01*
X123362101Y-57645492D01*
X123373109Y-57635953D01*
X123380317Y-57623297D01*
X123398983Y-57613533D01*
X123414905Y-57599737D01*
X123430446Y-57597076D01*
X123442229Y-57590913D01*
X123477467Y-57589025D01*
X123544878Y-57595059D01*
X123546008Y-57595172D01*
X123546192Y-57595177D01*
X123546192Y-57595176D01*
X123546193Y-57595177D01*
X123689867Y-57587476D01*
X123694046Y-57586644D01*
X123695620Y-57586332D01*
X123719806Y-57583950D01*
X123753492Y-57583950D01*
X123777677Y-57586331D01*
G37*
%TD.AperFunction*%
%TA.AperFunction,Conductor*%
G36*
X128092868Y-50759222D02*
G01*
X128125920Y-50765797D01*
X128149166Y-50772847D01*
X128180299Y-50785743D01*
X128201724Y-50797195D01*
X128225770Y-50813262D01*
X128225774Y-50813264D01*
X128290097Y-50846547D01*
X128304834Y-50860641D01*
X128322533Y-50870771D01*
X128329571Y-50884298D01*
X128340592Y-50894838D01*
X128345370Y-50914664D01*
X128354782Y-50932753D01*
X128355384Y-50956214D01*
X128356963Y-50962763D01*
X128356594Y-50968001D01*
X128356302Y-50971182D01*
X128346841Y-51036988D01*
X128346841Y-51074355D01*
X128346323Y-51080004D01*
X128345527Y-51082013D01*
X128344457Y-51092876D01*
X128337884Y-51125914D01*
X128330829Y-51149170D01*
X128317939Y-51180290D01*
X128306480Y-51201729D01*
X128287761Y-51229744D01*
X128272343Y-51248530D01*
X128272340Y-51248534D01*
X128248534Y-51272340D01*
X128229744Y-51287761D01*
X128201726Y-51306482D01*
X128180287Y-51317941D01*
X128149169Y-51330830D01*
X128125912Y-51337886D01*
X128109181Y-51341214D01*
X128092872Y-51344458D01*
X128068682Y-51346841D01*
X128035000Y-51346841D01*
X128010811Y-51344458D01*
X127977765Y-51337885D01*
X127954508Y-51330829D01*
X127923388Y-51317939D01*
X127901948Y-51306479D01*
X127873940Y-51287764D01*
X127855153Y-51272346D01*
X127831336Y-51248530D01*
X127815915Y-51229740D01*
X127797198Y-51201729D01*
X127785742Y-51180296D01*
X127782621Y-51172762D01*
X127772848Y-51149167D01*
X127765795Y-51125914D01*
X127759222Y-51092872D01*
X127756841Y-51068685D01*
X127756841Y-51034994D01*
X127759223Y-51010805D01*
X127760353Y-51005126D01*
X127765797Y-50977755D01*
X127772847Y-50954515D01*
X127785743Y-50923380D01*
X127797192Y-50901960D01*
X127815920Y-50873931D01*
X127831329Y-50855157D01*
X127855155Y-50831330D01*
X127873934Y-50815917D01*
X127901952Y-50797197D01*
X127923386Y-50785741D01*
X127954509Y-50772849D01*
X127977759Y-50765796D01*
X128010811Y-50759222D01*
X128034995Y-50756841D01*
X128068683Y-50756841D01*
X128092868Y-50759222D01*
G37*
%TD.AperFunction*%
%TA.AperFunction,Conductor*%
G36*
X118641027Y-50257381D02*
G01*
X118674079Y-50263956D01*
X118697325Y-50271006D01*
X118728458Y-50283902D01*
X118749890Y-50295359D01*
X118777898Y-50314074D01*
X118796685Y-50329492D01*
X118820502Y-50353308D01*
X118835925Y-50372100D01*
X118854640Y-50400109D01*
X118866098Y-50421545D01*
X118875620Y-50444532D01*
X118875623Y-50444548D01*
X118875626Y-50444547D01*
X118878993Y-50452678D01*
X118886043Y-50475922D01*
X118892616Y-50508959D01*
X118894999Y-50533150D01*
X118895000Y-50533156D01*
X118895000Y-50566839D01*
X118892616Y-50591035D01*
X118886043Y-50624073D01*
X118878988Y-50647329D01*
X118866098Y-50678449D01*
X118854639Y-50699888D01*
X118835920Y-50727903D01*
X118820499Y-50746693D01*
X118796693Y-50770499D01*
X118777903Y-50785920D01*
X118749885Y-50804641D01*
X118728446Y-50816100D01*
X118697328Y-50828989D01*
X118674071Y-50836045D01*
X118657340Y-50839373D01*
X118641031Y-50842617D01*
X118616841Y-50845000D01*
X118583158Y-50845000D01*
X118558968Y-50842617D01*
X118523829Y-50835627D01*
X118449662Y-50820874D01*
X118448571Y-50820652D01*
X118445695Y-50820053D01*
X118384078Y-50787113D01*
X118350831Y-50729322D01*
X118344185Y-50703281D01*
X118321008Y-50647328D01*
X118313954Y-50624073D01*
X118307381Y-50591031D01*
X118305000Y-50566846D01*
X118305000Y-50533150D01*
X118307381Y-50508969D01*
X118313954Y-50475920D01*
X118321005Y-50452677D01*
X118343865Y-50397489D01*
X118351896Y-50368311D01*
X118388664Y-50308902D01*
X118447257Y-50279603D01*
X118465129Y-50276048D01*
X118558964Y-50257382D01*
X118583155Y-50255000D01*
X118616842Y-50255000D01*
X118641027Y-50257381D01*
G37*
%TD.AperFunction*%
%TA.AperFunction,Conductor*%
G36*
X129547803Y-49975494D02*
G01*
X129628461Y-50008903D01*
X129649884Y-50020354D01*
X129677899Y-50039073D01*
X129696685Y-50054491D01*
X129720502Y-50078307D01*
X129735925Y-50097099D01*
X129754638Y-50125105D01*
X129766098Y-50146545D01*
X129778990Y-50177670D01*
X129786045Y-50200925D01*
X129786045Y-50200926D01*
X129792617Y-50233960D01*
X129795000Y-50258155D01*
X129795000Y-50291838D01*
X129792616Y-50316034D01*
X129786043Y-50349072D01*
X129778988Y-50372328D01*
X129766098Y-50403448D01*
X129754639Y-50424887D01*
X129735920Y-50452902D01*
X129720499Y-50471692D01*
X129696693Y-50495498D01*
X129677903Y-50510919D01*
X129649885Y-50529640D01*
X129628446Y-50541099D01*
X129597328Y-50553988D01*
X129574071Y-50561044D01*
X129557340Y-50564372D01*
X129541031Y-50567616D01*
X129516841Y-50569999D01*
X129483161Y-50569999D01*
X129458969Y-50567616D01*
X129435742Y-50562995D01*
X129425926Y-50561043D01*
X129402671Y-50553988D01*
X129371550Y-50541098D01*
X129350111Y-50529639D01*
X129326072Y-50513577D01*
X129326071Y-50513576D01*
X129326069Y-50513575D01*
X129261743Y-50480291D01*
X129247006Y-50466197D01*
X129229306Y-50456067D01*
X129222267Y-50442538D01*
X129211248Y-50432000D01*
X129206469Y-50412173D01*
X129197058Y-50394084D01*
X129196455Y-50370623D01*
X129194877Y-50364075D01*
X129195246Y-50358837D01*
X129195535Y-50355677D01*
X129205000Y-50289851D01*
X129205000Y-50252476D01*
X129205518Y-50246828D01*
X129206312Y-50244821D01*
X129207382Y-50233963D01*
X129207383Y-50233960D01*
X129213956Y-50200913D01*
X129221006Y-50177673D01*
X129233902Y-50146538D01*
X129245351Y-50125118D01*
X129264079Y-50097089D01*
X129279490Y-50078313D01*
X129303310Y-50054493D01*
X129322098Y-50039074D01*
X129350106Y-50020359D01*
X129371539Y-50008901D01*
X129438172Y-49981302D01*
X129440565Y-49981045D01*
X129448819Y-49977274D01*
X129517975Y-49967315D01*
X129547803Y-49975494D01*
G37*
%TD.AperFunction*%
%TD*%
%TA.AperFunction,NonConductor*%
G36*
X130437539Y-64720184D02*
G01*
X130483294Y-64772988D01*
X130494500Y-64824499D01*
X130494500Y-75480254D01*
X130474815Y-75547293D01*
X130422011Y-75593048D01*
X130352853Y-75602992D01*
X130289297Y-75573967D01*
X130282819Y-75567935D01*
X128541819Y-73826935D01*
X128508334Y-73765612D01*
X128505500Y-73739254D01*
X128505500Y-64824499D01*
X128525185Y-64757460D01*
X128577989Y-64711705D01*
X128629500Y-64700499D01*
X130370500Y-64700499D01*
X130437539Y-64720184D01*
G37*
%TD.AperFunction*%
%TA.AperFunction,NonConductor*%
G36*
X124437539Y-70525185D02*
G01*
X124483294Y-70577989D01*
X124494500Y-70629500D01*
X124494500Y-74948640D01*
X124497397Y-75002688D01*
X124497397Y-75002689D01*
X124500229Y-75029022D01*
X124500232Y-75029049D01*
X124508885Y-75082445D01*
X124508885Y-75082447D01*
X124553271Y-75201446D01*
X124559168Y-75217257D01*
X124592653Y-75278580D01*
X124678877Y-75393761D01*
X124678881Y-75393765D01*
X124678886Y-75393771D01*
X126567935Y-77282819D01*
X126601420Y-77344142D01*
X126596436Y-77413834D01*
X126554564Y-77469767D01*
X126489100Y-77494184D01*
X126480254Y-77494500D01*
X125260746Y-77494500D01*
X125193707Y-77474815D01*
X125173065Y-77458181D01*
X122416666Y-74701782D01*
X122411601Y-74696850D01*
X122406969Y-74692339D01*
X122406963Y-74692334D01*
X122406936Y-74692307D01*
X122402174Y-74687793D01*
X122392182Y-74678573D01*
X122335229Y-74640518D01*
X122290424Y-74586905D01*
X122281717Y-74517580D01*
X122310408Y-74456212D01*
X122311341Y-74455134D01*
X122311347Y-74455130D01*
X122405567Y-74346396D01*
X122465338Y-74215519D01*
X122485023Y-74148480D01*
X122485024Y-74148476D01*
X122505500Y-74006060D01*
X122505500Y-70629500D01*
X122525185Y-70562461D01*
X122577989Y-70516706D01*
X122629500Y-70505500D01*
X124370500Y-70505500D01*
X124437539Y-70525185D01*
G37*
%TD.AperFunction*%
%TA.AperFunction,Conductor*%
%TO.N,12V*%
G36*
X111669491Y-40019685D02*
G01*
X111690133Y-40036319D01*
X111692899Y-40039085D01*
X111692903Y-40039088D01*
X111824006Y-40126689D01*
X111824019Y-40126696D01*
X111927931Y-40169737D01*
X111969695Y-40187036D01*
X112124345Y-40217798D01*
X112124348Y-40217799D01*
X112166437Y-40217799D01*
X112233476Y-40237484D01*
X112254118Y-40254118D01*
X118963681Y-46963681D01*
X118997166Y-47025004D01*
X119000000Y-47051362D01*
X119000000Y-47370500D01*
X118980315Y-47437539D01*
X118927511Y-47483294D01*
X118876000Y-47494500D01*
X118484111Y-47494500D01*
X118417072Y-47474815D01*
X118371317Y-47422011D01*
X118361373Y-47352853D01*
X118365452Y-47334501D01*
X118366543Y-47330901D01*
X118366545Y-47330897D01*
X118397308Y-47176242D01*
X118397308Y-47018558D01*
X118397308Y-47018555D01*
X118397307Y-47018553D01*
X118366546Y-46863910D01*
X118366545Y-46863903D01*
X118366543Y-46863898D01*
X118306205Y-46718227D01*
X118306198Y-46718214D01*
X118218597Y-46587111D01*
X118218594Y-46587107D01*
X118107100Y-46475613D01*
X118107096Y-46475610D01*
X117975993Y-46388009D01*
X117975980Y-46388002D01*
X117830309Y-46327664D01*
X117830297Y-46327661D01*
X117675653Y-46296900D01*
X117675650Y-46296900D01*
X117517966Y-46296900D01*
X117517963Y-46296900D01*
X117363318Y-46327661D01*
X117363306Y-46327664D01*
X117217635Y-46388002D01*
X117217622Y-46388009D01*
X117086519Y-46475610D01*
X117086515Y-46475613D01*
X116975021Y-46587107D01*
X116975018Y-46587111D01*
X116887417Y-46718214D01*
X116887410Y-46718227D01*
X116827072Y-46863898D01*
X116827069Y-46863910D01*
X116796308Y-47018553D01*
X116796308Y-47176246D01*
X116827069Y-47330889D01*
X116827072Y-47330901D01*
X116887410Y-47476572D01*
X116887417Y-47476585D01*
X116975018Y-47607688D01*
X116975021Y-47607692D01*
X117086515Y-47719186D01*
X117086519Y-47719189D01*
X117217622Y-47806790D01*
X117217635Y-47806797D01*
X117323116Y-47850488D01*
X117363311Y-47867137D01*
X117517961Y-47897899D01*
X117517964Y-47897900D01*
X117584405Y-47897900D01*
X117651444Y-47917585D01*
X117697199Y-47970389D01*
X117707142Y-48039544D01*
X117697313Y-48107912D01*
X117695000Y-48124001D01*
X117695000Y-49663439D01*
X117698832Y-49725577D01*
X117702575Y-49755807D01*
X117714012Y-49816989D01*
X117768608Y-49950109D01*
X117804042Y-50010309D01*
X117804049Y-50010318D01*
X117804051Y-50010322D01*
X117858368Y-50078211D01*
X117859104Y-50079131D01*
X117885615Y-50143776D01*
X117876841Y-50204050D01*
X117830263Y-50316503D01*
X117830262Y-50316506D01*
X117830262Y-50316507D01*
X117830261Y-50316510D01*
X117799500Y-50471153D01*
X117799500Y-50628846D01*
X117830261Y-50783489D01*
X117830264Y-50783501D01*
X117877163Y-50896726D01*
X117884632Y-50966195D01*
X117856315Y-51025381D01*
X117794933Y-51096219D01*
X117794930Y-51096223D01*
X117735164Y-51227089D01*
X117715476Y-51294137D01*
X117695000Y-51436556D01*
X117695000Y-52130792D01*
X117699076Y-52194851D01*
X117703061Y-52226033D01*
X117703063Y-52226043D01*
X117715224Y-52289068D01*
X117770849Y-52421752D01*
X117770854Y-52421762D01*
X117800418Y-52471108D01*
X117803544Y-52477739D01*
X117895293Y-52590602D01*
X117897522Y-52593343D01*
X118960108Y-53574192D01*
X118996016Y-53634126D01*
X119000000Y-53665306D01*
X119000000Y-65000000D01*
X119565096Y-65753462D01*
X120130193Y-66506925D01*
X120154669Y-66572367D01*
X120152611Y-66605511D01*
X120149500Y-66621151D01*
X120149500Y-66778846D01*
X120180261Y-66933489D01*
X120180264Y-66933501D01*
X120240602Y-67079172D01*
X120240609Y-67079185D01*
X120328210Y-67210288D01*
X120328213Y-67210292D01*
X120439707Y-67321786D01*
X120439711Y-67321789D01*
X120462499Y-67337016D01*
X120507304Y-67390629D01*
X120516011Y-67459954D01*
X120515288Y-67463992D01*
X120514977Y-67465572D01*
X120494500Y-67608002D01*
X120494500Y-68333718D01*
X120497397Y-68387766D01*
X120497397Y-68387767D01*
X120500229Y-68414100D01*
X120500232Y-68414127D01*
X120508885Y-68467523D01*
X120508885Y-68467525D01*
X120559053Y-68602027D01*
X120559168Y-68602335D01*
X120592653Y-68663658D01*
X120678877Y-68778839D01*
X120775854Y-68875816D01*
X120791266Y-68894596D01*
X120831877Y-68955374D01*
X120843318Y-68976769D01*
X120844139Y-68978749D01*
X120844156Y-68978791D01*
X120871304Y-69044332D01*
X120878360Y-69067593D01*
X120892617Y-69139265D01*
X120895000Y-69163457D01*
X120895000Y-69236538D01*
X120892617Y-69260731D01*
X120878358Y-69332410D01*
X120871302Y-69355670D01*
X120843335Y-69423188D01*
X120831878Y-69444624D01*
X120777322Y-69526275D01*
X120725604Y-69626228D01*
X120725599Y-69626240D01*
X120705965Y-69677478D01*
X120705963Y-69677484D01*
X120677643Y-69786416D01*
X120677643Y-69930293D01*
X120677644Y-69930297D01*
X120687588Y-69999455D01*
X120687589Y-69999460D01*
X120687590Y-69999463D01*
X120728122Y-70137501D01*
X120728125Y-70137507D01*
X120805907Y-70258537D01*
X120805915Y-70258548D01*
X120851659Y-70311340D01*
X120851662Y-70311343D01*
X120851666Y-70311347D01*
X120960400Y-70405567D01*
X120960403Y-70405568D01*
X120960404Y-70405569D01*
X121023163Y-70434231D01*
X121091277Y-70465338D01*
X121158316Y-70485023D01*
X121158320Y-70485024D01*
X121300736Y-70505500D01*
X121300739Y-70505500D01*
X121876000Y-70505500D01*
X121943039Y-70525185D01*
X121988794Y-70577989D01*
X122000000Y-70629500D01*
X122000000Y-74006060D01*
X121980315Y-74073099D01*
X121927511Y-74118854D01*
X121858353Y-74128798D01*
X121794797Y-74099773D01*
X121788319Y-74093741D01*
X121710292Y-74015714D01*
X121710288Y-74015711D01*
X121579185Y-73928110D01*
X121579172Y-73928103D01*
X121433501Y-73867765D01*
X121433489Y-73867762D01*
X121278845Y-73837001D01*
X121278842Y-73837001D01*
X121121158Y-73837001D01*
X121121155Y-73837001D01*
X120966510Y-73867762D01*
X120966498Y-73867765D01*
X120820827Y-73928103D01*
X120820814Y-73928110D01*
X120689711Y-74015711D01*
X120689707Y-74015714D01*
X120578213Y-74127208D01*
X120578210Y-74127212D01*
X120490609Y-74258315D01*
X120490602Y-74258328D01*
X120430264Y-74403999D01*
X120430261Y-74404011D01*
X120399500Y-74558654D01*
X120399500Y-74716347D01*
X120430261Y-74870990D01*
X120430264Y-74871002D01*
X120490602Y-75016673D01*
X120490609Y-75016686D01*
X120578210Y-75147789D01*
X120578213Y-75147793D01*
X120689707Y-75259287D01*
X120689711Y-75259290D01*
X120820814Y-75346891D01*
X120820827Y-75346898D01*
X120933966Y-75393761D01*
X120966503Y-75407238D01*
X121121153Y-75438000D01*
X121121156Y-75438001D01*
X121121158Y-75438001D01*
X121278844Y-75438001D01*
X121278845Y-75438000D01*
X121433497Y-75407238D01*
X121579179Y-75346895D01*
X121710289Y-75259290D01*
X121821789Y-75147790D01*
X121868424Y-75077994D01*
X121922034Y-75033192D01*
X121991359Y-75024483D01*
X122054386Y-75054637D01*
X122059206Y-75059206D01*
X125000000Y-78000000D01*
X127233754Y-78000000D01*
X127300793Y-78019685D01*
X127321435Y-78036319D01*
X127605739Y-78320623D01*
X127605755Y-78320637D01*
X127605762Y-78320644D01*
X127645980Y-78356771D01*
X127645992Y-78356781D01*
X127646000Y-78356788D01*
X127666642Y-78373422D01*
X127710526Y-78405067D01*
X127841403Y-78464838D01*
X127908442Y-78484523D01*
X127908446Y-78484524D01*
X128050862Y-78505000D01*
X128836544Y-78505000D01*
X128860726Y-78507381D01*
X128932416Y-78521641D01*
X128955667Y-78528694D01*
X129023185Y-78556661D01*
X129044621Y-78568119D01*
X129105388Y-78608722D01*
X129124179Y-78624143D01*
X129175852Y-78675816D01*
X129191273Y-78694606D01*
X129231878Y-78755375D01*
X129243337Y-78776814D01*
X129271303Y-78844331D01*
X129278358Y-78867588D01*
X129285499Y-78903483D01*
X129292617Y-78939261D01*
X129295000Y-78963455D01*
X129295000Y-79036540D01*
X129292617Y-79060732D01*
X129278360Y-79132404D01*
X129271304Y-79155665D01*
X129243336Y-79223185D01*
X129231877Y-79244622D01*
X129191270Y-79305395D01*
X129175849Y-79324186D01*
X129124186Y-79375849D01*
X129105395Y-79391271D01*
X129044623Y-79431877D01*
X129023186Y-79443335D01*
X128912480Y-79489191D01*
X128908362Y-79490811D01*
X128817045Y-79524871D01*
X128817029Y-79524879D01*
X128757670Y-79557290D01*
X128756196Y-79558060D01*
X128755713Y-79558358D01*
X128640530Y-79644584D01*
X128640518Y-79644594D01*
X126321433Y-81963681D01*
X126260110Y-81997166D01*
X126233752Y-82000000D01*
X118124000Y-82000000D01*
X118056961Y-81980315D01*
X118011206Y-81927511D01*
X118000000Y-81876000D01*
X118000000Y-80556154D01*
X122650499Y-80556154D01*
X122650499Y-80713847D01*
X122681260Y-80868490D01*
X122681263Y-80868502D01*
X122741601Y-81014173D01*
X122741608Y-81014186D01*
X122829209Y-81145289D01*
X122829212Y-81145293D01*
X122940706Y-81256787D01*
X122940710Y-81256790D01*
X123071813Y-81344391D01*
X123071826Y-81344398D01*
X123217497Y-81404736D01*
X123217502Y-81404738D01*
X123333593Y-81427830D01*
X123372152Y-81435500D01*
X123372155Y-81435501D01*
X123372157Y-81435501D01*
X123529843Y-81435501D01*
X123529844Y-81435500D01*
X123684496Y-81404738D01*
X123830178Y-81344395D01*
X123961288Y-81256790D01*
X124072788Y-81145290D01*
X124160393Y-81014180D01*
X124220736Y-80868498D01*
X124251499Y-80713843D01*
X124251499Y-80556159D01*
X124251499Y-80556156D01*
X124251498Y-80556154D01*
X124245289Y-80524938D01*
X124220736Y-80401504D01*
X124220734Y-80401499D01*
X124160396Y-80255828D01*
X124160389Y-80255815D01*
X124072788Y-80124712D01*
X124072785Y-80124708D01*
X123961291Y-80013214D01*
X123961287Y-80013211D01*
X123830184Y-79925610D01*
X123830171Y-79925603D01*
X123684500Y-79865265D01*
X123684488Y-79865262D01*
X123529844Y-79834501D01*
X123529841Y-79834501D01*
X123372157Y-79834501D01*
X123372154Y-79834501D01*
X123217509Y-79865262D01*
X123217497Y-79865265D01*
X123071826Y-79925603D01*
X123071813Y-79925610D01*
X122940710Y-80013211D01*
X122940706Y-80013214D01*
X122829212Y-80124708D01*
X122829209Y-80124712D01*
X122741608Y-80255815D01*
X122741601Y-80255828D01*
X122681263Y-80401499D01*
X122681260Y-80401511D01*
X122650499Y-80556154D01*
X118000000Y-80556154D01*
X118000000Y-74583795D01*
X118019685Y-74516756D01*
X118072489Y-74471001D01*
X118084828Y-74466145D01*
X118137504Y-74448613D01*
X118258543Y-74370825D01*
X118311347Y-74325070D01*
X118405567Y-74216336D01*
X118465338Y-74085459D01*
X118485023Y-74018420D01*
X118485024Y-74018416D01*
X118505500Y-73876000D01*
X118505500Y-71124000D01*
X118493947Y-71016544D01*
X118482741Y-70965033D01*
X118482637Y-70964722D01*
X118448616Y-70862502D01*
X118448613Y-70862496D01*
X118424447Y-70824893D01*
X118370825Y-70741457D01*
X118370820Y-70741451D01*
X118325076Y-70688659D01*
X118325072Y-70688656D01*
X118325070Y-70688653D01*
X118216336Y-70594433D01*
X118216333Y-70594431D01*
X118216331Y-70594430D01*
X118085457Y-70534660D01*
X118081315Y-70533116D01*
X118082017Y-70531232D01*
X118030182Y-70497825D01*
X118001239Y-70434231D01*
X118000000Y-70416743D01*
X118000000Y-70000000D01*
X115036319Y-67036319D01*
X115002834Y-66974996D01*
X115000000Y-66948638D01*
X115000000Y-54186428D01*
X115019685Y-54119389D01*
X115072489Y-54073634D01*
X115141647Y-54063690D01*
X115160233Y-54068791D01*
X115160483Y-54067969D01*
X115166299Y-54069732D01*
X115166310Y-54069737D01*
X115318602Y-54100030D01*
X115320960Y-54100499D01*
X115320963Y-54100500D01*
X115320965Y-54100500D01*
X115478651Y-54100500D01*
X115478652Y-54100499D01*
X115633304Y-54069737D01*
X115745973Y-54023067D01*
X115778979Y-54009397D01*
X115778979Y-54009396D01*
X115778986Y-54009394D01*
X115910096Y-53921789D01*
X116021596Y-53810289D01*
X116109201Y-53679179D01*
X116169544Y-53533497D01*
X116200307Y-53378842D01*
X116200307Y-53221158D01*
X116200307Y-53221155D01*
X116200306Y-53221153D01*
X116169545Y-53066510D01*
X116169544Y-53066503D01*
X116169542Y-53066498D01*
X116109204Y-52920827D01*
X116109197Y-52920814D01*
X116021596Y-52789711D01*
X116021593Y-52789707D01*
X115910099Y-52678213D01*
X115910095Y-52678210D01*
X115778992Y-52590609D01*
X115778979Y-52590602D01*
X115633308Y-52530264D01*
X115633296Y-52530261D01*
X115478652Y-52499500D01*
X115478649Y-52499500D01*
X115320965Y-52499500D01*
X115320962Y-52499500D01*
X115166317Y-52530261D01*
X115160483Y-52532031D01*
X115159694Y-52529433D01*
X115101791Y-52535566D01*
X115039361Y-52504193D01*
X115003804Y-52444048D01*
X115000000Y-52413571D01*
X115000000Y-51221153D01*
X115399500Y-51221153D01*
X115399500Y-51378846D01*
X115430261Y-51533489D01*
X115430264Y-51533501D01*
X115490602Y-51679172D01*
X115490609Y-51679185D01*
X115578210Y-51810288D01*
X115578213Y-51810292D01*
X115689707Y-51921786D01*
X115689711Y-51921789D01*
X115820814Y-52009390D01*
X115820827Y-52009397D01*
X115966498Y-52069735D01*
X115966503Y-52069737D01*
X116121153Y-52100499D01*
X116121156Y-52100500D01*
X116121158Y-52100500D01*
X116278844Y-52100500D01*
X116278845Y-52100499D01*
X116433497Y-52069737D01*
X116579179Y-52009394D01*
X116710289Y-51921789D01*
X116821789Y-51810289D01*
X116909394Y-51679179D01*
X116969737Y-51533497D01*
X117000500Y-51378842D01*
X117000500Y-51221158D01*
X117000500Y-51221155D01*
X117000499Y-51221153D01*
X116989435Y-51165531D01*
X116969737Y-51066503D01*
X116952704Y-51025381D01*
X116909397Y-50920827D01*
X116909390Y-50920814D01*
X116821789Y-50789711D01*
X116821786Y-50789707D01*
X116710292Y-50678213D01*
X116710288Y-50678210D01*
X116579185Y-50590609D01*
X116579172Y-50590602D01*
X116433501Y-50530264D01*
X116433489Y-50530261D01*
X116278845Y-50499500D01*
X116278842Y-50499500D01*
X116121158Y-50499500D01*
X116121155Y-50499500D01*
X115966510Y-50530261D01*
X115966498Y-50530264D01*
X115820827Y-50590602D01*
X115820814Y-50590609D01*
X115689711Y-50678210D01*
X115689707Y-50678213D01*
X115578213Y-50789707D01*
X115578210Y-50789711D01*
X115490609Y-50920814D01*
X115490602Y-50920827D01*
X115430264Y-51066498D01*
X115430261Y-51066510D01*
X115399500Y-51221153D01*
X115000000Y-51221153D01*
X115000000Y-49654199D01*
X115019685Y-49587160D01*
X115072489Y-49541405D01*
X115124000Y-49530199D01*
X115158835Y-49530199D01*
X115158836Y-49530198D01*
X115313488Y-49499436D01*
X115459170Y-49439093D01*
X115590280Y-49351488D01*
X115701780Y-49239988D01*
X115789385Y-49108878D01*
X115849728Y-48963196D01*
X115880491Y-48808541D01*
X115880491Y-48650857D01*
X115880491Y-48650854D01*
X115880490Y-48650852D01*
X115849729Y-48496209D01*
X115849728Y-48496202D01*
X115818644Y-48421158D01*
X115789388Y-48350526D01*
X115789381Y-48350513D01*
X115701780Y-48219410D01*
X115701777Y-48219406D01*
X115590283Y-48107912D01*
X115590279Y-48107909D01*
X115459176Y-48020308D01*
X115459163Y-48020301D01*
X115313492Y-47959963D01*
X115313480Y-47959960D01*
X115158836Y-47929199D01*
X115158833Y-47929199D01*
X115001149Y-47929199D01*
X115001146Y-47929199D01*
X114846501Y-47959960D01*
X114846489Y-47959963D01*
X114700818Y-48020301D01*
X114700805Y-48020308D01*
X114569702Y-48107909D01*
X114569698Y-48107912D01*
X114458204Y-48219406D01*
X114458199Y-48219412D01*
X114446497Y-48236926D01*
X114392884Y-48281731D01*
X114323559Y-48290437D01*
X114260532Y-48260281D01*
X114255715Y-48255715D01*
X110231572Y-44231572D01*
X110198087Y-44170249D01*
X110203071Y-44100557D01*
X110244943Y-44044624D01*
X110295062Y-44022274D01*
X110349252Y-44011494D01*
X110433497Y-43994737D01*
X110579179Y-43934394D01*
X110710289Y-43846789D01*
X110821789Y-43735289D01*
X110909394Y-43604179D01*
X110969737Y-43458497D01*
X111000500Y-43303842D01*
X111000500Y-43146158D01*
X111000500Y-43146155D01*
X111000499Y-43146153D01*
X110997274Y-43129938D01*
X110969737Y-42991503D01*
X110951982Y-42948638D01*
X110909397Y-42845827D01*
X110909390Y-42845814D01*
X110821789Y-42714711D01*
X110821786Y-42714707D01*
X110710292Y-42603213D01*
X110710288Y-42603210D01*
X110579185Y-42515609D01*
X110579172Y-42515602D01*
X110433501Y-42455264D01*
X110433489Y-42455261D01*
X110278845Y-42424500D01*
X110278842Y-42424500D01*
X110121158Y-42424500D01*
X110121155Y-42424500D01*
X109966510Y-42455261D01*
X109966498Y-42455264D01*
X109820827Y-42515602D01*
X109820814Y-42515609D01*
X109689711Y-42603210D01*
X109689707Y-42603213D01*
X109578213Y-42714707D01*
X109578210Y-42714711D01*
X109490609Y-42845814D01*
X109490602Y-42845827D01*
X109430264Y-42991498D01*
X109430261Y-42991508D01*
X109402725Y-43129938D01*
X109398015Y-43138942D01*
X109397290Y-43149080D01*
X109382093Y-43169379D01*
X109370340Y-43191849D01*
X109361507Y-43196878D01*
X109355418Y-43205013D01*
X109331662Y-43213873D01*
X109309624Y-43226423D01*
X109299475Y-43225878D01*
X109289954Y-43229430D01*
X109265175Y-43224039D01*
X109239854Y-43222682D01*
X109229793Y-43216342D01*
X109221681Y-43214578D01*
X109193427Y-43193427D01*
X109036319Y-43036319D01*
X109002834Y-42974996D01*
X109000000Y-42948638D01*
X109000000Y-40124000D01*
X109019685Y-40056961D01*
X109072489Y-40011206D01*
X109124000Y-40000000D01*
X111602452Y-40000000D01*
X111669491Y-40019685D01*
G37*
%TD.AperFunction*%
%TD*%
%TA.AperFunction,Conductor*%
%TO.N,5V*%
G36*
X78178592Y-66019685D02*
G01*
X78224347Y-66072489D01*
X78233397Y-66135434D01*
X78234882Y-66135551D01*
X78234500Y-66140401D01*
X78234500Y-66339595D01*
X78265661Y-66536339D01*
X78265661Y-66536342D01*
X78327213Y-66725779D01*
X78353383Y-66777140D01*
X78417647Y-66903265D01*
X78534731Y-67064417D01*
X78675582Y-67205268D01*
X78836734Y-67322352D01*
X78907724Y-67358523D01*
X78988174Y-67399515D01*
X79038970Y-67447490D01*
X79055765Y-67515311D01*
X79033227Y-67581446D01*
X78988174Y-67620485D01*
X78836733Y-67697648D01*
X78744790Y-67764448D01*
X78675582Y-67814732D01*
X78675580Y-67814734D01*
X78675579Y-67814734D01*
X78534733Y-67955580D01*
X78534733Y-67955581D01*
X78534731Y-67955583D01*
X78484447Y-68024791D01*
X78417647Y-68116734D01*
X78327213Y-68294220D01*
X78265661Y-68483657D01*
X78265661Y-68483660D01*
X78265661Y-68483662D01*
X78234500Y-68680404D01*
X78234500Y-68879598D01*
X78250080Y-68977969D01*
X78265661Y-69076341D01*
X78265661Y-69076344D01*
X78327213Y-69265781D01*
X78417647Y-69443267D01*
X78534731Y-69604419D01*
X78675582Y-69745270D01*
X78836734Y-69862354D01*
X78930245Y-69910000D01*
X78988171Y-69939515D01*
X79038967Y-69987490D01*
X79055762Y-70055311D01*
X79033225Y-70121446D01*
X78988171Y-70160484D01*
X78836738Y-70237643D01*
X78729299Y-70315703D01*
X78675582Y-70354731D01*
X78675580Y-70354733D01*
X78675579Y-70354733D01*
X78534733Y-70495579D01*
X78534733Y-70495580D01*
X78534731Y-70495582D01*
X78524256Y-70510000D01*
X78417647Y-70656733D01*
X78327213Y-70834219D01*
X78265661Y-71023656D01*
X78265661Y-71023659D01*
X78234500Y-71220403D01*
X78234500Y-71419596D01*
X78265661Y-71616340D01*
X78265661Y-71616343D01*
X78327213Y-71805780D01*
X78377220Y-71903923D01*
X78417647Y-71983266D01*
X78534731Y-72144418D01*
X78675582Y-72285269D01*
X78836734Y-72402353D01*
X78848151Y-72408170D01*
X78988172Y-72479515D01*
X79038968Y-72527490D01*
X79055763Y-72595311D01*
X79033225Y-72661446D01*
X78988172Y-72700485D01*
X78836733Y-72777647D01*
X78744790Y-72844447D01*
X78675582Y-72894731D01*
X78675580Y-72894733D01*
X78675579Y-72894733D01*
X78534733Y-73035579D01*
X78534733Y-73035580D01*
X78534731Y-73035582D01*
X78484447Y-73104790D01*
X78417647Y-73196733D01*
X78327213Y-73374219D01*
X78265661Y-73563656D01*
X78265661Y-73563659D01*
X78265661Y-73563661D01*
X78234500Y-73760403D01*
X78234500Y-73959597D01*
X78239124Y-73988794D01*
X78265661Y-74156340D01*
X78265661Y-74156343D01*
X78327213Y-74345780D01*
X78377215Y-74443914D01*
X78417647Y-74523266D01*
X78534731Y-74684418D01*
X78675582Y-74825269D01*
X78836734Y-74942353D01*
X78891976Y-74970500D01*
X78988172Y-75019515D01*
X79038968Y-75067490D01*
X79055763Y-75135311D01*
X79033225Y-75201446D01*
X78988172Y-75240485D01*
X78836733Y-75317647D01*
X78796476Y-75346896D01*
X78675582Y-75434731D01*
X78675580Y-75434733D01*
X78675579Y-75434733D01*
X78534733Y-75575579D01*
X78534733Y-75575580D01*
X78534731Y-75575582D01*
X78501863Y-75620821D01*
X78417647Y-75736733D01*
X78327213Y-75914219D01*
X78265661Y-76103656D01*
X78265661Y-76103659D01*
X78265661Y-76103661D01*
X78234500Y-76300403D01*
X78234500Y-76499597D01*
X78236473Y-76512056D01*
X78265661Y-76696340D01*
X78265661Y-76696343D01*
X78327213Y-76885780D01*
X78327215Y-76885783D01*
X78417647Y-77063266D01*
X78534731Y-77224418D01*
X78675582Y-77365269D01*
X78836734Y-77482353D01*
X78965938Y-77548185D01*
X78988171Y-77559514D01*
X79038967Y-77607489D01*
X79055762Y-77675310D01*
X79033225Y-77741445D01*
X78988171Y-77780483D01*
X78836738Y-77857642D01*
X78742526Y-77926092D01*
X78675582Y-77974730D01*
X78675580Y-77974732D01*
X78675579Y-77974732D01*
X78534733Y-78115578D01*
X78534733Y-78115579D01*
X78534731Y-78115581D01*
X78484447Y-78184789D01*
X78417647Y-78276732D01*
X78327213Y-78454218D01*
X78265661Y-78643655D01*
X78265661Y-78643658D01*
X78234500Y-78840402D01*
X78234500Y-79039595D01*
X78265661Y-79236339D01*
X78265661Y-79236342D01*
X78327213Y-79425779D01*
X78401441Y-79571459D01*
X78417647Y-79603265D01*
X78534731Y-79764417D01*
X78675582Y-79905268D01*
X78836734Y-80022352D01*
X78970368Y-80090442D01*
X78988173Y-80099514D01*
X79038969Y-80147489D01*
X79055764Y-80215310D01*
X79033227Y-80281445D01*
X78988173Y-80320483D01*
X78836738Y-80397643D01*
X78742528Y-80466092D01*
X78675582Y-80514731D01*
X78675580Y-80514733D01*
X78675579Y-80514733D01*
X78534733Y-80655579D01*
X78534733Y-80655580D01*
X78534731Y-80655582D01*
X78484447Y-80724790D01*
X78417647Y-80816733D01*
X78327213Y-80994219D01*
X78265661Y-81183656D01*
X78265661Y-81183659D01*
X78234500Y-81380403D01*
X78234500Y-81579596D01*
X78265661Y-81776340D01*
X78265661Y-81776343D01*
X78327213Y-81965780D01*
X78327215Y-81965783D01*
X78417647Y-82143266D01*
X78534731Y-82304418D01*
X78675582Y-82445269D01*
X78836734Y-82562353D01*
X78869096Y-82578842D01*
X78988172Y-82639515D01*
X79038968Y-82687490D01*
X79055763Y-82755311D01*
X79033225Y-82821446D01*
X78988172Y-82860485D01*
X78836733Y-82937647D01*
X78744790Y-83004447D01*
X78675582Y-83054731D01*
X78675580Y-83054733D01*
X78675579Y-83054733D01*
X78534733Y-83195579D01*
X78534733Y-83195580D01*
X78534731Y-83195582D01*
X78524256Y-83210000D01*
X78417647Y-83356733D01*
X78327213Y-83534219D01*
X78265661Y-83723656D01*
X78265660Y-83723661D01*
X78249545Y-83825410D01*
X78238928Y-83892449D01*
X78238461Y-83895397D01*
X78208532Y-83958532D01*
X78149221Y-83995464D01*
X78115988Y-84000000D01*
X73224500Y-84000000D01*
X73157461Y-83980315D01*
X73111706Y-83927511D01*
X73100500Y-83876000D01*
X73100500Y-82757844D01*
X75175000Y-82757844D01*
X75181401Y-82817372D01*
X75181403Y-82817379D01*
X75231645Y-82952086D01*
X75231649Y-82952093D01*
X75317809Y-83067187D01*
X75317812Y-83067190D01*
X75432906Y-83153350D01*
X75432913Y-83153354D01*
X75567620Y-83203596D01*
X75567627Y-83203598D01*
X75627155Y-83209999D01*
X75627172Y-83210000D01*
X75925000Y-83210000D01*
X76425000Y-83210000D01*
X76722828Y-83210000D01*
X76722844Y-83209999D01*
X76782372Y-83203598D01*
X76782379Y-83203596D01*
X76917086Y-83153354D01*
X76917093Y-83153350D01*
X77032187Y-83067190D01*
X77032190Y-83067187D01*
X77118350Y-82952093D01*
X77118354Y-82952086D01*
X77168596Y-82817379D01*
X77168598Y-82817372D01*
X77174999Y-82757844D01*
X77175000Y-82757827D01*
X77175000Y-82460000D01*
X76425000Y-82460000D01*
X76425000Y-83210000D01*
X75925000Y-83210000D01*
X75925000Y-82460000D01*
X75175000Y-82460000D01*
X75175000Y-82757844D01*
X73100500Y-82757844D01*
X73100500Y-78498543D01*
X75174499Y-78498543D01*
X75212947Y-78691829D01*
X75212950Y-78691839D01*
X75274487Y-78840402D01*
X75288368Y-78873914D01*
X75332352Y-78939740D01*
X75349971Y-78966110D01*
X75370848Y-79032787D01*
X75352363Y-79100167D01*
X75349971Y-79103890D01*
X75288366Y-79196089D01*
X75212950Y-79378160D01*
X75212947Y-79378170D01*
X75174500Y-79571456D01*
X75174500Y-79571459D01*
X75174500Y-79768541D01*
X75174500Y-79768543D01*
X75174499Y-79768543D01*
X75212947Y-79961829D01*
X75212950Y-79961839D01*
X75288364Y-80143906D01*
X75288374Y-80143924D01*
X75349969Y-80236108D01*
X75370847Y-80302785D01*
X75352362Y-80370165D01*
X75349970Y-80373887D01*
X75288373Y-80466076D01*
X75288364Y-80466092D01*
X75212950Y-80648159D01*
X75212947Y-80648169D01*
X75174500Y-80841455D01*
X75174500Y-80841458D01*
X75174500Y-81038540D01*
X75174500Y-81038542D01*
X75174499Y-81038542D01*
X75212947Y-81231828D01*
X75212950Y-81231838D01*
X75255540Y-81334660D01*
X75263009Y-81404129D01*
X75240250Y-81456417D01*
X75231647Y-81467909D01*
X75231645Y-81467913D01*
X75181403Y-81602620D01*
X75181401Y-81602627D01*
X75175000Y-81662155D01*
X75175000Y-81960000D01*
X75930025Y-81960000D01*
X75894930Y-81995095D01*
X75848852Y-82074905D01*
X75825000Y-82163922D01*
X75825000Y-82256078D01*
X75848852Y-82345095D01*
X75894930Y-82424905D01*
X75960095Y-82490070D01*
X76039905Y-82536148D01*
X76128922Y-82560000D01*
X76221078Y-82560000D01*
X76310095Y-82536148D01*
X76389905Y-82490070D01*
X76455070Y-82424905D01*
X76501148Y-82345095D01*
X76525000Y-82256078D01*
X76525000Y-82163922D01*
X76501148Y-82074905D01*
X76455070Y-81995095D01*
X76419975Y-81960000D01*
X77175000Y-81960000D01*
X77175000Y-81662172D01*
X77174999Y-81662155D01*
X77168598Y-81602627D01*
X77168596Y-81602620D01*
X77118354Y-81467913D01*
X77118353Y-81467911D01*
X77109753Y-81456423D01*
X77085336Y-81390959D01*
X77094459Y-81334660D01*
X77137051Y-81231834D01*
X77175500Y-81038540D01*
X77175500Y-80841458D01*
X77175500Y-80841455D01*
X77137052Y-80648169D01*
X77137051Y-80648168D01*
X77137051Y-80648164D01*
X77061632Y-80466085D01*
X77000028Y-80373888D01*
X76979151Y-80307213D01*
X76997635Y-80239832D01*
X77000021Y-80236120D01*
X77041303Y-80174338D01*
X77061627Y-80143922D01*
X77061628Y-80143919D01*
X77061632Y-80143914D01*
X77137051Y-79961835D01*
X77175500Y-79768541D01*
X77175500Y-79571459D01*
X77175500Y-79571456D01*
X77137052Y-79378170D01*
X77137051Y-79378169D01*
X77137051Y-79378165D01*
X77137049Y-79378160D01*
X77061635Y-79196092D01*
X77061633Y-79196088D01*
X77061632Y-79196086D01*
X77000029Y-79103891D01*
X76979151Y-79037214D01*
X76997635Y-78969834D01*
X77000029Y-78966109D01*
X77012872Y-78946887D01*
X77061632Y-78873914D01*
X77137051Y-78691835D01*
X77175500Y-78498541D01*
X77175500Y-78301459D01*
X77175500Y-78301456D01*
X77137052Y-78108170D01*
X77137051Y-78108169D01*
X77137051Y-78108165D01*
X77081781Y-77974730D01*
X77061635Y-77926092D01*
X77061628Y-77926079D01*
X76952139Y-77762218D01*
X76952136Y-77762214D01*
X76812785Y-77622863D01*
X76812781Y-77622860D01*
X76648920Y-77513371D01*
X76648907Y-77513364D01*
X76466839Y-77437950D01*
X76466829Y-77437947D01*
X76273543Y-77399500D01*
X76273541Y-77399500D01*
X76076459Y-77399500D01*
X76076457Y-77399500D01*
X75883170Y-77437947D01*
X75883160Y-77437950D01*
X75701092Y-77513364D01*
X75701079Y-77513371D01*
X75537218Y-77622860D01*
X75537214Y-77622863D01*
X75397863Y-77762214D01*
X75397860Y-77762218D01*
X75288371Y-77926079D01*
X75288364Y-77926092D01*
X75212950Y-78108160D01*
X75212947Y-78108170D01*
X75174500Y-78301456D01*
X75174500Y-78301459D01*
X75174500Y-78498541D01*
X75174500Y-78498543D01*
X75174499Y-78498543D01*
X73100500Y-78498543D01*
X73100500Y-71528544D01*
X75224499Y-71528544D01*
X75262947Y-71721830D01*
X75262950Y-71721840D01*
X75338364Y-71903907D01*
X75338374Y-71903925D01*
X75399969Y-71996109D01*
X75420847Y-72062786D01*
X75402362Y-72130166D01*
X75399970Y-72133888D01*
X75338373Y-72226077D01*
X75338364Y-72226093D01*
X75262950Y-72408160D01*
X75262947Y-72408170D01*
X75224500Y-72601456D01*
X75224500Y-72601459D01*
X75224500Y-72798541D01*
X75224500Y-72798543D01*
X75224499Y-72798543D01*
X75262947Y-72991829D01*
X75262950Y-72991839D01*
X75281069Y-73035582D01*
X75338368Y-73173914D01*
X75353616Y-73196734D01*
X75399971Y-73266110D01*
X75420848Y-73332787D01*
X75402363Y-73400167D01*
X75399971Y-73403890D01*
X75338366Y-73496089D01*
X75262950Y-73678160D01*
X75262947Y-73678170D01*
X75224500Y-73871456D01*
X75224500Y-73871459D01*
X75224500Y-74068541D01*
X75224500Y-74068543D01*
X75224499Y-74068543D01*
X75262947Y-74261829D01*
X75262950Y-74261839D01*
X75338364Y-74443907D01*
X75338371Y-74443920D01*
X75447860Y-74607781D01*
X75447863Y-74607785D01*
X75587214Y-74747136D01*
X75587218Y-74747139D01*
X75751079Y-74856628D01*
X75751092Y-74856635D01*
X75933160Y-74932049D01*
X75933165Y-74932051D01*
X75933169Y-74932051D01*
X75933170Y-74932052D01*
X76126456Y-74970500D01*
X76126459Y-74970500D01*
X76323543Y-74970500D01*
X76465049Y-74942352D01*
X76516835Y-74932051D01*
X76698914Y-74856632D01*
X76862782Y-74747139D01*
X77002139Y-74607782D01*
X77111632Y-74443914D01*
X77187051Y-74261835D01*
X77208035Y-74156343D01*
X77225500Y-74068543D01*
X77225500Y-73871456D01*
X77187052Y-73678170D01*
X77187051Y-73678169D01*
X77187051Y-73678165D01*
X77187049Y-73678160D01*
X77111635Y-73496092D01*
X77111633Y-73496088D01*
X77111632Y-73496086D01*
X77050029Y-73403891D01*
X77029151Y-73337214D01*
X77047635Y-73269834D01*
X77050029Y-73266109D01*
X77096384Y-73196734D01*
X77111632Y-73173914D01*
X77187051Y-72991835D01*
X77206366Y-72894733D01*
X77225500Y-72798543D01*
X77225500Y-72601456D01*
X77187052Y-72408170D01*
X77187051Y-72408169D01*
X77187051Y-72408165D01*
X77111632Y-72226086D01*
X77050028Y-72133889D01*
X77029151Y-72067214D01*
X77047635Y-71999833D01*
X77050021Y-71996121D01*
X77081146Y-71949539D01*
X77111627Y-71903923D01*
X77111628Y-71903920D01*
X77111632Y-71903915D01*
X77187051Y-71721836D01*
X77225500Y-71528542D01*
X77225500Y-71331460D01*
X77225500Y-71331457D01*
X77187052Y-71138171D01*
X77187051Y-71138170D01*
X77187051Y-71138166D01*
X77144458Y-71035338D01*
X77136990Y-70965870D01*
X77159755Y-70913574D01*
X77168351Y-70902091D01*
X77218597Y-70767376D01*
X77218598Y-70767372D01*
X77224999Y-70707844D01*
X77225000Y-70707827D01*
X77225000Y-70410000D01*
X76469975Y-70410000D01*
X76505070Y-70374905D01*
X76551148Y-70295095D01*
X76575000Y-70206078D01*
X76575000Y-70113922D01*
X76551148Y-70024905D01*
X76505070Y-69945095D01*
X76469975Y-69910000D01*
X76475000Y-69910000D01*
X77225000Y-69910000D01*
X77225000Y-69612172D01*
X77224999Y-69612155D01*
X77218598Y-69552627D01*
X77218596Y-69552620D01*
X77168354Y-69417913D01*
X77168350Y-69417906D01*
X77082190Y-69302812D01*
X77082187Y-69302809D01*
X76967093Y-69216649D01*
X76967086Y-69216645D01*
X76832379Y-69166403D01*
X76832372Y-69166401D01*
X76772844Y-69160000D01*
X76475000Y-69160000D01*
X76475000Y-69910000D01*
X76469975Y-69910000D01*
X76439905Y-69879930D01*
X76360095Y-69833852D01*
X76271078Y-69810000D01*
X76178922Y-69810000D01*
X76089905Y-69833852D01*
X76010095Y-69879930D01*
X75944930Y-69945095D01*
X75898852Y-70024905D01*
X75875000Y-70113922D01*
X75875000Y-70206078D01*
X75898852Y-70295095D01*
X75944930Y-70374905D01*
X75980025Y-70410000D01*
X75225000Y-70410000D01*
X75225000Y-70707844D01*
X75231401Y-70767372D01*
X75231403Y-70767379D01*
X75281645Y-70902086D01*
X75281649Y-70902093D01*
X75290246Y-70913577D01*
X75314663Y-70979041D01*
X75305541Y-71035338D01*
X75290153Y-71072489D01*
X75262950Y-71138165D01*
X75262948Y-71138169D01*
X75262947Y-71138172D01*
X75224500Y-71331457D01*
X75224500Y-71331460D01*
X75224500Y-71528542D01*
X75224500Y-71528544D01*
X75224499Y-71528544D01*
X73100500Y-71528544D01*
X73100500Y-69612155D01*
X75225000Y-69612155D01*
X75225000Y-69910000D01*
X75975000Y-69910000D01*
X75975000Y-69160000D01*
X75677155Y-69160000D01*
X75617627Y-69166401D01*
X75617620Y-69166403D01*
X75482913Y-69216645D01*
X75482906Y-69216649D01*
X75367812Y-69302809D01*
X75367809Y-69302812D01*
X75281649Y-69417906D01*
X75281645Y-69417913D01*
X75231403Y-69552620D01*
X75231401Y-69552627D01*
X75225000Y-69612155D01*
X73100500Y-69612155D01*
X73100500Y-66124000D01*
X73120185Y-66056961D01*
X73172989Y-66011206D01*
X73224500Y-66000000D01*
X78111553Y-66000000D01*
X78178592Y-66019685D01*
G37*
%TD.AperFunction*%
%TA.AperFunction,Conductor*%
G36*
X101330864Y-51771648D02*
G01*
X101386797Y-51813520D01*
X101387846Y-51814942D01*
X101394731Y-51824418D01*
X101535582Y-51965269D01*
X101696734Y-52082353D01*
X101732350Y-52100500D01*
X101848722Y-52159795D01*
X101899518Y-52207770D01*
X101916313Y-52275591D01*
X101893776Y-52341726D01*
X101848723Y-52380764D01*
X101696993Y-52458075D01*
X101659135Y-52485580D01*
X101659135Y-52485581D01*
X102222425Y-53048871D01*
X102163147Y-53064755D01*
X102046853Y-53131898D01*
X101951898Y-53226853D01*
X101884755Y-53343147D01*
X101868871Y-53402425D01*
X101305581Y-52839135D01*
X101305580Y-52839135D01*
X101278077Y-52876990D01*
X101187679Y-53054405D01*
X101126147Y-53243777D01*
X101095000Y-53440436D01*
X101095000Y-53639563D01*
X101126147Y-53836222D01*
X101187679Y-54025594D01*
X101278077Y-54203008D01*
X101305580Y-54240863D01*
X101305581Y-54240864D01*
X101868871Y-53677574D01*
X101884755Y-53736853D01*
X101951898Y-53853147D01*
X102046853Y-53948102D01*
X102163147Y-54015245D01*
X102222425Y-54031128D01*
X101659134Y-54594417D01*
X101696994Y-54621924D01*
X101848721Y-54699234D01*
X101899517Y-54747209D01*
X101916312Y-54815030D01*
X101893774Y-54881165D01*
X101848721Y-54920204D01*
X101696733Y-54997646D01*
X101615248Y-55056849D01*
X101535582Y-55114730D01*
X101535580Y-55114732D01*
X101535579Y-55114732D01*
X101394733Y-55255578D01*
X101394733Y-55255579D01*
X101394731Y-55255581D01*
X101362852Y-55299459D01*
X101277647Y-55416732D01*
X101187213Y-55594218D01*
X101125661Y-55783655D01*
X101125661Y-55783658D01*
X101094500Y-55980402D01*
X101094500Y-56179595D01*
X101125661Y-56376339D01*
X101125661Y-56376342D01*
X101187213Y-56565779D01*
X101187215Y-56565782D01*
X101277647Y-56743265D01*
X101394731Y-56904417D01*
X101535582Y-57045268D01*
X101696734Y-57162352D01*
X101830368Y-57230442D01*
X101848173Y-57239514D01*
X101898969Y-57287489D01*
X101915764Y-57355310D01*
X101893227Y-57421445D01*
X101848173Y-57460483D01*
X101696738Y-57537643D01*
X101622730Y-57591414D01*
X101535582Y-57654731D01*
X101535580Y-57654733D01*
X101535579Y-57654733D01*
X101394733Y-57795579D01*
X101394733Y-57795580D01*
X101394731Y-57795582D01*
X101367042Y-57833693D01*
X101277647Y-57956733D01*
X101187213Y-58134219D01*
X101125661Y-58323656D01*
X101125661Y-58323659D01*
X101094500Y-58520403D01*
X101094500Y-58719596D01*
X101125661Y-58916340D01*
X101125661Y-58916343D01*
X101187213Y-59105780D01*
X101187215Y-59105783D01*
X101277647Y-59283266D01*
X101394731Y-59444418D01*
X101535582Y-59585269D01*
X101696734Y-59702353D01*
X101766453Y-59737877D01*
X101848172Y-59779515D01*
X101898968Y-59827490D01*
X101915763Y-59895311D01*
X101893225Y-59961446D01*
X101848172Y-60000485D01*
X101696733Y-60077647D01*
X101604790Y-60144447D01*
X101535582Y-60194731D01*
X101535580Y-60194733D01*
X101535579Y-60194733D01*
X101394733Y-60335579D01*
X101394733Y-60335580D01*
X101394731Y-60335582D01*
X101344447Y-60404790D01*
X101277647Y-60496733D01*
X101187213Y-60674219D01*
X101125661Y-60863656D01*
X101125661Y-60863659D01*
X101094500Y-61060403D01*
X101094500Y-61259596D01*
X101125661Y-61456340D01*
X101125661Y-61456343D01*
X101187213Y-61645780D01*
X101187215Y-61645783D01*
X101277647Y-61823266D01*
X101394731Y-61984418D01*
X101535582Y-62125269D01*
X101696734Y-62242353D01*
X101766453Y-62277877D01*
X101848172Y-62319515D01*
X101898968Y-62367490D01*
X101915763Y-62435311D01*
X101893225Y-62501446D01*
X101848172Y-62540485D01*
X101696733Y-62617647D01*
X101604790Y-62684447D01*
X101535582Y-62734731D01*
X101535580Y-62734733D01*
X101535579Y-62734733D01*
X101394733Y-62875579D01*
X101394733Y-62875580D01*
X101394731Y-62875582D01*
X101344447Y-62944790D01*
X101277647Y-63036733D01*
X101187213Y-63214219D01*
X101125661Y-63403656D01*
X101125661Y-63403659D01*
X101094500Y-63600403D01*
X101094500Y-63799596D01*
X101125661Y-63996340D01*
X101125661Y-63996343D01*
X101187213Y-64185780D01*
X101187215Y-64185783D01*
X101277647Y-64363266D01*
X101394731Y-64524418D01*
X101535582Y-64665269D01*
X101696734Y-64782353D01*
X101825938Y-64848185D01*
X101848171Y-64859514D01*
X101898967Y-64907489D01*
X101915762Y-64975310D01*
X101893225Y-65041445D01*
X101848171Y-65080483D01*
X101696738Y-65157642D01*
X101589299Y-65235702D01*
X101535582Y-65274730D01*
X101535580Y-65274732D01*
X101535579Y-65274732D01*
X101394733Y-65415578D01*
X101394733Y-65415579D01*
X101394731Y-65415581D01*
X101344447Y-65484789D01*
X101277647Y-65576732D01*
X101187213Y-65754218D01*
X101125661Y-65943655D01*
X101125661Y-65943658D01*
X101094500Y-66140402D01*
X101094500Y-66339595D01*
X101125661Y-66536339D01*
X101125661Y-66536342D01*
X101187213Y-66725779D01*
X101213383Y-66777140D01*
X101277647Y-66903265D01*
X101394731Y-67064417D01*
X101535582Y-67205268D01*
X101696734Y-67322352D01*
X101767724Y-67358523D01*
X101848174Y-67399515D01*
X101898970Y-67447490D01*
X101915765Y-67515311D01*
X101893227Y-67581446D01*
X101848174Y-67620485D01*
X101696733Y-67697648D01*
X101604790Y-67764448D01*
X101535582Y-67814732D01*
X101535580Y-67814734D01*
X101535579Y-67814734D01*
X101394733Y-67955580D01*
X101394733Y-67955581D01*
X101394731Y-67955583D01*
X101344447Y-68024791D01*
X101277647Y-68116734D01*
X101187213Y-68294220D01*
X101125661Y-68483657D01*
X101125661Y-68483660D01*
X101125661Y-68483662D01*
X101094500Y-68680404D01*
X101094500Y-68879598D01*
X101110080Y-68977969D01*
X101125661Y-69076341D01*
X101125661Y-69076344D01*
X101187213Y-69265781D01*
X101277647Y-69443267D01*
X101394731Y-69604419D01*
X101535582Y-69745270D01*
X101696734Y-69862354D01*
X101790245Y-69910000D01*
X101848171Y-69939515D01*
X101898967Y-69987490D01*
X101915762Y-70055311D01*
X101893225Y-70121446D01*
X101848171Y-70160484D01*
X101696738Y-70237643D01*
X101589299Y-70315703D01*
X101535582Y-70354731D01*
X101535580Y-70354733D01*
X101535579Y-70354733D01*
X101394733Y-70495579D01*
X101394733Y-70495580D01*
X101394731Y-70495582D01*
X101384256Y-70510000D01*
X101277647Y-70656733D01*
X101187213Y-70834219D01*
X101125661Y-71023656D01*
X101125661Y-71023659D01*
X101094500Y-71220403D01*
X101094500Y-71419596D01*
X101125661Y-71616340D01*
X101125661Y-71616343D01*
X101187213Y-71805780D01*
X101237220Y-71903923D01*
X101277647Y-71983266D01*
X101394731Y-72144418D01*
X101535582Y-72285269D01*
X101696734Y-72402353D01*
X101708151Y-72408170D01*
X101848172Y-72479515D01*
X101898968Y-72527490D01*
X101915763Y-72595311D01*
X101893225Y-72661446D01*
X101848172Y-72700485D01*
X101696733Y-72777647D01*
X101604790Y-72844447D01*
X101535582Y-72894731D01*
X101535580Y-72894733D01*
X101535579Y-72894733D01*
X101394733Y-73035579D01*
X101394733Y-73035580D01*
X101394731Y-73035582D01*
X101344447Y-73104790D01*
X101277647Y-73196733D01*
X101187213Y-73374219D01*
X101125661Y-73563656D01*
X101125661Y-73563659D01*
X101094500Y-73760403D01*
X101094500Y-73876000D01*
X101074815Y-73943039D01*
X101022011Y-73988794D01*
X100970500Y-74000000D01*
X81000000Y-74000000D01*
X81000000Y-74061576D01*
X81000000Y-76205410D01*
X80980315Y-76272449D01*
X80927511Y-76318204D01*
X80858353Y-76328148D01*
X80794797Y-76299123D01*
X80757023Y-76240345D01*
X80753527Y-76224808D01*
X80750455Y-76205410D01*
X80734339Y-76103661D01*
X80734338Y-76103657D01*
X80734338Y-76103656D01*
X80672786Y-75914219D01*
X80582352Y-75736733D01*
X80465269Y-75575582D01*
X80324418Y-75434731D01*
X80163266Y-75317647D01*
X80011827Y-75240485D01*
X79961031Y-75192510D01*
X79944236Y-75124689D01*
X79966773Y-75058554D01*
X80011827Y-75019515D01*
X80021116Y-75014781D01*
X80163266Y-74942353D01*
X80324418Y-74825269D01*
X80465269Y-74684418D01*
X80582353Y-74523266D01*
X80672785Y-74345783D01*
X80700063Y-74261829D01*
X80734338Y-74156343D01*
X80734338Y-74156342D01*
X80734339Y-74156339D01*
X80765500Y-73959597D01*
X80765500Y-73760403D01*
X80734339Y-73563661D01*
X80734338Y-73563657D01*
X80734338Y-73563656D01*
X80672786Y-73374219D01*
X80619599Y-73269834D01*
X80582353Y-73196734D01*
X80465269Y-73035582D01*
X80324418Y-72894731D01*
X80163266Y-72777647D01*
X80011827Y-72700485D01*
X79961031Y-72652510D01*
X79944236Y-72584689D01*
X79966773Y-72518554D01*
X80011827Y-72479515D01*
X80021116Y-72474781D01*
X80163266Y-72402353D01*
X80324418Y-72285269D01*
X80465269Y-72144418D01*
X80582353Y-71983266D01*
X80672785Y-71805783D01*
X80734339Y-71616339D01*
X80765500Y-71419597D01*
X80765500Y-71220403D01*
X80734339Y-71023661D01*
X80734338Y-71023657D01*
X80734338Y-71023656D01*
X80672786Y-70834219D01*
X80638726Y-70767372D01*
X80582353Y-70656734D01*
X80465269Y-70495582D01*
X80324418Y-70354731D01*
X80163266Y-70237647D01*
X80163258Y-70237643D01*
X80011828Y-70160485D01*
X79961032Y-70112510D01*
X79944237Y-70044689D01*
X79966775Y-69978554D01*
X80011826Y-69939516D01*
X80163266Y-69862354D01*
X80324418Y-69745270D01*
X80465269Y-69604419D01*
X80582353Y-69443267D01*
X80672785Y-69265784D01*
X80705076Y-69166403D01*
X80734338Y-69076344D01*
X80734338Y-69076343D01*
X80734339Y-69076340D01*
X80765500Y-68879598D01*
X80765500Y-68680404D01*
X80734339Y-68483662D01*
X80734338Y-68483658D01*
X80734338Y-68483657D01*
X80672786Y-68294220D01*
X80582352Y-68116734D01*
X80465269Y-67955583D01*
X80324418Y-67814732D01*
X80163266Y-67697648D01*
X80011825Y-67620485D01*
X79961029Y-67572510D01*
X79944234Y-67504689D01*
X79966771Y-67438554D01*
X80011825Y-67399515D01*
X80018526Y-67396100D01*
X80163266Y-67322352D01*
X80324418Y-67205268D01*
X80465269Y-67064417D01*
X80582353Y-66903265D01*
X80672785Y-66725782D01*
X80734339Y-66536338D01*
X80765500Y-66339596D01*
X80765500Y-66140402D01*
X80765500Y-66140401D01*
X80765118Y-66135551D01*
X80767012Y-66135401D01*
X80774919Y-66074127D01*
X80819904Y-66020666D01*
X80886651Y-66000013D01*
X80888447Y-66000000D01*
X87000000Y-66000000D01*
X101199853Y-51800146D01*
X101261172Y-51766664D01*
X101330864Y-51771648D01*
G37*
%TD.AperFunction*%
%TA.AperFunction,Conductor*%
G36*
X103629002Y-51629758D02*
G01*
X103637514Y-51637514D01*
X111963681Y-59963681D01*
X111997166Y-60025004D01*
X112000000Y-60051362D01*
X112000000Y-70000000D01*
X113000000Y-71000000D01*
X117876000Y-71000000D01*
X117943039Y-71019685D01*
X117988794Y-71072489D01*
X118000000Y-71124000D01*
X118000000Y-73876000D01*
X117980315Y-73943039D01*
X117927511Y-73988794D01*
X117876000Y-74000000D01*
X112739388Y-74000000D01*
X112672349Y-73980315D01*
X112670497Y-73979102D01*
X112594184Y-73928111D01*
X112594172Y-73928104D01*
X112448501Y-73867766D01*
X112448489Y-73867763D01*
X112293845Y-73837002D01*
X112293842Y-73837002D01*
X112136158Y-73837002D01*
X112136155Y-73837002D01*
X111981510Y-73867763D01*
X111981498Y-73867766D01*
X111835827Y-73928104D01*
X111835815Y-73928111D01*
X111759503Y-73979102D01*
X111692826Y-73999980D01*
X111690612Y-74000000D01*
X103749500Y-74000000D01*
X103682461Y-73980315D01*
X103636706Y-73927511D01*
X103625500Y-73876000D01*
X103625500Y-73760403D01*
X103594339Y-73563661D01*
X103594338Y-73563657D01*
X103594338Y-73563656D01*
X103532786Y-73374219D01*
X103479599Y-73269834D01*
X103442353Y-73196734D01*
X103325269Y-73035582D01*
X103184418Y-72894731D01*
X103023266Y-72777647D01*
X102871827Y-72700485D01*
X102821031Y-72652510D01*
X102804236Y-72584689D01*
X102826773Y-72518554D01*
X102871827Y-72479515D01*
X102881116Y-72474781D01*
X103023266Y-72402353D01*
X103184418Y-72285269D01*
X103325269Y-72144418D01*
X103442353Y-71983266D01*
X103532785Y-71805783D01*
X103594339Y-71616339D01*
X103625500Y-71419597D01*
X103625500Y-71220403D01*
X103594339Y-71023661D01*
X103594338Y-71023657D01*
X103594338Y-71023656D01*
X103532786Y-70834219D01*
X103498726Y-70767372D01*
X103442353Y-70656734D01*
X103325269Y-70495582D01*
X103184418Y-70354731D01*
X103023266Y-70237647D01*
X103023258Y-70237643D01*
X102871828Y-70160485D01*
X102821032Y-70112510D01*
X102804237Y-70044689D01*
X102826775Y-69978554D01*
X102871826Y-69939516D01*
X103023266Y-69862354D01*
X103184418Y-69745270D01*
X103325269Y-69604419D01*
X103442353Y-69443267D01*
X103532785Y-69265784D01*
X103565076Y-69166403D01*
X103594338Y-69076344D01*
X103594338Y-69076343D01*
X103594339Y-69076340D01*
X103625500Y-68879598D01*
X103625500Y-68680404D01*
X103594339Y-68483662D01*
X103594338Y-68483658D01*
X103594338Y-68483657D01*
X103532786Y-68294220D01*
X103442352Y-68116734D01*
X103325269Y-67955583D01*
X103184418Y-67814732D01*
X103023266Y-67697648D01*
X102871825Y-67620485D01*
X102821029Y-67572510D01*
X102804234Y-67504689D01*
X102826771Y-67438554D01*
X102871825Y-67399515D01*
X102878526Y-67396100D01*
X103023266Y-67322352D01*
X103184418Y-67205268D01*
X103325269Y-67064417D01*
X103442353Y-66903265D01*
X103532785Y-66725782D01*
X103594339Y-66536338D01*
X103625500Y-66339596D01*
X103625500Y-66140402D01*
X103594339Y-65943660D01*
X103594338Y-65943656D01*
X103594338Y-65943655D01*
X103532786Y-65754218D01*
X103442352Y-65576732D01*
X103325269Y-65415581D01*
X103184418Y-65274730D01*
X103023266Y-65157646D01*
X103023258Y-65157642D01*
X102871828Y-65080484D01*
X102821032Y-65032509D01*
X102804237Y-64964688D01*
X102826775Y-64898553D01*
X102871826Y-64859515D01*
X103023266Y-64782353D01*
X103184418Y-64665269D01*
X103325269Y-64524418D01*
X103442353Y-64363266D01*
X103532785Y-64185783D01*
X103594339Y-63996339D01*
X103625500Y-63799597D01*
X103625500Y-63600403D01*
X103594339Y-63403661D01*
X103594338Y-63403657D01*
X103594338Y-63403656D01*
X103532786Y-63214219D01*
X103442352Y-63036733D01*
X103325269Y-62875582D01*
X103184418Y-62734731D01*
X103023266Y-62617647D01*
X102871827Y-62540485D01*
X102821031Y-62492510D01*
X102804236Y-62424689D01*
X102826773Y-62358554D01*
X102871827Y-62319515D01*
X102881116Y-62314781D01*
X103023266Y-62242353D01*
X103184418Y-62125269D01*
X103325269Y-61984418D01*
X103442353Y-61823266D01*
X103532785Y-61645783D01*
X103594339Y-61456339D01*
X103625500Y-61259597D01*
X103625500Y-61060403D01*
X103594339Y-60863661D01*
X103594338Y-60863657D01*
X103594338Y-60863656D01*
X103532786Y-60674219D01*
X103442352Y-60496733D01*
X103325269Y-60335582D01*
X103184418Y-60194731D01*
X103023266Y-60077647D01*
X102871827Y-60000485D01*
X102821031Y-59952510D01*
X102804236Y-59884689D01*
X102826773Y-59818554D01*
X102871827Y-59779515D01*
X102881116Y-59774781D01*
X103023266Y-59702353D01*
X103184418Y-59585269D01*
X103325269Y-59444418D01*
X103442353Y-59283266D01*
X103532785Y-59105783D01*
X103594339Y-58916339D01*
X103625500Y-58719597D01*
X103625500Y-58520403D01*
X103594339Y-58323661D01*
X103594338Y-58323657D01*
X103594338Y-58323656D01*
X103532786Y-58134219D01*
X103481109Y-58032798D01*
X103442353Y-57956734D01*
X103325269Y-57795582D01*
X103184418Y-57654731D01*
X103023266Y-57537647D01*
X103023258Y-57537643D01*
X102871826Y-57460484D01*
X102821030Y-57412509D01*
X102804235Y-57344688D01*
X102826773Y-57278553D01*
X102871824Y-57239515D01*
X103023266Y-57162352D01*
X103184418Y-57045268D01*
X103325269Y-56904417D01*
X103442353Y-56743265D01*
X103532785Y-56565782D01*
X103546717Y-56522904D01*
X103594338Y-56376342D01*
X103594338Y-56376341D01*
X103594339Y-56376338D01*
X103625500Y-56179596D01*
X103625500Y-55980402D01*
X103594339Y-55783660D01*
X103594338Y-55783656D01*
X103594338Y-55783655D01*
X103532786Y-55594218D01*
X103505523Y-55540711D01*
X103442353Y-55416733D01*
X103325269Y-55255581D01*
X103184418Y-55114730D01*
X103023266Y-54997646D01*
X102871278Y-54920204D01*
X102820482Y-54872229D01*
X102803687Y-54804408D01*
X102826224Y-54738273D01*
X102871278Y-54699234D01*
X103023005Y-54621924D01*
X103060863Y-54594418D01*
X103060863Y-54594417D01*
X102497574Y-54031128D01*
X102556853Y-54015245D01*
X102673147Y-53948102D01*
X102768102Y-53853147D01*
X102835245Y-53736853D01*
X102851128Y-53677574D01*
X103414417Y-54240863D01*
X103414418Y-54240863D01*
X103441924Y-54203005D01*
X103532320Y-54025594D01*
X103593852Y-53836222D01*
X103625000Y-53639563D01*
X103625000Y-53440436D01*
X103593852Y-53243777D01*
X103532320Y-53054405D01*
X103441924Y-52876994D01*
X103414417Y-52839135D01*
X103414417Y-52839134D01*
X102851128Y-53402424D01*
X102835245Y-53343147D01*
X102768102Y-53226853D01*
X102673147Y-53131898D01*
X102556853Y-53064755D01*
X102497574Y-53048871D01*
X103060864Y-52485581D01*
X103060863Y-52485580D01*
X103023008Y-52458077D01*
X102871277Y-52380765D01*
X102820481Y-52332790D01*
X102803686Y-52264969D01*
X102826224Y-52198834D01*
X102871277Y-52159795D01*
X103023266Y-52082353D01*
X103184418Y-51965269D01*
X103325269Y-51824418D01*
X103442353Y-51663266D01*
X103442361Y-51663248D01*
X103444100Y-51660414D01*
X103445048Y-51659555D01*
X103445217Y-51659324D01*
X103445265Y-51659359D01*
X103495908Y-51613534D01*
X103564837Y-51602106D01*
X103629002Y-51629758D01*
G37*
%TD.AperFunction*%
%TD*%
%TA.AperFunction,Conductor*%
%TO.N,1.8V*%
G36*
X127176443Y-48019685D02*
G01*
X127222198Y-48072489D01*
X127227956Y-48090325D01*
X127228493Y-48090163D01*
X127230263Y-48095999D01*
X127290602Y-48241673D01*
X127290609Y-48241686D01*
X127378210Y-48372789D01*
X127378213Y-48372793D01*
X127489707Y-48484287D01*
X127489711Y-48484290D01*
X127620814Y-48571891D01*
X127620827Y-48571898D01*
X127723486Y-48614420D01*
X127766503Y-48632238D01*
X127921153Y-48663000D01*
X127921156Y-48663001D01*
X127921158Y-48663001D01*
X128078844Y-48663001D01*
X128078845Y-48663000D01*
X128233497Y-48632238D01*
X128362407Y-48578842D01*
X128379172Y-48571898D01*
X128379172Y-48571897D01*
X128379179Y-48571895D01*
X128507064Y-48486444D01*
X128573740Y-48465567D01*
X128641120Y-48484051D01*
X128687811Y-48536030D01*
X128698105Y-48572908D01*
X128698311Y-48572868D01*
X128698847Y-48575567D01*
X128699357Y-48577391D01*
X128699500Y-48578848D01*
X128730261Y-48733489D01*
X128730264Y-48733501D01*
X128790602Y-48879172D01*
X128790609Y-48879185D01*
X128878210Y-49010288D01*
X128878213Y-49010292D01*
X128989707Y-49121786D01*
X128989711Y-49121789D01*
X129120814Y-49209390D01*
X129120827Y-49209397D01*
X129272130Y-49272068D01*
X129271347Y-49273956D01*
X129321973Y-49307127D01*
X129350436Y-49370936D01*
X129339882Y-49440004D01*
X129293663Y-49492402D01*
X129271889Y-49502350D01*
X129272130Y-49502931D01*
X129120827Y-49565601D01*
X129120814Y-49565608D01*
X128989711Y-49653209D01*
X128989707Y-49653212D01*
X128878213Y-49764706D01*
X128878210Y-49764710D01*
X128790609Y-49895813D01*
X128790602Y-49895826D01*
X128730264Y-50041497D01*
X128730261Y-50041509D01*
X128699500Y-50196152D01*
X128699500Y-50289851D01*
X128679815Y-50356890D01*
X128627011Y-50402645D01*
X128557853Y-50412589D01*
X128506610Y-50392953D01*
X128431031Y-50342453D01*
X128431013Y-50342443D01*
X128285342Y-50282105D01*
X128285330Y-50282102D01*
X128130686Y-50251341D01*
X128130683Y-50251341D01*
X127972999Y-50251341D01*
X127972996Y-50251341D01*
X127818351Y-50282102D01*
X127818339Y-50282105D01*
X127672668Y-50342443D01*
X127672655Y-50342450D01*
X127541552Y-50430051D01*
X127541548Y-50430054D01*
X127430054Y-50541548D01*
X127430051Y-50541552D01*
X127342450Y-50672655D01*
X127342443Y-50672668D01*
X127282105Y-50818339D01*
X127282102Y-50818351D01*
X127251341Y-50972994D01*
X127251341Y-51130687D01*
X127282102Y-51285330D01*
X127282105Y-51285342D01*
X127342443Y-51431013D01*
X127342450Y-51431026D01*
X127430051Y-51562129D01*
X127430054Y-51562133D01*
X127541548Y-51673627D01*
X127541552Y-51673630D01*
X127672655Y-51761231D01*
X127672668Y-51761238D01*
X127747643Y-51792293D01*
X127818344Y-51821578D01*
X127963739Y-51850499D01*
X127972994Y-51852340D01*
X127972997Y-51852341D01*
X127972999Y-51852341D01*
X128130685Y-51852341D01*
X128130686Y-51852340D01*
X128285338Y-51821578D01*
X128431020Y-51761235D01*
X128562130Y-51673630D01*
X128673630Y-51562130D01*
X128761235Y-51431020D01*
X128766076Y-51419334D01*
X128790205Y-51361080D01*
X128821578Y-51285338D01*
X128852341Y-51130683D01*
X128852341Y-51036988D01*
X128872026Y-50969949D01*
X128924830Y-50924194D01*
X128993988Y-50914250D01*
X129045232Y-50933886D01*
X129120821Y-50984393D01*
X129120823Y-50984394D01*
X129120827Y-50984396D01*
X129266498Y-51044734D01*
X129266503Y-51044736D01*
X129421153Y-51075498D01*
X129421156Y-51075499D01*
X129421158Y-51075499D01*
X129578844Y-51075499D01*
X129578845Y-51075498D01*
X129733497Y-51044736D01*
X129879179Y-50984393D01*
X130010289Y-50896788D01*
X130121789Y-50785288D01*
X130209394Y-50654178D01*
X130269737Y-50508496D01*
X130300500Y-50353841D01*
X130300500Y-50196157D01*
X130300500Y-50196154D01*
X130300499Y-50196152D01*
X130269737Y-50041502D01*
X130268995Y-50039711D01*
X130209397Y-49895826D01*
X130209390Y-49895813D01*
X130121789Y-49764710D01*
X130121786Y-49764706D01*
X130010292Y-49653212D01*
X130010288Y-49653209D01*
X129879185Y-49565608D01*
X129879172Y-49565601D01*
X129727870Y-49502931D01*
X129728650Y-49501047D01*
X129678008Y-49467850D01*
X129649559Y-49404034D01*
X129660128Y-49334969D01*
X129706359Y-49282581D01*
X129728111Y-49272651D01*
X129727870Y-49272068D01*
X129879172Y-49209397D01*
X129879172Y-49209396D01*
X129879179Y-49209394D01*
X129992517Y-49133663D01*
X130059191Y-49112787D01*
X130126571Y-49131271D01*
X130149086Y-49149086D01*
X137963681Y-56963681D01*
X137997166Y-57025004D01*
X138000000Y-57051362D01*
X138000000Y-63948638D01*
X137980315Y-64015677D01*
X137963681Y-64036319D01*
X134000000Y-67999999D01*
X134000000Y-82876000D01*
X133980315Y-82943039D01*
X133927511Y-82988794D01*
X133876000Y-83000000D01*
X131124000Y-83000000D01*
X131115314Y-82997449D01*
X131106353Y-82998738D01*
X131082312Y-82987759D01*
X131056961Y-82980315D01*
X131051033Y-82973474D01*
X131042797Y-82969713D01*
X131028507Y-82947478D01*
X131011206Y-82927511D01*
X131008918Y-82916996D01*
X131005023Y-82910935D01*
X131000000Y-82876000D01*
X131000000Y-82766245D01*
X131019685Y-82699206D01*
X131036319Y-82678564D01*
X131418363Y-82296520D01*
X131839203Y-81875680D01*
X131904553Y-81795323D01*
X131932262Y-81753043D01*
X131979870Y-81661034D01*
X132012957Y-81521009D01*
X132019184Y-81451417D01*
X132011483Y-81307748D01*
X132002130Y-81260727D01*
X131999749Y-81236545D01*
X131999749Y-81163455D01*
X132002130Y-81139273D01*
X132016390Y-81067580D01*
X132023439Y-81044342D01*
X132051416Y-80976799D01*
X132062867Y-80955377D01*
X132103475Y-80894602D01*
X132118887Y-80875824D01*
X132320623Y-80674090D01*
X132356788Y-80633828D01*
X132373422Y-80613186D01*
X132405067Y-80569302D01*
X132464838Y-80438425D01*
X132484523Y-80371386D01*
X132484524Y-80371382D01*
X132505000Y-80228966D01*
X132505000Y-78050862D01*
X132502103Y-77996822D01*
X132499269Y-77970464D01*
X132490614Y-77917052D01*
X132440332Y-77782243D01*
X132406847Y-77720920D01*
X132320623Y-77605739D01*
X132320618Y-77605734D01*
X132320613Y-77605728D01*
X131036319Y-76321434D01*
X131002834Y-76260111D01*
X131000000Y-76233753D01*
X131000000Y-64764328D01*
X131019685Y-64697289D01*
X131072489Y-64651534D01*
X131080649Y-64648152D01*
X131092331Y-64643796D01*
X131207546Y-64557546D01*
X131293796Y-64442331D01*
X131344091Y-64307483D01*
X131350500Y-64247873D01*
X131350499Y-62781995D01*
X133749500Y-62781995D01*
X133749500Y-63018004D01*
X133749501Y-63018020D01*
X133780306Y-63252010D01*
X133841394Y-63479993D01*
X133931714Y-63698045D01*
X133931719Y-63698056D01*
X134002677Y-63820957D01*
X134049727Y-63902450D01*
X134049729Y-63902453D01*
X134049730Y-63902454D01*
X134193406Y-64089697D01*
X134193412Y-64089704D01*
X134360295Y-64256587D01*
X134360302Y-64256593D01*
X134470306Y-64341001D01*
X134547550Y-64400273D01*
X134620397Y-64442331D01*
X134751943Y-64518280D01*
X134751948Y-64518282D01*
X134751951Y-64518284D01*
X134970007Y-64608606D01*
X135197986Y-64669693D01*
X135431989Y-64700500D01*
X135431996Y-64700500D01*
X135668004Y-64700500D01*
X135668011Y-64700500D01*
X135902014Y-64669693D01*
X136129993Y-64608606D01*
X136348049Y-64518284D01*
X136552450Y-64400273D01*
X136739699Y-64256592D01*
X136906592Y-64089699D01*
X137050273Y-63902450D01*
X137168284Y-63698049D01*
X137258606Y-63479993D01*
X137319693Y-63252014D01*
X137350500Y-63018011D01*
X137350500Y-62781989D01*
X137319693Y-62547986D01*
X137258606Y-62320007D01*
X137168284Y-62101951D01*
X137168282Y-62101948D01*
X137168280Y-62101943D01*
X137126118Y-62028918D01*
X137050273Y-61897550D01*
X136906592Y-61710301D01*
X136906587Y-61710295D01*
X136739704Y-61543412D01*
X136739697Y-61543406D01*
X136552454Y-61399730D01*
X136552453Y-61399729D01*
X136552450Y-61399727D01*
X136470957Y-61352677D01*
X136348056Y-61281719D01*
X136348045Y-61281714D01*
X136129993Y-61191394D01*
X135998670Y-61156206D01*
X135902014Y-61130307D01*
X135902013Y-61130306D01*
X135902010Y-61130306D01*
X135668020Y-61099501D01*
X135668017Y-61099500D01*
X135668011Y-61099500D01*
X135431989Y-61099500D01*
X135431983Y-61099500D01*
X135431979Y-61099501D01*
X135197989Y-61130306D01*
X134970006Y-61191394D01*
X134751954Y-61281714D01*
X134751943Y-61281719D01*
X134547545Y-61399730D01*
X134360302Y-61543406D01*
X134360295Y-61543412D01*
X134193412Y-61710295D01*
X134193406Y-61710302D01*
X134049730Y-61897545D01*
X133931719Y-62101943D01*
X133931714Y-62101954D01*
X133841394Y-62320006D01*
X133780306Y-62547989D01*
X133749501Y-62781979D01*
X133749500Y-62781995D01*
X131350499Y-62781995D01*
X131350499Y-61552128D01*
X131344091Y-61492517D01*
X131328881Y-61451738D01*
X131293797Y-61357671D01*
X131293793Y-61357664D01*
X131207547Y-61242455D01*
X131207544Y-61242452D01*
X131092335Y-61156206D01*
X131092328Y-61156202D01*
X130957482Y-61105908D01*
X130957483Y-61105908D01*
X130897883Y-61099501D01*
X130897881Y-61099500D01*
X130897873Y-61099500D01*
X130897865Y-61099500D01*
X128629500Y-61099500D01*
X128562461Y-61079815D01*
X128516706Y-61027011D01*
X128505500Y-60975500D01*
X128505500Y-60316280D01*
X128502602Y-60262232D01*
X128502602Y-60262231D01*
X128499770Y-60235898D01*
X128499767Y-60235871D01*
X128491114Y-60182475D01*
X128491114Y-60182473D01*
X128440833Y-60047668D01*
X128440832Y-60047664D01*
X128407347Y-59986341D01*
X128321123Y-59871160D01*
X128321118Y-59871155D01*
X128321113Y-59871149D01*
X128128855Y-59678892D01*
X128128840Y-59678877D01*
X128128816Y-59678855D01*
X128088598Y-59642728D01*
X128088586Y-59642718D01*
X128067935Y-59626076D01*
X128024053Y-59594433D01*
X127893179Y-59534663D01*
X127826134Y-59514976D01*
X127701453Y-59497050D01*
X127637897Y-59468025D01*
X127600123Y-59409247D01*
X127595100Y-59374312D01*
X127595100Y-59281356D01*
X127595099Y-59281354D01*
X127592843Y-59270013D01*
X127564337Y-59126704D01*
X127559535Y-59115111D01*
X127503997Y-58981028D01*
X127503990Y-58981015D01*
X127416389Y-58849912D01*
X127416386Y-58849908D01*
X127304892Y-58738414D01*
X127304888Y-58738411D01*
X127173785Y-58650810D01*
X127173772Y-58650803D01*
X127028101Y-58590465D01*
X127028089Y-58590462D01*
X126873445Y-58559701D01*
X126873442Y-58559701D01*
X126715758Y-58559701D01*
X126715755Y-58559701D01*
X126561110Y-58590462D01*
X126561098Y-58590465D01*
X126415427Y-58650803D01*
X126415414Y-58650810D01*
X126284311Y-58738411D01*
X126284307Y-58738414D01*
X126172813Y-58849908D01*
X126172810Y-58849912D01*
X126085209Y-58981015D01*
X126085202Y-58981028D01*
X126024864Y-59126699D01*
X126024863Y-59126703D01*
X126020822Y-59147017D01*
X125988434Y-59208926D01*
X125927717Y-59243498D01*
X125857948Y-59239756D01*
X125815098Y-59213936D01*
X125545393Y-58964976D01*
X125509484Y-58905040D01*
X125505500Y-58873861D01*
X125505500Y-58124010D01*
X125505500Y-58124000D01*
X125500984Y-58081995D01*
X130749500Y-58081995D01*
X130749500Y-58318004D01*
X130749501Y-58318020D01*
X130780306Y-58552010D01*
X130841394Y-58779993D01*
X130931714Y-58998045D01*
X130931719Y-58998056D01*
X130999302Y-59115111D01*
X131049727Y-59202450D01*
X131049729Y-59202453D01*
X131049730Y-59202454D01*
X131193406Y-59389697D01*
X131193412Y-59389704D01*
X131360295Y-59556587D01*
X131360301Y-59556592D01*
X131547550Y-59700273D01*
X131678918Y-59776118D01*
X131751943Y-59818280D01*
X131751948Y-59818282D01*
X131751951Y-59818284D01*
X131970007Y-59908606D01*
X132197986Y-59969693D01*
X132431989Y-60000500D01*
X132431996Y-60000500D01*
X132668004Y-60000500D01*
X132668011Y-60000500D01*
X132902014Y-59969693D01*
X133129993Y-59908606D01*
X133348049Y-59818284D01*
X133552450Y-59700273D01*
X133739699Y-59556592D01*
X133906592Y-59389699D01*
X134050273Y-59202450D01*
X134168284Y-58998049D01*
X134258606Y-58779993D01*
X134319693Y-58552014D01*
X134350500Y-58318011D01*
X134350500Y-58081989D01*
X134319693Y-57847986D01*
X134258606Y-57620007D01*
X134168284Y-57401951D01*
X134168282Y-57401948D01*
X134168280Y-57401943D01*
X134126118Y-57328918D01*
X134050273Y-57197550D01*
X133969043Y-57091689D01*
X133906593Y-57010302D01*
X133906587Y-57010295D01*
X133739704Y-56843412D01*
X133739697Y-56843406D01*
X133552454Y-56699730D01*
X133552453Y-56699729D01*
X133552450Y-56699727D01*
X133470957Y-56652677D01*
X133348056Y-56581719D01*
X133348045Y-56581714D01*
X133129993Y-56491394D01*
X132902010Y-56430306D01*
X132668020Y-56399501D01*
X132668017Y-56399500D01*
X132668011Y-56399500D01*
X132431989Y-56399500D01*
X132431983Y-56399500D01*
X132431979Y-56399501D01*
X132197989Y-56430306D01*
X131970006Y-56491394D01*
X131751954Y-56581714D01*
X131751943Y-56581719D01*
X131547545Y-56699730D01*
X131360302Y-56843406D01*
X131360295Y-56843412D01*
X131193412Y-57010295D01*
X131193406Y-57010302D01*
X131049730Y-57197545D01*
X130931719Y-57401943D01*
X130931714Y-57401954D01*
X130841394Y-57620006D01*
X130780306Y-57847989D01*
X130749501Y-58081979D01*
X130749500Y-58081995D01*
X125500984Y-58081995D01*
X125493947Y-58016544D01*
X125482741Y-57965033D01*
X125482637Y-57964722D01*
X125448616Y-57862502D01*
X125448613Y-57862496D01*
X125370828Y-57741462D01*
X125370825Y-57741457D01*
X125370820Y-57741451D01*
X125325076Y-57688659D01*
X125325072Y-57688656D01*
X125325070Y-57688653D01*
X125216336Y-57594433D01*
X125216333Y-57594431D01*
X125216331Y-57594430D01*
X125085465Y-57534664D01*
X125085460Y-57534662D01*
X125085459Y-57534662D01*
X125018420Y-57514977D01*
X125018422Y-57514977D01*
X125018417Y-57514976D01*
X124948251Y-57504888D01*
X124876000Y-57494500D01*
X124630518Y-57494500D01*
X124630507Y-57494500D01*
X124572018Y-57497897D01*
X124571981Y-57497900D01*
X124543479Y-57501222D01*
X124543471Y-57501223D01*
X124536755Y-57502402D01*
X124467322Y-57494598D01*
X124413131Y-57450494D01*
X124412226Y-57449158D01*
X124358439Y-57368661D01*
X124358436Y-57368657D01*
X124246942Y-57257163D01*
X124246938Y-57257160D01*
X124115835Y-57169559D01*
X124115822Y-57169552D01*
X123970151Y-57109214D01*
X123970139Y-57109211D01*
X123815495Y-57078450D01*
X123815492Y-57078450D01*
X123657808Y-57078450D01*
X123631207Y-57083741D01*
X123591250Y-57091689D01*
X123521659Y-57085460D01*
X123482953Y-57061187D01*
X122015031Y-55706182D01*
X121922916Y-55621153D01*
X126599500Y-55621153D01*
X126599500Y-55778846D01*
X126630261Y-55933489D01*
X126630264Y-55933501D01*
X126690602Y-56079172D01*
X126690609Y-56079185D01*
X126778210Y-56210288D01*
X126778213Y-56210292D01*
X126889707Y-56321786D01*
X126889711Y-56321789D01*
X127020814Y-56409390D01*
X127020827Y-56409397D01*
X127166498Y-56469735D01*
X127166503Y-56469737D01*
X127321153Y-56500499D01*
X127321156Y-56500500D01*
X127321158Y-56500500D01*
X127478844Y-56500500D01*
X127478845Y-56500499D01*
X127633497Y-56469737D01*
X127779179Y-56409394D01*
X127910289Y-56321789D01*
X128021789Y-56210289D01*
X128109394Y-56079179D01*
X128169737Y-55933497D01*
X128200500Y-55778842D01*
X128200500Y-55621158D01*
X128200500Y-55621155D01*
X128200499Y-55621153D01*
X128169738Y-55466510D01*
X128169737Y-55466503D01*
X128154613Y-55429989D01*
X128109397Y-55320827D01*
X128109390Y-55320814D01*
X128021789Y-55189711D01*
X128021786Y-55189707D01*
X127910292Y-55078213D01*
X127910288Y-55078210D01*
X127779185Y-54990609D01*
X127779172Y-54990602D01*
X127633501Y-54930264D01*
X127633489Y-54930261D01*
X127478845Y-54899500D01*
X127478842Y-54899500D01*
X127321158Y-54899500D01*
X127321155Y-54899500D01*
X127166510Y-54930261D01*
X127166498Y-54930264D01*
X127020827Y-54990602D01*
X127020814Y-54990609D01*
X126889711Y-55078210D01*
X126889707Y-55078213D01*
X126778213Y-55189707D01*
X126778210Y-55189711D01*
X126690609Y-55320814D01*
X126690602Y-55320827D01*
X126630264Y-55466498D01*
X126630261Y-55466510D01*
X126599500Y-55621153D01*
X121922916Y-55621153D01*
X119861907Y-53718682D01*
X119769792Y-53633653D01*
X123562000Y-53633653D01*
X123562000Y-53791346D01*
X123592761Y-53945989D01*
X123592764Y-53946001D01*
X123653102Y-54091672D01*
X123653109Y-54091685D01*
X123740710Y-54222788D01*
X123740713Y-54222792D01*
X123852207Y-54334286D01*
X123852211Y-54334289D01*
X123983314Y-54421890D01*
X123983327Y-54421897D01*
X124128998Y-54482235D01*
X124129003Y-54482237D01*
X124283653Y-54512999D01*
X124283656Y-54513000D01*
X124283658Y-54513000D01*
X124441344Y-54513000D01*
X124441345Y-54512999D01*
X124595997Y-54482237D01*
X124741679Y-54421894D01*
X124872789Y-54334289D01*
X124984289Y-54222789D01*
X125071894Y-54091679D01*
X125132237Y-53945997D01*
X125163000Y-53791342D01*
X125163000Y-53633658D01*
X125163000Y-53633655D01*
X125162999Y-53633653D01*
X125145379Y-53545074D01*
X125132237Y-53479003D01*
X125132235Y-53478998D01*
X125071897Y-53333327D01*
X125071890Y-53333314D01*
X124984289Y-53202211D01*
X124984286Y-53202207D01*
X124872792Y-53090713D01*
X124872788Y-53090710D01*
X124741685Y-53003109D01*
X124741672Y-53003102D01*
X124596001Y-52942764D01*
X124595989Y-52942761D01*
X124441345Y-52912000D01*
X124441342Y-52912000D01*
X124283658Y-52912000D01*
X124283655Y-52912000D01*
X124129010Y-52942761D01*
X124128998Y-52942764D01*
X123983327Y-53003102D01*
X123983314Y-53003109D01*
X123852211Y-53090710D01*
X123852207Y-53090713D01*
X123740713Y-53202207D01*
X123740710Y-53202211D01*
X123653109Y-53333314D01*
X123653102Y-53333327D01*
X123592764Y-53478998D01*
X123592761Y-53479010D01*
X123562000Y-53633653D01*
X119769792Y-53633653D01*
X118240393Y-52221900D01*
X118204484Y-52161964D01*
X118200500Y-52130784D01*
X118200500Y-51436555D01*
X118220185Y-51369516D01*
X118272989Y-51323761D01*
X118342147Y-51313817D01*
X118360411Y-51318840D01*
X118360676Y-51317969D01*
X118366492Y-51319732D01*
X118366503Y-51319737D01*
X118521153Y-51350499D01*
X118521156Y-51350500D01*
X118521158Y-51350500D01*
X118678844Y-51350500D01*
X118678845Y-51350499D01*
X118833497Y-51319737D01*
X118959764Y-51267436D01*
X118979172Y-51259397D01*
X118979172Y-51259396D01*
X118979179Y-51259394D01*
X119110289Y-51171789D01*
X119221789Y-51060289D01*
X119309394Y-50929179D01*
X119369737Y-50783497D01*
X119400500Y-50628842D01*
X119400500Y-50471158D01*
X119400500Y-50471155D01*
X119400499Y-50471153D01*
X119384944Y-50392953D01*
X119369737Y-50316503D01*
X119369735Y-50316498D01*
X119309397Y-50170827D01*
X119309390Y-50170814D01*
X119221789Y-50039711D01*
X119221786Y-50039707D01*
X119110292Y-49928213D01*
X119110288Y-49928210D01*
X118979185Y-49840609D01*
X118979172Y-49840602D01*
X118833501Y-49780264D01*
X118833489Y-49780261D01*
X118678845Y-49749500D01*
X118678842Y-49749500D01*
X118521158Y-49749500D01*
X118521155Y-49749500D01*
X118366510Y-49780261D01*
X118360676Y-49782031D01*
X118359873Y-49779385D01*
X118302056Y-49785396D01*
X118239687Y-49753902D01*
X118204245Y-49693689D01*
X118200500Y-49663444D01*
X118200500Y-48124000D01*
X118220185Y-48056961D01*
X118272989Y-48011206D01*
X118324500Y-48000000D01*
X127109404Y-48000000D01*
X127176443Y-48019685D01*
G37*
%TD.AperFunction*%
%TD*%
M02*
