%TF.GenerationSoftware,KiCad,Pcbnew,9.0.4*%
%TF.CreationDate,2025-10-21T16:10:30+02:00*%
%TF.ProjectId,Nomad,4e6f6d61-642e-46b6-9963-61645f706362,rev?*%
%TF.SameCoordinates,Original*%
%TF.FileFunction,Copper,L4,Bot*%
%TF.FilePolarity,Positive*%
%FSLAX46Y46*%
G04 Gerber Fmt 4.6, Leading zero omitted, Abs format (unit mm)*
G04 Created by KiCad (PCBNEW 9.0.4) date 2025-10-21 16:10:30*
%MOMM*%
%LPD*%
G01*
G04 APERTURE LIST*
G04 Aperture macros list*
%AMRoundRect*
0 Rectangle with rounded corners*
0 $1 Rounding radius*
0 $2 $3 $4 $5 $6 $7 $8 $9 X,Y pos of 4 corners*
0 Add a 4 corners polygon primitive as box body*
4,1,4,$2,$3,$4,$5,$6,$7,$8,$9,$2,$3,0*
0 Add four circle primitives for the rounded corners*
1,1,$1+$1,$2,$3*
1,1,$1+$1,$4,$5*
1,1,$1+$1,$6,$7*
1,1,$1+$1,$8,$9*
0 Add four rect primitives between the rounded corners*
20,1,$1+$1,$2,$3,$4,$5,0*
20,1,$1+$1,$4,$5,$6,$7,0*
20,1,$1+$1,$6,$7,$8,$9,0*
20,1,$1+$1,$8,$9,$2,$3,0*%
G04 Aperture macros list end*
%TA.AperFunction,ComponentPad*%
%ADD10RoundRect,0.250000X0.750000X-0.600000X0.750000X0.600000X-0.750000X0.600000X-0.750000X-0.600000X0*%
%TD*%
%TA.AperFunction,ComponentPad*%
%ADD11O,2.000000X1.700000*%
%TD*%
%TA.AperFunction,ComponentPad*%
%ADD12R,1.530000X1.530000*%
%TD*%
%TA.AperFunction,ComponentPad*%
%ADD13C,1.530000*%
%TD*%
%TA.AperFunction,ComponentPad*%
%ADD14C,5.600000*%
%TD*%
%TA.AperFunction,ComponentPad*%
%ADD15R,1.000000X1.000000*%
%TD*%
%TA.AperFunction,ComponentPad*%
%ADD16C,1.000000*%
%TD*%
%TA.AperFunction,ComponentPad*%
%ADD17R,2.600000X2.600000*%
%TD*%
%TA.AperFunction,ComponentPad*%
%ADD18C,2.600000*%
%TD*%
%TA.AperFunction,ViaPad*%
%ADD19C,0.600000*%
%TD*%
%TA.AperFunction,Conductor*%
%ADD20C,0.200000*%
%TD*%
%TA.AperFunction,Conductor*%
%ADD21C,0.500000*%
%TD*%
%TA.AperFunction,Conductor*%
%ADD22C,0.400000*%
%TD*%
G04 APERTURE END LIST*
D10*
%TO.P,LS1,1,1*%
%TO.N,/VSNS_P*%
X136750000Y-50500000D03*
D11*
%TO.P,LS1,2,2*%
%TO.N,/VSNS_N*%
X136750000Y-48000000D03*
%TD*%
D12*
%TO.P,U6,J1_1,3V3*%
%TO.N,3.3V*%
X102360000Y-104340000D03*
D13*
%TO.P,U6,J1_2,3V3*%
X102360001Y-101800000D03*
%TO.P,U6,J1_3,RST*%
%TO.N,unconnected-(U6-RST-PadJ1_3)*%
X102360000Y-99260000D03*
%TO.P,U6,J1_4,GPIO4*%
%TO.N,AIN1*%
X102360000Y-96720000D03*
%TO.P,U6,J1_5,GPIO5*%
%TO.N,AIN2*%
X102360000Y-94180000D03*
%TO.P,U6,J1_6,GPIO6*%
%TO.N,BIN1*%
X102360000Y-91640001D03*
%TO.P,U6,J1_7,GPIO7*%
%TO.N,BIN2*%
X102360000Y-89099999D03*
%TO.P,U6,J1_8,GPIO15*%
%TO.N,FSYNC*%
X102360000Y-86560000D03*
%TO.P,U6,J1_9,GPIO16*%
%TO.N,STBY*%
X102360000Y-84020000D03*
%TO.P,U6,J1_10,GPIO17*%
%TO.N,SDZ*%
X102360000Y-81480000D03*
%TO.P,U6,J1_11,GPIO18*%
%TO.N,IRQZ*%
X102360000Y-78939999D03*
%TO.P,U6,J1_12,GPIO8*%
%TO.N,PWMA*%
X102360000Y-76400000D03*
%TO.P,U6,J1_13,GPIO3*%
%TO.N,Echo_cap_2*%
X102360000Y-73860000D03*
%TO.P,U6,J1_14,GPIO46*%
%TO.N,unconnected-(U6-GPIO46-PadJ1_14)*%
X102360000Y-71320000D03*
%TO.P,U6,J1_15,GPIO9*%
%TO.N,PWMB*%
X102360000Y-68780001D03*
%TO.P,U6,J1_16,GPIO10*%
%TO.N,SDA*%
X102360000Y-66239999D03*
%TO.P,U6,J1_17,GPIO11*%
%TO.N,SCL*%
X102360000Y-63700000D03*
%TO.P,U6,J1_18,GPIO12*%
%TO.N,SDOUT*%
X102360000Y-61160000D03*
%TO.P,U6,J1_19,GPIO13*%
%TO.N,SDIN*%
X102360000Y-58620000D03*
%TO.P,U6,J1_20,GPIO14*%
%TO.N,SBCLK*%
X102360000Y-56079999D03*
%TO.P,U6,J1_21,5V0*%
%TO.N,5V*%
X102360000Y-53540000D03*
%TO.P,U6,J1_22,GND*%
%TO.N,GND*%
X102360000Y-51000000D03*
%TO.P,U6,J3_1,GND*%
X79500000Y-104340000D03*
%TO.P,U6,J3_2,U0TXD/GPIO43*%
%TO.N,unconnected-(U6-U0TXD{slash}GPIO43-PadJ3_2)*%
X79499999Y-101800000D03*
%TO.P,U6,J3_3,U0RXD/GPIO44*%
%TO.N,unconnected-(U6-U0RXD{slash}GPIO44-PadJ3_3)*%
X79500000Y-99260000D03*
%TO.P,U6,J3_4,GPIO1*%
%TO.N,Echo_cap_1*%
X79500000Y-96720000D03*
%TO.P,U6,J3_5,GPIO2*%
%TO.N,Trig_cap_2*%
X79500000Y-94180000D03*
%TO.P,U6,J3_6,MTMS/GPIO42*%
%TO.N,unconnected-(U6-MTMS{slash}GPIO42-PadJ3_6)*%
X79500000Y-91640001D03*
%TO.P,U6,J3_7,MTDI/GPIO41*%
%TO.N,unconnected-(U6-MTDI{slash}GPIO41-PadJ3_7)*%
X79500000Y-89099999D03*
%TO.P,U6,J3_8,MTDO/GPIO40*%
%TO.N,unconnected-(U6-MTDO{slash}GPIO40-PadJ3_8)*%
X79500000Y-86560000D03*
%TO.P,U6,J3_9,MTCK/GPIO39*%
%TO.N,unconnected-(U6-MTCK{slash}GPIO39-PadJ3_9)*%
X79500000Y-84020000D03*
%TO.P,U6,J3_10,GPIO38*%
%TO.N,unconnected-(U6-GPIO38-PadJ3_10)*%
X79500000Y-81480000D03*
%TO.P,U6,J3_11,GPIO37*%
%TO.N,unconnected-(U6-GPIO37-PadJ3_11)*%
X79500000Y-78939999D03*
%TO.P,U6,J3_12,GPIO36*%
%TO.N,unconnected-(U6-GPIO36-PadJ3_12)*%
X79500000Y-76400000D03*
%TO.P,U6,J3_13,GPIO35*%
%TO.N,unconnected-(U6-GPIO35-PadJ3_13)*%
X79500000Y-73860000D03*
%TO.P,U6,J3_14,GPIO0*%
%TO.N,Trig_cap_1*%
X79500000Y-71320000D03*
%TO.P,U6,J3_15,GPIO45*%
%TO.N,unconnected-(U6-GPIO45-PadJ3_15)*%
X79500000Y-68780001D03*
%TO.P,U6,J3_16,GPIO48*%
%TO.N,unconnected-(U6-GPIO48-PadJ3_16)*%
X79500000Y-66239999D03*
%TO.P,U6,J3_17,GPIO47*%
%TO.N,unconnected-(U6-GPIO47-PadJ3_17)*%
X79500000Y-63700000D03*
%TO.P,U6,J3_18,GPIO21*%
%TO.N,unconnected-(U6-GPIO21-PadJ3_18)*%
X79500000Y-61160000D03*
%TO.P,U6,J3_19,USB_D+/GPIO20*%
%TO.N,unconnected-(U6-USB_D+{slash}GPIO20-PadJ3_19)*%
X79500000Y-58620000D03*
%TO.P,U6,J3_20,USB_D-/GPIO19*%
%TO.N,unconnected-(U6-USB_D-{slash}GPIO19-PadJ3_20)*%
X79500000Y-56079999D03*
%TO.P,U6,J3_21,GND*%
%TO.N,GND*%
X79500000Y-53540000D03*
%TO.P,U6,J3_22,GND*%
X79500000Y-51000000D03*
%TD*%
D14*
%TO.P,H1,1,1*%
%TO.N,GND*%
X136000000Y-41000000D03*
%TD*%
%TO.P,H2,1,1*%
%TO.N,GND*%
X136000000Y-103000000D03*
%TD*%
D15*
%TO.P,J3,1,Pin_1*%
%TO.N,5V*%
X76225000Y-70160000D03*
D16*
%TO.P,J3,2,Pin_2*%
%TO.N,Trig_cap_1*%
X76225000Y-71430001D03*
%TO.P,J3,3,Pin_3*%
%TO.N,Echo_cap_1*%
X76225000Y-72700000D03*
%TO.P,J3,4,Pin_4*%
%TO.N,GND*%
X76225000Y-73970000D03*
%TD*%
D14*
%TO.P,H3,1,1*%
%TO.N,GND*%
X76000000Y-41000000D03*
%TD*%
D15*
%TO.P,J2,1,Pin_1*%
%TO.N,5V*%
X76175000Y-82210000D03*
D16*
%TO.P,J2,2,Pin_2*%
%TO.N,Trig_cap_2*%
X76175000Y-80939999D03*
%TO.P,J2,3,Pin_3*%
%TO.N,Echo_cap_2*%
X76175000Y-79670000D03*
%TO.P,J2,4,Pin_4*%
%TO.N,GND*%
X76175000Y-78400000D03*
%TD*%
D15*
%TO.P,J5,1,Pin_1*%
%TO.N,AO2*%
X136800000Y-92400000D03*
D16*
%TO.P,J5,2,Pin_2*%
%TO.N,AO1*%
X136800000Y-93670001D03*
%TD*%
D15*
%TO.P,J4,1,Pin_1*%
%TO.N,BO2*%
X136800000Y-90035000D03*
D16*
%TO.P,J4,2,Pin_2*%
%TO.N,BO1*%
X136800000Y-88764999D03*
%TD*%
D17*
%TO.P,J1,1*%
%TO.N,Net-(D1-A)*%
X129550000Y-62900000D03*
D18*
%TO.P,J1,2*%
%TO.N,GND*%
X135550000Y-62900000D03*
%TO.P,J1,3*%
%TO.N,N/C*%
X132550000Y-58200000D03*
%TD*%
D19*
%TO.N,GND*%
X94535534Y-40535534D03*
X91000000Y-58213203D03*
X98071068Y-51142136D03*
X87464466Y-54677670D03*
X101606602Y-47606602D03*
X83928932Y-44071068D03*
X87464466Y-47606602D03*
X94535534Y-47606602D03*
X83928932Y-51142136D03*
X91000000Y-44071068D03*
X98071068Y-44071068D03*
X80393398Y-47606602D03*
X94535534Y-54677670D03*
X87464466Y-40535534D03*
X91000000Y-51142136D03*
%TO.N,IRQZ*%
X115079991Y-48729699D03*
%TO.N,12V*%
X111000000Y-42000000D03*
X120400000Y-69200000D03*
X128800000Y-79000000D03*
X120200000Y-80600000D03*
%TO.N,GND*%
X97500000Y-87500000D03*
X87500000Y-82500000D03*
X123736650Y-57878950D03*
X119900000Y-44000000D03*
X97500000Y-97500000D03*
X129500000Y-48500000D03*
X111230707Y-47228699D03*
X118600000Y-50550000D03*
X121200000Y-74637501D03*
X110800000Y-50700000D03*
X128051841Y-51051841D03*
X92500000Y-87500000D03*
X123450999Y-80635001D03*
X137543749Y-83550000D03*
X112431250Y-88512500D03*
X121200000Y-45700000D03*
X112215000Y-74637502D03*
X112203192Y-39417299D03*
X87500000Y-87500000D03*
X97500000Y-92500000D03*
X82500000Y-87500000D03*
X116800000Y-39400000D03*
X121000000Y-63200000D03*
X126794600Y-59360201D03*
X116400000Y-76000000D03*
X82500000Y-97500000D03*
X114000000Y-76000000D03*
X92500000Y-82500000D03*
X87500000Y-92500000D03*
X128000000Y-47862501D03*
X82500000Y-92500000D03*
X87500000Y-97500000D03*
X92500000Y-92500000D03*
X97500000Y-82500000D03*
X92500000Y-97500000D03*
X129500000Y-50274999D03*
X82500000Y-82500000D03*
X120950000Y-66700000D03*
%TO.N,5V*%
X122850000Y-60600000D03*
X116200000Y-72124999D03*
X122336650Y-58953950D03*
X123200000Y-68400000D03*
X110024999Y-72124999D03*
%TO.N,1.8V*%
X121500000Y-51500000D03*
X121000000Y-50000400D03*
X120000000Y-50000400D03*
X122000000Y-50000400D03*
X132494749Y-81200000D03*
%TO.N,3.3V*%
X126554800Y-61400000D03*
X112393750Y-90112500D03*
X131493749Y-79825000D03*
%TO.N,/OUT_P*%
X109639109Y-47300000D03*
X124362500Y-53712500D03*
%TO.N,/OUT_N*%
X124050000Y-44500000D03*
X110200000Y-43225000D03*
%TO.N,/VSNS_P*%
X107500000Y-46600000D03*
X127400000Y-55700000D03*
%TO.N,/VSNS_N*%
X128500000Y-44600000D03*
X108600000Y-45475000D03*
%TO.N,SDZ*%
X117596808Y-47097400D03*
%TO.N,SDIN*%
X114490636Y-53390636D03*
%TO.N,AIN1*%
X118800000Y-90400000D03*
%TO.N,STBY*%
X119000000Y-87600000D03*
%TO.N,SCL*%
X114062500Y-56162500D03*
%TO.N,SDA*%
X113100000Y-58900000D03*
%TO.N,SBCLK*%
X116200000Y-51300000D03*
%TO.N,FSYNC*%
X115399807Y-53300000D03*
%TO.N,SDOUT*%
X111573404Y-57323404D03*
%TO.N,PWMA*%
X115851640Y-92274685D03*
X113650000Y-84720000D03*
%TD*%
D20*
%TO.N,SDA*%
X105760001Y-66239999D02*
X113100000Y-58900000D01*
X102360000Y-66239999D02*
X105760001Y-66239999D01*
%TO.N,SCL*%
X106525000Y-63700000D02*
X102360000Y-63700000D01*
X114062500Y-56162500D02*
X106525000Y-63700000D01*
%TO.N,SDZ*%
X100299000Y-79419000D02*
X102360000Y-81480000D01*
X105508900Y-44874000D02*
X100299000Y-50083900D01*
X100299000Y-50083900D02*
X100299000Y-79419000D01*
X115373408Y-44874000D02*
X105508900Y-44874000D01*
X117596808Y-47097400D02*
X115373408Y-44874000D01*
%TO.N,IRQZ*%
X100700000Y-50250000D02*
X100700000Y-77279999D01*
X102220301Y-48729699D02*
X100700000Y-50250000D01*
X115079991Y-48729699D02*
X102220301Y-48729699D01*
X100700000Y-77279999D02*
X102360000Y-78939999D01*
D21*
%TO.N,5V*%
X120275001Y-72124999D02*
X116200000Y-72124999D01*
X123200000Y-69200000D02*
X120275001Y-72124999D01*
X123200000Y-68400000D02*
X123200000Y-69200000D01*
%TO.N,/OUT_P*%
X110317808Y-47978699D02*
X115433304Y-47978699D01*
X122659036Y-49250400D02*
X123972575Y-50563939D01*
X124350000Y-53629289D02*
X124350000Y-53700000D01*
X115433304Y-47978699D02*
X116705005Y-49250400D01*
X109639109Y-47300000D02*
X110317808Y-47978699D01*
X123972575Y-53251864D02*
X124350000Y-53629289D01*
X123972575Y-50563939D02*
X123972575Y-53251864D01*
X124350000Y-53700000D02*
X124362500Y-53712500D01*
X116705005Y-49250400D02*
X122659036Y-49250400D01*
%TO.N,/OUT_N*%
X121325000Y-43225000D02*
X110200000Y-43225000D01*
X122600000Y-44500000D02*
X121325000Y-43225000D01*
X124050000Y-44500000D02*
X122600000Y-44500000D01*
%TO.N,/VSNS_P*%
X116995369Y-48549400D02*
X122949400Y-48549400D01*
X124673575Y-52961500D02*
X127400000Y-55687925D01*
X114888382Y-46442413D02*
X116995369Y-48549400D01*
X124673575Y-50273575D02*
X124673575Y-52961500D01*
X107500000Y-46600000D02*
X107657587Y-46442413D01*
X127400000Y-55687925D02*
X127400000Y-55700000D01*
X107657587Y-46442413D02*
X114888382Y-46442413D01*
X122949400Y-48549400D02*
X124673575Y-50273575D01*
%TO.N,/VSNS_N*%
X114912333Y-45475000D02*
X117285733Y-47848400D01*
X125251600Y-47848400D02*
X128500000Y-44600000D01*
X117285733Y-47848400D02*
X125251600Y-47848400D01*
X108600000Y-45475000D02*
X114912333Y-45475000D01*
D22*
%TO.N,SDIN*%
X109261273Y-58620000D02*
X102360000Y-58620000D01*
X114490636Y-53390636D02*
X109261273Y-58620000D01*
%TO.N,AIN1*%
X112480000Y-96720000D02*
X102360000Y-96720000D01*
X118800000Y-90400000D02*
X112480000Y-96720000D01*
%TO.N,STBY*%
X115420000Y-84020000D02*
X102360000Y-84020000D01*
X119000000Y-87600000D02*
X115420000Y-84020000D01*
%TO.N,SBCLK*%
X105750363Y-52689636D02*
X114810364Y-52689636D01*
X102360000Y-56079999D02*
X105750363Y-52689636D01*
X114810364Y-52689636D02*
X116200000Y-51300000D01*
%TO.N,FSYNC*%
X115399807Y-53300000D02*
X115416806Y-53316999D01*
X115416806Y-54200442D02*
X115926000Y-54709636D01*
X115926000Y-54709636D02*
X115926000Y-69574000D01*
X115926000Y-69574000D02*
X102738487Y-82761513D01*
X101761513Y-82761513D02*
X101194000Y-83329026D01*
X102738487Y-82761513D02*
X101761513Y-82761513D01*
X115416806Y-53316999D02*
X115416806Y-54200442D01*
X101194000Y-85394000D02*
X102360000Y-86560000D01*
X101194000Y-83329026D02*
X101194000Y-85394000D01*
%TO.N,SDOUT*%
X102360000Y-61160000D02*
X107736808Y-61160000D01*
X107736808Y-61160000D02*
X111573404Y-57323404D01*
%TO.N,PWMA*%
X115851640Y-92274685D02*
X115851640Y-86921640D01*
X115851640Y-86921640D02*
X113650000Y-84720000D01*
%TD*%
M02*
