%TF.GenerationSoftware,KiCad,Pcbnew,9.0.4*%
%TF.CreationDate,2025-10-21T16:10:30+02:00*%
%TF.ProjectId,Nomad,4e6f6d61-642e-46b6-9963-61645f706362,rev?*%
%TF.SameCoordinates,Original*%
%TF.FileFunction,Copper,L3,Inr*%
%TF.FilePolarity,Positive*%
%FSLAX46Y46*%
G04 Gerber Fmt 4.6, Leading zero omitted, Abs format (unit mm)*
G04 Created by KiCad (PCBNEW 9.0.4) date 2025-10-21 16:10:30*
%MOMM*%
%LPD*%
G01*
G04 APERTURE LIST*
G04 Aperture macros list*
%AMRoundRect*
0 Rectangle with rounded corners*
0 $1 Rounding radius*
0 $2 $3 $4 $5 $6 $7 $8 $9 X,Y pos of 4 corners*
0 Add a 4 corners polygon primitive as box body*
4,1,4,$2,$3,$4,$5,$6,$7,$8,$9,$2,$3,0*
0 Add four circle primitives for the rounded corners*
1,1,$1+$1,$2,$3*
1,1,$1+$1,$4,$5*
1,1,$1+$1,$6,$7*
1,1,$1+$1,$8,$9*
0 Add four rect primitives between the rounded corners*
20,1,$1+$1,$2,$3,$4,$5,0*
20,1,$1+$1,$4,$5,$6,$7,0*
20,1,$1+$1,$6,$7,$8,$9,0*
20,1,$1+$1,$8,$9,$2,$3,0*%
G04 Aperture macros list end*
%TA.AperFunction,ComponentPad*%
%ADD10RoundRect,0.250000X0.750000X-0.600000X0.750000X0.600000X-0.750000X0.600000X-0.750000X-0.600000X0*%
%TD*%
%TA.AperFunction,ComponentPad*%
%ADD11O,2.000000X1.700000*%
%TD*%
%TA.AperFunction,ComponentPad*%
%ADD12R,1.530000X1.530000*%
%TD*%
%TA.AperFunction,ComponentPad*%
%ADD13C,1.530000*%
%TD*%
%TA.AperFunction,ComponentPad*%
%ADD14C,5.600000*%
%TD*%
%TA.AperFunction,ComponentPad*%
%ADD15R,1.000000X1.000000*%
%TD*%
%TA.AperFunction,ComponentPad*%
%ADD16C,1.000000*%
%TD*%
%TA.AperFunction,ComponentPad*%
%ADD17R,2.600000X2.600000*%
%TD*%
%TA.AperFunction,ComponentPad*%
%ADD18C,2.600000*%
%TD*%
%TA.AperFunction,ViaPad*%
%ADD19C,0.600000*%
%TD*%
G04 APERTURE END LIST*
D10*
%TO.N,/VSNS_P*%
%TO.C,LS1*%
X136750000Y-50500000D03*
D11*
%TO.N,/VSNS_N*%
X136750000Y-48000000D03*
%TD*%
D12*
%TO.N,3.3V*%
%TO.C,U6*%
X102360000Y-104340000D03*
D13*
X102360001Y-101800000D03*
%TO.N,unconnected-(U6-RST-PadJ1_3)*%
X102360000Y-99260000D03*
%TO.N,AIN1*%
X102360000Y-96720000D03*
%TO.N,AIN2*%
X102360000Y-94180000D03*
%TO.N,BIN1*%
X102360000Y-91640001D03*
%TO.N,BIN2*%
X102360000Y-89099999D03*
%TO.N,FSYNC*%
X102360000Y-86560000D03*
%TO.N,STBY*%
X102360000Y-84020000D03*
%TO.N,SDZ*%
X102360000Y-81480000D03*
%TO.N,IRQZ*%
X102360000Y-78939999D03*
%TO.N,PWMA*%
X102360000Y-76400000D03*
%TO.N,Echo_cap_2*%
X102360000Y-73860000D03*
%TO.N,unconnected-(U6-GPIO46-PadJ1_14)*%
X102360000Y-71320000D03*
%TO.N,PWMB*%
X102360000Y-68780001D03*
%TO.N,SDA*%
X102360000Y-66239999D03*
%TO.N,SCL*%
X102360000Y-63700000D03*
%TO.N,SDOUT*%
X102360000Y-61160000D03*
%TO.N,SDIN*%
X102360000Y-58620000D03*
%TO.N,SBCLK*%
X102360000Y-56079999D03*
%TO.N,5V*%
X102360000Y-53540000D03*
%TO.N,GND*%
X102360000Y-51000000D03*
X79500000Y-104340000D03*
%TO.N,unconnected-(U6-U0TXD{slash}GPIO43-PadJ3_2)*%
X79499999Y-101800000D03*
%TO.N,unconnected-(U6-U0RXD{slash}GPIO44-PadJ3_3)*%
X79500000Y-99260000D03*
%TO.N,Echo_cap_1*%
X79500000Y-96720000D03*
%TO.N,Trig_cap_2*%
X79500000Y-94180000D03*
%TO.N,unconnected-(U6-MTMS{slash}GPIO42-PadJ3_6)*%
X79500000Y-91640001D03*
%TO.N,unconnected-(U6-MTDI{slash}GPIO41-PadJ3_7)*%
X79500000Y-89099999D03*
%TO.N,unconnected-(U6-MTDO{slash}GPIO40-PadJ3_8)*%
X79500000Y-86560000D03*
%TO.N,unconnected-(U6-MTCK{slash}GPIO39-PadJ3_9)*%
X79500000Y-84020000D03*
%TO.N,unconnected-(U6-GPIO38-PadJ3_10)*%
X79500000Y-81480000D03*
%TO.N,unconnected-(U6-GPIO37-PadJ3_11)*%
X79500000Y-78939999D03*
%TO.N,unconnected-(U6-GPIO36-PadJ3_12)*%
X79500000Y-76400000D03*
%TO.N,unconnected-(U6-GPIO35-PadJ3_13)*%
X79500000Y-73860000D03*
%TO.N,Trig_cap_1*%
X79500000Y-71320000D03*
%TO.N,unconnected-(U6-GPIO45-PadJ3_15)*%
X79500000Y-68780001D03*
%TO.N,unconnected-(U6-GPIO48-PadJ3_16)*%
X79500000Y-66239999D03*
%TO.N,unconnected-(U6-GPIO47-PadJ3_17)*%
X79500000Y-63700000D03*
%TO.N,unconnected-(U6-GPIO21-PadJ3_18)*%
X79500000Y-61160000D03*
%TO.N,unconnected-(U6-USB_D+{slash}GPIO20-PadJ3_19)*%
X79500000Y-58620000D03*
%TO.N,unconnected-(U6-USB_D-{slash}GPIO19-PadJ3_20)*%
X79500000Y-56079999D03*
%TO.N,GND*%
X79500000Y-53540000D03*
X79500000Y-51000000D03*
%TD*%
D14*
%TO.N,GND*%
%TO.C,H1*%
X136000000Y-41000000D03*
%TD*%
%TO.N,GND*%
%TO.C,H2*%
X136000000Y-103000000D03*
%TD*%
D15*
%TO.N,5V*%
%TO.C,J3*%
X76225000Y-70160000D03*
D16*
%TO.N,Trig_cap_1*%
X76225000Y-71430001D03*
%TO.N,Echo_cap_1*%
X76225000Y-72700000D03*
%TO.N,GND*%
X76225000Y-73970000D03*
%TD*%
D14*
%TO.N,GND*%
%TO.C,H3*%
X76000000Y-41000000D03*
%TD*%
D15*
%TO.N,5V*%
%TO.C,J2*%
X76175000Y-82210000D03*
D16*
%TO.N,Trig_cap_2*%
X76175000Y-80939999D03*
%TO.N,Echo_cap_2*%
X76175000Y-79670000D03*
%TO.N,GND*%
X76175000Y-78400000D03*
%TD*%
D15*
%TO.N,AO2*%
%TO.C,J5*%
X136800000Y-92400000D03*
D16*
%TO.N,AO1*%
X136800000Y-93670001D03*
%TD*%
D15*
%TO.N,BO2*%
%TO.C,J4*%
X136800000Y-90035000D03*
D16*
%TO.N,BO1*%
X136800000Y-88764999D03*
%TD*%
D17*
%TO.N,Net-(D1-A)*%
%TO.C,J1*%
X129550000Y-62900000D03*
D18*
%TO.N,GND*%
X135550000Y-62900000D03*
%TO.N,N/C*%
X132550000Y-58200000D03*
%TD*%
D19*
%TO.N,GND*%
X94535534Y-40535534D03*
X91000000Y-58213203D03*
X98071068Y-51142136D03*
X87464466Y-54677670D03*
X101606602Y-47606602D03*
X83928932Y-44071068D03*
X87464466Y-47606602D03*
X94535534Y-47606602D03*
X83928932Y-51142136D03*
X91000000Y-44071068D03*
X98071068Y-44071068D03*
X80393398Y-47606602D03*
X94535534Y-54677670D03*
X87464466Y-40535534D03*
X91000000Y-51142136D03*
%TO.N,IRQZ*%
X115079991Y-48729699D03*
%TO.N,12V*%
X111000000Y-42000000D03*
X120400000Y-69200000D03*
X128800000Y-79000000D03*
X120200000Y-80600000D03*
%TO.N,GND*%
X97500000Y-87500000D03*
X87500000Y-82500000D03*
X123736650Y-57878950D03*
X119900000Y-44000000D03*
X97500000Y-97500000D03*
X129500000Y-48500000D03*
X111230707Y-47228699D03*
X118600000Y-50550000D03*
X121200000Y-74637501D03*
X110800000Y-50700000D03*
X128051841Y-51051841D03*
X92500000Y-87500000D03*
X123450999Y-80635001D03*
X137543749Y-83550000D03*
X112431250Y-88512500D03*
X121200000Y-45700000D03*
X112215000Y-74637502D03*
X112203192Y-39417299D03*
X87500000Y-87500000D03*
X97500000Y-92500000D03*
X82500000Y-87500000D03*
X116800000Y-39400000D03*
X121000000Y-63200000D03*
X126794600Y-59360201D03*
X116400000Y-76000000D03*
X82500000Y-97500000D03*
X114000000Y-76000000D03*
X92500000Y-82500000D03*
X87500000Y-92500000D03*
X128000000Y-47862501D03*
X82500000Y-92500000D03*
X87500000Y-97500000D03*
X92500000Y-92500000D03*
X97500000Y-82500000D03*
X92500000Y-97500000D03*
X129500000Y-50274999D03*
X82500000Y-82500000D03*
X120950000Y-66700000D03*
%TO.N,5V*%
X122850000Y-60600000D03*
X116200000Y-72124999D03*
X122336650Y-58953950D03*
X123200000Y-68400000D03*
X110024999Y-72124999D03*
%TO.N,1.8V*%
X121500000Y-51500000D03*
X121000000Y-50000400D03*
X120000000Y-50000400D03*
X122000000Y-50000400D03*
X132494749Y-81200000D03*
%TO.N,3.3V*%
X126554800Y-61400000D03*
X112393750Y-90112500D03*
X131493749Y-79825000D03*
%TO.N,/OUT_P*%
X109639109Y-47300000D03*
X124362500Y-53712500D03*
%TO.N,/OUT_N*%
X124050000Y-44500000D03*
X110200000Y-43225000D03*
%TO.N,/VSNS_P*%
X107500000Y-46600000D03*
X127400000Y-55700000D03*
%TO.N,/VSNS_N*%
X128500000Y-44600000D03*
X108600000Y-45475000D03*
%TO.N,SDZ*%
X117596808Y-47097400D03*
%TO.N,SDIN*%
X114490636Y-53390636D03*
%TO.N,AIN1*%
X118800000Y-90400000D03*
%TO.N,STBY*%
X119000000Y-87600000D03*
%TO.N,SCL*%
X114062500Y-56162500D03*
%TO.N,SDA*%
X113100000Y-58900000D03*
%TO.N,SBCLK*%
X116200000Y-51300000D03*
%TO.N,FSYNC*%
X115399807Y-53300000D03*
%TO.N,SDOUT*%
X111573404Y-57323404D03*
%TO.N,PWMA*%
X115851640Y-92274685D03*
X113650000Y-84720000D03*
%TD*%
%TA.AperFunction,Conductor*%
%TO.N,GND*%
G36*
X138004042Y-38100765D02*
G01*
X138028041Y-38102337D01*
X138239839Y-38116219D01*
X138255900Y-38118334D01*
X138483662Y-38163639D01*
X138499316Y-38167834D01*
X138719218Y-38242481D01*
X138734189Y-38248682D01*
X138931453Y-38345961D01*
X138942460Y-38351390D01*
X138956506Y-38359500D01*
X139149583Y-38488509D01*
X139162452Y-38498383D01*
X139337038Y-38651492D01*
X139348507Y-38662961D01*
X139501616Y-38837547D01*
X139511490Y-38850416D01*
X139640499Y-39043493D01*
X139648609Y-39057539D01*
X139751314Y-39265803D01*
X139757521Y-39280788D01*
X139832163Y-39500676D01*
X139836361Y-39516343D01*
X139881663Y-39744087D01*
X139883781Y-39760169D01*
X139899235Y-39995956D01*
X139899500Y-40004066D01*
X139899500Y-105495933D01*
X139899235Y-105504043D01*
X139883781Y-105739830D01*
X139881663Y-105755912D01*
X139836361Y-105983656D01*
X139832163Y-105999323D01*
X139757521Y-106219211D01*
X139751314Y-106234196D01*
X139648609Y-106442460D01*
X139640499Y-106456506D01*
X139511490Y-106649583D01*
X139501616Y-106662452D01*
X139348507Y-106837038D01*
X139337038Y-106848507D01*
X139162452Y-107001616D01*
X139149583Y-107011490D01*
X138956506Y-107140499D01*
X138942460Y-107148609D01*
X138734196Y-107251314D01*
X138719211Y-107257521D01*
X138499323Y-107332163D01*
X138483656Y-107336361D01*
X138255912Y-107381663D01*
X138239830Y-107383781D01*
X138004043Y-107399235D01*
X137995933Y-107399500D01*
X75004067Y-107399500D01*
X74995957Y-107399235D01*
X74760169Y-107383781D01*
X74744087Y-107381663D01*
X74516343Y-107336361D01*
X74500676Y-107332163D01*
X74280788Y-107257521D01*
X74265803Y-107251314D01*
X74057539Y-107148609D01*
X74043493Y-107140499D01*
X73850416Y-107011490D01*
X73837547Y-107001616D01*
X73662961Y-106848507D01*
X73651492Y-106837038D01*
X73498383Y-106662452D01*
X73488509Y-106649583D01*
X73359500Y-106456506D01*
X73351390Y-106442460D01*
X73345749Y-106431021D01*
X73248682Y-106234189D01*
X73242481Y-106219218D01*
X73167834Y-105999316D01*
X73163638Y-105983656D01*
X73118334Y-105755900D01*
X73116219Y-105739839D01*
X73102337Y-105528041D01*
X73100765Y-105504042D01*
X73100500Y-105495933D01*
X73100500Y-101700403D01*
X78234499Y-101700403D01*
X78234499Y-101899596D01*
X78265660Y-102096340D01*
X78265660Y-102096343D01*
X78327212Y-102285780D01*
X78327214Y-102285783D01*
X78417646Y-102463266D01*
X78534730Y-102624418D01*
X78675581Y-102765269D01*
X78836733Y-102882353D01*
X78988720Y-102959794D01*
X78988722Y-102959795D01*
X79039518Y-103007769D01*
X79056313Y-103075590D01*
X79033776Y-103141725D01*
X78988723Y-103180764D01*
X78836993Y-103258075D01*
X78799135Y-103285580D01*
X78799135Y-103285581D01*
X79362425Y-103848871D01*
X79303147Y-103864755D01*
X79186853Y-103931898D01*
X79091898Y-104026853D01*
X79024755Y-104143147D01*
X79008871Y-104202425D01*
X78445581Y-103639135D01*
X78445580Y-103639135D01*
X78418077Y-103676990D01*
X78327679Y-103854405D01*
X78266147Y-104043777D01*
X78235000Y-104240436D01*
X78235000Y-104439563D01*
X78266147Y-104636222D01*
X78327679Y-104825594D01*
X78418077Y-105003008D01*
X78445580Y-105040863D01*
X78445581Y-105040864D01*
X79008871Y-104477574D01*
X79024755Y-104536853D01*
X79091898Y-104653147D01*
X79186853Y-104748102D01*
X79303147Y-104815245D01*
X79362425Y-104831128D01*
X78799134Y-105394417D01*
X78836994Y-105421924D01*
X79014405Y-105512320D01*
X79203777Y-105573852D01*
X79400437Y-105605000D01*
X79599563Y-105605000D01*
X79796222Y-105573852D01*
X79985594Y-105512320D01*
X80163005Y-105421924D01*
X80200863Y-105394418D01*
X80200863Y-105394417D01*
X79637574Y-104831128D01*
X79696853Y-104815245D01*
X79813147Y-104748102D01*
X79908102Y-104653147D01*
X79975245Y-104536853D01*
X79991128Y-104477574D01*
X80554417Y-105040863D01*
X80554418Y-105040863D01*
X80581924Y-105003005D01*
X80672320Y-104825594D01*
X80733852Y-104636222D01*
X80765000Y-104439563D01*
X80765000Y-104240436D01*
X80733852Y-104043777D01*
X80672320Y-103854405D01*
X80581924Y-103676994D01*
X80554417Y-103639135D01*
X80554417Y-103639134D01*
X79991128Y-104202424D01*
X79975245Y-104143147D01*
X79908102Y-104026853D01*
X79813147Y-103931898D01*
X79696853Y-103864755D01*
X79637574Y-103848871D01*
X80200864Y-103285581D01*
X80200863Y-103285580D01*
X80163006Y-103258075D01*
X80011275Y-103180763D01*
X79960480Y-103132789D01*
X79943685Y-103064968D01*
X79966223Y-102998833D01*
X80011275Y-102959795D01*
X80163265Y-102882353D01*
X80324417Y-102765269D01*
X80465268Y-102624418D01*
X80582352Y-102463266D01*
X80672784Y-102285783D01*
X80734338Y-102096339D01*
X80765499Y-101899597D01*
X80765499Y-101700403D01*
X80734338Y-101503661D01*
X80734337Y-101503657D01*
X80734337Y-101503656D01*
X80672785Y-101314219D01*
X80582351Y-101136733D01*
X80465268Y-100975582D01*
X80324417Y-100834731D01*
X80163265Y-100717647D01*
X80011826Y-100640485D01*
X79961030Y-100592510D01*
X79944235Y-100524689D01*
X79966772Y-100458554D01*
X80011824Y-100419516D01*
X80163266Y-100342353D01*
X80324418Y-100225269D01*
X80465269Y-100084418D01*
X80582353Y-99923266D01*
X80672785Y-99745783D01*
X80734339Y-99556339D01*
X80765500Y-99359597D01*
X80765500Y-99160403D01*
X80734339Y-98963661D01*
X80734338Y-98963657D01*
X80734338Y-98963656D01*
X80672786Y-98774219D01*
X80582352Y-98596733D01*
X80465269Y-98435582D01*
X80324418Y-98294731D01*
X80163266Y-98177647D01*
X80011827Y-98100485D01*
X79961031Y-98052510D01*
X79944236Y-97984689D01*
X79966773Y-97918554D01*
X80011827Y-97879515D01*
X80021116Y-97874781D01*
X80163266Y-97802353D01*
X80324418Y-97685269D01*
X80465269Y-97544418D01*
X80582353Y-97383266D01*
X80672785Y-97205783D01*
X80734339Y-97016339D01*
X80765500Y-96819597D01*
X80765500Y-96620403D01*
X80734339Y-96423661D01*
X80734338Y-96423657D01*
X80734338Y-96423656D01*
X80672786Y-96234219D01*
X80582352Y-96056733D01*
X80465269Y-95895582D01*
X80324418Y-95754731D01*
X80163266Y-95637647D01*
X80011827Y-95560485D01*
X79961031Y-95512510D01*
X79944236Y-95444689D01*
X79966773Y-95378554D01*
X80011827Y-95339515D01*
X80021116Y-95334781D01*
X80163266Y-95262353D01*
X80324418Y-95145269D01*
X80465269Y-95004418D01*
X80582353Y-94843266D01*
X80672785Y-94665783D01*
X80734339Y-94476339D01*
X80765500Y-94279597D01*
X80765500Y-94080403D01*
X80734339Y-93883661D01*
X80734338Y-93883657D01*
X80734338Y-93883656D01*
X80672786Y-93694219D01*
X80610237Y-93571460D01*
X80582353Y-93516734D01*
X80465269Y-93355582D01*
X80324418Y-93214731D01*
X80163266Y-93097647D01*
X80119180Y-93075184D01*
X80011828Y-93020485D01*
X79961032Y-92972510D01*
X79944237Y-92904689D01*
X79966775Y-92838554D01*
X80011826Y-92799516D01*
X80163266Y-92722354D01*
X80324418Y-92605270D01*
X80465269Y-92464419D01*
X80582353Y-92303267D01*
X80672785Y-92125784D01*
X80700272Y-92041188D01*
X80734338Y-91936344D01*
X80734338Y-91936343D01*
X80734339Y-91936340D01*
X80765500Y-91739598D01*
X80765500Y-91540404D01*
X80734339Y-91343662D01*
X80734338Y-91343658D01*
X80734338Y-91343657D01*
X80672786Y-91154220D01*
X80672785Y-91154218D01*
X80582353Y-90976735D01*
X80465269Y-90815583D01*
X80324418Y-90674732D01*
X80163266Y-90557648D01*
X80011825Y-90480485D01*
X79961029Y-90432510D01*
X79944234Y-90364689D01*
X79966771Y-90298554D01*
X80011825Y-90259515D01*
X80018526Y-90256100D01*
X80163266Y-90182352D01*
X80324418Y-90065268D01*
X80465269Y-89924417D01*
X80582353Y-89763265D01*
X80672785Y-89585782D01*
X80703675Y-89490713D01*
X80734338Y-89396342D01*
X80734338Y-89396341D01*
X80734339Y-89396338D01*
X80765500Y-89199596D01*
X80765500Y-89000402D01*
X80734339Y-88803660D01*
X80734338Y-88803656D01*
X80734338Y-88803655D01*
X80672786Y-88614218D01*
X80600918Y-88473169D01*
X80582353Y-88436733D01*
X80465269Y-88275581D01*
X80324418Y-88134730D01*
X80163266Y-88017646D01*
X80104806Y-87987859D01*
X80011828Y-87940484D01*
X79961032Y-87892509D01*
X79944237Y-87824688D01*
X79966775Y-87758553D01*
X80011826Y-87719515D01*
X80163266Y-87642353D01*
X80324418Y-87525269D01*
X80465269Y-87384418D01*
X80582353Y-87223266D01*
X80672785Y-87045783D01*
X80694740Y-86978213D01*
X80734338Y-86856343D01*
X80734338Y-86856342D01*
X80734339Y-86856339D01*
X80765500Y-86659597D01*
X80765500Y-86460403D01*
X80734339Y-86263661D01*
X80734338Y-86263657D01*
X80734338Y-86263656D01*
X80672786Y-86074219D01*
X80582352Y-85896733D01*
X80465269Y-85735582D01*
X80324418Y-85594731D01*
X80163266Y-85477647D01*
X80011827Y-85400485D01*
X79961031Y-85352510D01*
X79944236Y-85284689D01*
X79966773Y-85218554D01*
X80011827Y-85179515D01*
X80021116Y-85174781D01*
X80163266Y-85102353D01*
X80324418Y-84985269D01*
X80465269Y-84844418D01*
X80582353Y-84683266D01*
X80672785Y-84505783D01*
X80679051Y-84486498D01*
X80734338Y-84316343D01*
X80734338Y-84316342D01*
X80734339Y-84316339D01*
X80765500Y-84119597D01*
X80765500Y-83920403D01*
X80734339Y-83723661D01*
X80734338Y-83723657D01*
X80734338Y-83723656D01*
X80672786Y-83534219D01*
X80582352Y-83356733D01*
X80465269Y-83195582D01*
X80324418Y-83054731D01*
X80163266Y-82937647D01*
X80011827Y-82860485D01*
X79961031Y-82812510D01*
X79944236Y-82744689D01*
X79966773Y-82678554D01*
X80011827Y-82639515D01*
X80021116Y-82634781D01*
X80163266Y-82562353D01*
X80324418Y-82445269D01*
X80465269Y-82304418D01*
X80582353Y-82143266D01*
X80672785Y-81965783D01*
X80691108Y-81909390D01*
X80734338Y-81776343D01*
X80734338Y-81776342D01*
X80734339Y-81776339D01*
X80765500Y-81579597D01*
X80765500Y-81380403D01*
X80734339Y-81183661D01*
X80734338Y-81183657D01*
X80734338Y-81183656D01*
X80672786Y-80994219D01*
X80584435Y-80820821D01*
X80582353Y-80816734D01*
X80465269Y-80655582D01*
X80324418Y-80514731D01*
X80163266Y-80397647D01*
X80163258Y-80397643D01*
X80011826Y-80320484D01*
X79961030Y-80272509D01*
X79944235Y-80204688D01*
X79966773Y-80138553D01*
X80011824Y-80099515D01*
X80163266Y-80022352D01*
X80324418Y-79905268D01*
X80465269Y-79764417D01*
X80582353Y-79603265D01*
X80672785Y-79425782D01*
X80687927Y-79379179D01*
X80734338Y-79236342D01*
X80734338Y-79236341D01*
X80734339Y-79236338D01*
X80765500Y-79039596D01*
X80765500Y-78840402D01*
X80734339Y-78643660D01*
X80734338Y-78643656D01*
X80734338Y-78643655D01*
X80672786Y-78454218D01*
X80668638Y-78446078D01*
X80582353Y-78276733D01*
X80465269Y-78115581D01*
X80324418Y-77974730D01*
X80163266Y-77857646D01*
X80163258Y-77857642D01*
X80011828Y-77780484D01*
X79961032Y-77732509D01*
X79944237Y-77664688D01*
X79966775Y-77598553D01*
X80011826Y-77559515D01*
X80163266Y-77482353D01*
X80324418Y-77365269D01*
X80465269Y-77224418D01*
X80582353Y-77063266D01*
X80672785Y-76885783D01*
X80734339Y-76696339D01*
X80765500Y-76499597D01*
X80765500Y-76300403D01*
X80734339Y-76103661D01*
X80734338Y-76103657D01*
X80734338Y-76103656D01*
X80672786Y-75914219D01*
X80582352Y-75736733D01*
X80465269Y-75575582D01*
X80324418Y-75434731D01*
X80163266Y-75317647D01*
X80011827Y-75240485D01*
X79961031Y-75192510D01*
X79944236Y-75124689D01*
X79966773Y-75058554D01*
X80011827Y-75019515D01*
X80021116Y-75014781D01*
X80163266Y-74942353D01*
X80324418Y-74825269D01*
X80465269Y-74684418D01*
X80582353Y-74523266D01*
X80672785Y-74345783D01*
X80688912Y-74296148D01*
X80734338Y-74156343D01*
X80734338Y-74156342D01*
X80734339Y-74156339D01*
X80765500Y-73959597D01*
X80765500Y-73760403D01*
X80734339Y-73563661D01*
X80734338Y-73563657D01*
X80734338Y-73563656D01*
X80672786Y-73374219D01*
X80619828Y-73270283D01*
X80582353Y-73196734D01*
X80465269Y-73035582D01*
X80324418Y-72894731D01*
X80163266Y-72777647D01*
X80011827Y-72700485D01*
X79961031Y-72652510D01*
X79944236Y-72584689D01*
X79966773Y-72518554D01*
X80011827Y-72479515D01*
X80021116Y-72474781D01*
X80163266Y-72402353D01*
X80324418Y-72285269D01*
X80465269Y-72144418D01*
X80582353Y-71983266D01*
X80672785Y-71805783D01*
X80692268Y-71745820D01*
X80734338Y-71616343D01*
X80734338Y-71616342D01*
X80734339Y-71616339D01*
X80765500Y-71419597D01*
X80765500Y-71220403D01*
X80734339Y-71023661D01*
X80734338Y-71023657D01*
X80734338Y-71023656D01*
X80672786Y-70834219D01*
X80638781Y-70767481D01*
X80582353Y-70656734D01*
X80465269Y-70495582D01*
X80324418Y-70354731D01*
X80163266Y-70237647D01*
X80163258Y-70237643D01*
X80011828Y-70160485D01*
X79961032Y-70112510D01*
X79944237Y-70044689D01*
X79966775Y-69978554D01*
X80011826Y-69939516D01*
X80163266Y-69862354D01*
X80324418Y-69745270D01*
X80465269Y-69604419D01*
X80582353Y-69443267D01*
X80672785Y-69265784D01*
X80688894Y-69216206D01*
X80734338Y-69076344D01*
X80734338Y-69076343D01*
X80734339Y-69076340D01*
X80765500Y-68879598D01*
X80765500Y-68680404D01*
X80734339Y-68483662D01*
X80734338Y-68483658D01*
X80734338Y-68483657D01*
X80672786Y-68294220D01*
X80672785Y-68294218D01*
X80582353Y-68116735D01*
X80465269Y-67955583D01*
X80324418Y-67814732D01*
X80163266Y-67697648D01*
X80011825Y-67620485D01*
X79961029Y-67572510D01*
X79944234Y-67504689D01*
X79966771Y-67438554D01*
X80011825Y-67399515D01*
X80018526Y-67396100D01*
X80163266Y-67322352D01*
X80324418Y-67205268D01*
X80465269Y-67064417D01*
X80582353Y-66903265D01*
X80672785Y-66725782D01*
X80734339Y-66536338D01*
X80765500Y-66339596D01*
X80765500Y-66140402D01*
X80734339Y-65943660D01*
X80734338Y-65943656D01*
X80734338Y-65943655D01*
X80672786Y-65754218D01*
X80582352Y-65576732D01*
X80465269Y-65415581D01*
X80324418Y-65274730D01*
X80163266Y-65157646D01*
X80163258Y-65157642D01*
X80011828Y-65080484D01*
X79961032Y-65032509D01*
X79944237Y-64964688D01*
X79966775Y-64898553D01*
X80011826Y-64859515D01*
X80163266Y-64782353D01*
X80324418Y-64665269D01*
X80465269Y-64524418D01*
X80582353Y-64363266D01*
X80672785Y-64185783D01*
X80734339Y-63996339D01*
X80765500Y-63799597D01*
X80765500Y-63600403D01*
X80734339Y-63403661D01*
X80734338Y-63403657D01*
X80734338Y-63403656D01*
X80672786Y-63214219D01*
X80582352Y-63036733D01*
X80568731Y-63017985D01*
X80465269Y-62875582D01*
X80324418Y-62734731D01*
X80163266Y-62617647D01*
X80011827Y-62540485D01*
X79961031Y-62492510D01*
X79944236Y-62424689D01*
X79966773Y-62358554D01*
X80011827Y-62319515D01*
X80021116Y-62314781D01*
X80163266Y-62242353D01*
X80324418Y-62125269D01*
X80465269Y-61984418D01*
X80582353Y-61823266D01*
X80672785Y-61645783D01*
X80712155Y-61524614D01*
X80734338Y-61456343D01*
X80734338Y-61456342D01*
X80734339Y-61456339D01*
X80765500Y-61259597D01*
X80765500Y-61060403D01*
X80734339Y-60863661D01*
X80734338Y-60863657D01*
X80734338Y-60863656D01*
X80672786Y-60674219D01*
X80634715Y-60599500D01*
X80582353Y-60496734D01*
X80465269Y-60335582D01*
X80324418Y-60194731D01*
X80163266Y-60077647D01*
X80011856Y-60000500D01*
X80011827Y-60000485D01*
X79961031Y-59952510D01*
X79944236Y-59884689D01*
X79966773Y-59818554D01*
X80011827Y-59779515D01*
X80022386Y-59774135D01*
X80163266Y-59702353D01*
X80324418Y-59585269D01*
X80465269Y-59444418D01*
X80582353Y-59283266D01*
X80672785Y-59105783D01*
X80734339Y-58916339D01*
X80765500Y-58719597D01*
X80765500Y-58520403D01*
X80734339Y-58323661D01*
X80734338Y-58323657D01*
X80734338Y-58323656D01*
X80672786Y-58134219D01*
X80651855Y-58093139D01*
X80582353Y-57956734D01*
X80465269Y-57795582D01*
X80324418Y-57654731D01*
X80163266Y-57537647D01*
X80163258Y-57537643D01*
X80011826Y-57460484D01*
X79961030Y-57412509D01*
X79944235Y-57344688D01*
X79966773Y-57278553D01*
X80011824Y-57239515D01*
X80163266Y-57162352D01*
X80324418Y-57045268D01*
X80465269Y-56904417D01*
X80582353Y-56743265D01*
X80672785Y-56565782D01*
X80703993Y-56469735D01*
X80734338Y-56376342D01*
X80734338Y-56376341D01*
X80734339Y-56376338D01*
X80765500Y-56179596D01*
X80765500Y-55980402D01*
X80734339Y-55783660D01*
X80734338Y-55783656D01*
X80734338Y-55783655D01*
X80672786Y-55594218D01*
X80645522Y-55540710D01*
X80582353Y-55416733D01*
X80465269Y-55255581D01*
X80324418Y-55114730D01*
X80163266Y-54997646D01*
X80149441Y-54990602D01*
X80011278Y-54920204D01*
X79960482Y-54872229D01*
X79943687Y-54804408D01*
X79966224Y-54738273D01*
X80011278Y-54699234D01*
X80163005Y-54621924D01*
X80200863Y-54594418D01*
X80200863Y-54594417D01*
X79637574Y-54031128D01*
X79696853Y-54015245D01*
X79813147Y-53948102D01*
X79908102Y-53853147D01*
X79975245Y-53736853D01*
X79991128Y-53677574D01*
X80554417Y-54240863D01*
X80554418Y-54240863D01*
X80581924Y-54203005D01*
X80672320Y-54025594D01*
X80733852Y-53836222D01*
X80765000Y-53639563D01*
X80765000Y-53440436D01*
X80764995Y-53440403D01*
X101094500Y-53440403D01*
X101094500Y-53639596D01*
X101125661Y-53836340D01*
X101125661Y-53836343D01*
X101187213Y-54025780D01*
X101225285Y-54100500D01*
X101277647Y-54203266D01*
X101394731Y-54364418D01*
X101535582Y-54505269D01*
X101696734Y-54622353D01*
X101825938Y-54688185D01*
X101848171Y-54699514D01*
X101898967Y-54747489D01*
X101915762Y-54815310D01*
X101893225Y-54881445D01*
X101848171Y-54920483D01*
X101696738Y-54997642D01*
X101589299Y-55075702D01*
X101535582Y-55114730D01*
X101535580Y-55114732D01*
X101535579Y-55114732D01*
X101394733Y-55255578D01*
X101394733Y-55255579D01*
X101394731Y-55255581D01*
X101347336Y-55320814D01*
X101277647Y-55416732D01*
X101187213Y-55594218D01*
X101125661Y-55783655D01*
X101125661Y-55783658D01*
X101094500Y-55980402D01*
X101094500Y-56179595D01*
X101125661Y-56376339D01*
X101125661Y-56376342D01*
X101187213Y-56565779D01*
X101195335Y-56581719D01*
X101277647Y-56743265D01*
X101394731Y-56904417D01*
X101535582Y-57045268D01*
X101696734Y-57162352D01*
X101830368Y-57230442D01*
X101848173Y-57239514D01*
X101898969Y-57287489D01*
X101915764Y-57355310D01*
X101893227Y-57421445D01*
X101848173Y-57460483D01*
X101696738Y-57537643D01*
X101589299Y-57615703D01*
X101535582Y-57654731D01*
X101535580Y-57654733D01*
X101535579Y-57654733D01*
X101394733Y-57795579D01*
X101394733Y-57795580D01*
X101394731Y-57795582D01*
X101367042Y-57833693D01*
X101277647Y-57956733D01*
X101187213Y-58134219D01*
X101125661Y-58323656D01*
X101125661Y-58323659D01*
X101094500Y-58520403D01*
X101094500Y-58719596D01*
X101125661Y-58916340D01*
X101125661Y-58916343D01*
X101187213Y-59105780D01*
X101201336Y-59133497D01*
X101277647Y-59283266D01*
X101394731Y-59444418D01*
X101535582Y-59585269D01*
X101696734Y-59702353D01*
X101745128Y-59727011D01*
X101848172Y-59779515D01*
X101898968Y-59827490D01*
X101915763Y-59895311D01*
X101893225Y-59961446D01*
X101848172Y-60000485D01*
X101696733Y-60077647D01*
X101680129Y-60089711D01*
X101535582Y-60194731D01*
X101535580Y-60194733D01*
X101535579Y-60194733D01*
X101394733Y-60335579D01*
X101394733Y-60335580D01*
X101394731Y-60335582D01*
X101344447Y-60404790D01*
X101277647Y-60496733D01*
X101187213Y-60674219D01*
X101125661Y-60863656D01*
X101125661Y-60863659D01*
X101121535Y-60889711D01*
X101094500Y-61060403D01*
X101094500Y-61259597D01*
X101102387Y-61309394D01*
X101125661Y-61456340D01*
X101125661Y-61456343D01*
X101187213Y-61645780D01*
X101255187Y-61779185D01*
X101277647Y-61823266D01*
X101394731Y-61984418D01*
X101535582Y-62125269D01*
X101696734Y-62242353D01*
X101766453Y-62277877D01*
X101848172Y-62319515D01*
X101898968Y-62367490D01*
X101915763Y-62435311D01*
X101893225Y-62501446D01*
X101848172Y-62540485D01*
X101696733Y-62617647D01*
X101604790Y-62684447D01*
X101535582Y-62734731D01*
X101535580Y-62734733D01*
X101535579Y-62734733D01*
X101394733Y-62875579D01*
X101394733Y-62875580D01*
X101394731Y-62875582D01*
X101376990Y-62900001D01*
X101277647Y-63036733D01*
X101187213Y-63214219D01*
X101125661Y-63403656D01*
X101125661Y-63403659D01*
X101094500Y-63600403D01*
X101094500Y-63799596D01*
X101125661Y-63996340D01*
X101125661Y-63996343D01*
X101187213Y-64185780D01*
X101187215Y-64185783D01*
X101277647Y-64363266D01*
X101394731Y-64524418D01*
X101535582Y-64665269D01*
X101696734Y-64782353D01*
X101825938Y-64848185D01*
X101848171Y-64859514D01*
X101898967Y-64907489D01*
X101915762Y-64975310D01*
X101893225Y-65041445D01*
X101848171Y-65080483D01*
X101696738Y-65157642D01*
X101589299Y-65235702D01*
X101535582Y-65274730D01*
X101535580Y-65274732D01*
X101535579Y-65274732D01*
X101394733Y-65415578D01*
X101394733Y-65415579D01*
X101394731Y-65415581D01*
X101344447Y-65484789D01*
X101277647Y-65576732D01*
X101187213Y-65754218D01*
X101125661Y-65943655D01*
X101125661Y-65943658D01*
X101094500Y-66140402D01*
X101094500Y-66339595D01*
X101125661Y-66536339D01*
X101125661Y-66536342D01*
X101187213Y-66725779D01*
X101187215Y-66725782D01*
X101277647Y-66903265D01*
X101394731Y-67064417D01*
X101535582Y-67205268D01*
X101696734Y-67322352D01*
X101767724Y-67358523D01*
X101848174Y-67399515D01*
X101898970Y-67447490D01*
X101915765Y-67515311D01*
X101893227Y-67581446D01*
X101848174Y-67620485D01*
X101696733Y-67697648D01*
X101604790Y-67764448D01*
X101535582Y-67814732D01*
X101535580Y-67814734D01*
X101535579Y-67814734D01*
X101394733Y-67955580D01*
X101394733Y-67955581D01*
X101394731Y-67955583D01*
X101347338Y-68020814D01*
X101277647Y-68116734D01*
X101187213Y-68294220D01*
X101125661Y-68483657D01*
X101125661Y-68483660D01*
X101101931Y-68633489D01*
X101094500Y-68680404D01*
X101094500Y-68879598D01*
X101108264Y-68966498D01*
X101125661Y-69076341D01*
X101125661Y-69076344D01*
X101187213Y-69265781D01*
X101264602Y-69417664D01*
X101277647Y-69443267D01*
X101394731Y-69604419D01*
X101535582Y-69745270D01*
X101696734Y-69862354D01*
X101789061Y-69909397D01*
X101848171Y-69939515D01*
X101898967Y-69987490D01*
X101915762Y-70055311D01*
X101893225Y-70121446D01*
X101848171Y-70160484D01*
X101696738Y-70237643D01*
X101589299Y-70315703D01*
X101535582Y-70354731D01*
X101535580Y-70354733D01*
X101535579Y-70354733D01*
X101394733Y-70495579D01*
X101394733Y-70495580D01*
X101394731Y-70495582D01*
X101344447Y-70564790D01*
X101277647Y-70656733D01*
X101187213Y-70834219D01*
X101125661Y-71023656D01*
X101125661Y-71023659D01*
X101094500Y-71220403D01*
X101094500Y-71419596D01*
X101125661Y-71616340D01*
X101125661Y-71616343D01*
X101187213Y-71805780D01*
X101237220Y-71903923D01*
X101277647Y-71983266D01*
X101394731Y-72144418D01*
X101535582Y-72285269D01*
X101696734Y-72402353D01*
X101708151Y-72408170D01*
X101848172Y-72479515D01*
X101898968Y-72527490D01*
X101915763Y-72595311D01*
X101893225Y-72661446D01*
X101848172Y-72700485D01*
X101696733Y-72777647D01*
X101618635Y-72834389D01*
X101535582Y-72894731D01*
X101535580Y-72894733D01*
X101535579Y-72894733D01*
X101394733Y-73035579D01*
X101394733Y-73035580D01*
X101394731Y-73035582D01*
X101344447Y-73104790D01*
X101277647Y-73196733D01*
X101187213Y-73374219D01*
X101125661Y-73563656D01*
X101125661Y-73563659D01*
X101094500Y-73760403D01*
X101094500Y-73959596D01*
X101125661Y-74156340D01*
X101125661Y-74156343D01*
X101187213Y-74345780D01*
X101277647Y-74523266D01*
X101394731Y-74684418D01*
X101535582Y-74825269D01*
X101696734Y-74942353D01*
X101766453Y-74977877D01*
X101848172Y-75019515D01*
X101898968Y-75067490D01*
X101915763Y-75135311D01*
X101893225Y-75201446D01*
X101848172Y-75240485D01*
X101696733Y-75317647D01*
X101604790Y-75384447D01*
X101535582Y-75434731D01*
X101535580Y-75434733D01*
X101535579Y-75434733D01*
X101394733Y-75575579D01*
X101394733Y-75575580D01*
X101394731Y-75575582D01*
X101344447Y-75644790D01*
X101277647Y-75736733D01*
X101187213Y-75914219D01*
X101125661Y-76103656D01*
X101125661Y-76103659D01*
X101094500Y-76300403D01*
X101094500Y-76499596D01*
X101125661Y-76696340D01*
X101125661Y-76696343D01*
X101187213Y-76885780D01*
X101187215Y-76885783D01*
X101277647Y-77063266D01*
X101394731Y-77224418D01*
X101535582Y-77365269D01*
X101696734Y-77482353D01*
X101758468Y-77513808D01*
X101848171Y-77559514D01*
X101898967Y-77607489D01*
X101915762Y-77675310D01*
X101893225Y-77741445D01*
X101848171Y-77780483D01*
X101696738Y-77857642D01*
X101589299Y-77935702D01*
X101535582Y-77974730D01*
X101535580Y-77974732D01*
X101535579Y-77974732D01*
X101394733Y-78115578D01*
X101394733Y-78115579D01*
X101394731Y-78115581D01*
X101344447Y-78184789D01*
X101277647Y-78276732D01*
X101187213Y-78454218D01*
X101125661Y-78643655D01*
X101125661Y-78643658D01*
X101112596Y-78726148D01*
X101094500Y-78840402D01*
X101094500Y-79039596D01*
X101096982Y-79055264D01*
X101125661Y-79236339D01*
X101125661Y-79236342D01*
X101187213Y-79425779D01*
X101261441Y-79571459D01*
X101277647Y-79603265D01*
X101394731Y-79764417D01*
X101535582Y-79905268D01*
X101696734Y-80022352D01*
X101828926Y-80089707D01*
X101848173Y-80099514D01*
X101898969Y-80147489D01*
X101915764Y-80215310D01*
X101893227Y-80281445D01*
X101848173Y-80320483D01*
X101696738Y-80397643D01*
X101602528Y-80466092D01*
X101535582Y-80514731D01*
X101535580Y-80514733D01*
X101535579Y-80514733D01*
X101394733Y-80655579D01*
X101394733Y-80655580D01*
X101394731Y-80655582D01*
X101377832Y-80678842D01*
X101277647Y-80816733D01*
X101187213Y-80994219D01*
X101125661Y-81183656D01*
X101125661Y-81183659D01*
X101094500Y-81380403D01*
X101094500Y-81579596D01*
X101125661Y-81776340D01*
X101125661Y-81776343D01*
X101187213Y-81965780D01*
X101204904Y-82000500D01*
X101277647Y-82143266D01*
X101394731Y-82304418D01*
X101535582Y-82445269D01*
X101696734Y-82562353D01*
X101766453Y-82597877D01*
X101848172Y-82639515D01*
X101898968Y-82687490D01*
X101915763Y-82755311D01*
X101893225Y-82821446D01*
X101848172Y-82860485D01*
X101696733Y-82937647D01*
X101604790Y-83004447D01*
X101535582Y-83054731D01*
X101535580Y-83054733D01*
X101535579Y-83054733D01*
X101394733Y-83195579D01*
X101394733Y-83195580D01*
X101394731Y-83195582D01*
X101344447Y-83264790D01*
X101277647Y-83356733D01*
X101187213Y-83534219D01*
X101125661Y-83723656D01*
X101125661Y-83723659D01*
X101094500Y-83920403D01*
X101094500Y-84119596D01*
X101125661Y-84316340D01*
X101125661Y-84316343D01*
X101187213Y-84505780D01*
X101187215Y-84505783D01*
X101277647Y-84683266D01*
X101394731Y-84844418D01*
X101535582Y-84985269D01*
X101696734Y-85102353D01*
X101766453Y-85137877D01*
X101848172Y-85179515D01*
X101898968Y-85227490D01*
X101915763Y-85295311D01*
X101893225Y-85361446D01*
X101848172Y-85400485D01*
X101696733Y-85477647D01*
X101637753Y-85520499D01*
X101535582Y-85594731D01*
X101535580Y-85594733D01*
X101535579Y-85594733D01*
X101394733Y-85735579D01*
X101394733Y-85735580D01*
X101394731Y-85735582D01*
X101344447Y-85804790D01*
X101277647Y-85896733D01*
X101187213Y-86074219D01*
X101125661Y-86263656D01*
X101125661Y-86263659D01*
X101094500Y-86460403D01*
X101094500Y-86659596D01*
X101125661Y-86856340D01*
X101125661Y-86856343D01*
X101187213Y-87045780D01*
X101187215Y-87045783D01*
X101277647Y-87223266D01*
X101394731Y-87384418D01*
X101535582Y-87525269D01*
X101696734Y-87642353D01*
X101768348Y-87678842D01*
X101848171Y-87719514D01*
X101898967Y-87767489D01*
X101915762Y-87835310D01*
X101893225Y-87901445D01*
X101848171Y-87940483D01*
X101696738Y-88017642D01*
X101589299Y-88095702D01*
X101535582Y-88134730D01*
X101535580Y-88134732D01*
X101535579Y-88134732D01*
X101394733Y-88275578D01*
X101394733Y-88275579D01*
X101394731Y-88275581D01*
X101370162Y-88309397D01*
X101277647Y-88436732D01*
X101187213Y-88614218D01*
X101125661Y-88803655D01*
X101125661Y-88803658D01*
X101094500Y-89000402D01*
X101094500Y-89199595D01*
X101125661Y-89396339D01*
X101125661Y-89396342D01*
X101187213Y-89585779D01*
X101240623Y-89690602D01*
X101277647Y-89763265D01*
X101394731Y-89924417D01*
X101535582Y-90065268D01*
X101696734Y-90182352D01*
X101714386Y-90191346D01*
X101848174Y-90259515D01*
X101898970Y-90307490D01*
X101915765Y-90375311D01*
X101893227Y-90441446D01*
X101848174Y-90480485D01*
X101696733Y-90557648D01*
X101607077Y-90622788D01*
X101535582Y-90674732D01*
X101535580Y-90674734D01*
X101535579Y-90674734D01*
X101394733Y-90815580D01*
X101394733Y-90815581D01*
X101394731Y-90815583D01*
X101390149Y-90821890D01*
X101277647Y-90976734D01*
X101187213Y-91154220D01*
X101125661Y-91343657D01*
X101125661Y-91343660D01*
X101094500Y-91540404D01*
X101094500Y-91739597D01*
X101125661Y-91936341D01*
X101125661Y-91936344D01*
X101187213Y-92125781D01*
X101187215Y-92125784D01*
X101277647Y-92303267D01*
X101394731Y-92464419D01*
X101535582Y-92605270D01*
X101696734Y-92722354D01*
X101819631Y-92784973D01*
X101848171Y-92799515D01*
X101898967Y-92847490D01*
X101915762Y-92915311D01*
X101893225Y-92981446D01*
X101848171Y-93020484D01*
X101696738Y-93097643D01*
X101619018Y-93154111D01*
X101535582Y-93214731D01*
X101535580Y-93214733D01*
X101535579Y-93214733D01*
X101394733Y-93355579D01*
X101394733Y-93355580D01*
X101394731Y-93355582D01*
X101344447Y-93424790D01*
X101277647Y-93516733D01*
X101187213Y-93694219D01*
X101125661Y-93883656D01*
X101125661Y-93883659D01*
X101094500Y-94080403D01*
X101094500Y-94279596D01*
X101125661Y-94476340D01*
X101125661Y-94476343D01*
X101187213Y-94665780D01*
X101277647Y-94843266D01*
X101394731Y-95004418D01*
X101535582Y-95145269D01*
X101696734Y-95262353D01*
X101766453Y-95297877D01*
X101848172Y-95339515D01*
X101898968Y-95387490D01*
X101915763Y-95455311D01*
X101893225Y-95521446D01*
X101848172Y-95560485D01*
X101696733Y-95637647D01*
X101604790Y-95704447D01*
X101535582Y-95754731D01*
X101535580Y-95754733D01*
X101535579Y-95754733D01*
X101394733Y-95895579D01*
X101394733Y-95895580D01*
X101394731Y-95895582D01*
X101344447Y-95964790D01*
X101277647Y-96056733D01*
X101187213Y-96234219D01*
X101125661Y-96423656D01*
X101125661Y-96423659D01*
X101094500Y-96620403D01*
X101094500Y-96819596D01*
X101125661Y-97016340D01*
X101125661Y-97016343D01*
X101187213Y-97205780D01*
X101187215Y-97205783D01*
X101277647Y-97383266D01*
X101394731Y-97544418D01*
X101535582Y-97685269D01*
X101696734Y-97802353D01*
X101766453Y-97837877D01*
X101848172Y-97879515D01*
X101898968Y-97927490D01*
X101915763Y-97995311D01*
X101893225Y-98061446D01*
X101848172Y-98100485D01*
X101696733Y-98177647D01*
X101604790Y-98244447D01*
X101535582Y-98294731D01*
X101535580Y-98294733D01*
X101535579Y-98294733D01*
X101394733Y-98435579D01*
X101394733Y-98435580D01*
X101394731Y-98435582D01*
X101344447Y-98504790D01*
X101277647Y-98596733D01*
X101187213Y-98774219D01*
X101125661Y-98963656D01*
X101125661Y-98963659D01*
X101094500Y-99160403D01*
X101094500Y-99359596D01*
X101125661Y-99556340D01*
X101125661Y-99556343D01*
X101187213Y-99745780D01*
X101187215Y-99745783D01*
X101277647Y-99923266D01*
X101394731Y-100084418D01*
X101535582Y-100225269D01*
X101696734Y-100342353D01*
X101830368Y-100410443D01*
X101848173Y-100419515D01*
X101898969Y-100467490D01*
X101915764Y-100535311D01*
X101893227Y-100601446D01*
X101848173Y-100640485D01*
X101696734Y-100717647D01*
X101604791Y-100784447D01*
X101535583Y-100834731D01*
X101535581Y-100834733D01*
X101535580Y-100834733D01*
X101394734Y-100975579D01*
X101394734Y-100975580D01*
X101394732Y-100975582D01*
X101344448Y-101044790D01*
X101277648Y-101136733D01*
X101187214Y-101314219D01*
X101125662Y-101503656D01*
X101125662Y-101503659D01*
X101094501Y-101700403D01*
X101094501Y-101899596D01*
X101125662Y-102096340D01*
X101125662Y-102096343D01*
X101187214Y-102285780D01*
X101187216Y-102285783D01*
X101277648Y-102463266D01*
X101394732Y-102624418D01*
X101535583Y-102765269D01*
X101652456Y-102850182D01*
X101695122Y-102905512D01*
X101701101Y-102975125D01*
X101668495Y-103036920D01*
X101607657Y-103071277D01*
X101579574Y-103074500D01*
X101547131Y-103074500D01*
X101547123Y-103074501D01*
X101487516Y-103080908D01*
X101352671Y-103131202D01*
X101352664Y-103131206D01*
X101237455Y-103217452D01*
X101237452Y-103217455D01*
X101151206Y-103332664D01*
X101151202Y-103332671D01*
X101100908Y-103467517D01*
X101094501Y-103527116D01*
X101094501Y-103527123D01*
X101094500Y-103527135D01*
X101094500Y-105152870D01*
X101094501Y-105152876D01*
X101100908Y-105212483D01*
X101151202Y-105347328D01*
X101151206Y-105347335D01*
X101237452Y-105462544D01*
X101237455Y-105462547D01*
X101352664Y-105548793D01*
X101352671Y-105548797D01*
X101487517Y-105599091D01*
X101487516Y-105599091D01*
X101494444Y-105599835D01*
X101547127Y-105605500D01*
X103172872Y-105605499D01*
X103232483Y-105599091D01*
X103367331Y-105548796D01*
X103482546Y-105462546D01*
X103568796Y-105347331D01*
X103619091Y-105212483D01*
X103625500Y-105152873D01*
X103625499Y-103527128D01*
X103619091Y-103467517D01*
X103568796Y-103332669D01*
X103568795Y-103332668D01*
X103568793Y-103332664D01*
X103482547Y-103217455D01*
X103482544Y-103217452D01*
X103367335Y-103131206D01*
X103367328Y-103131202D01*
X103232482Y-103080908D01*
X103232483Y-103080908D01*
X103172883Y-103074501D01*
X103172881Y-103074500D01*
X103172873Y-103074500D01*
X103172865Y-103074500D01*
X103140432Y-103074500D01*
X103073393Y-103054815D01*
X103027638Y-103002011D01*
X103017694Y-102932853D01*
X103046719Y-102869297D01*
X103067544Y-102850183D01*
X103184419Y-102765269D01*
X103325270Y-102624418D01*
X103442354Y-102463266D01*
X103532786Y-102285783D01*
X103594340Y-102096339D01*
X103625501Y-101899597D01*
X103625501Y-101700403D01*
X103594340Y-101503661D01*
X103594339Y-101503657D01*
X103594339Y-101503656D01*
X103532787Y-101314219D01*
X103442353Y-101136733D01*
X103325270Y-100975582D01*
X103184419Y-100834731D01*
X103023267Y-100717647D01*
X103023259Y-100717643D01*
X102871827Y-100640484D01*
X102821031Y-100592509D01*
X102804236Y-100524688D01*
X102826774Y-100458553D01*
X102871826Y-100419515D01*
X103023266Y-100342353D01*
X103184418Y-100225269D01*
X103325269Y-100084418D01*
X103442353Y-99923266D01*
X103532785Y-99745783D01*
X103594339Y-99556339D01*
X103625500Y-99359597D01*
X103625500Y-99160403D01*
X103594339Y-98963661D01*
X103594338Y-98963657D01*
X103594338Y-98963656D01*
X103532786Y-98774219D01*
X103442352Y-98596733D01*
X103325269Y-98435582D01*
X103184418Y-98294731D01*
X103023266Y-98177647D01*
X102871827Y-98100485D01*
X102821031Y-98052510D01*
X102804236Y-97984689D01*
X102826773Y-97918554D01*
X102871827Y-97879515D01*
X102881116Y-97874781D01*
X103023266Y-97802353D01*
X103184418Y-97685269D01*
X103325269Y-97544418D01*
X103442353Y-97383266D01*
X103532785Y-97205783D01*
X103594339Y-97016339D01*
X103625500Y-96819597D01*
X103625500Y-96620403D01*
X103594339Y-96423661D01*
X103594338Y-96423657D01*
X103594338Y-96423656D01*
X103532786Y-96234219D01*
X103442352Y-96056733D01*
X103325269Y-95895582D01*
X103184418Y-95754731D01*
X103023266Y-95637647D01*
X102871827Y-95560485D01*
X102821031Y-95512510D01*
X102804236Y-95444689D01*
X102826773Y-95378554D01*
X102871827Y-95339515D01*
X102881116Y-95334781D01*
X103023266Y-95262353D01*
X103184418Y-95145269D01*
X103325269Y-95004418D01*
X103442353Y-94843266D01*
X103532785Y-94665783D01*
X103594339Y-94476339D01*
X103625500Y-94279597D01*
X103625500Y-94080403D01*
X103594339Y-93883661D01*
X103594338Y-93883657D01*
X103594338Y-93883656D01*
X103556936Y-93768544D01*
X135799499Y-93768544D01*
X135837947Y-93961830D01*
X135837950Y-93961840D01*
X135913364Y-94143908D01*
X135913371Y-94143921D01*
X136022860Y-94307782D01*
X136022863Y-94307786D01*
X136162214Y-94447137D01*
X136162218Y-94447140D01*
X136326079Y-94556629D01*
X136326092Y-94556636D01*
X136508160Y-94632050D01*
X136508165Y-94632052D01*
X136508169Y-94632052D01*
X136508170Y-94632053D01*
X136701456Y-94670501D01*
X136701459Y-94670501D01*
X136898543Y-94670501D01*
X137028582Y-94644633D01*
X137091835Y-94632052D01*
X137273914Y-94556633D01*
X137437782Y-94447140D01*
X137577139Y-94307783D01*
X137686632Y-94143915D01*
X137762051Y-93961836D01*
X137800500Y-93768542D01*
X137800500Y-93571460D01*
X137800500Y-93571457D01*
X137762052Y-93378171D01*
X137762051Y-93378170D01*
X137762051Y-93378166D01*
X137719680Y-93275875D01*
X137712212Y-93206408D01*
X137734977Y-93154111D01*
X137743796Y-93142331D01*
X137794091Y-93007483D01*
X137800500Y-92947873D01*
X137800499Y-91852128D01*
X137794091Y-91792517D01*
X137743796Y-91657669D01*
X137743795Y-91657668D01*
X137743793Y-91657664D01*
X137657547Y-91542455D01*
X137657544Y-91542452D01*
X137542335Y-91456206D01*
X137542328Y-91456202D01*
X137407482Y-91405908D01*
X137407483Y-91405908D01*
X137347883Y-91399501D01*
X137347881Y-91399500D01*
X137347873Y-91399500D01*
X137347864Y-91399500D01*
X136252129Y-91399500D01*
X136252123Y-91399501D01*
X136192516Y-91405908D01*
X136057671Y-91456202D01*
X136057664Y-91456206D01*
X135942455Y-91542452D01*
X135942452Y-91542455D01*
X135856206Y-91657664D01*
X135856202Y-91657671D01*
X135805908Y-91792517D01*
X135799501Y-91852116D01*
X135799501Y-91852123D01*
X135799500Y-91852135D01*
X135799500Y-92947870D01*
X135799501Y-92947876D01*
X135805908Y-93007483D01*
X135856202Y-93142329D01*
X135865023Y-93154111D01*
X135889441Y-93219574D01*
X135880318Y-93275874D01*
X135837950Y-93378165D01*
X135837948Y-93378169D01*
X135837947Y-93378172D01*
X135799500Y-93571457D01*
X135799500Y-93571460D01*
X135799500Y-93768542D01*
X135799500Y-93768544D01*
X135799499Y-93768544D01*
X103556936Y-93768544D01*
X103532786Y-93694219D01*
X103470237Y-93571460D01*
X103442353Y-93516734D01*
X103325269Y-93355582D01*
X103184418Y-93214731D01*
X103023266Y-93097647D01*
X102979180Y-93075184D01*
X102871828Y-93020485D01*
X102821032Y-92972510D01*
X102804237Y-92904689D01*
X102826775Y-92838554D01*
X102871826Y-92799516D01*
X103023266Y-92722354D01*
X103184418Y-92605270D01*
X103325269Y-92464419D01*
X103442353Y-92303267D01*
X103497091Y-92195838D01*
X115051140Y-92195838D01*
X115051140Y-92353531D01*
X115081901Y-92508174D01*
X115081904Y-92508186D01*
X115142242Y-92653857D01*
X115142249Y-92653870D01*
X115229850Y-92784973D01*
X115229853Y-92784977D01*
X115341347Y-92896471D01*
X115341351Y-92896474D01*
X115472454Y-92984075D01*
X115472467Y-92984082D01*
X115618138Y-93044420D01*
X115618143Y-93044422D01*
X115772793Y-93075184D01*
X115772796Y-93075185D01*
X115772798Y-93075185D01*
X115930484Y-93075185D01*
X115930485Y-93075184D01*
X116085137Y-93044422D01*
X116230819Y-92984079D01*
X116361929Y-92896474D01*
X116473429Y-92784974D01*
X116561034Y-92653864D01*
X116621377Y-92508182D01*
X116652140Y-92353527D01*
X116652140Y-92195843D01*
X116652140Y-92195840D01*
X116652139Y-92195838D01*
X116621378Y-92041195D01*
X116621377Y-92041188D01*
X116561034Y-91895506D01*
X116561030Y-91895499D01*
X116473429Y-91764396D01*
X116473426Y-91764392D01*
X116361932Y-91652898D01*
X116361928Y-91652895D01*
X116230825Y-91565294D01*
X116230812Y-91565287D01*
X116085141Y-91504949D01*
X116085129Y-91504946D01*
X115930485Y-91474185D01*
X115930482Y-91474185D01*
X115772798Y-91474185D01*
X115772795Y-91474185D01*
X115618150Y-91504946D01*
X115618138Y-91504949D01*
X115472467Y-91565287D01*
X115472454Y-91565294D01*
X115341351Y-91652895D01*
X115341347Y-91652898D01*
X115229853Y-91764392D01*
X115229850Y-91764396D01*
X115142249Y-91895499D01*
X115142242Y-91895512D01*
X115081904Y-92041183D01*
X115081901Y-92041195D01*
X115051140Y-92195838D01*
X103497091Y-92195838D01*
X103532785Y-92125784D01*
X103560272Y-92041188D01*
X103594338Y-91936344D01*
X103594338Y-91936343D01*
X103594339Y-91936340D01*
X103625500Y-91739598D01*
X103625500Y-91540404D01*
X103594339Y-91343662D01*
X103594338Y-91343658D01*
X103594338Y-91343657D01*
X103532786Y-91154220D01*
X103532785Y-91154218D01*
X103442353Y-90976735D01*
X103325269Y-90815583D01*
X103184418Y-90674732D01*
X103023266Y-90557648D01*
X102871825Y-90480485D01*
X102821029Y-90432510D01*
X102804234Y-90364689D01*
X102826771Y-90298554D01*
X102871825Y-90259515D01*
X102878526Y-90256100D01*
X103023266Y-90182352D01*
X103184418Y-90065268D01*
X103216033Y-90033653D01*
X111593250Y-90033653D01*
X111593250Y-90191346D01*
X111624011Y-90345989D01*
X111624014Y-90346001D01*
X111684352Y-90491672D01*
X111684359Y-90491685D01*
X111771960Y-90622788D01*
X111771963Y-90622792D01*
X111883457Y-90734286D01*
X111883461Y-90734289D01*
X112014564Y-90821890D01*
X112014577Y-90821897D01*
X112160248Y-90882235D01*
X112160253Y-90882237D01*
X112301274Y-90910288D01*
X112314903Y-90912999D01*
X112314906Y-90913000D01*
X112314908Y-90913000D01*
X112472594Y-90913000D01*
X112472595Y-90912999D01*
X112627247Y-90882237D01*
X112772929Y-90821894D01*
X112904039Y-90734289D01*
X113015539Y-90622789D01*
X113103144Y-90491679D01*
X113163487Y-90345997D01*
X113168429Y-90321153D01*
X117999500Y-90321153D01*
X117999500Y-90478846D01*
X118030261Y-90633489D01*
X118030264Y-90633501D01*
X118090602Y-90779172D01*
X118090609Y-90779185D01*
X118178210Y-90910288D01*
X118178213Y-90910292D01*
X118289707Y-91021786D01*
X118289711Y-91021789D01*
X118420814Y-91109390D01*
X118420827Y-91109397D01*
X118529041Y-91154220D01*
X118566503Y-91169737D01*
X118721153Y-91200499D01*
X118721156Y-91200500D01*
X118721158Y-91200500D01*
X118878844Y-91200500D01*
X118878845Y-91200499D01*
X119033497Y-91169737D01*
X119179179Y-91109394D01*
X119310289Y-91021789D01*
X119421789Y-90910289D01*
X119509394Y-90779179D01*
X119510160Y-90777331D01*
X119569735Y-90633501D01*
X119569737Y-90633497D01*
X119600500Y-90478842D01*
X119600500Y-90321158D01*
X119600500Y-90321155D01*
X119600499Y-90321153D01*
X119588238Y-90259515D01*
X119569737Y-90166503D01*
X119569735Y-90166498D01*
X119509397Y-90020827D01*
X119509390Y-90020814D01*
X119421789Y-89889711D01*
X119421786Y-89889707D01*
X119310292Y-89778213D01*
X119310288Y-89778210D01*
X119179185Y-89690609D01*
X119179172Y-89690602D01*
X119033501Y-89630264D01*
X119033489Y-89630261D01*
X118878845Y-89599500D01*
X118878842Y-89599500D01*
X118721158Y-89599500D01*
X118721155Y-89599500D01*
X118566510Y-89630261D01*
X118566498Y-89630264D01*
X118420827Y-89690602D01*
X118420814Y-89690609D01*
X118289711Y-89778210D01*
X118289707Y-89778213D01*
X118178213Y-89889707D01*
X118178210Y-89889711D01*
X118090609Y-90020814D01*
X118090602Y-90020827D01*
X118030264Y-90166498D01*
X118030261Y-90166510D01*
X117999500Y-90321153D01*
X113168429Y-90321153D01*
X113178050Y-90272784D01*
X113194250Y-90191344D01*
X113194250Y-90033655D01*
X113194249Y-90033653D01*
X113172521Y-89924419D01*
X113163487Y-89879003D01*
X113121738Y-89778211D01*
X113103147Y-89733327D01*
X113103140Y-89733314D01*
X113015539Y-89602211D01*
X113015536Y-89602207D01*
X112904042Y-89490713D01*
X112904038Y-89490710D01*
X112772935Y-89403109D01*
X112772922Y-89403102D01*
X112627251Y-89342764D01*
X112627239Y-89342761D01*
X112472595Y-89312000D01*
X112472592Y-89312000D01*
X112314908Y-89312000D01*
X112314905Y-89312000D01*
X112160260Y-89342761D01*
X112160248Y-89342764D01*
X112014577Y-89403102D01*
X112014564Y-89403109D01*
X111883461Y-89490710D01*
X111883457Y-89490713D01*
X111771963Y-89602207D01*
X111771960Y-89602211D01*
X111684359Y-89733314D01*
X111684352Y-89733327D01*
X111624014Y-89878998D01*
X111624011Y-89879010D01*
X111593250Y-90033653D01*
X103216033Y-90033653D01*
X103325269Y-89924417D01*
X103442353Y-89763265D01*
X103532785Y-89585782D01*
X103563675Y-89490713D01*
X103594338Y-89396342D01*
X103594338Y-89396341D01*
X103594339Y-89396338D01*
X103625500Y-89199596D01*
X103625500Y-89000402D01*
X103603823Y-88863542D01*
X135799499Y-88863542D01*
X135837947Y-89056828D01*
X135837949Y-89056834D01*
X135880318Y-89159122D01*
X135887787Y-89228592D01*
X135865026Y-89280883D01*
X135856205Y-89292666D01*
X135856202Y-89292671D01*
X135805908Y-89427517D01*
X135799501Y-89487116D01*
X135799501Y-89487123D01*
X135799500Y-89487135D01*
X135799500Y-90582870D01*
X135799501Y-90582876D01*
X135805908Y-90642483D01*
X135856202Y-90777328D01*
X135856206Y-90777335D01*
X135942452Y-90892544D01*
X135942455Y-90892547D01*
X136057664Y-90978793D01*
X136057671Y-90978797D01*
X136192517Y-91029091D01*
X136192516Y-91029091D01*
X136199444Y-91029835D01*
X136252127Y-91035500D01*
X137347872Y-91035499D01*
X137407483Y-91029091D01*
X137542331Y-90978796D01*
X137657546Y-90892546D01*
X137743796Y-90777331D01*
X137794091Y-90642483D01*
X137800500Y-90582873D01*
X137800499Y-89487128D01*
X137794091Y-89427517D01*
X137794091Y-89427516D01*
X137743797Y-89292670D01*
X137734975Y-89280886D01*
X137710558Y-89215422D01*
X137719680Y-89159124D01*
X137762051Y-89056834D01*
X137800500Y-88863540D01*
X137800500Y-88666458D01*
X137800500Y-88666455D01*
X137762052Y-88473169D01*
X137762051Y-88473168D01*
X137762051Y-88473164D01*
X137746961Y-88436733D01*
X137686635Y-88291091D01*
X137686628Y-88291078D01*
X137577139Y-88127217D01*
X137577136Y-88127213D01*
X137437785Y-87987862D01*
X137437781Y-87987859D01*
X137273920Y-87878370D01*
X137273907Y-87878363D01*
X137091839Y-87802949D01*
X137091829Y-87802946D01*
X136898543Y-87764499D01*
X136898541Y-87764499D01*
X136701459Y-87764499D01*
X136701457Y-87764499D01*
X136508170Y-87802946D01*
X136508160Y-87802949D01*
X136326092Y-87878363D01*
X136326079Y-87878370D01*
X136162218Y-87987859D01*
X136162214Y-87987862D01*
X136022863Y-88127213D01*
X136022860Y-88127217D01*
X135913371Y-88291078D01*
X135913364Y-88291091D01*
X135837950Y-88473159D01*
X135837947Y-88473169D01*
X135799500Y-88666455D01*
X135799500Y-88666458D01*
X135799500Y-88863540D01*
X135799500Y-88863542D01*
X135799499Y-88863542D01*
X103603823Y-88863542D01*
X103594339Y-88803660D01*
X103594338Y-88803656D01*
X103594338Y-88803655D01*
X103560231Y-88698684D01*
X103532786Y-88614218D01*
X103460918Y-88473169D01*
X103442353Y-88436733D01*
X103325269Y-88275581D01*
X103184418Y-88134730D01*
X103023266Y-88017646D01*
X102964806Y-87987859D01*
X102871828Y-87940484D01*
X102821032Y-87892509D01*
X102804237Y-87824688D01*
X102826775Y-87758553D01*
X102871826Y-87719515D01*
X103023266Y-87642353D01*
X103184418Y-87525269D01*
X103188534Y-87521153D01*
X118199500Y-87521153D01*
X118199500Y-87678846D01*
X118230261Y-87833489D01*
X118230264Y-87833501D01*
X118290602Y-87979172D01*
X118290609Y-87979185D01*
X118378210Y-88110288D01*
X118378213Y-88110292D01*
X118489707Y-88221786D01*
X118489711Y-88221789D01*
X118620814Y-88309390D01*
X118620827Y-88309397D01*
X118766498Y-88369735D01*
X118766503Y-88369737D01*
X118921153Y-88400499D01*
X118921156Y-88400500D01*
X118921158Y-88400500D01*
X119078844Y-88400500D01*
X119078845Y-88400499D01*
X119233497Y-88369737D01*
X119379179Y-88309394D01*
X119510289Y-88221789D01*
X119621789Y-88110289D01*
X119709394Y-87979179D01*
X119769737Y-87833497D01*
X119800500Y-87678842D01*
X119800500Y-87521158D01*
X119800500Y-87521155D01*
X119800499Y-87521153D01*
X119773301Y-87384420D01*
X119769737Y-87366503D01*
X119710407Y-87223266D01*
X119709397Y-87220827D01*
X119709390Y-87220814D01*
X119621789Y-87089711D01*
X119621786Y-87089707D01*
X119510292Y-86978213D01*
X119510288Y-86978210D01*
X119379185Y-86890609D01*
X119379172Y-86890602D01*
X119233501Y-86830264D01*
X119233489Y-86830261D01*
X119078845Y-86799500D01*
X119078842Y-86799500D01*
X118921158Y-86799500D01*
X118921155Y-86799500D01*
X118766510Y-86830261D01*
X118766498Y-86830264D01*
X118620827Y-86890602D01*
X118620814Y-86890609D01*
X118489711Y-86978210D01*
X118489707Y-86978213D01*
X118378213Y-87089707D01*
X118378210Y-87089711D01*
X118290609Y-87220814D01*
X118290602Y-87220827D01*
X118230264Y-87366498D01*
X118230261Y-87366510D01*
X118199500Y-87521153D01*
X103188534Y-87521153D01*
X103325269Y-87384418D01*
X103442353Y-87223266D01*
X103532785Y-87045783D01*
X103554740Y-86978213D01*
X103594338Y-86856343D01*
X103594338Y-86856342D01*
X103594339Y-86856339D01*
X103625500Y-86659597D01*
X103625500Y-86460403D01*
X103594339Y-86263661D01*
X103594338Y-86263657D01*
X103594338Y-86263656D01*
X103532786Y-86074219D01*
X103442352Y-85896733D01*
X103325269Y-85735582D01*
X103184418Y-85594731D01*
X103023266Y-85477647D01*
X102871827Y-85400485D01*
X102821031Y-85352510D01*
X102804236Y-85284689D01*
X102826773Y-85218554D01*
X102871827Y-85179515D01*
X102881116Y-85174781D01*
X103023266Y-85102353D01*
X103184418Y-84985269D01*
X103325269Y-84844418D01*
X103442353Y-84683266D01*
X103463811Y-84641153D01*
X112849500Y-84641153D01*
X112849500Y-84798846D01*
X112880261Y-84953489D01*
X112880264Y-84953501D01*
X112940602Y-85099172D01*
X112940609Y-85099185D01*
X113028210Y-85230288D01*
X113028213Y-85230292D01*
X113139707Y-85341786D01*
X113139711Y-85341789D01*
X113270814Y-85429390D01*
X113270827Y-85429397D01*
X113387315Y-85477647D01*
X113416503Y-85489737D01*
X113571153Y-85520499D01*
X113571156Y-85520500D01*
X113571158Y-85520500D01*
X113728844Y-85520500D01*
X113728845Y-85520499D01*
X113883497Y-85489737D01*
X114029179Y-85429394D01*
X114160289Y-85341789D01*
X114271789Y-85230289D01*
X114359394Y-85099179D01*
X114419737Y-84953497D01*
X114450500Y-84798842D01*
X114450500Y-84641158D01*
X114450500Y-84641155D01*
X114450499Y-84641153D01*
X114419738Y-84486510D01*
X114419737Y-84486503D01*
X114419735Y-84486498D01*
X114359397Y-84340827D01*
X114359390Y-84340814D01*
X114271789Y-84209711D01*
X114271786Y-84209707D01*
X114160292Y-84098213D01*
X114160288Y-84098210D01*
X114029185Y-84010609D01*
X114029172Y-84010602D01*
X113883501Y-83950264D01*
X113883489Y-83950261D01*
X113728845Y-83919500D01*
X113728842Y-83919500D01*
X113571158Y-83919500D01*
X113571155Y-83919500D01*
X113416510Y-83950261D01*
X113416498Y-83950264D01*
X113270827Y-84010602D01*
X113270814Y-84010609D01*
X113139711Y-84098210D01*
X113139707Y-84098213D01*
X113028213Y-84209707D01*
X113028210Y-84209711D01*
X112940609Y-84340814D01*
X112940602Y-84340827D01*
X112880264Y-84486498D01*
X112880261Y-84486510D01*
X112849500Y-84641153D01*
X103463811Y-84641153D01*
X103532785Y-84505783D01*
X103539051Y-84486498D01*
X103594338Y-84316343D01*
X103594338Y-84316342D01*
X103594339Y-84316339D01*
X103625500Y-84119597D01*
X103625500Y-83920403D01*
X103594339Y-83723661D01*
X103594338Y-83723657D01*
X103594338Y-83723656D01*
X103532786Y-83534219D01*
X103442352Y-83356733D01*
X103325269Y-83195582D01*
X103184418Y-83054731D01*
X103023266Y-82937647D01*
X102871827Y-82860485D01*
X102821031Y-82812510D01*
X102804236Y-82744689D01*
X102826773Y-82678554D01*
X102871827Y-82639515D01*
X102881116Y-82634781D01*
X103023266Y-82562353D01*
X103184418Y-82445269D01*
X103325269Y-82304418D01*
X103442353Y-82143266D01*
X103532785Y-81965783D01*
X103551108Y-81909390D01*
X103594338Y-81776343D01*
X103594338Y-81776342D01*
X103594339Y-81776339D01*
X103625500Y-81579597D01*
X103625500Y-81380403D01*
X103594339Y-81183661D01*
X103594338Y-81183657D01*
X103594338Y-81183656D01*
X103532786Y-80994219D01*
X103444435Y-80820821D01*
X103442353Y-80816734D01*
X103325269Y-80655582D01*
X103190840Y-80521153D01*
X119399500Y-80521153D01*
X119399500Y-80678846D01*
X119430261Y-80833489D01*
X119430264Y-80833501D01*
X119490602Y-80979172D01*
X119490609Y-80979185D01*
X119578210Y-81110288D01*
X119578213Y-81110292D01*
X119689707Y-81221786D01*
X119689711Y-81221789D01*
X119820814Y-81309390D01*
X119820827Y-81309397D01*
X119966498Y-81369735D01*
X119966503Y-81369737D01*
X120070493Y-81390422D01*
X120121153Y-81400499D01*
X120121156Y-81400500D01*
X120121158Y-81400500D01*
X120278844Y-81400500D01*
X120278845Y-81400499D01*
X120433497Y-81369737D01*
X120579179Y-81309394D01*
X120710289Y-81221789D01*
X120821789Y-81110289D01*
X120909394Y-80979179D01*
X120969737Y-80833497D01*
X121000500Y-80678842D01*
X121000500Y-80521158D01*
X121000500Y-80521155D01*
X121000499Y-80521153D01*
X120994422Y-80490602D01*
X120969737Y-80366503D01*
X120956808Y-80335289D01*
X120909397Y-80220827D01*
X120909390Y-80220814D01*
X120821789Y-80089711D01*
X120821786Y-80089707D01*
X120710292Y-79978213D01*
X120710288Y-79978210D01*
X120579185Y-79890609D01*
X120579172Y-79890602D01*
X120433501Y-79830264D01*
X120433489Y-79830261D01*
X120278845Y-79799500D01*
X120278842Y-79799500D01*
X120121158Y-79799500D01*
X120121155Y-79799500D01*
X119966510Y-79830261D01*
X119966498Y-79830264D01*
X119820827Y-79890602D01*
X119820814Y-79890609D01*
X119689711Y-79978210D01*
X119689707Y-79978213D01*
X119578213Y-80089707D01*
X119578210Y-80089711D01*
X119490609Y-80220814D01*
X119490602Y-80220827D01*
X119430264Y-80366498D01*
X119430261Y-80366510D01*
X119399500Y-80521153D01*
X103190840Y-80521153D01*
X103184418Y-80514731D01*
X103023266Y-80397647D01*
X103023258Y-80397643D01*
X102871826Y-80320484D01*
X102821030Y-80272509D01*
X102804235Y-80204688D01*
X102826773Y-80138553D01*
X102871824Y-80099515D01*
X103023266Y-80022352D01*
X103184418Y-79905268D01*
X103325269Y-79764417D01*
X103442353Y-79603265D01*
X103532785Y-79425782D01*
X103547927Y-79379179D01*
X103594338Y-79236342D01*
X103594338Y-79236341D01*
X103594339Y-79236338D01*
X103625500Y-79039596D01*
X103625500Y-78921153D01*
X127999500Y-78921153D01*
X127999500Y-79078846D01*
X128030261Y-79233489D01*
X128030264Y-79233501D01*
X128090602Y-79379172D01*
X128090609Y-79379185D01*
X128178210Y-79510288D01*
X128178213Y-79510292D01*
X128289707Y-79621786D01*
X128289711Y-79621789D01*
X128420814Y-79709390D01*
X128420827Y-79709397D01*
X128563620Y-79768543D01*
X128566503Y-79769737D01*
X128716131Y-79799500D01*
X128721153Y-79800499D01*
X128721156Y-79800500D01*
X128721158Y-79800500D01*
X128878844Y-79800500D01*
X128878845Y-79800499D01*
X129033497Y-79769737D01*
X129090434Y-79746153D01*
X130693249Y-79746153D01*
X130693249Y-79903846D01*
X130724010Y-80058489D01*
X130724013Y-80058501D01*
X130784351Y-80204172D01*
X130784358Y-80204185D01*
X130871959Y-80335288D01*
X130871962Y-80335292D01*
X130983456Y-80446786D01*
X130983460Y-80446789D01*
X131114563Y-80534390D01*
X131114576Y-80534397D01*
X131220352Y-80578210D01*
X131260252Y-80594737D01*
X131343932Y-80611382D01*
X131414902Y-80625499D01*
X131414905Y-80625500D01*
X131414907Y-80625500D01*
X131572592Y-80625500D01*
X131643566Y-80611382D01*
X131674871Y-80605155D01*
X131744461Y-80611382D01*
X131799639Y-80654244D01*
X131822884Y-80720134D01*
X131806817Y-80788131D01*
X131802165Y-80795662D01*
X131785357Y-80820816D01*
X131785351Y-80820827D01*
X131725013Y-80966498D01*
X131725010Y-80966510D01*
X131694249Y-81121153D01*
X131694249Y-81278846D01*
X131725010Y-81433489D01*
X131725013Y-81433501D01*
X131785351Y-81579172D01*
X131785358Y-81579185D01*
X131872959Y-81710288D01*
X131872962Y-81710292D01*
X131984456Y-81821786D01*
X131984460Y-81821789D01*
X132115563Y-81909390D01*
X132115576Y-81909397D01*
X132251699Y-81965780D01*
X132261252Y-81969737D01*
X132415902Y-82000499D01*
X132415905Y-82000500D01*
X132415907Y-82000500D01*
X132573593Y-82000500D01*
X132573594Y-82000499D01*
X132728246Y-81969737D01*
X132873928Y-81909394D01*
X133005038Y-81821789D01*
X133116538Y-81710289D01*
X133204143Y-81579179D01*
X133264486Y-81433497D01*
X133295249Y-81278842D01*
X133295249Y-81121158D01*
X133295249Y-81121155D01*
X133295248Y-81121153D01*
X133293087Y-81110288D01*
X133264486Y-80966503D01*
X133264484Y-80966498D01*
X133204146Y-80820827D01*
X133204139Y-80820814D01*
X133116538Y-80689711D01*
X133116535Y-80689707D01*
X133005041Y-80578213D01*
X133005037Y-80578210D01*
X132873934Y-80490609D01*
X132873921Y-80490602D01*
X132728250Y-80430264D01*
X132728238Y-80430261D01*
X132573594Y-80399500D01*
X132573591Y-80399500D01*
X132415907Y-80399500D01*
X132415902Y-80399500D01*
X132313626Y-80419844D01*
X132244034Y-80413617D01*
X132188857Y-80370754D01*
X132165613Y-80304864D01*
X132181681Y-80236867D01*
X132186327Y-80229345D01*
X132203143Y-80204179D01*
X132263486Y-80058497D01*
X132294249Y-79903842D01*
X132294249Y-79746158D01*
X132294249Y-79746155D01*
X132294248Y-79746153D01*
X132269510Y-79621789D01*
X132263486Y-79591503D01*
X132229848Y-79510292D01*
X132203146Y-79445827D01*
X132203139Y-79445814D01*
X132115538Y-79314711D01*
X132115535Y-79314707D01*
X132004041Y-79203213D01*
X132004037Y-79203210D01*
X131872934Y-79115609D01*
X131872921Y-79115602D01*
X131727250Y-79055264D01*
X131727238Y-79055261D01*
X131572594Y-79024500D01*
X131572591Y-79024500D01*
X131414907Y-79024500D01*
X131414904Y-79024500D01*
X131260259Y-79055261D01*
X131260247Y-79055264D01*
X131114576Y-79115602D01*
X131114563Y-79115609D01*
X130983460Y-79203210D01*
X130983456Y-79203213D01*
X130871962Y-79314707D01*
X130871959Y-79314711D01*
X130784358Y-79445814D01*
X130784351Y-79445827D01*
X130724013Y-79591498D01*
X130724010Y-79591510D01*
X130693249Y-79746153D01*
X129090434Y-79746153D01*
X129179179Y-79709394D01*
X129310289Y-79621789D01*
X129421789Y-79510289D01*
X129509394Y-79379179D01*
X129569737Y-79233497D01*
X129600500Y-79078842D01*
X129600500Y-78921158D01*
X129600500Y-78921155D01*
X129600499Y-78921153D01*
X129591055Y-78873676D01*
X129569737Y-78766503D01*
X129553022Y-78726148D01*
X129509397Y-78620827D01*
X129509390Y-78620814D01*
X129421789Y-78489711D01*
X129421786Y-78489707D01*
X129310292Y-78378213D01*
X129310288Y-78378210D01*
X129179185Y-78290609D01*
X129179172Y-78290602D01*
X129033501Y-78230264D01*
X129033489Y-78230261D01*
X128878845Y-78199500D01*
X128878842Y-78199500D01*
X128721158Y-78199500D01*
X128721155Y-78199500D01*
X128566510Y-78230261D01*
X128566498Y-78230264D01*
X128420827Y-78290602D01*
X128420814Y-78290609D01*
X128289711Y-78378210D01*
X128289707Y-78378213D01*
X128178213Y-78489707D01*
X128178210Y-78489711D01*
X128090609Y-78620814D01*
X128090602Y-78620827D01*
X128030264Y-78766498D01*
X128030261Y-78766510D01*
X127999500Y-78921153D01*
X103625500Y-78921153D01*
X103625500Y-78840402D01*
X103594339Y-78643660D01*
X103594338Y-78643656D01*
X103594338Y-78643655D01*
X103532786Y-78454218D01*
X103528638Y-78446078D01*
X103442353Y-78276733D01*
X103325269Y-78115581D01*
X103184418Y-77974730D01*
X103023266Y-77857646D01*
X103023258Y-77857642D01*
X102871828Y-77780484D01*
X102821032Y-77732509D01*
X102804237Y-77664688D01*
X102826775Y-77598553D01*
X102871826Y-77559515D01*
X103023266Y-77482353D01*
X103184418Y-77365269D01*
X103325269Y-77224418D01*
X103442353Y-77063266D01*
X103532785Y-76885783D01*
X103594339Y-76696339D01*
X103625500Y-76499597D01*
X103625500Y-76300403D01*
X103594339Y-76103661D01*
X103594338Y-76103657D01*
X103594338Y-76103656D01*
X103532786Y-75914219D01*
X103442352Y-75736733D01*
X103325269Y-75575582D01*
X103184418Y-75434731D01*
X103023266Y-75317647D01*
X102871827Y-75240485D01*
X102821031Y-75192510D01*
X102804236Y-75124689D01*
X102826773Y-75058554D01*
X102871827Y-75019515D01*
X102881116Y-75014781D01*
X103023266Y-74942353D01*
X103184418Y-74825269D01*
X103325269Y-74684418D01*
X103442353Y-74523266D01*
X103532785Y-74345783D01*
X103548912Y-74296148D01*
X103594338Y-74156343D01*
X103594338Y-74156342D01*
X103594339Y-74156339D01*
X103625500Y-73959597D01*
X103625500Y-73760403D01*
X103594339Y-73563661D01*
X103594338Y-73563657D01*
X103594338Y-73563656D01*
X103532786Y-73374219D01*
X103479828Y-73270283D01*
X103442353Y-73196734D01*
X103325269Y-73035582D01*
X103184418Y-72894731D01*
X103023266Y-72777647D01*
X102871827Y-72700485D01*
X102821031Y-72652510D01*
X102804236Y-72584689D01*
X102826773Y-72518554D01*
X102871827Y-72479515D01*
X102881116Y-72474781D01*
X103023266Y-72402353D01*
X103184418Y-72285269D01*
X103325269Y-72144418D01*
X103396664Y-72046152D01*
X109224499Y-72046152D01*
X109224499Y-72203845D01*
X109255260Y-72358488D01*
X109255263Y-72358500D01*
X109315601Y-72504171D01*
X109315608Y-72504184D01*
X109403209Y-72635287D01*
X109403212Y-72635291D01*
X109514706Y-72746785D01*
X109514710Y-72746788D01*
X109645813Y-72834389D01*
X109645826Y-72834396D01*
X109791490Y-72894731D01*
X109791502Y-72894736D01*
X109946152Y-72925498D01*
X109946155Y-72925499D01*
X109946157Y-72925499D01*
X110103843Y-72925499D01*
X110103844Y-72925498D01*
X110258496Y-72894736D01*
X110404178Y-72834393D01*
X110535288Y-72746788D01*
X110646788Y-72635288D01*
X110734393Y-72504178D01*
X110794736Y-72358496D01*
X110825499Y-72203841D01*
X110825499Y-72046157D01*
X110825499Y-72046154D01*
X110825498Y-72046152D01*
X115399500Y-72046152D01*
X115399500Y-72203845D01*
X115430261Y-72358488D01*
X115430264Y-72358500D01*
X115490602Y-72504171D01*
X115490609Y-72504184D01*
X115578210Y-72635287D01*
X115578213Y-72635291D01*
X115689707Y-72746785D01*
X115689711Y-72746788D01*
X115820814Y-72834389D01*
X115820827Y-72834396D01*
X115966491Y-72894731D01*
X115966503Y-72894736D01*
X116121153Y-72925498D01*
X116121156Y-72925499D01*
X116121158Y-72925499D01*
X116278844Y-72925499D01*
X116278845Y-72925498D01*
X116433497Y-72894736D01*
X116579179Y-72834393D01*
X116710289Y-72746788D01*
X116821789Y-72635288D01*
X116909394Y-72504178D01*
X116969737Y-72358496D01*
X117000500Y-72203841D01*
X117000500Y-72046157D01*
X117000500Y-72046154D01*
X117000499Y-72046152D01*
X116969737Y-71891502D01*
X116969735Y-71891497D01*
X116909397Y-71745826D01*
X116909390Y-71745813D01*
X116821789Y-71614710D01*
X116821786Y-71614706D01*
X116710292Y-71503212D01*
X116710288Y-71503209D01*
X116579185Y-71415608D01*
X116579172Y-71415601D01*
X116433501Y-71355263D01*
X116433489Y-71355260D01*
X116278845Y-71324499D01*
X116278842Y-71324499D01*
X116121158Y-71324499D01*
X116121155Y-71324499D01*
X115966510Y-71355260D01*
X115966498Y-71355263D01*
X115820827Y-71415601D01*
X115820814Y-71415608D01*
X115689711Y-71503209D01*
X115689707Y-71503212D01*
X115578213Y-71614706D01*
X115578210Y-71614710D01*
X115490609Y-71745813D01*
X115490602Y-71745826D01*
X115430264Y-71891497D01*
X115430261Y-71891509D01*
X115399500Y-72046152D01*
X110825498Y-72046152D01*
X110794736Y-71891502D01*
X110794734Y-71891497D01*
X110734396Y-71745826D01*
X110734389Y-71745813D01*
X110646788Y-71614710D01*
X110646785Y-71614706D01*
X110535291Y-71503212D01*
X110535287Y-71503209D01*
X110404184Y-71415608D01*
X110404171Y-71415601D01*
X110258500Y-71355263D01*
X110258488Y-71355260D01*
X110103844Y-71324499D01*
X110103841Y-71324499D01*
X109946157Y-71324499D01*
X109946154Y-71324499D01*
X109791509Y-71355260D01*
X109791497Y-71355263D01*
X109645826Y-71415601D01*
X109645813Y-71415608D01*
X109514710Y-71503209D01*
X109514706Y-71503212D01*
X109403212Y-71614706D01*
X109403209Y-71614710D01*
X109315608Y-71745813D01*
X109315601Y-71745826D01*
X109255263Y-71891497D01*
X109255260Y-71891509D01*
X109224499Y-72046152D01*
X103396664Y-72046152D01*
X103442353Y-71983266D01*
X103532785Y-71805783D01*
X103552268Y-71745820D01*
X103594338Y-71616343D01*
X103594338Y-71616342D01*
X103594339Y-71616339D01*
X103625500Y-71419597D01*
X103625500Y-71220403D01*
X103594339Y-71023661D01*
X103594338Y-71023657D01*
X103594338Y-71023656D01*
X103532786Y-70834219D01*
X103498781Y-70767481D01*
X103442353Y-70656734D01*
X103325269Y-70495582D01*
X103184418Y-70354731D01*
X103023266Y-70237647D01*
X103023258Y-70237643D01*
X102871828Y-70160485D01*
X102821032Y-70112510D01*
X102804237Y-70044689D01*
X102826775Y-69978554D01*
X102871826Y-69939516D01*
X103023266Y-69862354D01*
X103184418Y-69745270D01*
X103325269Y-69604419D01*
X103442353Y-69443267D01*
X103532785Y-69265784D01*
X103548894Y-69216206D01*
X103579779Y-69121153D01*
X119599500Y-69121153D01*
X119599500Y-69278846D01*
X119630261Y-69433489D01*
X119630264Y-69433501D01*
X119690602Y-69579172D01*
X119690609Y-69579185D01*
X119778210Y-69710288D01*
X119778213Y-69710292D01*
X119889707Y-69821786D01*
X119889711Y-69821789D01*
X120020814Y-69909390D01*
X120020827Y-69909397D01*
X120125579Y-69952786D01*
X120166503Y-69969737D01*
X120321153Y-70000499D01*
X120321156Y-70000500D01*
X120321158Y-70000500D01*
X120478844Y-70000500D01*
X120478845Y-70000499D01*
X120633497Y-69969737D01*
X120779179Y-69909394D01*
X120910289Y-69821789D01*
X121021789Y-69710289D01*
X121109394Y-69579179D01*
X121169737Y-69433497D01*
X121200500Y-69278842D01*
X121200500Y-69121158D01*
X121200500Y-69121155D01*
X121200499Y-69121153D01*
X121180734Y-69021789D01*
X121169737Y-68966503D01*
X121133740Y-68879597D01*
X121109397Y-68820827D01*
X121109390Y-68820814D01*
X121021789Y-68689711D01*
X121021786Y-68689707D01*
X120910292Y-68578213D01*
X120910288Y-68578210D01*
X120779185Y-68490609D01*
X120779172Y-68490602D01*
X120633501Y-68430264D01*
X120633489Y-68430261D01*
X120478845Y-68399500D01*
X120478842Y-68399500D01*
X120321158Y-68399500D01*
X120321155Y-68399500D01*
X120166510Y-68430261D01*
X120166498Y-68430264D01*
X120020827Y-68490602D01*
X120020814Y-68490609D01*
X119889711Y-68578210D01*
X119889707Y-68578213D01*
X119778213Y-68689707D01*
X119778210Y-68689711D01*
X119690609Y-68820814D01*
X119690602Y-68820827D01*
X119630264Y-68966498D01*
X119630261Y-68966510D01*
X119599500Y-69121153D01*
X103579779Y-69121153D01*
X103594207Y-69076748D01*
X103594208Y-69076746D01*
X103594337Y-69076347D01*
X103594337Y-69076345D01*
X103594339Y-69076340D01*
X103625500Y-68879598D01*
X103625500Y-68680404D01*
X103594339Y-68483662D01*
X103594338Y-68483658D01*
X103594338Y-68483657D01*
X103541537Y-68321153D01*
X122399500Y-68321153D01*
X122399500Y-68478846D01*
X122430261Y-68633489D01*
X122430264Y-68633501D01*
X122490602Y-68779172D01*
X122490609Y-68779185D01*
X122578210Y-68910288D01*
X122578213Y-68910292D01*
X122689707Y-69021786D01*
X122689711Y-69021789D01*
X122820814Y-69109390D01*
X122820827Y-69109397D01*
X122941791Y-69159501D01*
X122966503Y-69169737D01*
X123121153Y-69200499D01*
X123121156Y-69200500D01*
X123121158Y-69200500D01*
X123278844Y-69200500D01*
X123278845Y-69200499D01*
X123433497Y-69169737D01*
X123579179Y-69109394D01*
X123710289Y-69021789D01*
X123821789Y-68910289D01*
X123909394Y-68779179D01*
X123969737Y-68633497D01*
X124000500Y-68478842D01*
X124000500Y-68321158D01*
X124000500Y-68321155D01*
X124000499Y-68321153D01*
X123969738Y-68166510D01*
X123969737Y-68166503D01*
X123949122Y-68116734D01*
X123909397Y-68020827D01*
X123909390Y-68020814D01*
X123821789Y-67889711D01*
X123821786Y-67889707D01*
X123710292Y-67778213D01*
X123710288Y-67778210D01*
X123579185Y-67690609D01*
X123579172Y-67690602D01*
X123433501Y-67630264D01*
X123433489Y-67630261D01*
X123278845Y-67599500D01*
X123278842Y-67599500D01*
X123121158Y-67599500D01*
X123121155Y-67599500D01*
X122966510Y-67630261D01*
X122966498Y-67630264D01*
X122820827Y-67690602D01*
X122820814Y-67690609D01*
X122689711Y-67778210D01*
X122689707Y-67778213D01*
X122578213Y-67889707D01*
X122578210Y-67889711D01*
X122490609Y-68020814D01*
X122490602Y-68020827D01*
X122430264Y-68166498D01*
X122430261Y-68166510D01*
X122399500Y-68321153D01*
X103541537Y-68321153D01*
X103532786Y-68294220D01*
X103532785Y-68294218D01*
X103442353Y-68116735D01*
X103325269Y-67955583D01*
X103184418Y-67814732D01*
X103023266Y-67697648D01*
X102871825Y-67620485D01*
X102821029Y-67572510D01*
X102804234Y-67504689D01*
X102826771Y-67438554D01*
X102871825Y-67399515D01*
X102878526Y-67396100D01*
X103023266Y-67322352D01*
X103184418Y-67205268D01*
X103325269Y-67064417D01*
X103442353Y-66903265D01*
X103532785Y-66725782D01*
X103594339Y-66536338D01*
X103625500Y-66339596D01*
X103625500Y-66140402D01*
X103594339Y-65943660D01*
X103594338Y-65943656D01*
X103594338Y-65943655D01*
X103532786Y-65754218D01*
X103442352Y-65576732D01*
X103325269Y-65415581D01*
X103184418Y-65274730D01*
X103023266Y-65157646D01*
X103023258Y-65157642D01*
X102871828Y-65080484D01*
X102821032Y-65032509D01*
X102804237Y-64964688D01*
X102826775Y-64898553D01*
X102871826Y-64859515D01*
X103023266Y-64782353D01*
X103184418Y-64665269D01*
X103325269Y-64524418D01*
X103442353Y-64363266D01*
X103532785Y-64185783D01*
X103594339Y-63996339D01*
X103625500Y-63799597D01*
X103625500Y-63600403D01*
X103594339Y-63403661D01*
X103594338Y-63403657D01*
X103594338Y-63403656D01*
X103532786Y-63214219D01*
X103442352Y-63036733D01*
X103428731Y-63017985D01*
X103325269Y-62875582D01*
X103184418Y-62734731D01*
X103023266Y-62617647D01*
X102871827Y-62540485D01*
X102821031Y-62492510D01*
X102804236Y-62424689D01*
X102826773Y-62358554D01*
X102871827Y-62319515D01*
X102881116Y-62314781D01*
X103023266Y-62242353D01*
X103184418Y-62125269D01*
X103325269Y-61984418D01*
X103442353Y-61823266D01*
X103532785Y-61645783D01*
X103572155Y-61524614D01*
X103594338Y-61456343D01*
X103594338Y-61456342D01*
X103594339Y-61456339D01*
X103625500Y-61259597D01*
X103625500Y-61060403D01*
X103594339Y-60863661D01*
X103594338Y-60863657D01*
X103594338Y-60863656D01*
X103532786Y-60674219D01*
X103494715Y-60599500D01*
X103442353Y-60496734D01*
X103325269Y-60335582D01*
X103184418Y-60194731D01*
X103023266Y-60077647D01*
X102871856Y-60000500D01*
X102871827Y-60000485D01*
X102821031Y-59952510D01*
X102804236Y-59884689D01*
X102826773Y-59818554D01*
X102871827Y-59779515D01*
X102882386Y-59774135D01*
X103023266Y-59702353D01*
X103184418Y-59585269D01*
X103325269Y-59444418D01*
X103442353Y-59283266D01*
X103532785Y-59105783D01*
X103594339Y-58916339D01*
X103609415Y-58821153D01*
X112299500Y-58821153D01*
X112299500Y-58978846D01*
X112330261Y-59133489D01*
X112330264Y-59133501D01*
X112390602Y-59279172D01*
X112390609Y-59279185D01*
X112478210Y-59410288D01*
X112478213Y-59410292D01*
X112589707Y-59521786D01*
X112589711Y-59521789D01*
X112720814Y-59609390D01*
X112720827Y-59609397D01*
X112837812Y-59657853D01*
X112866503Y-59669737D01*
X113019997Y-59700269D01*
X113021153Y-59700499D01*
X113021156Y-59700500D01*
X113021158Y-59700500D01*
X113178844Y-59700500D01*
X113178845Y-59700499D01*
X113333497Y-59669737D01*
X113479179Y-59609394D01*
X113610289Y-59521789D01*
X113721789Y-59410289D01*
X113809394Y-59279179D01*
X113869737Y-59133497D01*
X113900500Y-58978842D01*
X113900500Y-58875103D01*
X121536150Y-58875103D01*
X121536150Y-59032796D01*
X121566911Y-59187439D01*
X121566914Y-59187451D01*
X121627252Y-59333122D01*
X121627259Y-59333135D01*
X121714860Y-59464238D01*
X121714863Y-59464242D01*
X121826357Y-59575736D01*
X121826361Y-59575739D01*
X121957464Y-59663340D01*
X121957477Y-59663347D01*
X122103148Y-59723685D01*
X122103153Y-59723687D01*
X122257803Y-59754449D01*
X122257806Y-59754450D01*
X122265819Y-59754450D01*
X122332858Y-59774135D01*
X122378613Y-59826939D01*
X122388557Y-59896097D01*
X122359532Y-59959653D01*
X122343788Y-59973578D01*
X122344419Y-59974347D01*
X122339707Y-59978213D01*
X122228213Y-60089707D01*
X122228210Y-60089711D01*
X122140609Y-60220814D01*
X122140602Y-60220827D01*
X122080264Y-60366498D01*
X122080261Y-60366510D01*
X122049500Y-60521153D01*
X122049500Y-60678846D01*
X122080261Y-60833489D01*
X122080264Y-60833501D01*
X122140602Y-60979172D01*
X122140609Y-60979185D01*
X122228210Y-61110288D01*
X122228213Y-61110292D01*
X122339707Y-61221786D01*
X122339711Y-61221789D01*
X122470814Y-61309390D01*
X122470827Y-61309397D01*
X122616498Y-61369735D01*
X122616503Y-61369737D01*
X122769368Y-61400144D01*
X122771153Y-61400499D01*
X122771156Y-61400500D01*
X122771158Y-61400500D01*
X122928844Y-61400500D01*
X122928845Y-61400499D01*
X123083497Y-61369737D01*
X123200790Y-61321153D01*
X125754300Y-61321153D01*
X125754300Y-61478846D01*
X125785061Y-61633489D01*
X125785064Y-61633501D01*
X125845402Y-61779172D01*
X125845409Y-61779185D01*
X125933010Y-61910288D01*
X125933013Y-61910292D01*
X126044507Y-62021786D01*
X126044511Y-62021789D01*
X126175614Y-62109390D01*
X126175627Y-62109397D01*
X126227162Y-62130743D01*
X126321303Y-62169737D01*
X126475953Y-62200499D01*
X126475956Y-62200500D01*
X126475958Y-62200500D01*
X126633644Y-62200500D01*
X126633645Y-62200499D01*
X126788297Y-62169737D01*
X126933979Y-62109394D01*
X127065089Y-62021789D01*
X127176589Y-61910289D01*
X127264194Y-61779179D01*
X127324537Y-61633497D01*
X127340721Y-61552135D01*
X127749500Y-61552135D01*
X127749500Y-64247870D01*
X127749501Y-64247876D01*
X127755908Y-64307483D01*
X127806202Y-64442328D01*
X127806206Y-64442335D01*
X127892452Y-64557544D01*
X127892455Y-64557547D01*
X128007664Y-64643793D01*
X128007671Y-64643797D01*
X128142517Y-64694091D01*
X128142516Y-64694091D01*
X128149444Y-64694835D01*
X128202127Y-64700500D01*
X130897872Y-64700499D01*
X130957483Y-64694091D01*
X131092331Y-64643796D01*
X131207546Y-64557546D01*
X131293796Y-64442331D01*
X131344091Y-64307483D01*
X131350500Y-64247873D01*
X131350499Y-62782014D01*
X133750000Y-62782014D01*
X133750000Y-63017985D01*
X133780799Y-63251914D01*
X133841870Y-63479837D01*
X133932160Y-63697819D01*
X133932165Y-63697828D01*
X134050144Y-63902171D01*
X134050145Y-63902172D01*
X134112721Y-63983723D01*
X134834152Y-63262292D01*
X134841049Y-63278942D01*
X134928599Y-63409970D01*
X135040030Y-63521401D01*
X135171058Y-63608951D01*
X135187706Y-63615846D01*
X134466275Y-64337277D01*
X134547827Y-64399854D01*
X134547828Y-64399855D01*
X134752171Y-64517834D01*
X134752180Y-64517839D01*
X134970163Y-64608129D01*
X134970161Y-64608129D01*
X135198085Y-64669200D01*
X135432014Y-64699999D01*
X135432029Y-64700000D01*
X135667971Y-64700000D01*
X135667985Y-64699999D01*
X135901914Y-64669200D01*
X136129837Y-64608129D01*
X136347819Y-64517839D01*
X136347828Y-64517834D01*
X136552181Y-64399850D01*
X136633723Y-64337279D01*
X136633723Y-64337276D01*
X135912293Y-63615847D01*
X135928942Y-63608951D01*
X136059970Y-63521401D01*
X136171401Y-63409970D01*
X136258951Y-63278942D01*
X136265846Y-63262293D01*
X136987276Y-63983723D01*
X136987279Y-63983723D01*
X137049850Y-63902181D01*
X137167834Y-63697828D01*
X137167839Y-63697819D01*
X137258129Y-63479837D01*
X137319200Y-63251914D01*
X137349999Y-63017985D01*
X137350000Y-63017971D01*
X137350000Y-62782028D01*
X137349999Y-62782014D01*
X137319200Y-62548085D01*
X137258129Y-62320162D01*
X137167839Y-62102180D01*
X137167834Y-62102171D01*
X137049855Y-61897828D01*
X137049854Y-61897827D01*
X136987277Y-61816275D01*
X136265846Y-62537705D01*
X136258951Y-62521058D01*
X136171401Y-62390030D01*
X136059970Y-62278599D01*
X135928942Y-62191049D01*
X135912293Y-62184152D01*
X136633723Y-61462721D01*
X136552172Y-61400145D01*
X136552171Y-61400144D01*
X136347828Y-61282165D01*
X136347819Y-61282160D01*
X136129836Y-61191870D01*
X136129838Y-61191870D01*
X135901914Y-61130799D01*
X135667985Y-61100000D01*
X135432014Y-61100000D01*
X135198085Y-61130799D01*
X134970162Y-61191870D01*
X134752180Y-61282160D01*
X134752171Y-61282165D01*
X134547828Y-61400144D01*
X134547818Y-61400150D01*
X134466275Y-61462720D01*
X134466275Y-61462721D01*
X135187706Y-62184152D01*
X135171058Y-62191049D01*
X135040030Y-62278599D01*
X134928599Y-62390030D01*
X134841049Y-62521058D01*
X134834153Y-62537706D01*
X134112721Y-61816275D01*
X134112720Y-61816275D01*
X134050150Y-61897818D01*
X134050144Y-61897828D01*
X133932165Y-62102171D01*
X133932160Y-62102180D01*
X133841870Y-62320162D01*
X133780799Y-62548085D01*
X133750000Y-62782014D01*
X131350499Y-62782014D01*
X131350499Y-61552128D01*
X131349642Y-61544155D01*
X131347468Y-61523926D01*
X131346071Y-61510945D01*
X131344091Y-61492517D01*
X131308298Y-61396552D01*
X131293797Y-61357671D01*
X131293793Y-61357664D01*
X131207547Y-61242455D01*
X131207544Y-61242452D01*
X131092335Y-61156206D01*
X131092328Y-61156202D01*
X130957482Y-61105908D01*
X130957483Y-61105908D01*
X130897883Y-61099501D01*
X130897881Y-61099500D01*
X130897873Y-61099500D01*
X130897864Y-61099500D01*
X128202129Y-61099500D01*
X128202123Y-61099501D01*
X128142516Y-61105908D01*
X128007671Y-61156202D01*
X128007664Y-61156206D01*
X127892455Y-61242452D01*
X127892452Y-61242455D01*
X127806206Y-61357664D01*
X127806202Y-61357671D01*
X127755908Y-61492517D01*
X127749501Y-61552116D01*
X127749500Y-61552135D01*
X127340721Y-61552135D01*
X127346196Y-61524614D01*
X127346196Y-61524613D01*
X127355299Y-61478846D01*
X127355300Y-61478844D01*
X127355300Y-61321155D01*
X127355299Y-61321153D01*
X127339645Y-61242455D01*
X127324537Y-61166503D01*
X127301252Y-61110288D01*
X127264197Y-61020827D01*
X127264190Y-61020814D01*
X127176589Y-60889711D01*
X127176586Y-60889707D01*
X127065092Y-60778213D01*
X127065088Y-60778210D01*
X126933985Y-60690609D01*
X126933972Y-60690602D01*
X126788301Y-60630264D01*
X126788289Y-60630261D01*
X126633645Y-60599500D01*
X126633642Y-60599500D01*
X126475958Y-60599500D01*
X126475955Y-60599500D01*
X126321310Y-60630261D01*
X126321298Y-60630264D01*
X126175627Y-60690602D01*
X126175614Y-60690609D01*
X126044511Y-60778210D01*
X126044507Y-60778213D01*
X125933013Y-60889707D01*
X125933010Y-60889711D01*
X125845409Y-61020814D01*
X125845402Y-61020827D01*
X125785064Y-61166498D01*
X125785061Y-61166510D01*
X125754300Y-61321153D01*
X123200790Y-61321153D01*
X123229179Y-61309394D01*
X123360289Y-61221789D01*
X123471789Y-61110289D01*
X123559394Y-60979179D01*
X123619737Y-60833497D01*
X123650500Y-60678842D01*
X123650500Y-60521158D01*
X123650500Y-60521155D01*
X123650499Y-60521153D01*
X123645642Y-60496734D01*
X123619737Y-60366503D01*
X123606929Y-60335582D01*
X123559397Y-60220827D01*
X123559390Y-60220814D01*
X123471789Y-60089711D01*
X123471786Y-60089707D01*
X123360292Y-59978213D01*
X123360288Y-59978210D01*
X123229185Y-59890609D01*
X123229172Y-59890602D01*
X123083501Y-59830264D01*
X123083489Y-59830261D01*
X122928845Y-59799500D01*
X122928842Y-59799500D01*
X122920831Y-59799500D01*
X122853792Y-59779815D01*
X122808037Y-59727011D01*
X122798093Y-59657853D01*
X122827118Y-59594297D01*
X122842861Y-59580371D01*
X122842231Y-59579603D01*
X122846935Y-59575741D01*
X122846939Y-59575739D01*
X122958439Y-59464239D01*
X123046044Y-59333129D01*
X123106387Y-59187447D01*
X123137150Y-59032792D01*
X123137150Y-58875108D01*
X123137150Y-58875105D01*
X123137149Y-58875103D01*
X123106387Y-58720453D01*
X123106385Y-58720448D01*
X123046047Y-58574777D01*
X123046040Y-58574764D01*
X122958439Y-58443661D01*
X122958436Y-58443657D01*
X122846942Y-58332163D01*
X122846938Y-58332160D01*
X122715835Y-58244559D01*
X122715822Y-58244552D01*
X122590133Y-58192491D01*
X122570151Y-58184214D01*
X122570139Y-58184211D01*
X122415495Y-58153450D01*
X122415492Y-58153450D01*
X122257808Y-58153450D01*
X122257805Y-58153450D01*
X122103160Y-58184211D01*
X122103148Y-58184214D01*
X121957477Y-58244552D01*
X121957464Y-58244559D01*
X121826361Y-58332160D01*
X121826357Y-58332163D01*
X121714863Y-58443657D01*
X121714860Y-58443661D01*
X121627259Y-58574764D01*
X121627252Y-58574777D01*
X121566914Y-58720448D01*
X121566911Y-58720460D01*
X121536150Y-58875103D01*
X113900500Y-58875103D01*
X113900500Y-58821158D01*
X113900500Y-58821155D01*
X113900499Y-58821153D01*
X113880298Y-58719596D01*
X113869737Y-58666503D01*
X113831738Y-58574764D01*
X113809397Y-58520827D01*
X113809390Y-58520814D01*
X113721789Y-58389711D01*
X113721786Y-58389707D01*
X113610292Y-58278213D01*
X113610288Y-58278210D01*
X113479185Y-58190609D01*
X113479172Y-58190602D01*
X113333501Y-58130264D01*
X113333489Y-58130261D01*
X113178845Y-58099500D01*
X113178842Y-58099500D01*
X113021158Y-58099500D01*
X113021155Y-58099500D01*
X112866510Y-58130261D01*
X112866498Y-58130264D01*
X112720827Y-58190602D01*
X112720814Y-58190609D01*
X112589711Y-58278210D01*
X112589707Y-58278213D01*
X112478213Y-58389707D01*
X112478210Y-58389711D01*
X112390609Y-58520814D01*
X112390602Y-58520827D01*
X112330264Y-58666498D01*
X112330261Y-58666510D01*
X112299500Y-58821153D01*
X103609415Y-58821153D01*
X103625500Y-58719597D01*
X103625500Y-58520403D01*
X103594339Y-58323661D01*
X103594338Y-58323657D01*
X103594338Y-58323656D01*
X103532786Y-58134219D01*
X103511855Y-58093139D01*
X103442353Y-57956734D01*
X103325269Y-57795582D01*
X103184418Y-57654731D01*
X103023266Y-57537647D01*
X103023258Y-57537643D01*
X102871826Y-57460484D01*
X102864227Y-57453307D01*
X102854414Y-57449715D01*
X102839263Y-57429729D01*
X102821030Y-57412509D01*
X102818517Y-57402364D01*
X102812204Y-57394036D01*
X102810263Y-57369030D01*
X102804235Y-57344688D01*
X102807605Y-57334796D01*
X102806797Y-57324376D01*
X102818683Y-57302290D01*
X102826773Y-57278553D01*
X102835835Y-57270421D01*
X102839910Y-57262851D01*
X102863482Y-57245615D01*
X102864661Y-57244557D01*
X110772904Y-57244557D01*
X110772904Y-57402250D01*
X110803665Y-57556893D01*
X110803668Y-57556905D01*
X110864006Y-57702576D01*
X110864013Y-57702589D01*
X110951614Y-57833692D01*
X110951617Y-57833696D01*
X111063111Y-57945190D01*
X111063115Y-57945193D01*
X111194218Y-58032794D01*
X111194231Y-58032801D01*
X111312959Y-58081979D01*
X111339907Y-58093141D01*
X111494557Y-58123903D01*
X111494560Y-58123904D01*
X111494562Y-58123904D01*
X111652248Y-58123904D01*
X111652249Y-58123903D01*
X111806901Y-58093141D01*
X111833810Y-58081995D01*
X130749500Y-58081995D01*
X130749500Y-58318004D01*
X130749501Y-58318020D01*
X130780306Y-58552010D01*
X130841394Y-58779993D01*
X130931714Y-58998045D01*
X130931719Y-58998056D01*
X130993916Y-59105783D01*
X131049727Y-59202450D01*
X131049729Y-59202453D01*
X131049730Y-59202454D01*
X131193406Y-59389697D01*
X131193412Y-59389704D01*
X131360295Y-59556587D01*
X131360302Y-59556593D01*
X131409439Y-59594297D01*
X131547550Y-59700273D01*
X131675483Y-59774135D01*
X131751943Y-59818280D01*
X131751948Y-59818282D01*
X131751951Y-59818284D01*
X131970007Y-59908606D01*
X132197986Y-59969693D01*
X132431989Y-60000500D01*
X132431996Y-60000500D01*
X132668004Y-60000500D01*
X132668011Y-60000500D01*
X132902014Y-59969693D01*
X133129993Y-59908606D01*
X133348049Y-59818284D01*
X133552450Y-59700273D01*
X133739699Y-59556592D01*
X133906592Y-59389699D01*
X134050273Y-59202450D01*
X134168284Y-58998049D01*
X134258606Y-58779993D01*
X134319693Y-58552014D01*
X134350500Y-58318011D01*
X134350500Y-58081989D01*
X134319693Y-57847986D01*
X134258606Y-57620007D01*
X134168284Y-57401951D01*
X134168282Y-57401948D01*
X134168280Y-57401943D01*
X134123496Y-57324376D01*
X134050273Y-57197550D01*
X133906592Y-57010301D01*
X133906587Y-57010295D01*
X133739704Y-56843412D01*
X133739697Y-56843406D01*
X133552454Y-56699730D01*
X133552453Y-56699729D01*
X133552450Y-56699727D01*
X133470957Y-56652677D01*
X133348056Y-56581719D01*
X133348045Y-56581714D01*
X133129993Y-56491394D01*
X132902010Y-56430306D01*
X132668020Y-56399501D01*
X132668017Y-56399500D01*
X132668011Y-56399500D01*
X132431989Y-56399500D01*
X132431983Y-56399500D01*
X132431979Y-56399501D01*
X132197989Y-56430306D01*
X131970006Y-56491394D01*
X131751954Y-56581714D01*
X131751943Y-56581719D01*
X131547545Y-56699730D01*
X131360302Y-56843406D01*
X131360295Y-56843412D01*
X131193412Y-57010295D01*
X131193406Y-57010302D01*
X131049730Y-57197545D01*
X130931719Y-57401943D01*
X130931714Y-57401954D01*
X130841394Y-57620006D01*
X130780306Y-57847989D01*
X130749501Y-58081979D01*
X130749500Y-58081995D01*
X111833810Y-58081995D01*
X111952583Y-58032798D01*
X112083693Y-57945193D01*
X112195193Y-57833693D01*
X112282798Y-57702583D01*
X112343141Y-57556901D01*
X112373904Y-57402246D01*
X112373904Y-57244562D01*
X112373904Y-57244559D01*
X112373903Y-57244557D01*
X112343142Y-57089914D01*
X112343141Y-57089907D01*
X112310168Y-57010302D01*
X112282801Y-56944231D01*
X112282794Y-56944218D01*
X112195193Y-56813115D01*
X112195190Y-56813111D01*
X112083696Y-56701617D01*
X112083692Y-56701614D01*
X111952589Y-56614013D01*
X111952576Y-56614006D01*
X111806905Y-56553668D01*
X111806893Y-56553665D01*
X111652249Y-56522904D01*
X111652246Y-56522904D01*
X111494562Y-56522904D01*
X111494559Y-56522904D01*
X111339914Y-56553665D01*
X111339902Y-56553668D01*
X111194231Y-56614006D01*
X111194218Y-56614013D01*
X111063115Y-56701614D01*
X111063111Y-56701617D01*
X110951617Y-56813111D01*
X110951614Y-56813115D01*
X110864013Y-56944218D01*
X110864006Y-56944231D01*
X110803668Y-57089902D01*
X110803665Y-57089914D01*
X110772904Y-57244557D01*
X102864661Y-57244557D01*
X102868036Y-57241529D01*
X102869914Y-57240488D01*
X103023266Y-57162352D01*
X103184418Y-57045268D01*
X103325269Y-56904417D01*
X103442353Y-56743265D01*
X103532785Y-56565782D01*
X103563993Y-56469735D01*
X103594338Y-56376342D01*
X103594338Y-56376341D01*
X103594339Y-56376338D01*
X103625500Y-56179596D01*
X103625500Y-56083653D01*
X113262000Y-56083653D01*
X113262000Y-56241346D01*
X113292761Y-56395989D01*
X113292764Y-56396001D01*
X113353102Y-56541672D01*
X113353109Y-56541685D01*
X113440710Y-56672788D01*
X113440713Y-56672792D01*
X113552207Y-56784286D01*
X113552211Y-56784289D01*
X113683314Y-56871890D01*
X113683327Y-56871897D01*
X113828998Y-56932235D01*
X113829003Y-56932237D01*
X113983653Y-56962999D01*
X113983656Y-56963000D01*
X113983658Y-56963000D01*
X114141344Y-56963000D01*
X114141345Y-56962999D01*
X114295997Y-56932237D01*
X114441679Y-56871894D01*
X114572789Y-56784289D01*
X114684289Y-56672789D01*
X114771894Y-56541679D01*
X114832237Y-56395997D01*
X114863000Y-56241342D01*
X114863000Y-56083658D01*
X114863000Y-56083655D01*
X114862999Y-56083653D01*
X114842461Y-55980402D01*
X114832237Y-55929003D01*
X114832235Y-55928998D01*
X114771897Y-55783327D01*
X114771895Y-55783323D01*
X114771894Y-55783321D01*
X114684289Y-55652211D01*
X114684287Y-55652208D01*
X114653232Y-55621153D01*
X126599500Y-55621153D01*
X126599500Y-55778846D01*
X126630261Y-55933489D01*
X126630264Y-55933501D01*
X126690602Y-56079172D01*
X126690609Y-56079185D01*
X126778210Y-56210288D01*
X126778213Y-56210292D01*
X126889707Y-56321786D01*
X126889711Y-56321789D01*
X127020814Y-56409390D01*
X127020827Y-56409397D01*
X127166498Y-56469735D01*
X127166503Y-56469737D01*
X127321153Y-56500499D01*
X127321156Y-56500500D01*
X127321158Y-56500500D01*
X127478844Y-56500500D01*
X127478845Y-56500499D01*
X127633497Y-56469737D01*
X127779179Y-56409394D01*
X127910289Y-56321789D01*
X128021789Y-56210289D01*
X128109394Y-56079179D01*
X128169737Y-55933497D01*
X128200500Y-55778842D01*
X128200500Y-55621158D01*
X128200500Y-55621155D01*
X128200499Y-55621153D01*
X128169738Y-55466510D01*
X128169737Y-55466503D01*
X128149122Y-55416733D01*
X128109397Y-55320827D01*
X128109390Y-55320814D01*
X128021789Y-55189711D01*
X128021786Y-55189707D01*
X127910292Y-55078213D01*
X127910288Y-55078210D01*
X127779185Y-54990609D01*
X127779172Y-54990602D01*
X127633501Y-54930264D01*
X127633489Y-54930261D01*
X127478845Y-54899500D01*
X127478842Y-54899500D01*
X127321158Y-54899500D01*
X127321155Y-54899500D01*
X127166510Y-54930261D01*
X127166498Y-54930264D01*
X127020827Y-54990602D01*
X127020814Y-54990609D01*
X126889711Y-55078210D01*
X126889707Y-55078213D01*
X126778213Y-55189707D01*
X126778210Y-55189711D01*
X126690609Y-55320814D01*
X126690602Y-55320827D01*
X126630264Y-55466498D01*
X126630261Y-55466510D01*
X126599500Y-55621153D01*
X114653232Y-55621153D01*
X114572792Y-55540713D01*
X114572788Y-55540710D01*
X114441685Y-55453109D01*
X114441672Y-55453102D01*
X114296001Y-55392764D01*
X114295989Y-55392761D01*
X114141345Y-55362000D01*
X114141342Y-55362000D01*
X113983658Y-55362000D01*
X113983655Y-55362000D01*
X113829010Y-55392761D01*
X113828998Y-55392764D01*
X113683327Y-55453102D01*
X113683314Y-55453109D01*
X113552211Y-55540710D01*
X113552207Y-55540713D01*
X113440713Y-55652207D01*
X113440710Y-55652211D01*
X113353109Y-55783314D01*
X113353102Y-55783327D01*
X113292764Y-55928998D01*
X113292761Y-55929010D01*
X113262000Y-56083653D01*
X103625500Y-56083653D01*
X103625500Y-55980402D01*
X103594339Y-55783660D01*
X103594338Y-55783656D01*
X103594338Y-55783655D01*
X103532786Y-55594218D01*
X103505522Y-55540710D01*
X103442353Y-55416733D01*
X103325269Y-55255581D01*
X103184418Y-55114730D01*
X103023266Y-54997646D01*
X103009441Y-54990602D01*
X102871828Y-54920484D01*
X102821032Y-54872509D01*
X102804237Y-54804688D01*
X102826775Y-54738553D01*
X102871826Y-54699515D01*
X103023266Y-54622353D01*
X103184418Y-54505269D01*
X103325269Y-54364418D01*
X103442353Y-54203266D01*
X103532785Y-54025783D01*
X103594339Y-53836339D01*
X103625500Y-53639597D01*
X103625500Y-53440403D01*
X103605129Y-53311789D01*
X113690136Y-53311789D01*
X113690136Y-53469482D01*
X113720897Y-53624125D01*
X113720900Y-53624137D01*
X113781238Y-53769808D01*
X113781245Y-53769821D01*
X113868846Y-53900924D01*
X113868849Y-53900928D01*
X113980343Y-54012422D01*
X113980347Y-54012425D01*
X114111450Y-54100026D01*
X114111463Y-54100033D01*
X114257134Y-54160371D01*
X114257139Y-54160373D01*
X114411789Y-54191135D01*
X114411792Y-54191136D01*
X114411794Y-54191136D01*
X114569480Y-54191136D01*
X114569481Y-54191135D01*
X114724133Y-54160373D01*
X114836802Y-54113703D01*
X114869808Y-54100033D01*
X114869808Y-54100032D01*
X114869815Y-54100030D01*
X114869820Y-54100026D01*
X114869823Y-54100025D01*
X114944690Y-54050000D01*
X114956156Y-54042338D01*
X115022832Y-54021460D01*
X115072495Y-54030878D01*
X115166310Y-54069737D01*
X115318577Y-54100025D01*
X115320960Y-54100499D01*
X115320963Y-54100500D01*
X115320965Y-54100500D01*
X115478651Y-54100500D01*
X115478652Y-54100499D01*
X115633304Y-54069737D01*
X115764860Y-54015245D01*
X115778979Y-54009397D01*
X115778979Y-54009396D01*
X115778986Y-54009394D01*
X115910096Y-53921789D01*
X116021596Y-53810289D01*
X116109201Y-53679179D01*
X116125597Y-53639596D01*
X116128059Y-53633653D01*
X123562000Y-53633653D01*
X123562000Y-53791346D01*
X123592761Y-53945989D01*
X123592764Y-53946001D01*
X123653102Y-54091672D01*
X123653109Y-54091685D01*
X123740710Y-54222788D01*
X123740713Y-54222792D01*
X123852207Y-54334286D01*
X123852211Y-54334289D01*
X123983314Y-54421890D01*
X123983327Y-54421897D01*
X124128998Y-54482235D01*
X124129003Y-54482237D01*
X124244777Y-54505266D01*
X124283653Y-54512999D01*
X124283656Y-54513000D01*
X124283658Y-54513000D01*
X124441344Y-54513000D01*
X124441345Y-54512999D01*
X124595997Y-54482237D01*
X124741679Y-54421894D01*
X124872789Y-54334289D01*
X124984289Y-54222789D01*
X125071894Y-54091679D01*
X125132237Y-53945997D01*
X125163000Y-53791342D01*
X125163000Y-53633658D01*
X125163000Y-53633655D01*
X125162999Y-53633653D01*
X125143077Y-53533501D01*
X125132237Y-53479003D01*
X125116262Y-53440436D01*
X125071897Y-53333327D01*
X125071890Y-53333314D01*
X124984289Y-53202211D01*
X124984286Y-53202207D01*
X124872792Y-53090713D01*
X124872788Y-53090710D01*
X124741685Y-53003109D01*
X124741672Y-53003102D01*
X124596001Y-52942764D01*
X124595989Y-52942761D01*
X124441345Y-52912000D01*
X124441342Y-52912000D01*
X124283658Y-52912000D01*
X124283655Y-52912000D01*
X124129010Y-52942761D01*
X124128998Y-52942764D01*
X123983327Y-53003102D01*
X123983314Y-53003109D01*
X123852211Y-53090710D01*
X123852207Y-53090713D01*
X123740713Y-53202207D01*
X123740710Y-53202211D01*
X123653109Y-53333314D01*
X123653102Y-53333327D01*
X123592764Y-53478998D01*
X123592761Y-53479010D01*
X123562000Y-53633653D01*
X116128059Y-53633653D01*
X116150235Y-53580114D01*
X116169542Y-53533501D01*
X116169544Y-53533497D01*
X116200307Y-53378842D01*
X116200307Y-53221158D01*
X116200307Y-53221155D01*
X116200306Y-53221153D01*
X116182552Y-53131898D01*
X116169544Y-53066503D01*
X116146746Y-53011463D01*
X116109204Y-52920827D01*
X116109197Y-52920814D01*
X116021596Y-52789711D01*
X116021593Y-52789707D01*
X115910099Y-52678213D01*
X115910095Y-52678210D01*
X115778992Y-52590609D01*
X115778979Y-52590602D01*
X115633308Y-52530264D01*
X115633296Y-52530261D01*
X115478652Y-52499500D01*
X115478649Y-52499500D01*
X115320965Y-52499500D01*
X115320962Y-52499500D01*
X115166317Y-52530261D01*
X115166305Y-52530264D01*
X115020634Y-52590602D01*
X115020623Y-52590608D01*
X114934285Y-52648297D01*
X114867607Y-52669174D01*
X114817943Y-52659756D01*
X114811578Y-52657119D01*
X114724133Y-52620899D01*
X114724128Y-52620898D01*
X114724125Y-52620897D01*
X114569481Y-52590136D01*
X114569478Y-52590136D01*
X114411794Y-52590136D01*
X114411791Y-52590136D01*
X114257146Y-52620897D01*
X114257134Y-52620900D01*
X114111463Y-52681238D01*
X114111450Y-52681245D01*
X113980347Y-52768846D01*
X113980343Y-52768849D01*
X113868849Y-52880343D01*
X113868846Y-52880347D01*
X113781245Y-53011450D01*
X113781238Y-53011463D01*
X113720900Y-53157134D01*
X113720897Y-53157146D01*
X113690136Y-53311789D01*
X103605129Y-53311789D01*
X103594357Y-53243777D01*
X103594339Y-53243661D01*
X103594338Y-53243657D01*
X103594338Y-53243656D01*
X103532786Y-53054219D01*
X103506743Y-53003106D01*
X103442353Y-52876734D01*
X103325269Y-52715582D01*
X103184418Y-52574731D01*
X103023266Y-52457647D01*
X103023262Y-52457645D01*
X102871277Y-52380204D01*
X102820481Y-52332229D01*
X102803686Y-52264408D01*
X102826224Y-52198273D01*
X102871277Y-52159234D01*
X103023005Y-52081924D01*
X103060863Y-52054418D01*
X103060863Y-52054417D01*
X102497574Y-51491128D01*
X102556853Y-51475245D01*
X102673147Y-51408102D01*
X102768102Y-51313147D01*
X102835245Y-51196853D01*
X102851128Y-51137574D01*
X103414417Y-51700863D01*
X103414418Y-51700863D01*
X103441924Y-51663005D01*
X103532320Y-51485594D01*
X103593852Y-51296222D01*
X103605742Y-51221153D01*
X115399500Y-51221153D01*
X115399500Y-51378846D01*
X115430261Y-51533489D01*
X115430264Y-51533501D01*
X115490602Y-51679172D01*
X115490609Y-51679185D01*
X115578210Y-51810288D01*
X115578213Y-51810292D01*
X115689707Y-51921786D01*
X115689711Y-51921789D01*
X115820814Y-52009390D01*
X115820827Y-52009397D01*
X115929517Y-52054417D01*
X115966503Y-52069737D01*
X116121153Y-52100499D01*
X116121156Y-52100500D01*
X116121158Y-52100500D01*
X116278844Y-52100500D01*
X116278845Y-52100499D01*
X116433497Y-52069737D01*
X116579179Y-52009394D01*
X116710289Y-51921789D01*
X116821789Y-51810289D01*
X116909394Y-51679179D01*
X116969737Y-51533497D01*
X117000500Y-51378842D01*
X117000500Y-51221158D01*
X117000500Y-51221155D01*
X117000499Y-51221153D01*
X116980543Y-51120827D01*
X116969737Y-51066503D01*
X116942191Y-51000000D01*
X116909397Y-50920827D01*
X116909390Y-50920814D01*
X116821789Y-50789711D01*
X116821786Y-50789707D01*
X116710292Y-50678213D01*
X116710288Y-50678210D01*
X116579185Y-50590609D01*
X116579172Y-50590602D01*
X116433501Y-50530264D01*
X116433489Y-50530261D01*
X116278845Y-50499500D01*
X116278842Y-50499500D01*
X116121158Y-50499500D01*
X116121155Y-50499500D01*
X115966510Y-50530261D01*
X115966498Y-50530264D01*
X115820827Y-50590602D01*
X115820814Y-50590609D01*
X115689711Y-50678210D01*
X115689707Y-50678213D01*
X115578213Y-50789707D01*
X115578210Y-50789711D01*
X115490609Y-50920814D01*
X115490602Y-50920827D01*
X115430264Y-51066498D01*
X115430261Y-51066510D01*
X115399500Y-51221153D01*
X103605742Y-51221153D01*
X103609778Y-51195669D01*
X103609778Y-51195668D01*
X103625000Y-51099563D01*
X103625000Y-50900436D01*
X103593852Y-50703777D01*
X103532320Y-50514405D01*
X103441924Y-50336994D01*
X103414417Y-50299135D01*
X103414417Y-50299134D01*
X102851128Y-50862424D01*
X102835245Y-50803147D01*
X102768102Y-50686853D01*
X102673147Y-50591898D01*
X102556853Y-50524755D01*
X102497574Y-50508871D01*
X103060864Y-49945580D01*
X103027792Y-49921553D01*
X119199500Y-49921553D01*
X119199500Y-50079246D01*
X119230261Y-50233889D01*
X119230264Y-50233901D01*
X119290602Y-50379572D01*
X119290609Y-50379585D01*
X119378210Y-50510688D01*
X119378213Y-50510692D01*
X119489707Y-50622186D01*
X119489711Y-50622189D01*
X119620814Y-50709790D01*
X119620827Y-50709797D01*
X119766498Y-50770135D01*
X119766503Y-50770137D01*
X119921153Y-50800899D01*
X119921156Y-50800900D01*
X119921158Y-50800900D01*
X120078844Y-50800900D01*
X120078845Y-50800899D01*
X120233497Y-50770137D01*
X120379179Y-50709794D01*
X120431110Y-50675094D01*
X120497785Y-50654216D01*
X120565165Y-50672700D01*
X120568863Y-50675076D01*
X120620821Y-50709794D01*
X120620823Y-50709795D01*
X120620825Y-50709796D01*
X120766498Y-50770135D01*
X120766503Y-50770137D01*
X120766507Y-50770137D01*
X120766508Y-50770138D01*
X120815291Y-50779842D01*
X120877202Y-50812227D01*
X120911776Y-50872943D01*
X120908036Y-50942712D01*
X120881624Y-50984630D01*
X120882076Y-50985001D01*
X120879127Y-50988594D01*
X120878789Y-50989131D01*
X120878217Y-50989702D01*
X120878210Y-50989711D01*
X120790609Y-51120814D01*
X120790602Y-51120827D01*
X120730264Y-51266498D01*
X120730261Y-51266510D01*
X120699500Y-51421153D01*
X120699500Y-51578846D01*
X120730261Y-51733489D01*
X120730264Y-51733501D01*
X120790602Y-51879172D01*
X120790609Y-51879185D01*
X120878210Y-52010288D01*
X120878213Y-52010292D01*
X120989707Y-52121786D01*
X120989711Y-52121789D01*
X121120814Y-52209390D01*
X121120827Y-52209397D01*
X121254316Y-52264689D01*
X121266503Y-52269737D01*
X121421153Y-52300499D01*
X121421156Y-52300500D01*
X121421158Y-52300500D01*
X121578844Y-52300500D01*
X121578845Y-52300499D01*
X121733497Y-52269737D01*
X121879179Y-52209394D01*
X122010289Y-52121789D01*
X122121789Y-52010289D01*
X122209394Y-51879179D01*
X122269737Y-51733497D01*
X122300500Y-51578842D01*
X122300500Y-51421158D01*
X122300500Y-51421155D01*
X122300499Y-51421153D01*
X122297903Y-51408102D01*
X122269737Y-51266503D01*
X122264060Y-51252797D01*
X122209397Y-51120827D01*
X122209390Y-51120814D01*
X122121789Y-50989711D01*
X122121786Y-50989707D01*
X122121219Y-50989140D01*
X122121016Y-50988769D01*
X122117924Y-50985001D01*
X122118638Y-50984414D01*
X122087734Y-50927817D01*
X122092718Y-50858125D01*
X122134590Y-50802192D01*
X122184709Y-50779842D01*
X122204329Y-50775938D01*
X122233497Y-50770137D01*
X122379179Y-50709794D01*
X122510289Y-50622189D01*
X122621789Y-50510689D01*
X122709394Y-50379579D01*
X122769737Y-50233897D01*
X122800500Y-50079242D01*
X122800500Y-49921558D01*
X122800500Y-49921555D01*
X122800499Y-49921553D01*
X122786266Y-49849998D01*
X122769737Y-49766903D01*
X122769424Y-49766147D01*
X122709397Y-49621227D01*
X122709390Y-49621214D01*
X122621789Y-49490111D01*
X122621786Y-49490107D01*
X122510292Y-49378613D01*
X122510288Y-49378610D01*
X122379185Y-49291009D01*
X122379172Y-49291002D01*
X122233501Y-49230664D01*
X122233489Y-49230661D01*
X122078845Y-49199900D01*
X122078842Y-49199900D01*
X121921158Y-49199900D01*
X121921155Y-49199900D01*
X121766510Y-49230661D01*
X121766498Y-49230664D01*
X121620827Y-49291002D01*
X121620814Y-49291009D01*
X121568891Y-49325704D01*
X121502214Y-49346582D01*
X121434833Y-49328098D01*
X121431109Y-49325704D01*
X121379185Y-49291009D01*
X121379172Y-49291002D01*
X121233501Y-49230664D01*
X121233489Y-49230661D01*
X121078845Y-49199900D01*
X121078842Y-49199900D01*
X120921158Y-49199900D01*
X120921155Y-49199900D01*
X120766510Y-49230661D01*
X120766498Y-49230664D01*
X120620827Y-49291002D01*
X120620814Y-49291009D01*
X120568891Y-49325704D01*
X120502214Y-49346582D01*
X120434833Y-49328098D01*
X120431109Y-49325704D01*
X120379185Y-49291009D01*
X120379172Y-49291002D01*
X120233501Y-49230664D01*
X120233489Y-49230661D01*
X120078845Y-49199900D01*
X120078842Y-49199900D01*
X119921158Y-49199900D01*
X119921155Y-49199900D01*
X119766510Y-49230661D01*
X119766498Y-49230664D01*
X119620827Y-49291002D01*
X119620814Y-49291009D01*
X119489711Y-49378610D01*
X119489707Y-49378613D01*
X119378213Y-49490107D01*
X119378210Y-49490111D01*
X119290609Y-49621214D01*
X119290602Y-49621227D01*
X119230264Y-49766898D01*
X119230261Y-49766910D01*
X119199500Y-49921553D01*
X103027792Y-49921553D01*
X103023008Y-49918077D01*
X102845594Y-49827679D01*
X102656222Y-49766147D01*
X102459563Y-49735000D01*
X102260437Y-49735000D01*
X102063777Y-49766147D01*
X101874405Y-49827679D01*
X101696990Y-49918077D01*
X101659135Y-49945580D01*
X101659135Y-49945581D01*
X102222425Y-50508871D01*
X102163147Y-50524755D01*
X102046853Y-50591898D01*
X101951898Y-50686853D01*
X101884755Y-50803147D01*
X101868871Y-50862425D01*
X101305581Y-50299135D01*
X101305580Y-50299135D01*
X101278077Y-50336990D01*
X101187679Y-50514405D01*
X101126147Y-50703777D01*
X101095000Y-50900436D01*
X101095000Y-51099563D01*
X101126147Y-51296222D01*
X101187679Y-51485594D01*
X101278077Y-51663008D01*
X101305580Y-51700863D01*
X101305581Y-51700864D01*
X101868871Y-51137574D01*
X101884755Y-51196853D01*
X101951898Y-51313147D01*
X102046853Y-51408102D01*
X102163147Y-51475245D01*
X102222425Y-51491128D01*
X101659134Y-52054417D01*
X101696994Y-52081924D01*
X101848722Y-52159234D01*
X101899518Y-52207209D01*
X101916313Y-52275030D01*
X101893776Y-52341165D01*
X101848723Y-52380203D01*
X101696735Y-52457645D01*
X101596787Y-52530263D01*
X101535582Y-52574731D01*
X101535580Y-52574733D01*
X101535579Y-52574733D01*
X101394733Y-52715579D01*
X101394733Y-52715580D01*
X101394731Y-52715582D01*
X101356032Y-52768846D01*
X101277647Y-52876733D01*
X101187213Y-53054219D01*
X101125661Y-53243656D01*
X101125661Y-53243659D01*
X101094500Y-53440403D01*
X80764995Y-53440403D01*
X80733852Y-53243777D01*
X80672320Y-53054405D01*
X80581924Y-52876994D01*
X80554417Y-52839135D01*
X80554417Y-52839134D01*
X79991128Y-53402424D01*
X79975245Y-53343147D01*
X79908102Y-53226853D01*
X79813147Y-53131898D01*
X79696853Y-53064755D01*
X79637574Y-53048871D01*
X80200864Y-52485581D01*
X80200863Y-52485580D01*
X80163008Y-52458077D01*
X80010727Y-52380485D01*
X79959931Y-52332510D01*
X79943136Y-52264689D01*
X79965674Y-52198554D01*
X80010727Y-52159515D01*
X80163005Y-52081924D01*
X80200863Y-52054418D01*
X80200863Y-52054417D01*
X79637574Y-51491128D01*
X79696853Y-51475245D01*
X79813147Y-51408102D01*
X79908102Y-51313147D01*
X79975245Y-51196853D01*
X79991128Y-51137574D01*
X80554417Y-51700863D01*
X80554418Y-51700863D01*
X80581924Y-51663005D01*
X80672320Y-51485594D01*
X80733852Y-51296222D01*
X80765000Y-51099563D01*
X80765000Y-50900436D01*
X80733852Y-50703777D01*
X80672320Y-50514405D01*
X80581924Y-50336994D01*
X80554417Y-50299135D01*
X80554417Y-50299134D01*
X79991128Y-50862424D01*
X79975245Y-50803147D01*
X79908102Y-50686853D01*
X79813147Y-50591898D01*
X79696853Y-50524755D01*
X79637574Y-50508871D01*
X80200864Y-49945581D01*
X80200863Y-49945580D01*
X80163008Y-49918077D01*
X79985594Y-49827679D01*
X79796222Y-49766147D01*
X79599563Y-49735000D01*
X79400437Y-49735000D01*
X79203777Y-49766147D01*
X79014405Y-49827679D01*
X78836990Y-49918077D01*
X78799135Y-49945580D01*
X78799135Y-49945581D01*
X79362425Y-50508871D01*
X79303147Y-50524755D01*
X79186853Y-50591898D01*
X79091898Y-50686853D01*
X79024755Y-50803147D01*
X79008871Y-50862425D01*
X78445581Y-50299135D01*
X78445580Y-50299135D01*
X78418077Y-50336990D01*
X78327679Y-50514405D01*
X78266147Y-50703777D01*
X78235000Y-50900436D01*
X78235000Y-51099563D01*
X78266147Y-51296222D01*
X78327679Y-51485594D01*
X78418077Y-51663008D01*
X78445580Y-51700863D01*
X78445581Y-51700864D01*
X79008871Y-51137574D01*
X79024755Y-51196853D01*
X79091898Y-51313147D01*
X79186853Y-51408102D01*
X79303147Y-51475245D01*
X79362425Y-51491128D01*
X78799134Y-52054417D01*
X78836999Y-52081928D01*
X78989272Y-52159516D01*
X79040068Y-52207490D01*
X79056863Y-52275311D01*
X79034325Y-52341446D01*
X78989272Y-52380484D01*
X78836996Y-52458073D01*
X78836995Y-52458074D01*
X78799135Y-52485580D01*
X78799135Y-52485581D01*
X79362425Y-53048871D01*
X79303147Y-53064755D01*
X79186853Y-53131898D01*
X79091898Y-53226853D01*
X79024755Y-53343147D01*
X79008871Y-53402425D01*
X78445581Y-52839135D01*
X78445580Y-52839135D01*
X78418077Y-52876990D01*
X78327679Y-53054405D01*
X78266147Y-53243777D01*
X78235000Y-53440436D01*
X78235000Y-53639563D01*
X78266147Y-53836222D01*
X78327679Y-54025594D01*
X78418077Y-54203008D01*
X78445580Y-54240863D01*
X78445581Y-54240864D01*
X79008871Y-53677574D01*
X79024755Y-53736853D01*
X79091898Y-53853147D01*
X79186853Y-53948102D01*
X79303147Y-54015245D01*
X79362425Y-54031128D01*
X78799134Y-54594417D01*
X78836994Y-54621924D01*
X78988721Y-54699234D01*
X79039517Y-54747209D01*
X79056312Y-54815030D01*
X79033774Y-54881165D01*
X78988721Y-54920204D01*
X78836733Y-54997646D01*
X78744790Y-55064446D01*
X78675582Y-55114730D01*
X78675580Y-55114732D01*
X78675579Y-55114732D01*
X78534733Y-55255578D01*
X78534733Y-55255579D01*
X78534731Y-55255581D01*
X78487336Y-55320814D01*
X78417647Y-55416732D01*
X78327213Y-55594218D01*
X78265661Y-55783655D01*
X78265661Y-55783658D01*
X78234500Y-55980402D01*
X78234500Y-56179595D01*
X78265661Y-56376339D01*
X78265661Y-56376342D01*
X78327213Y-56565779D01*
X78335335Y-56581719D01*
X78417647Y-56743265D01*
X78534731Y-56904417D01*
X78675582Y-57045268D01*
X78836734Y-57162352D01*
X78970368Y-57230442D01*
X78988173Y-57239514D01*
X79038969Y-57287489D01*
X79055764Y-57355310D01*
X79033227Y-57421445D01*
X78988173Y-57460483D01*
X78836738Y-57537643D01*
X78729299Y-57615703D01*
X78675582Y-57654731D01*
X78675580Y-57654733D01*
X78675579Y-57654733D01*
X78534733Y-57795579D01*
X78534733Y-57795580D01*
X78534731Y-57795582D01*
X78507042Y-57833693D01*
X78417647Y-57956733D01*
X78327213Y-58134219D01*
X78265661Y-58323656D01*
X78265661Y-58323659D01*
X78234500Y-58520403D01*
X78234500Y-58719596D01*
X78265661Y-58916340D01*
X78265661Y-58916343D01*
X78327213Y-59105780D01*
X78341336Y-59133497D01*
X78417647Y-59283266D01*
X78534731Y-59444418D01*
X78675582Y-59585269D01*
X78836734Y-59702353D01*
X78885128Y-59727011D01*
X78988172Y-59779515D01*
X79038968Y-59827490D01*
X79055763Y-59895311D01*
X79033225Y-59961446D01*
X78988172Y-60000485D01*
X78836733Y-60077647D01*
X78820129Y-60089711D01*
X78675582Y-60194731D01*
X78675580Y-60194733D01*
X78675579Y-60194733D01*
X78534733Y-60335579D01*
X78534733Y-60335580D01*
X78534731Y-60335582D01*
X78484447Y-60404790D01*
X78417647Y-60496733D01*
X78327213Y-60674219D01*
X78265661Y-60863656D01*
X78265661Y-60863659D01*
X78261535Y-60889711D01*
X78234500Y-61060403D01*
X78234500Y-61259597D01*
X78242387Y-61309394D01*
X78265661Y-61456340D01*
X78265661Y-61456343D01*
X78327213Y-61645780D01*
X78395187Y-61779185D01*
X78417647Y-61823266D01*
X78534731Y-61984418D01*
X78675582Y-62125269D01*
X78836734Y-62242353D01*
X78906453Y-62277877D01*
X78988172Y-62319515D01*
X79038968Y-62367490D01*
X79055763Y-62435311D01*
X79033225Y-62501446D01*
X78988172Y-62540485D01*
X78836733Y-62617647D01*
X78744790Y-62684447D01*
X78675582Y-62734731D01*
X78675580Y-62734733D01*
X78675579Y-62734733D01*
X78534733Y-62875579D01*
X78534733Y-62875580D01*
X78534731Y-62875582D01*
X78516990Y-62900001D01*
X78417647Y-63036733D01*
X78327213Y-63214219D01*
X78265661Y-63403656D01*
X78265661Y-63403659D01*
X78234500Y-63600403D01*
X78234500Y-63799596D01*
X78265661Y-63996340D01*
X78265661Y-63996343D01*
X78327213Y-64185780D01*
X78327215Y-64185783D01*
X78417647Y-64363266D01*
X78534731Y-64524418D01*
X78675582Y-64665269D01*
X78836734Y-64782353D01*
X78965938Y-64848185D01*
X78988171Y-64859514D01*
X79038967Y-64907489D01*
X79055762Y-64975310D01*
X79033225Y-65041445D01*
X78988171Y-65080483D01*
X78836738Y-65157642D01*
X78729299Y-65235702D01*
X78675582Y-65274730D01*
X78675580Y-65274732D01*
X78675579Y-65274732D01*
X78534733Y-65415578D01*
X78534733Y-65415579D01*
X78534731Y-65415581D01*
X78484447Y-65484789D01*
X78417647Y-65576732D01*
X78327213Y-65754218D01*
X78265661Y-65943655D01*
X78265661Y-65943658D01*
X78234500Y-66140402D01*
X78234500Y-66339595D01*
X78265661Y-66536339D01*
X78265661Y-66536342D01*
X78327213Y-66725779D01*
X78327215Y-66725782D01*
X78417647Y-66903265D01*
X78534731Y-67064417D01*
X78675582Y-67205268D01*
X78836734Y-67322352D01*
X78907724Y-67358523D01*
X78988174Y-67399515D01*
X79038970Y-67447490D01*
X79055765Y-67515311D01*
X79033227Y-67581446D01*
X78988174Y-67620485D01*
X78836733Y-67697648D01*
X78744790Y-67764448D01*
X78675582Y-67814732D01*
X78675580Y-67814734D01*
X78675579Y-67814734D01*
X78534733Y-67955580D01*
X78534733Y-67955581D01*
X78534731Y-67955583D01*
X78487338Y-68020814D01*
X78417647Y-68116734D01*
X78327213Y-68294220D01*
X78265661Y-68483657D01*
X78265661Y-68483660D01*
X78241931Y-68633489D01*
X78234500Y-68680404D01*
X78234500Y-68879598D01*
X78248264Y-68966498D01*
X78265661Y-69076341D01*
X78265661Y-69076344D01*
X78327213Y-69265781D01*
X78404602Y-69417664D01*
X78417647Y-69443267D01*
X78534731Y-69604419D01*
X78675582Y-69745270D01*
X78836734Y-69862354D01*
X78929061Y-69909397D01*
X78988171Y-69939515D01*
X79038967Y-69987490D01*
X79055762Y-70055311D01*
X79033225Y-70121446D01*
X78988171Y-70160484D01*
X78836738Y-70237643D01*
X78729299Y-70315703D01*
X78675582Y-70354731D01*
X78675580Y-70354733D01*
X78675579Y-70354733D01*
X78534733Y-70495579D01*
X78534733Y-70495580D01*
X78534731Y-70495582D01*
X78484447Y-70564790D01*
X78417647Y-70656733D01*
X78327213Y-70834219D01*
X78265661Y-71023656D01*
X78265661Y-71023659D01*
X78234500Y-71220403D01*
X78234500Y-71419596D01*
X78265661Y-71616340D01*
X78265661Y-71616343D01*
X78327213Y-71805780D01*
X78377220Y-71903923D01*
X78417647Y-71983266D01*
X78534731Y-72144418D01*
X78675582Y-72285269D01*
X78836734Y-72402353D01*
X78848151Y-72408170D01*
X78988172Y-72479515D01*
X79038968Y-72527490D01*
X79055763Y-72595311D01*
X79033225Y-72661446D01*
X78988172Y-72700485D01*
X78836733Y-72777647D01*
X78758635Y-72834389D01*
X78675582Y-72894731D01*
X78675580Y-72894733D01*
X78675579Y-72894733D01*
X78534733Y-73035579D01*
X78534733Y-73035580D01*
X78534731Y-73035582D01*
X78484447Y-73104790D01*
X78417647Y-73196733D01*
X78327213Y-73374219D01*
X78265661Y-73563656D01*
X78265661Y-73563659D01*
X78234500Y-73760403D01*
X78234500Y-73959596D01*
X78265661Y-74156340D01*
X78265661Y-74156343D01*
X78327213Y-74345780D01*
X78417647Y-74523266D01*
X78534731Y-74684418D01*
X78675582Y-74825269D01*
X78836734Y-74942353D01*
X78906453Y-74977877D01*
X78988172Y-75019515D01*
X79038968Y-75067490D01*
X79055763Y-75135311D01*
X79033225Y-75201446D01*
X78988172Y-75240485D01*
X78836733Y-75317647D01*
X78744790Y-75384447D01*
X78675582Y-75434731D01*
X78675580Y-75434733D01*
X78675579Y-75434733D01*
X78534733Y-75575579D01*
X78534733Y-75575580D01*
X78534731Y-75575582D01*
X78484447Y-75644790D01*
X78417647Y-75736733D01*
X78327213Y-75914219D01*
X78265661Y-76103656D01*
X78265661Y-76103659D01*
X78234500Y-76300403D01*
X78234500Y-76499596D01*
X78265661Y-76696340D01*
X78265661Y-76696343D01*
X78327213Y-76885780D01*
X78327215Y-76885783D01*
X78417647Y-77063266D01*
X78534731Y-77224418D01*
X78675582Y-77365269D01*
X78836734Y-77482353D01*
X78898468Y-77513808D01*
X78988171Y-77559514D01*
X79038967Y-77607489D01*
X79055762Y-77675310D01*
X79033225Y-77741445D01*
X78988171Y-77780483D01*
X78836738Y-77857642D01*
X78729299Y-77935702D01*
X78675582Y-77974730D01*
X78675580Y-77974732D01*
X78675579Y-77974732D01*
X78534733Y-78115578D01*
X78534733Y-78115579D01*
X78534731Y-78115581D01*
X78484447Y-78184789D01*
X78417647Y-78276732D01*
X78327213Y-78454218D01*
X78265661Y-78643655D01*
X78265661Y-78643658D01*
X78252596Y-78726148D01*
X78234500Y-78840402D01*
X78234500Y-79039596D01*
X78236982Y-79055264D01*
X78265661Y-79236339D01*
X78265661Y-79236342D01*
X78327213Y-79425779D01*
X78401441Y-79571459D01*
X78417647Y-79603265D01*
X78534731Y-79764417D01*
X78675582Y-79905268D01*
X78836734Y-80022352D01*
X78968926Y-80089707D01*
X78988173Y-80099514D01*
X79038969Y-80147489D01*
X79055764Y-80215310D01*
X79033227Y-80281445D01*
X78988173Y-80320483D01*
X78836738Y-80397643D01*
X78742528Y-80466092D01*
X78675582Y-80514731D01*
X78675580Y-80514733D01*
X78675579Y-80514733D01*
X78534733Y-80655579D01*
X78534733Y-80655580D01*
X78534731Y-80655582D01*
X78517832Y-80678842D01*
X78417647Y-80816733D01*
X78327213Y-80994219D01*
X78265661Y-81183656D01*
X78265661Y-81183659D01*
X78234500Y-81380403D01*
X78234500Y-81579596D01*
X78265661Y-81776340D01*
X78265661Y-81776343D01*
X78327213Y-81965780D01*
X78344904Y-82000500D01*
X78417647Y-82143266D01*
X78534731Y-82304418D01*
X78675582Y-82445269D01*
X78836734Y-82562353D01*
X78906453Y-82597877D01*
X78988172Y-82639515D01*
X79038968Y-82687490D01*
X79055763Y-82755311D01*
X79033225Y-82821446D01*
X78988172Y-82860485D01*
X78836733Y-82937647D01*
X78744790Y-83004447D01*
X78675582Y-83054731D01*
X78675580Y-83054733D01*
X78675579Y-83054733D01*
X78534733Y-83195579D01*
X78534733Y-83195580D01*
X78534731Y-83195582D01*
X78484447Y-83264790D01*
X78417647Y-83356733D01*
X78327213Y-83534219D01*
X78265661Y-83723656D01*
X78265661Y-83723659D01*
X78234500Y-83920403D01*
X78234500Y-84119596D01*
X78265661Y-84316340D01*
X78265661Y-84316343D01*
X78327213Y-84505780D01*
X78327215Y-84505783D01*
X78417647Y-84683266D01*
X78534731Y-84844418D01*
X78675582Y-84985269D01*
X78836734Y-85102353D01*
X78906453Y-85137877D01*
X78988172Y-85179515D01*
X79038968Y-85227490D01*
X79055763Y-85295311D01*
X79033225Y-85361446D01*
X78988172Y-85400485D01*
X78836733Y-85477647D01*
X78777753Y-85520499D01*
X78675582Y-85594731D01*
X78675580Y-85594733D01*
X78675579Y-85594733D01*
X78534733Y-85735579D01*
X78534733Y-85735580D01*
X78534731Y-85735582D01*
X78484447Y-85804790D01*
X78417647Y-85896733D01*
X78327213Y-86074219D01*
X78265661Y-86263656D01*
X78265661Y-86263659D01*
X78234500Y-86460403D01*
X78234500Y-86659596D01*
X78265661Y-86856340D01*
X78265661Y-86856343D01*
X78327213Y-87045780D01*
X78327215Y-87045783D01*
X78417647Y-87223266D01*
X78534731Y-87384418D01*
X78675582Y-87525269D01*
X78836734Y-87642353D01*
X78908348Y-87678842D01*
X78988171Y-87719514D01*
X79038967Y-87767489D01*
X79055762Y-87835310D01*
X79033225Y-87901445D01*
X78988171Y-87940483D01*
X78836738Y-88017642D01*
X78729299Y-88095702D01*
X78675582Y-88134730D01*
X78675580Y-88134732D01*
X78675579Y-88134732D01*
X78534733Y-88275578D01*
X78534733Y-88275579D01*
X78534731Y-88275581D01*
X78510162Y-88309397D01*
X78417647Y-88436732D01*
X78327213Y-88614218D01*
X78265661Y-88803655D01*
X78265661Y-88803658D01*
X78234500Y-89000402D01*
X78234500Y-89199595D01*
X78265661Y-89396339D01*
X78265661Y-89396342D01*
X78327213Y-89585779D01*
X78380623Y-89690602D01*
X78417647Y-89763265D01*
X78534731Y-89924417D01*
X78675582Y-90065268D01*
X78836734Y-90182352D01*
X78854386Y-90191346D01*
X78988174Y-90259515D01*
X79038970Y-90307490D01*
X79055765Y-90375311D01*
X79033227Y-90441446D01*
X78988174Y-90480485D01*
X78836733Y-90557648D01*
X78747077Y-90622788D01*
X78675582Y-90674732D01*
X78675580Y-90674734D01*
X78675579Y-90674734D01*
X78534733Y-90815580D01*
X78534733Y-90815581D01*
X78534731Y-90815583D01*
X78530149Y-90821890D01*
X78417647Y-90976734D01*
X78327213Y-91154220D01*
X78265661Y-91343657D01*
X78265661Y-91343660D01*
X78234500Y-91540404D01*
X78234500Y-91739597D01*
X78265661Y-91936341D01*
X78265661Y-91936344D01*
X78327213Y-92125781D01*
X78327215Y-92125784D01*
X78417647Y-92303267D01*
X78534731Y-92464419D01*
X78675582Y-92605270D01*
X78836734Y-92722354D01*
X78959631Y-92784973D01*
X78988171Y-92799515D01*
X79038967Y-92847490D01*
X79055762Y-92915311D01*
X79033225Y-92981446D01*
X78988171Y-93020484D01*
X78836738Y-93097643D01*
X78759018Y-93154111D01*
X78675582Y-93214731D01*
X78675580Y-93214733D01*
X78675579Y-93214733D01*
X78534733Y-93355579D01*
X78534733Y-93355580D01*
X78534731Y-93355582D01*
X78484447Y-93424790D01*
X78417647Y-93516733D01*
X78327213Y-93694219D01*
X78265661Y-93883656D01*
X78265661Y-93883659D01*
X78234500Y-94080403D01*
X78234500Y-94279596D01*
X78265661Y-94476340D01*
X78265661Y-94476343D01*
X78327213Y-94665780D01*
X78417647Y-94843266D01*
X78534731Y-95004418D01*
X78675582Y-95145269D01*
X78836734Y-95262353D01*
X78906453Y-95297877D01*
X78988172Y-95339515D01*
X79038968Y-95387490D01*
X79055763Y-95455311D01*
X79033225Y-95521446D01*
X78988172Y-95560485D01*
X78836733Y-95637647D01*
X78744790Y-95704447D01*
X78675582Y-95754731D01*
X78675580Y-95754733D01*
X78675579Y-95754733D01*
X78534733Y-95895579D01*
X78534733Y-95895580D01*
X78534731Y-95895582D01*
X78484447Y-95964790D01*
X78417647Y-96056733D01*
X78327213Y-96234219D01*
X78265661Y-96423656D01*
X78265661Y-96423659D01*
X78234500Y-96620403D01*
X78234500Y-96819596D01*
X78265661Y-97016340D01*
X78265661Y-97016343D01*
X78327213Y-97205780D01*
X78327215Y-97205783D01*
X78417647Y-97383266D01*
X78534731Y-97544418D01*
X78675582Y-97685269D01*
X78836734Y-97802353D01*
X78906453Y-97837877D01*
X78988172Y-97879515D01*
X79038968Y-97927490D01*
X79055763Y-97995311D01*
X79033225Y-98061446D01*
X78988172Y-98100485D01*
X78836733Y-98177647D01*
X78744790Y-98244447D01*
X78675582Y-98294731D01*
X78675580Y-98294733D01*
X78675579Y-98294733D01*
X78534733Y-98435579D01*
X78534733Y-98435580D01*
X78534731Y-98435582D01*
X78484447Y-98504790D01*
X78417647Y-98596733D01*
X78327213Y-98774219D01*
X78265661Y-98963656D01*
X78265661Y-98963659D01*
X78234500Y-99160403D01*
X78234500Y-99359596D01*
X78265661Y-99556340D01*
X78265661Y-99556343D01*
X78327213Y-99745780D01*
X78327215Y-99745783D01*
X78417647Y-99923266D01*
X78534731Y-100084418D01*
X78675582Y-100225269D01*
X78836734Y-100342353D01*
X78988172Y-100419514D01*
X79038968Y-100467488D01*
X79055763Y-100535309D01*
X79033226Y-100601444D01*
X78988172Y-100640483D01*
X78836737Y-100717643D01*
X78729298Y-100795703D01*
X78675581Y-100834731D01*
X78675579Y-100834733D01*
X78675578Y-100834733D01*
X78534732Y-100975579D01*
X78534732Y-100975580D01*
X78534730Y-100975582D01*
X78484446Y-101044790D01*
X78417646Y-101136733D01*
X78327212Y-101314219D01*
X78265660Y-101503656D01*
X78265660Y-101503659D01*
X78234499Y-101700403D01*
X73100500Y-101700403D01*
X73100500Y-79768543D01*
X75174499Y-79768543D01*
X75212947Y-79961829D01*
X75212950Y-79961839D01*
X75288364Y-80143906D01*
X75288374Y-80143924D01*
X75349969Y-80236108D01*
X75370847Y-80302785D01*
X75352362Y-80370165D01*
X75349970Y-80373887D01*
X75288373Y-80466076D01*
X75288364Y-80466092D01*
X75212950Y-80648159D01*
X75212947Y-80648169D01*
X75174500Y-80841455D01*
X75174500Y-80841458D01*
X75174500Y-81038540D01*
X75174500Y-81038542D01*
X75174499Y-81038542D01*
X75212947Y-81231828D01*
X75212949Y-81231834D01*
X75245076Y-81309397D01*
X75255318Y-81334122D01*
X75262787Y-81403592D01*
X75240026Y-81455883D01*
X75231205Y-81467666D01*
X75231202Y-81467671D01*
X75180908Y-81602517D01*
X75174501Y-81662116D01*
X75174501Y-81662123D01*
X75174500Y-81662135D01*
X75174500Y-82757870D01*
X75174501Y-82757876D01*
X75180908Y-82817483D01*
X75231202Y-82952328D01*
X75231206Y-82952335D01*
X75317452Y-83067544D01*
X75317455Y-83067547D01*
X75432664Y-83153793D01*
X75432671Y-83153797D01*
X75567517Y-83204091D01*
X75567516Y-83204091D01*
X75574444Y-83204835D01*
X75627127Y-83210500D01*
X76722872Y-83210499D01*
X76782483Y-83204091D01*
X76917331Y-83153796D01*
X77032546Y-83067546D01*
X77118796Y-82952331D01*
X77169091Y-82817483D01*
X77175500Y-82757873D01*
X77175499Y-81662128D01*
X77169091Y-81602517D01*
X77169091Y-81602516D01*
X77118797Y-81467670D01*
X77109975Y-81455886D01*
X77085558Y-81390422D01*
X77094680Y-81334124D01*
X77137051Y-81231834D01*
X77159067Y-81121153D01*
X77175500Y-81038542D01*
X77175500Y-80841455D01*
X77137052Y-80648169D01*
X77137051Y-80648168D01*
X77137051Y-80648164D01*
X77119236Y-80605155D01*
X77061633Y-80466087D01*
X77048739Y-80446789D01*
X77000028Y-80373888D01*
X76979151Y-80307213D01*
X76997635Y-80239832D01*
X77000021Y-80236120D01*
X77041303Y-80174338D01*
X77061627Y-80143922D01*
X77061628Y-80143919D01*
X77061632Y-80143914D01*
X77137051Y-79961835D01*
X77151219Y-79890609D01*
X77175500Y-79768543D01*
X77175500Y-79571456D01*
X77137052Y-79378170D01*
X77137051Y-79378169D01*
X77137051Y-79378165D01*
X77110766Y-79314707D01*
X77061635Y-79196092D01*
X77061628Y-79196079D01*
X76999728Y-79103440D01*
X76978850Y-79036763D01*
X76997334Y-78969383D01*
X76999729Y-78965657D01*
X77061189Y-78873676D01*
X77061191Y-78873673D01*
X77136569Y-78691693D01*
X77136572Y-78691681D01*
X77174999Y-78498495D01*
X77175000Y-78498492D01*
X77175000Y-78301508D01*
X77174999Y-78301504D01*
X77136572Y-78108318D01*
X77136569Y-78108306D01*
X77061192Y-77926328D01*
X77037572Y-77890979D01*
X76525000Y-78403551D01*
X76525000Y-78353922D01*
X76501148Y-78264905D01*
X76455070Y-78185095D01*
X76389905Y-78119930D01*
X76310095Y-78073852D01*
X76221078Y-78050000D01*
X76128922Y-78050000D01*
X76039905Y-78073852D01*
X75960095Y-78119930D01*
X75894930Y-78185095D01*
X75848852Y-78264905D01*
X75825000Y-78353922D01*
X75825000Y-78403552D01*
X75312426Y-77890978D01*
X75312426Y-77890979D01*
X75288813Y-77926318D01*
X75288809Y-77926325D01*
X75213429Y-78108310D01*
X75213427Y-78108318D01*
X75175000Y-78301504D01*
X75175000Y-78498495D01*
X75213427Y-78691681D01*
X75213430Y-78691693D01*
X75288807Y-78873671D01*
X75288814Y-78873684D01*
X75350270Y-78965659D01*
X75371148Y-79032337D01*
X75352663Y-79099717D01*
X75350271Y-79103440D01*
X75288370Y-79196082D01*
X75288364Y-79196093D01*
X75212950Y-79378160D01*
X75212947Y-79378170D01*
X75174500Y-79571456D01*
X75174500Y-79571459D01*
X75174500Y-79768541D01*
X75174500Y-79768543D01*
X75174499Y-79768543D01*
X73100500Y-79768543D01*
X73100500Y-77537426D01*
X75665978Y-77537426D01*
X76175000Y-78046446D01*
X76175001Y-78046446D01*
X76684020Y-77537426D01*
X76648675Y-77513809D01*
X76648673Y-77513808D01*
X76466693Y-77438430D01*
X76466681Y-77438427D01*
X76273495Y-77400000D01*
X76076504Y-77400000D01*
X75883318Y-77438427D01*
X75883310Y-77438429D01*
X75701325Y-77513809D01*
X75701318Y-77513813D01*
X75665979Y-77537426D01*
X75665978Y-77537426D01*
X73100500Y-77537426D01*
X73100500Y-74832572D01*
X75715979Y-74832572D01*
X75751328Y-74856192D01*
X75933306Y-74931569D01*
X75933318Y-74931572D01*
X76126504Y-74969999D01*
X76126508Y-74970000D01*
X76323492Y-74970000D01*
X76323495Y-74969999D01*
X76516681Y-74931572D01*
X76516693Y-74931569D01*
X76698676Y-74856190D01*
X76698680Y-74856187D01*
X76734019Y-74832573D01*
X76734020Y-74832572D01*
X76225001Y-74323553D01*
X76225000Y-74323553D01*
X75715979Y-74832572D01*
X73100500Y-74832572D01*
X73100500Y-71528544D01*
X75224499Y-71528544D01*
X75262947Y-71721830D01*
X75262950Y-71721840D01*
X75338364Y-71903907D01*
X75338374Y-71903925D01*
X75399969Y-71996109D01*
X75420847Y-72062786D01*
X75402362Y-72130166D01*
X75399970Y-72133888D01*
X75338373Y-72226077D01*
X75338364Y-72226093D01*
X75262950Y-72408160D01*
X75262947Y-72408170D01*
X75224500Y-72601456D01*
X75224500Y-72601459D01*
X75224500Y-72798541D01*
X75224500Y-72798543D01*
X75224499Y-72798543D01*
X75262947Y-72991829D01*
X75262950Y-72991839D01*
X75281069Y-73035582D01*
X75338368Y-73173914D01*
X75353616Y-73196734D01*
X75400271Y-73266559D01*
X75421148Y-73333236D01*
X75402663Y-73400616D01*
X75400271Y-73404339D01*
X75338809Y-73496325D01*
X75263430Y-73678306D01*
X75263427Y-73678318D01*
X75225000Y-73871504D01*
X75225000Y-74068495D01*
X75263427Y-74261681D01*
X75263430Y-74261693D01*
X75338808Y-74443673D01*
X75338809Y-74443675D01*
X75362426Y-74479019D01*
X75875000Y-73966445D01*
X75875000Y-74016078D01*
X75898852Y-74105095D01*
X75944930Y-74184905D01*
X76010095Y-74250070D01*
X76089905Y-74296148D01*
X76178922Y-74320000D01*
X76271078Y-74320000D01*
X76360095Y-74296148D01*
X76439905Y-74250070D01*
X76505070Y-74184905D01*
X76551148Y-74105095D01*
X76575000Y-74016078D01*
X76575000Y-73966447D01*
X77087572Y-74479020D01*
X77087573Y-74479019D01*
X77111187Y-74443680D01*
X77111190Y-74443676D01*
X77186569Y-74261693D01*
X77186572Y-74261681D01*
X77224999Y-74068495D01*
X77225000Y-74068492D01*
X77225000Y-73871508D01*
X77224999Y-73871504D01*
X77186572Y-73678318D01*
X77186569Y-73678306D01*
X77111192Y-73496328D01*
X77111188Y-73496321D01*
X77049728Y-73404341D01*
X77028850Y-73337663D01*
X77047334Y-73270283D01*
X77049704Y-73266595D01*
X77111632Y-73173914D01*
X77187051Y-72991835D01*
X77206365Y-72894737D01*
X77225500Y-72798543D01*
X77225500Y-72601456D01*
X77187052Y-72408170D01*
X77187051Y-72408169D01*
X77187051Y-72408165D01*
X77111632Y-72226086D01*
X77050028Y-72133889D01*
X77029151Y-72067214D01*
X77047635Y-71999833D01*
X77050021Y-71996121D01*
X77081146Y-71949539D01*
X77111627Y-71903923D01*
X77111628Y-71903920D01*
X77111632Y-71903915D01*
X77187051Y-71721836D01*
X77225500Y-71528542D01*
X77225500Y-71331460D01*
X77225500Y-71331457D01*
X77187052Y-71138171D01*
X77187051Y-71138170D01*
X77187051Y-71138166D01*
X77144680Y-71035875D01*
X77137212Y-70966408D01*
X77159977Y-70914111D01*
X77168796Y-70902331D01*
X77219091Y-70767483D01*
X77225500Y-70707873D01*
X77225499Y-69612128D01*
X77219091Y-69552517D01*
X77178343Y-69443267D01*
X77168797Y-69417671D01*
X77168793Y-69417664D01*
X77082547Y-69302455D01*
X77082544Y-69302452D01*
X76967335Y-69216206D01*
X76967328Y-69216202D01*
X76832482Y-69165908D01*
X76832483Y-69165908D01*
X76772883Y-69159501D01*
X76772881Y-69159500D01*
X76772873Y-69159500D01*
X76772864Y-69159500D01*
X75677129Y-69159500D01*
X75677123Y-69159501D01*
X75617516Y-69165908D01*
X75482671Y-69216202D01*
X75482664Y-69216206D01*
X75367455Y-69302452D01*
X75367452Y-69302455D01*
X75281206Y-69417664D01*
X75281202Y-69417671D01*
X75230908Y-69552517D01*
X75224501Y-69612116D01*
X75224501Y-69612123D01*
X75224500Y-69612135D01*
X75224500Y-70707870D01*
X75224501Y-70707876D01*
X75230908Y-70767483D01*
X75281202Y-70902329D01*
X75290023Y-70914111D01*
X75314441Y-70979574D01*
X75305318Y-71035874D01*
X75262950Y-71138165D01*
X75262948Y-71138169D01*
X75262947Y-71138172D01*
X75224500Y-71331457D01*
X75224500Y-71331460D01*
X75224500Y-71528542D01*
X75224500Y-71528544D01*
X75224499Y-71528544D01*
X73100500Y-71528544D01*
X73100500Y-48650852D01*
X114279491Y-48650852D01*
X114279491Y-48808545D01*
X114310252Y-48963188D01*
X114310255Y-48963200D01*
X114370593Y-49108871D01*
X114370600Y-49108884D01*
X114458201Y-49239987D01*
X114458204Y-49239991D01*
X114569698Y-49351485D01*
X114569702Y-49351488D01*
X114700805Y-49439089D01*
X114700818Y-49439096D01*
X114823981Y-49490111D01*
X114846494Y-49499436D01*
X115001144Y-49530198D01*
X115001147Y-49530199D01*
X115001149Y-49530199D01*
X115158835Y-49530199D01*
X115158836Y-49530198D01*
X115313488Y-49499436D01*
X115459170Y-49439093D01*
X115590280Y-49351488D01*
X115701780Y-49239988D01*
X115789385Y-49108878D01*
X115849728Y-48963196D01*
X115880491Y-48808541D01*
X115880491Y-48650857D01*
X115880491Y-48650854D01*
X115880490Y-48650852D01*
X115849729Y-48496209D01*
X115849728Y-48496202D01*
X115849726Y-48496197D01*
X115789388Y-48350526D01*
X115789381Y-48350513D01*
X115701780Y-48219410D01*
X115701777Y-48219406D01*
X115590283Y-48107912D01*
X115590279Y-48107909D01*
X115459176Y-48020308D01*
X115459163Y-48020301D01*
X115313492Y-47959963D01*
X115313480Y-47959960D01*
X115158836Y-47929199D01*
X115158833Y-47929199D01*
X115001149Y-47929199D01*
X115001146Y-47929199D01*
X114846501Y-47959960D01*
X114846489Y-47959963D01*
X114700818Y-48020301D01*
X114700805Y-48020308D01*
X114569702Y-48107909D01*
X114569698Y-48107912D01*
X114458204Y-48219406D01*
X114458201Y-48219410D01*
X114370600Y-48350513D01*
X114370593Y-48350526D01*
X114310255Y-48496197D01*
X114310252Y-48496209D01*
X114279491Y-48650852D01*
X73100500Y-48650852D01*
X73100500Y-46521153D01*
X106699500Y-46521153D01*
X106699500Y-46678846D01*
X106730261Y-46833489D01*
X106730264Y-46833501D01*
X106790602Y-46979172D01*
X106790609Y-46979185D01*
X106878210Y-47110288D01*
X106878213Y-47110292D01*
X106989707Y-47221786D01*
X106989711Y-47221789D01*
X107120814Y-47309390D01*
X107120827Y-47309397D01*
X107266498Y-47369735D01*
X107266503Y-47369737D01*
X107421153Y-47400499D01*
X107421156Y-47400500D01*
X107421158Y-47400500D01*
X107578844Y-47400500D01*
X107578845Y-47400499D01*
X107733497Y-47369737D01*
X107879179Y-47309394D01*
X108010289Y-47221789D01*
X108010925Y-47221153D01*
X108838609Y-47221153D01*
X108838609Y-47378846D01*
X108869370Y-47533489D01*
X108869373Y-47533501D01*
X108929711Y-47679172D01*
X108929718Y-47679185D01*
X109017319Y-47810288D01*
X109017322Y-47810292D01*
X109128816Y-47921786D01*
X109128820Y-47921789D01*
X109259923Y-48009390D01*
X109259936Y-48009397D01*
X109405607Y-48069735D01*
X109405612Y-48069737D01*
X109560262Y-48100499D01*
X109560265Y-48100500D01*
X109560267Y-48100500D01*
X109717953Y-48100500D01*
X109717954Y-48100499D01*
X109872606Y-48069737D01*
X110018288Y-48009394D01*
X110149398Y-47921789D01*
X110260898Y-47810289D01*
X110348503Y-47679179D01*
X110408846Y-47533497D01*
X110439609Y-47378842D01*
X110439609Y-47221158D01*
X110439609Y-47221155D01*
X110439608Y-47221153D01*
X110430675Y-47176244D01*
X110408846Y-47066503D01*
X110388985Y-47018553D01*
X116796308Y-47018553D01*
X116796308Y-47176246D01*
X116827069Y-47330889D01*
X116827072Y-47330901D01*
X116887410Y-47476572D01*
X116887417Y-47476585D01*
X116975018Y-47607688D01*
X116975021Y-47607692D01*
X117086515Y-47719186D01*
X117086519Y-47719189D01*
X117217622Y-47806790D01*
X117217635Y-47806797D01*
X117363306Y-47867135D01*
X117363311Y-47867137D01*
X117496917Y-47893713D01*
X117517961Y-47897899D01*
X117517964Y-47897900D01*
X117517966Y-47897900D01*
X117675652Y-47897900D01*
X117675653Y-47897899D01*
X117696698Y-47893713D01*
X135249500Y-47893713D01*
X135249500Y-48106287D01*
X135282754Y-48316243D01*
X135341226Y-48496202D01*
X135348444Y-48518414D01*
X135444951Y-48707820D01*
X135569890Y-48879786D01*
X135708705Y-49018601D01*
X135742190Y-49079924D01*
X135737206Y-49149616D01*
X135695334Y-49205549D01*
X135686121Y-49211821D01*
X135531342Y-49307289D01*
X135407289Y-49431342D01*
X135315187Y-49580663D01*
X135315186Y-49580666D01*
X135260001Y-49747203D01*
X135260001Y-49747204D01*
X135260000Y-49747204D01*
X135249500Y-49849983D01*
X135249500Y-51150001D01*
X135249501Y-51150018D01*
X135260000Y-51252796D01*
X135260001Y-51252799D01*
X135311464Y-51408102D01*
X135315186Y-51419334D01*
X135407288Y-51568656D01*
X135531344Y-51692712D01*
X135680666Y-51784814D01*
X135847203Y-51839999D01*
X135949991Y-51850500D01*
X137550008Y-51850499D01*
X137652797Y-51839999D01*
X137819334Y-51784814D01*
X137968656Y-51692712D01*
X138092712Y-51568656D01*
X138184814Y-51419334D01*
X138239999Y-51252797D01*
X138250500Y-51150009D01*
X138250499Y-49849992D01*
X138239999Y-49747203D01*
X138184814Y-49580666D01*
X138092712Y-49431344D01*
X137968656Y-49307288D01*
X137819334Y-49215186D01*
X137819333Y-49215185D01*
X137813878Y-49211821D01*
X137767154Y-49159873D01*
X137755931Y-49090910D01*
X137783775Y-49026828D01*
X137791272Y-49018623D01*
X137930104Y-48879792D01*
X138055051Y-48707816D01*
X138151557Y-48518412D01*
X138217246Y-48316243D01*
X138250500Y-48106287D01*
X138250500Y-47893713D01*
X138217246Y-47683757D01*
X138151557Y-47481588D01*
X138055051Y-47292184D01*
X138055049Y-47292181D01*
X138055048Y-47292179D01*
X137930109Y-47120213D01*
X137779786Y-46969890D01*
X137607820Y-46844951D01*
X137418414Y-46748444D01*
X137418413Y-46748443D01*
X137418412Y-46748443D01*
X137216243Y-46682754D01*
X137216241Y-46682753D01*
X137216240Y-46682753D01*
X137054957Y-46657208D01*
X137006287Y-46649500D01*
X136493713Y-46649500D01*
X136445042Y-46657208D01*
X136283760Y-46682753D01*
X136081585Y-46748444D01*
X135892179Y-46844951D01*
X135720213Y-46969890D01*
X135569890Y-47120213D01*
X135444951Y-47292179D01*
X135348444Y-47481585D01*
X135282753Y-47683760D01*
X135253710Y-47867135D01*
X135249500Y-47893713D01*
X117696698Y-47893713D01*
X117830305Y-47867137D01*
X117975987Y-47806794D01*
X117975993Y-47806790D01*
X118007499Y-47785739D01*
X118057327Y-47752444D01*
X118107097Y-47719189D01*
X118218597Y-47607689D01*
X118306202Y-47476579D01*
X118366545Y-47330897D01*
X118397308Y-47176242D01*
X118397308Y-47018558D01*
X118397308Y-47018555D01*
X118397307Y-47018553D01*
X118389475Y-46979179D01*
X118366545Y-46863903D01*
X118335814Y-46789711D01*
X118306205Y-46718227D01*
X118306198Y-46718214D01*
X118218597Y-46587111D01*
X118218594Y-46587107D01*
X118107100Y-46475613D01*
X118107096Y-46475610D01*
X117975993Y-46388009D01*
X117975980Y-46388002D01*
X117830309Y-46327664D01*
X117830297Y-46327661D01*
X117675653Y-46296900D01*
X117675650Y-46296900D01*
X117517966Y-46296900D01*
X117517963Y-46296900D01*
X117363318Y-46327661D01*
X117363306Y-46327664D01*
X117217635Y-46388002D01*
X117217622Y-46388009D01*
X117086519Y-46475610D01*
X117086515Y-46475613D01*
X116975021Y-46587107D01*
X116975018Y-46587111D01*
X116887417Y-46718214D01*
X116887410Y-46718227D01*
X116827072Y-46863898D01*
X116827069Y-46863910D01*
X116796308Y-47018553D01*
X110388985Y-47018553D01*
X110372678Y-46979185D01*
X110348506Y-46920827D01*
X110348499Y-46920814D01*
X110260898Y-46789711D01*
X110260895Y-46789707D01*
X110149401Y-46678213D01*
X110149397Y-46678210D01*
X110018294Y-46590609D01*
X110018281Y-46590602D01*
X109872610Y-46530264D01*
X109872598Y-46530261D01*
X109717954Y-46499500D01*
X109717951Y-46499500D01*
X109560267Y-46499500D01*
X109560264Y-46499500D01*
X109405619Y-46530261D01*
X109405607Y-46530264D01*
X109259936Y-46590602D01*
X109259923Y-46590609D01*
X109128820Y-46678210D01*
X109128816Y-46678213D01*
X109017322Y-46789707D01*
X109017319Y-46789711D01*
X108929718Y-46920814D01*
X108929711Y-46920827D01*
X108869373Y-47066498D01*
X108869370Y-47066510D01*
X108838609Y-47221153D01*
X108010925Y-47221153D01*
X108055836Y-47176242D01*
X108104694Y-47127385D01*
X108121786Y-47110292D01*
X108121789Y-47110289D01*
X108209394Y-46979179D01*
X108269737Y-46833497D01*
X108300500Y-46678842D01*
X108300500Y-46521158D01*
X108300500Y-46521155D01*
X108276737Y-46401694D01*
X108282964Y-46332102D01*
X108325827Y-46276925D01*
X108391716Y-46253680D01*
X108422546Y-46255885D01*
X108521155Y-46275500D01*
X108521158Y-46275500D01*
X108678844Y-46275500D01*
X108678845Y-46275499D01*
X108833497Y-46244737D01*
X108979179Y-46184394D01*
X109110289Y-46096789D01*
X109221789Y-45985289D01*
X109309394Y-45854179D01*
X109369737Y-45708497D01*
X109400500Y-45553842D01*
X109400500Y-45396158D01*
X109400500Y-45396155D01*
X109400499Y-45396153D01*
X109395245Y-45369738D01*
X109369737Y-45241503D01*
X109361570Y-45221786D01*
X109309397Y-45095827D01*
X109309390Y-45095814D01*
X109221789Y-44964711D01*
X109221786Y-44964707D01*
X109110292Y-44853213D01*
X109110288Y-44853210D01*
X108979185Y-44765609D01*
X108979172Y-44765602D01*
X108833501Y-44705264D01*
X108833489Y-44705261D01*
X108678845Y-44674500D01*
X108678842Y-44674500D01*
X108521158Y-44674500D01*
X108521155Y-44674500D01*
X108366510Y-44705261D01*
X108366498Y-44705264D01*
X108220827Y-44765602D01*
X108220814Y-44765609D01*
X108089711Y-44853210D01*
X108089707Y-44853213D01*
X107978213Y-44964707D01*
X107978210Y-44964711D01*
X107890609Y-45095814D01*
X107890602Y-45095827D01*
X107830264Y-45241498D01*
X107830261Y-45241510D01*
X107799500Y-45396153D01*
X107799500Y-45553846D01*
X107823262Y-45673306D01*
X107817035Y-45742898D01*
X107774172Y-45798075D01*
X107708282Y-45821319D01*
X107677454Y-45819114D01*
X107578846Y-45799500D01*
X107578842Y-45799500D01*
X107421158Y-45799500D01*
X107421155Y-45799500D01*
X107266510Y-45830261D01*
X107266498Y-45830264D01*
X107120827Y-45890602D01*
X107120814Y-45890609D01*
X106989711Y-45978210D01*
X106989707Y-45978213D01*
X106878213Y-46089707D01*
X106878210Y-46089711D01*
X106790609Y-46220814D01*
X106790602Y-46220827D01*
X106730264Y-46366498D01*
X106730261Y-46366510D01*
X106699500Y-46521153D01*
X73100500Y-46521153D01*
X73100500Y-44421153D01*
X123249500Y-44421153D01*
X123249500Y-44578846D01*
X123280261Y-44733489D01*
X123280264Y-44733501D01*
X123340602Y-44879172D01*
X123340609Y-44879185D01*
X123428210Y-45010288D01*
X123428213Y-45010292D01*
X123539707Y-45121786D01*
X123539711Y-45121789D01*
X123670814Y-45209390D01*
X123670827Y-45209397D01*
X123748356Y-45241510D01*
X123816503Y-45269737D01*
X123971153Y-45300499D01*
X123971156Y-45300500D01*
X123971158Y-45300500D01*
X124128844Y-45300500D01*
X124128845Y-45300499D01*
X124283497Y-45269737D01*
X124429179Y-45209394D01*
X124560289Y-45121789D01*
X124671789Y-45010289D01*
X124759394Y-44879179D01*
X124819737Y-44733497D01*
X124850500Y-44578842D01*
X124850500Y-44521153D01*
X127699500Y-44521153D01*
X127699500Y-44678846D01*
X127730261Y-44833489D01*
X127730264Y-44833501D01*
X127790602Y-44979172D01*
X127790609Y-44979185D01*
X127878210Y-45110288D01*
X127878213Y-45110292D01*
X127989707Y-45221786D01*
X127989711Y-45221789D01*
X128120814Y-45309390D01*
X128120827Y-45309397D01*
X128266498Y-45369735D01*
X128266503Y-45369737D01*
X128421153Y-45400499D01*
X128421156Y-45400500D01*
X128421158Y-45400500D01*
X128578844Y-45400500D01*
X128578845Y-45400499D01*
X128733497Y-45369737D01*
X128879179Y-45309394D01*
X129010289Y-45221789D01*
X129121789Y-45110289D01*
X129209394Y-44979179D01*
X129215389Y-44964707D01*
X129223067Y-44946166D01*
X129269737Y-44833497D01*
X129300500Y-44678842D01*
X129300500Y-44521158D01*
X129300500Y-44521155D01*
X129300499Y-44521153D01*
X129269737Y-44366503D01*
X129228314Y-44266498D01*
X129209397Y-44220827D01*
X129209390Y-44220814D01*
X129121789Y-44089711D01*
X129121786Y-44089707D01*
X129010292Y-43978213D01*
X129010288Y-43978210D01*
X128879185Y-43890609D01*
X128879172Y-43890602D01*
X128733501Y-43830264D01*
X128733489Y-43830261D01*
X128578845Y-43799500D01*
X128578842Y-43799500D01*
X128421158Y-43799500D01*
X128421155Y-43799500D01*
X128266510Y-43830261D01*
X128266498Y-43830264D01*
X128120827Y-43890602D01*
X128120814Y-43890609D01*
X127989711Y-43978210D01*
X127989707Y-43978213D01*
X127878213Y-44089707D01*
X127878210Y-44089711D01*
X127790609Y-44220814D01*
X127790602Y-44220827D01*
X127730264Y-44366498D01*
X127730261Y-44366510D01*
X127699500Y-44521153D01*
X124850500Y-44521153D01*
X124850500Y-44421158D01*
X124850500Y-44421155D01*
X124850499Y-44421153D01*
X124819738Y-44266510D01*
X124819737Y-44266503D01*
X124800812Y-44220814D01*
X124759397Y-44120827D01*
X124759390Y-44120814D01*
X124671789Y-43989711D01*
X124671786Y-43989707D01*
X124560292Y-43878213D01*
X124560288Y-43878210D01*
X124429185Y-43790609D01*
X124429172Y-43790602D01*
X124283501Y-43730264D01*
X124283489Y-43730261D01*
X124128845Y-43699500D01*
X124128842Y-43699500D01*
X123971158Y-43699500D01*
X123971155Y-43699500D01*
X123816510Y-43730261D01*
X123816498Y-43730264D01*
X123670827Y-43790602D01*
X123670814Y-43790609D01*
X123539711Y-43878210D01*
X123539707Y-43878213D01*
X123428213Y-43989707D01*
X123428210Y-43989711D01*
X123340609Y-44120814D01*
X123340602Y-44120827D01*
X123280264Y-44266498D01*
X123280261Y-44266510D01*
X123249500Y-44421153D01*
X73100500Y-44421153D01*
X73100500Y-43146153D01*
X109399500Y-43146153D01*
X109399500Y-43303846D01*
X109430261Y-43458489D01*
X109430264Y-43458501D01*
X109490602Y-43604172D01*
X109490609Y-43604185D01*
X109578210Y-43735288D01*
X109578213Y-43735292D01*
X109689707Y-43846786D01*
X109689711Y-43846789D01*
X109820814Y-43934390D01*
X109820827Y-43934397D01*
X109926603Y-43978210D01*
X109966503Y-43994737D01*
X110121153Y-44025499D01*
X110121156Y-44025500D01*
X110121158Y-44025500D01*
X110278844Y-44025500D01*
X110278845Y-44025499D01*
X110433497Y-43994737D01*
X110579179Y-43934394D01*
X110710289Y-43846789D01*
X110821789Y-43735289D01*
X110909394Y-43604179D01*
X110969737Y-43458497D01*
X111000500Y-43303842D01*
X111000500Y-43146158D01*
X111000500Y-43146155D01*
X111000499Y-43146153D01*
X110969738Y-42991510D01*
X110969737Y-42991503D01*
X110961639Y-42971952D01*
X110954170Y-42902483D01*
X110985445Y-42840004D01*
X111045534Y-42804352D01*
X111076200Y-42800500D01*
X111078844Y-42800500D01*
X111078845Y-42800499D01*
X111233497Y-42769737D01*
X111379179Y-42709394D01*
X111510289Y-42621789D01*
X111621789Y-42510289D01*
X111709394Y-42379179D01*
X111769737Y-42233497D01*
X111800500Y-42078842D01*
X111800500Y-41921158D01*
X111800500Y-41921155D01*
X111800499Y-41921153D01*
X111769738Y-41766510D01*
X111769737Y-41766503D01*
X111769735Y-41766498D01*
X111709397Y-41620827D01*
X111709390Y-41620814D01*
X111621789Y-41489711D01*
X111621786Y-41489707D01*
X111510292Y-41378213D01*
X111510288Y-41378210D01*
X111379185Y-41290609D01*
X111379172Y-41290602D01*
X111233501Y-41230264D01*
X111233489Y-41230261D01*
X111078845Y-41199500D01*
X111078842Y-41199500D01*
X110921158Y-41199500D01*
X110921155Y-41199500D01*
X110766510Y-41230261D01*
X110766498Y-41230264D01*
X110620827Y-41290602D01*
X110620814Y-41290609D01*
X110489711Y-41378210D01*
X110489707Y-41378213D01*
X110378213Y-41489707D01*
X110378210Y-41489711D01*
X110290609Y-41620814D01*
X110290602Y-41620827D01*
X110230264Y-41766498D01*
X110230261Y-41766510D01*
X110199500Y-41921153D01*
X110199500Y-42078846D01*
X110230261Y-42233489D01*
X110230264Y-42233501D01*
X110238361Y-42253048D01*
X110245830Y-42322517D01*
X110214555Y-42384996D01*
X110154466Y-42420648D01*
X110123800Y-42424500D01*
X110121155Y-42424500D01*
X109966510Y-42455261D01*
X109966498Y-42455264D01*
X109820827Y-42515602D01*
X109820814Y-42515609D01*
X109689711Y-42603210D01*
X109689707Y-42603213D01*
X109578213Y-42714707D01*
X109578210Y-42714711D01*
X109490609Y-42845814D01*
X109490602Y-42845827D01*
X109430264Y-42991498D01*
X109430261Y-42991510D01*
X109399500Y-43146153D01*
X73100500Y-43146153D01*
X73100500Y-40004066D01*
X73100765Y-39995957D01*
X73109523Y-39862326D01*
X73116219Y-39760156D01*
X73118334Y-39744101D01*
X73163640Y-39516333D01*
X73167833Y-39500686D01*
X73242482Y-39280776D01*
X73248679Y-39265816D01*
X73351393Y-39057533D01*
X73359500Y-39043493D01*
X73488509Y-38850416D01*
X73498374Y-38837558D01*
X73651497Y-38662955D01*
X73662955Y-38651497D01*
X73837558Y-38498374D01*
X73850411Y-38488512D01*
X74043493Y-38359500D01*
X74057533Y-38351393D01*
X74265816Y-38248679D01*
X74280776Y-38242482D01*
X74500686Y-38167833D01*
X74516333Y-38163640D01*
X74744101Y-38118334D01*
X74760158Y-38116219D01*
X74973768Y-38102219D01*
X74995958Y-38100765D01*
X75004067Y-38100500D01*
X75026929Y-38100500D01*
X137973071Y-38100500D01*
X137995933Y-38100500D01*
X138004042Y-38100765D01*
G37*
%TD.AperFunction*%
%TD*%
M02*
