%TF.GenerationSoftware,KiCad,Pcbnew,9.0.4*%
%TF.CreationDate,2025-10-21T16:10:30+02:00*%
%TF.ProjectId,Nomad,4e6f6d61-642e-46b6-9963-61645f706362,rev?*%
%TF.SameCoordinates,Original*%
%TF.FileFunction,Soldermask,Top*%
%TF.FilePolarity,Negative*%
%FSLAX46Y46*%
G04 Gerber Fmt 4.6, Leading zero omitted, Abs format (unit mm)*
G04 Created by KiCad (PCBNEW 9.0.4) date 2025-10-21 16:10:30*
%MOMM*%
%LPD*%
G01*
G04 APERTURE LIST*
G04 Aperture macros list*
%AMRoundRect*
0 Rectangle with rounded corners*
0 $1 Rounding radius*
0 $2 $3 $4 $5 $6 $7 $8 $9 X,Y pos of 4 corners*
0 Add a 4 corners polygon primitive as box body*
4,1,4,$2,$3,$4,$5,$6,$7,$8,$9,$2,$3,0*
0 Add four circle primitives for the rounded corners*
1,1,$1+$1,$2,$3*
1,1,$1+$1,$4,$5*
1,1,$1+$1,$6,$7*
1,1,$1+$1,$8,$9*
0 Add four rect primitives between the rounded corners*
20,1,$1+$1,$2,$3,$4,$5,0*
20,1,$1+$1,$4,$5,$6,$7,0*
20,1,$1+$1,$6,$7,$8,$9,0*
20,1,$1+$1,$8,$9,$2,$3,0*%
%AMFreePoly0*
4,1,6,1.000000,0.000000,0.500000,-0.750000,-0.500000,-0.750000,-0.500000,0.750000,0.500000,0.750000,1.000000,0.000000,1.000000,0.000000,$1*%
%AMFreePoly1*
4,1,6,0.500000,-0.750000,-0.650000,-0.750000,-0.150000,0.000000,-0.650000,0.750000,0.500000,0.750000,0.500000,-0.750000,0.500000,-0.750000,$1*%
G04 Aperture macros list end*
%ADD10C,0.000000*%
%ADD11R,0.609600X0.381000*%
%ADD12RoundRect,0.237500X0.237500X-0.300000X0.237500X0.300000X-0.237500X0.300000X-0.237500X-0.300000X0*%
%ADD13RoundRect,0.237500X-0.237500X0.300000X-0.237500X-0.300000X0.237500X-0.300000X0.237500X0.300000X0*%
%ADD14RoundRect,0.250000X0.750000X-0.600000X0.750000X0.600000X-0.750000X0.600000X-0.750000X-0.600000X0*%
%ADD15O,2.000000X1.700000*%
%ADD16RoundRect,0.102000X0.765000X0.765000X-0.765000X0.765000X-0.765000X-0.765000X0.765000X-0.765000X0*%
%ADD17C,1.734000*%
%ADD18RoundRect,0.237500X0.287500X0.237500X-0.287500X0.237500X-0.287500X-0.237500X0.287500X-0.237500X0*%
%ADD19C,5.600000*%
%ADD20RoundRect,0.237500X-0.300000X-0.237500X0.300000X-0.237500X0.300000X0.237500X-0.300000X0.237500X0*%
%ADD21RoundRect,0.100000X0.850000X0.100000X-0.850000X0.100000X-0.850000X-0.100000X0.850000X-0.100000X0*%
%ADD22RoundRect,0.237500X-0.250000X-0.237500X0.250000X-0.237500X0.250000X0.237500X-0.250000X0.237500X0*%
%ADD23RoundRect,0.150000X-0.150000X0.825000X-0.150000X-0.825000X0.150000X-0.825000X0.150000X0.825000X0*%
%ADD24RoundRect,0.250000X-0.275000X-0.350000X0.275000X-0.350000X0.275000X0.350000X-0.275000X0.350000X0*%
%ADD25RoundRect,0.250000X1.000000X-1.400000X1.000000X1.400000X-1.000000X1.400000X-1.000000X-1.400000X0*%
%ADD26R,1.000000X1.000000*%
%ADD27C,1.000000*%
%ADD28RoundRect,0.237500X0.250000X0.237500X-0.250000X0.237500X-0.250000X-0.237500X0.250000X-0.237500X0*%
%ADD29RoundRect,0.237500X0.300000X0.237500X-0.300000X0.237500X-0.300000X-0.237500X0.300000X-0.237500X0*%
%ADD30RoundRect,0.140000X0.170000X-0.140000X0.170000X0.140000X-0.170000X0.140000X-0.170000X-0.140000X0*%
%ADD31R,0.584200X0.254000*%
%ADD32R,0.254000X0.799702*%
%ADD33R,0.990600X0.203200*%
%ADD34R,0.609600X0.203200*%
%ADD35R,0.711200X0.254000*%
%ADD36R,0.254002X0.622288*%
%ADD37R,0.203200X0.990600*%
%ADD38R,0.256212X0.614897*%
%ADD39R,0.609600X0.254000*%
%ADD40R,0.711200X0.203200*%
%ADD41R,0.660400X0.203200*%
%ADD42R,0.254000X0.609600*%
%ADD43R,0.203200X0.609600*%
%ADD44R,0.203200X0.914400*%
%ADD45FreePoly0,180.000000*%
%ADD46FreePoly1,180.000000*%
%ADD47RoundRect,0.250000X-0.350000X0.275000X-0.350000X-0.275000X0.350000X-0.275000X0.350000X0.275000X0*%
%ADD48RoundRect,0.140000X-0.140000X-0.170000X0.140000X-0.170000X0.140000X0.170000X-0.140000X0.170000X0*%
%ADD49RoundRect,0.250000X-0.250000X-0.475000X0.250000X-0.475000X0.250000X0.475000X-0.250000X0.475000X0*%
%ADD50RoundRect,0.250000X0.475000X-0.250000X0.475000X0.250000X-0.475000X0.250000X-0.475000X-0.250000X0*%
%ADD51R,2.600000X2.600000*%
%ADD52C,2.600000*%
G04 APERTURE END LIST*
D10*
%TO.C,U5*%
G36*
X113253196Y-50220297D02*
G01*
X112999196Y-50220297D01*
X112999199Y-49852000D01*
X112541999Y-49852007D01*
X112541999Y-49598007D01*
X113253200Y-49598007D01*
X113253196Y-50220297D01*
G37*
G36*
X113223808Y-46602804D02*
G01*
X112554699Y-46602801D01*
X112554699Y-46348801D01*
X112969811Y-46348807D01*
X112969808Y-45815404D01*
X113223808Y-45815404D01*
X113223808Y-46602804D01*
G37*
G36*
X116096017Y-46348807D02*
G01*
X116451617Y-46348801D01*
X116451617Y-46602801D01*
X115842017Y-46602801D01*
X115842020Y-45815404D01*
X116096020Y-45815404D01*
X116096017Y-46348807D01*
G37*
G36*
X116451617Y-49852007D02*
G01*
X116096017Y-49852000D01*
X116096020Y-50220297D01*
X115842020Y-50220297D01*
X115842016Y-49598007D01*
X116451617Y-49598007D01*
X116451617Y-49852007D01*
G37*
%TO.C,JP2*%
G36*
X125150001Y-72800000D02*
G01*
X122700001Y-72800000D01*
X122700001Y-71300000D01*
X125150001Y-71300000D01*
X125150001Y-72800000D01*
G37*
%TD*%
D11*
%TO.C,U2*%
X122081250Y-55018750D03*
X122081250Y-54078950D03*
X122081250Y-53139150D03*
X119592050Y-53126450D03*
X119592050Y-55031450D03*
%TD*%
D12*
%TO.C,C22*%
X115300000Y-42400000D03*
X115300000Y-40674998D03*
%TD*%
%TO.C,C17*%
X128750000Y-52225001D03*
X128750000Y-50499999D03*
%TD*%
D13*
%TO.C,C18*%
X128750000Y-46637499D03*
X128750000Y-48362501D03*
%TD*%
D14*
%TO.C,LS1*%
X136750000Y-50500000D03*
D15*
X136750000Y-48000000D03*
%TD*%
D16*
%TO.C,U6*%
X102360000Y-104340000D03*
D17*
X102360001Y-101800000D03*
X102360000Y-99260000D03*
X102360000Y-96720000D03*
X102360000Y-94180000D03*
X102360000Y-91640001D03*
X102360000Y-89099999D03*
X102360000Y-86560000D03*
X102360000Y-84020000D03*
X102360000Y-81480000D03*
X102360000Y-78939999D03*
X102360000Y-76400000D03*
X102360000Y-73860000D03*
X102360000Y-71320000D03*
X102360000Y-68780001D03*
X102360000Y-66239999D03*
X102360000Y-63700000D03*
X102360000Y-61160000D03*
X102360000Y-58620000D03*
X102360000Y-56079999D03*
X102360000Y-53540000D03*
X102360000Y-51000000D03*
X79500000Y-104340000D03*
X79499999Y-101800000D03*
X79500000Y-99260000D03*
X79500000Y-96720000D03*
X79500000Y-94180000D03*
X79500000Y-91640001D03*
X79500000Y-89099999D03*
X79500000Y-86560000D03*
X79500000Y-84020000D03*
X79500000Y-81480000D03*
X79500000Y-78939999D03*
X79500000Y-76400000D03*
X79500000Y-73860000D03*
X79500000Y-71320000D03*
X79500000Y-68780001D03*
X79500000Y-66239999D03*
X79500000Y-63700000D03*
X79500000Y-61160000D03*
X79500000Y-58620000D03*
X79500000Y-56079999D03*
X79500000Y-53540000D03*
X79500000Y-51000000D03*
%TD*%
D18*
%TO.C,D5*%
X137549998Y-82350000D03*
X135800000Y-82350000D03*
%TD*%
D19*
%TO.C,H1*%
X136000000Y-41000000D03*
%TD*%
D12*
%TO.C,C20*%
X130249999Y-52000001D03*
X130249999Y-50274999D03*
%TD*%
D20*
%TO.C,C11*%
X108634307Y-48020200D03*
X110359309Y-48020200D03*
%TD*%
D21*
%TO.C,Driver1*%
X124300000Y-92425000D03*
X124300000Y-91775000D03*
X124300000Y-91125000D03*
X124300000Y-90475000D03*
X124300000Y-89825000D03*
X124300000Y-89175000D03*
X124300000Y-88525000D03*
X124300000Y-87875000D03*
X124300000Y-87225000D03*
X124300000Y-86575000D03*
X124300000Y-85925000D03*
X124300000Y-85275000D03*
X117300000Y-85275000D03*
X117300000Y-85925000D03*
X117300000Y-86575000D03*
X117300000Y-87225000D03*
X117300000Y-87875000D03*
X117300000Y-88525000D03*
X117300000Y-89175000D03*
X117300000Y-89825000D03*
X117300000Y-90475000D03*
X117300000Y-91125000D03*
X117300000Y-91775000D03*
X117300000Y-92425000D03*
%TD*%
D22*
%TO.C,R6*%
X131837500Y-50500000D03*
X133662500Y-50500000D03*
%TD*%
D12*
%TO.C,C1*%
X124712500Y-69162501D03*
X124712500Y-67437499D03*
%TD*%
D13*
%TO.C,C7*%
X111015000Y-72124999D03*
X111015000Y-73850001D03*
%TD*%
%TO.C,C3*%
X118735000Y-71362499D03*
X118735000Y-73087501D03*
%TD*%
D19*
%TO.C,H2*%
X136000000Y-103000000D03*
%TD*%
D20*
%TO.C,C12*%
X110137499Y-44200000D03*
X111862501Y-44200000D03*
%TD*%
D12*
%TO.C,C2*%
X121712500Y-69162501D03*
X121712500Y-67437499D03*
%TD*%
D18*
%TO.C,D3*%
X137549998Y-77350000D03*
X135800000Y-77350000D03*
%TD*%
D23*
%TO.C,U4*%
X117055000Y-69687501D03*
X115785000Y-69687501D03*
X114515000Y-69687501D03*
X113245000Y-69687501D03*
X113245000Y-74637501D03*
X114515000Y-74637501D03*
X115785000Y-74637501D03*
X117055000Y-74637501D03*
%TD*%
D11*
%TO.C,U3*%
X123350000Y-62960200D03*
X123350000Y-63900000D03*
X123350000Y-64839800D03*
X125839200Y-64852500D03*
X125839200Y-62947500D03*
%TD*%
D12*
%TO.C,C25*%
X113800000Y-42400000D03*
X113800000Y-40674998D03*
%TD*%
D24*
%TO.C,L3*%
X125100000Y-44500000D03*
X127400000Y-44500000D03*
%TD*%
D12*
%TO.C,C14*%
X127250000Y-47862501D03*
X127250000Y-46137499D03*
%TD*%
D25*
%TO.C,D2*%
X112350000Y-63200000D03*
X119150000Y-63200000D03*
%TD*%
D26*
%TO.C,J3*%
X76225000Y-70160000D03*
D27*
X76225000Y-71430001D03*
X76225000Y-72700000D03*
X76225000Y-73970000D03*
%TD*%
D20*
%TO.C,C16*%
X118634308Y-46520200D03*
X120359308Y-46520200D03*
%TD*%
%TO.C,C19*%
X118634307Y-48020200D03*
X120359309Y-48020200D03*
%TD*%
D28*
%TO.C,R3*%
X110409308Y-49600000D03*
X108584308Y-49600000D03*
%TD*%
D29*
%TO.C,C10*%
X113062501Y-51520200D03*
X111337499Y-51520200D03*
%TD*%
D22*
%TO.C,R5*%
X132262499Y-82350000D03*
X134087499Y-82350000D03*
%TD*%
D19*
%TO.C,H3*%
X76000000Y-41000000D03*
%TD*%
D26*
%TO.C,J2*%
X76175000Y-82210000D03*
D27*
X76175000Y-80939999D03*
X76175000Y-79670000D03*
X76175000Y-78400000D03*
%TD*%
D26*
%TO.C,J5*%
X136800000Y-92400000D03*
D27*
X136800000Y-93670001D03*
%TD*%
D22*
%TO.C,R1*%
X132262499Y-77350000D03*
X134087499Y-77350000D03*
%TD*%
D12*
%TO.C,C24*%
X112300000Y-42400000D03*
X112300000Y-40674998D03*
%TD*%
D30*
%TO.C,C26*%
X113181250Y-89509999D03*
X113181250Y-88549999D03*
%TD*%
D24*
%TO.C,L2*%
X125100000Y-54500000D03*
X127400000Y-54500000D03*
%TD*%
D12*
%TO.C,C5*%
X123594600Y-61400000D03*
X123594600Y-59674998D03*
%TD*%
D26*
%TO.C,J4*%
X136800000Y-90035000D03*
D27*
X136800000Y-88764999D03*
%TD*%
D20*
%TO.C,C15*%
X117278190Y-43975000D03*
X119003192Y-43975000D03*
%TD*%
D28*
%TO.C,R8*%
X115712500Y-44037499D03*
X113887500Y-44037499D03*
%TD*%
D31*
%TO.C,U5*%
X112846798Y-46475801D03*
D32*
X113096808Y-46202953D03*
D33*
X113050000Y-46900000D03*
X113050000Y-47299999D03*
D34*
X112846799Y-47700002D03*
X112846799Y-48100001D03*
X112846799Y-48500000D03*
X112846799Y-48900001D03*
X112846799Y-49300000D03*
D35*
X112897599Y-49725007D03*
D36*
X113126198Y-49909151D03*
D37*
X113546807Y-49725000D03*
X113946809Y-49725001D03*
X114346808Y-49725001D03*
X114746807Y-49725001D03*
X115146806Y-49725001D03*
X115546808Y-49725001D03*
D38*
X115967914Y-49912848D03*
D39*
X116146817Y-49725007D03*
D34*
X116146817Y-49300000D03*
D40*
X116096017Y-48900001D03*
D41*
X116121417Y-48499999D03*
D34*
X116146817Y-48100001D03*
X116146817Y-47700002D03*
X116146818Y-47299999D03*
X116146818Y-46900000D03*
D42*
X115971808Y-46120200D03*
D39*
X116146808Y-46470200D03*
D43*
X115546808Y-46120200D03*
X115146806Y-46120200D03*
D37*
X114746807Y-46310700D03*
X114346808Y-46310700D03*
D44*
X113946809Y-46272600D03*
D43*
X113546807Y-46120200D03*
%TD*%
D20*
%TO.C,C4*%
X121718749Y-56639150D03*
X123443751Y-56639150D03*
%TD*%
D45*
%TO.C,JP2*%
X124650000Y-72050000D03*
D46*
X123200002Y-72050000D03*
%TD*%
D12*
%TO.C,C9*%
X125594600Y-61400000D03*
X125594600Y-59674998D03*
%TD*%
D47*
%TO.C,L1*%
X111015000Y-67837501D03*
X111015000Y-70137501D03*
%TD*%
D48*
%TO.C,C28*%
X120170000Y-81700000D03*
X121130000Y-81700000D03*
%TD*%
D13*
%TO.C,C6*%
X120400000Y-71337499D03*
X120400000Y-73062501D03*
%TD*%
D22*
%TO.C,R2*%
X108584308Y-46520200D03*
X110409308Y-46520200D03*
%TD*%
D29*
%TO.C,C8*%
X120312501Y-51650000D03*
X118587499Y-51650000D03*
%TD*%
D22*
%TO.C,R4*%
X132262499Y-79850000D03*
X134087499Y-79850000D03*
%TD*%
D13*
%TO.C,C13*%
X127250000Y-51137499D03*
X127250000Y-52862501D03*
%TD*%
D49*
%TO.C,C29*%
X119850000Y-83400000D03*
X121750000Y-83400000D03*
%TD*%
D25*
%TO.C,D1*%
X127775001Y-72200000D03*
X134575001Y-72200000D03*
%TD*%
D13*
%TO.C,C21*%
X130250000Y-46774998D03*
X130250000Y-48500000D03*
%TD*%
D50*
%TO.C,C27*%
X114800000Y-90600000D03*
X114800000Y-88700002D03*
%TD*%
D22*
%TO.C,R7*%
X131837500Y-48000000D03*
X133662500Y-48000000D03*
%TD*%
D18*
%TO.C,D4*%
X137549998Y-79850000D03*
X135800000Y-79850000D03*
%TD*%
D51*
%TO.C,J1*%
X129550000Y-62900000D03*
D52*
X135550000Y-62900000D03*
X132550000Y-58200000D03*
%TD*%
D12*
%TO.C,C23*%
X116800000Y-42400000D03*
X116800000Y-40674998D03*
%TD*%
M02*
