%TF.GenerationSoftware,KiCad,Pcbnew,9.0.4*%
%TF.CreationDate,2025-10-21T16:10:30+02:00*%
%TF.ProjectId,Nomad,4e6f6d61-642e-46b6-9963-61645f706362,rev?*%
%TF.SameCoordinates,Original*%
%TF.FileFunction,Soldermask,Bot*%
%TF.FilePolarity,Negative*%
%FSLAX46Y46*%
G04 Gerber Fmt 4.6, Leading zero omitted, Abs format (unit mm)*
G04 Created by KiCad (PCBNEW 9.0.4) date 2025-10-21 16:10:30*
%MOMM*%
%LPD*%
G01*
G04 APERTURE LIST*
G04 Aperture macros list*
%AMRoundRect*
0 Rectangle with rounded corners*
0 $1 Rounding radius*
0 $2 $3 $4 $5 $6 $7 $8 $9 X,Y pos of 4 corners*
0 Add a 4 corners polygon primitive as box body*
4,1,4,$2,$3,$4,$5,$6,$7,$8,$9,$2,$3,0*
0 Add four circle primitives for the rounded corners*
1,1,$1+$1,$2,$3*
1,1,$1+$1,$4,$5*
1,1,$1+$1,$6,$7*
1,1,$1+$1,$8,$9*
0 Add four rect primitives between the rounded corners*
20,1,$1+$1,$2,$3,$4,$5,0*
20,1,$1+$1,$4,$5,$6,$7,0*
20,1,$1+$1,$6,$7,$8,$9,0*
20,1,$1+$1,$8,$9,$2,$3,0*%
G04 Aperture macros list end*
%ADD10RoundRect,0.250000X0.750000X-0.600000X0.750000X0.600000X-0.750000X0.600000X-0.750000X-0.600000X0*%
%ADD11O,2.000000X1.700000*%
%ADD12RoundRect,0.102000X0.765000X0.765000X-0.765000X0.765000X-0.765000X-0.765000X0.765000X-0.765000X0*%
%ADD13C,1.734000*%
%ADD14C,5.600000*%
%ADD15R,1.000000X1.000000*%
%ADD16C,1.000000*%
%ADD17R,2.600000X2.600000*%
%ADD18C,2.600000*%
G04 APERTURE END LIST*
D10*
%TO.C,LS1*%
X136750000Y-50500000D03*
D11*
X136750000Y-48000000D03*
%TD*%
D12*
%TO.C,U6*%
X102360000Y-104340000D03*
D13*
X102360001Y-101800000D03*
X102360000Y-99260000D03*
X102360000Y-96720000D03*
X102360000Y-94180000D03*
X102360000Y-91640001D03*
X102360000Y-89099999D03*
X102360000Y-86560000D03*
X102360000Y-84020000D03*
X102360000Y-81480000D03*
X102360000Y-78939999D03*
X102360000Y-76400000D03*
X102360000Y-73860000D03*
X102360000Y-71320000D03*
X102360000Y-68780001D03*
X102360000Y-66239999D03*
X102360000Y-63700000D03*
X102360000Y-61160000D03*
X102360000Y-58620000D03*
X102360000Y-56079999D03*
X102360000Y-53540000D03*
X102360000Y-51000000D03*
X79500000Y-104340000D03*
X79499999Y-101800000D03*
X79500000Y-99260000D03*
X79500000Y-96720000D03*
X79500000Y-94180000D03*
X79500000Y-91640001D03*
X79500000Y-89099999D03*
X79500000Y-86560000D03*
X79500000Y-84020000D03*
X79500000Y-81480000D03*
X79500000Y-78939999D03*
X79500000Y-76400000D03*
X79500000Y-73860000D03*
X79500000Y-71320000D03*
X79500000Y-68780001D03*
X79500000Y-66239999D03*
X79500000Y-63700000D03*
X79500000Y-61160000D03*
X79500000Y-58620000D03*
X79500000Y-56079999D03*
X79500000Y-53540000D03*
X79500000Y-51000000D03*
%TD*%
D14*
%TO.C,H1*%
X136000000Y-41000000D03*
%TD*%
%TO.C,H2*%
X136000000Y-103000000D03*
%TD*%
D15*
%TO.C,J3*%
X76225000Y-70160000D03*
D16*
X76225000Y-71430001D03*
X76225000Y-72700000D03*
X76225000Y-73970000D03*
%TD*%
D14*
%TO.C,H3*%
X76000000Y-41000000D03*
%TD*%
D15*
%TO.C,J2*%
X76175000Y-82210000D03*
D16*
X76175000Y-80939999D03*
X76175000Y-79670000D03*
X76175000Y-78400000D03*
%TD*%
D15*
%TO.C,J5*%
X136800000Y-92400000D03*
D16*
X136800000Y-93670001D03*
%TD*%
D15*
%TO.C,J4*%
X136800000Y-90035000D03*
D16*
X136800000Y-88764999D03*
%TD*%
D17*
%TO.C,J1*%
X129550000Y-62900000D03*
D18*
X135550000Y-62900000D03*
X132550000Y-58200000D03*
%TD*%
M02*
