M48
; DRILL file {KiCad 9.0.4} date 2025-10-21T17:02:21+0200
; FORMAT={-:-/ absolute / metric / decimal}
; #@! TF.CreationDate,2025-10-21T17:02:21+02:00
; #@! TF.GenerationSoftware,Kicad,Pcbnew,9.0.4
; #@! TF.FileFunction,Plated,1,4,PTH
FMAT,2
METRIC
; #@! TA.AperFunction,Plated,PTH,ViaDrill
T1C0.300
; #@! TA.AperFunction,Plated,PTH,ComponentDrill
T2C0.650
; #@! TA.AperFunction,Plated,PTH,ComponentDrill
T3C0.700
; #@! TA.AperFunction,Plated,PTH,ComponentDrill
T4C1.000
; #@! TA.AperFunction,Plated,PTH,ComponentDrill
T5C1.020
; #@! TA.AperFunction,Plated,PTH,ComponentDrill
T6C1.600
; #@! TA.AperFunction,Plated,PTH,ComponentDrill
T7C3.200
%
G90
G05
T1
X80.393Y-47.607
X82.5Y-82.5
X82.5Y-87.5
X82.5Y-92.5
X82.5Y-97.5
X83.929Y-44.071
X83.929Y-51.142
X87.464Y-40.536
X87.464Y-47.607
X87.464Y-54.678
X87.5Y-82.5
X87.5Y-87.5
X87.5Y-92.5
X87.5Y-97.5
X91.0Y-44.071
X91.0Y-51.142
X91.0Y-58.213
X92.5Y-82.5
X92.5Y-87.5
X92.5Y-92.5
X92.5Y-97.5
X94.536Y-40.536
X94.536Y-47.607
X94.536Y-54.678
X97.5Y-82.5
X97.5Y-87.5
X97.5Y-92.5
X97.5Y-97.5
X98.071Y-44.071
X98.071Y-51.142
X101.607Y-47.607
X107.5Y-46.6
X108.6Y-45.475
X109.639Y-47.3
X110.025Y-72.125
X110.2Y-43.225
X110.8Y-50.7
X111.0Y-42.0
X111.231Y-47.229
X111.573Y-57.323
X112.203Y-39.417
X112.215Y-74.638
X112.394Y-90.112
X112.431Y-88.513
X113.1Y-58.9
X113.65Y-84.72
X114.0Y-76.0
X114.062Y-56.162
X114.491Y-53.391
X115.08Y-48.73
X115.4Y-53.3
X115.852Y-92.275
X116.2Y-51.3
X116.2Y-72.125
X116.4Y-76.0
X116.8Y-39.4
X117.597Y-47.097
X118.6Y-50.55
X118.8Y-90.4
X119.0Y-87.6
X119.9Y-44.0
X120.0Y-50.0
X120.2Y-80.6
X120.4Y-69.2
X120.95Y-66.7
X121.0Y-50.0
X121.0Y-63.2
X121.2Y-45.7
X121.2Y-74.638
X121.5Y-51.5
X122.0Y-50.0
X122.337Y-58.954
X122.85Y-60.6
X123.2Y-68.4
X123.451Y-80.635
X123.737Y-57.879
X124.05Y-44.5
X124.362Y-53.712
X126.555Y-61.4
X126.795Y-59.36
X127.4Y-55.7
X128.0Y-47.863
X128.052Y-51.052
X128.5Y-44.6
X128.8Y-79.0
X129.5Y-48.5
X129.5Y-50.275
X131.494Y-79.825
X132.495Y-81.2
X137.544Y-83.55
T2
X136.8Y-88.765
X136.8Y-90.035
X136.8Y-92.4
X136.8Y-93.67
T3
X76.175Y-78.4
X76.175Y-79.67
X76.175Y-80.94
X76.175Y-82.21
X76.225Y-70.16
X76.225Y-71.43
X76.225Y-72.7
X76.225Y-73.97
T4
X136.75Y-48.0
X136.75Y-50.5
T5
X79.5Y-101.8
X79.5Y-51.0
X79.5Y-53.54
X79.5Y-56.08
X79.5Y-58.62
X79.5Y-61.16
X79.5Y-63.7
X79.5Y-66.24
X79.5Y-68.78
X79.5Y-71.32
X79.5Y-73.86
X79.5Y-76.4
X79.5Y-78.94
X79.5Y-81.48
X79.5Y-84.02
X79.5Y-86.56
X79.5Y-89.1
X79.5Y-91.64
X79.5Y-94.18
X79.5Y-96.72
X79.5Y-99.26
X79.5Y-104.34
X102.36Y-51.0
X102.36Y-53.54
X102.36Y-56.08
X102.36Y-58.62
X102.36Y-61.16
X102.36Y-63.7
X102.36Y-66.24
X102.36Y-68.78
X102.36Y-71.32
X102.36Y-73.86
X102.36Y-76.4
X102.36Y-78.94
X102.36Y-81.48
X102.36Y-84.02
X102.36Y-86.56
X102.36Y-89.1
X102.36Y-91.64
X102.36Y-94.18
X102.36Y-96.72
X102.36Y-99.26
X102.36Y-104.34
X102.36Y-101.8
T6
X129.55Y-62.9
X132.55Y-58.2
X135.55Y-62.9
T7
X76.0Y-41.0
X136.0Y-41.0
X136.0Y-103.0
M30
